999
FreeCAD v1.0 39285 (Git)
  0
SECTION
  2
HEADER
  9
$ACADVER
  1
AC1014
  9
$ACADMAINTVER
 70
     9
  9
$DWGCODEPAGE
  3
ANSI_1252
  9
$TEXTSTYLE
  7
STANDARD
  9
$DIMSTYLE
  2
STANDARD
  9
$DIMTXSTY
  7
STANDARD
  9
$CMLSTYLE
  2
STANDARD
  9
$LUNITS
 70
2
  9
$INSUNITS
 70
4
  9
$PEXTMAX
 10
50
 20
50
 30
50
  9
$PEXTMIN
 10
0
 20
0
 30
0
  9
$HANDSEED
  5
FFFF
  0
ENDSEC
  0
SECTION
  2
CLASSES
  0
CLASS
  1
ACDBDICTIONARYWDFLT
  2
AcDbDictionaryWithDefault
  3
ObjectDBX Classes
 90
        0
280
     0
281
     0
  0
CLASS
  1
XRECORD
  2
AcDbXrecord
  3
ObjectDBX Classes
 90
        0
280
     0
281
     0
  0
CLASS
  1
LWPOLYLINE
  2
AcDbPolyline
  3
ObjectDBX Classes
 90
        0
280
     0
281
     1
  0
ENDSEC
  0
SECTION
  2
TABLES
  0
TABLE
  2
VPORT
  5
20
330
0
100
AcDbSymbolTable
 70
     1
  0
VPORT
  5
21
330
20
100
AcDbSymbolTableRecord
100
AcDbViewportTableRecord
  2
*ACTIVE
 70
     0
  0
ENDTAB
  0
TABLE
  2
LTYPE
  5
22
330
0
100
AcDbSymbolTable
 70
     1
  0
LTYPE
  5
23
330
21
100
AcDbSymbolTableRecord
100
AcDbLinetypeTableRecord
  2
BYBLOCK
 70
     0
  3

 72
    65
 73
     0
 40
0.0
  0
LTYPE
  5
24
330
21
100
AcDbSymbolTableRecord
100
AcDbLinetypeTableRecord
  2
BYLAYER
 70
     0
  3

 72
    65
 73
     0
 40
0.0
  0
LTYPE
  5
25
330
21
100
AcDbSymbolTableRecord
100
AcDbLinetypeTableRecord
  2
CONTINUOUS
 70
     0
  3
Solid line
 72
    65
 73
     0
 40
0.0
  0
ENDTAB
  0
TABLE
  2
LAYER
  5
A80
330
0
100
AcDbSymbolTable
 70
4
  0
LAYER
  5
A81
330
A80
100
AcDbSymbolTableRecord
100
AcDbLayerTableRecord
  2
0
 70
   0
 62
   7
  6
CONTINUOUS
  0
LAYER
  5
A82
330
A80
100
AcDbSymbolTableRecord
100
AcDbLayerTableRecord
  2
ProjItem
 70
    0
 62
    7
  6
CONTINUOUS
  0
LAYER
  5
A83
330
A80
100
AcDbSymbolTableRecord
100
AcDbLayerTableRecord
  2
ProjItem002
 70
    0
 62
    7
  6
CONTINUOUS
  0
LAYER
  5
A84
330
A80
100
AcDbSymbolTableRecord
100
AcDbLayerTableRecord
  2
ProjItem003
 70
    0
 62
    7
  6
CONTINUOUS
  0
ENDTAB
  0
TABLE
  2
STYLE
  5
70
330
0
100
AcDbSymbolTable
 70
     2
  0
STYLE
  5
71
330
70
100
AcDbSymbolTableRecord
100
AcDbTextStyleTableRecord
  2
STANDARD
 70
     0
 40
0.0
 41
1.0
 50
0.0
 71
     0
 42
2.5
  3
arial.ttf
  4

  0
STYLE
  5
72
330
70
100
AcDbSymbolTableRecord
100
AcDbTextStyleTableRecord
  2
ANNOTATIVE
 70
     0
 40
0.0
 41
1.0
 50
0.0
 71
     0
 42
2.5
  3
arial.ttf
  4

  0
ENDTAB
  0
TABLE
  2
VIEW
  5
73
330
0
100
AcDbSymbolTable
 70
     0
  0
ENDTAB
  0
TABLE
  2
UCS
  5
74
330
0
100
AcDbSymbolTable
 70
     0
  0
ENDTAB
  0
TABLE
  2
APPID
  5
75
330
0
100
AcDbSymbolTable
 70
     2
  0
APPID
  5
76
330
75
100
AcDbSymbolTableRecord
100
AcDbRegAppTableRecord
  2
ACAD
 70
     0
  0
APPID
  5
77
330
75
100
AcDbSymbolTableRecord
100
AcDbRegAppTableRecord
  2
ACADANNOTATIVE
 70
     0
  0
ENDTAB
  0
TABLE
  2
DIMSTYLE
  5
78
330
0
100
AcDbSymbolTable
 70
     2
  0
DIMSTYLE
105
79
330
78
100
AcDbSymbolTableRecord
100
AcDbDimStyleTableRecord
  2
STANDARD
 70
     0
  3

  4

  5

  6

  7

 40
0.0
 41
2.5
 42
0.625
 43
3.75
 44
1.25
 45
0.0
 46
0.0
 47
0.0
 48
0.0
140
2.5
141
2.5
142
0.0
143
0.03937007874016
144
1.0
145
0.0
146
1.0
147
0.625
 71
     0
 72
     0
 73
     0
 74
     0
 75
     0
 76
     0
 77
     1
 78
     8
170
     0
171
     3
172
     1
173
     0
174
     0
175
     0
176
     0
177
     0
178
     0
270
     2
271
     2
272
     2
273
     2
274
     3
340
71
275
     0
280
     0
281
     0
282
     0
283
     0
284
     8
285
     0
286
     0
287
     3
288
     0
  0
ENDTAB
  0
TABLE
  2
BLOCK_RECORD
  5
A01
330
0
100
AcDbSymbolTable
  70
5
  0
BLOCK_RECORD
  5
A02
330
A01
100
AcDbSymbolTableRecord
100
AcDbBlockTableRecord
  2
*MODEL_SPACE
  0
BLOCK_RECORD
  5
A03
330
A01
100
AcDbSymbolTableRecord
100
AcDbBlockTableRecord
  2
*PAPER_SPACE
  0
ENDTAB
  0
ENDSEC
  0
SECTION
  2
BLOCKS
  0
BLOCK
  5
A04
330
A02
100
AcDbEntity
  8
0
100
AcDbBlockBegin
  2
*MODEL_SPACE
 70
   0
 10
0
 20
0
 30
0
  3
*MODEL_SPACE
  1
 
  0
ENDBLK
  5
A05
330
A02
100
AcDbEntity
  8
0
100
AcDbBlockEnd
  0
BLOCK
  5
A06
330
A03
100
AcDbEntity
 67
1
  8
0
100
AcDbBlockBegin
  2
*PAPER_SPACE
 70
   0
 10
0
 20
0
 30
0
  3
*PAPER_SPACE
  1
 
  0
ENDBLK
  5
A07
330
A03
100
AcDbEntity
 67
    1
  8
0
100
AcDbBlockEnd
  0
ENDSEC
  0
SECTION
  2
ENTITIES
  0
LINE
  5
A08
330
A02
100
AcDbEntity
  8
ProjItem
100
AcDbLine
 10
163.500000000
 20
111.000000000
 30
0.000000000
 11
133.500000000
 21
111.000000000
 31
0.000000000
  0
LINE
  5
A09
330
A02
100
AcDbEntity
  8
ProjItem
100
AcDbLine
 10
133.500000000
 20
99.000000000
 30
0.000000000
 11
133.500000000
 21
100.000000000
 31
0.000000000
  0
SPLINE
  5
A0A
330
A02
100
AcDbEntity
  8
ProjItem
100
AcDbSpline
210
0
220
0
230
1
 70
8
 71
3
 72
35
 73
31
 74
0
 40
0.000000000
 40
0.000000000
 40
0.000000000
 40
0.000000000
 40
0.112199738
 40
0.112199738
 40
0.112199738
 40
0.224399475
 40
0.224399475
 40
0.224399475
 40
0.336599213
 40
0.336599213
 40
0.336599213
 40
0.448798951
 40
0.448798951
 40
0.448798951
 40
0.560998688
 40
0.560998688
 40
0.560998688
 40
0.673198426
 40
0.673198426
 40
0.673198426
 40
0.785398163
 40
0.785398163
 40
0.785398163
 40
0.897597901
 40
0.897597901
 40
0.897597901
 40
1.121997376
 40
1.121997376
 40
1.121997376
 40
1.570796327
 40
1.570796327
 40
1.570796327
 40
1.570796327
 10
133.500000000
 20
100.000000000
 30
0.000000000
 10
133.500000000
 20
100.002095930
 30
0.000000000
 10
133.500000000
 20
100.004191860
 30
0.000000000
 10
133.500000000
 20
100.006287790
 30
0.000000000
 10
133.500000000
 20
100.012549223
 30
0.000000000
 10
133.500000000
 20
100.018810655
 30
0.000000000
 10
133.500000000
 20
100.025072088
 30
0.000000000
 10
133.500000000
 20
100.035420282
 30
0.000000000
 10
133.500000000
 20
100.045768476
 30
0.000000000
 10
133.500000000
 20
100.056116670
 30
0.000000000
 10
133.500000000
 20
100.070421490
 30
0.000000000
 10
133.500000000
 20
100.084726311
 30
0.000000000
 10
133.500000000
 20
100.099031132
 30
0.000000000
 10
133.500000000
 20
100.117112688
 30
0.000000000
 10
133.500000000
 20
100.135194245
 30
0.000000000
 10
133.500000000
 20
100.153275801
 30
0.000000000
 10
133.500000000
 20
100.174906706
 30
0.000000000
 10
133.500000000
 20
100.196537612
 30
0.000000000
 10
133.500000000
 20
100.218168518
 30
0.000000000
 10
133.500000000
 20
100.243076751
 30
0.000000000
 10
133.500000000
 20
100.267984985
 30
0.000000000
 10
133.500000000
 20
100.292893219
 30
0.000000000
 10
133.500000000
 20
100.320765545
 30
0.000000000
 10
133.500000000
 20
100.348637872
 30
0.000000000
 10
133.500000000
 20
100.376510198
 30
0.000000000
 10
133.500000000
 20
100.436231233
 30
0.000000000
 10
133.500000000
 20
100.499433254
 30
0.000000000
 10
133.500000000
 20
100.566116261
 30
0.000000000
 10
133.500000000
 20
100.701836753
 30
0.000000000
 10
133.500000000
 20
100.850207115
 30
0.000000000
 10
133.500000000
 20
101.000000000
 30
0.000000000
  0
LINE
  5
A0B
330
A02
100
AcDbEntity
  8
ProjItem
100
AcDbLine
 10
133.500000000
 20
101.000000000
 30
0.000000000
 11
133.500000000
 21
109.000000000
 31
0.000000000
  0
SPLINE
  5
A0C
330
A02
100
AcDbEntity
  8
ProjItem
100
AcDbSpline
210
0
220
0
230
1
 70
8
 71
3
 72
41
 73
37
 74
0
 40
0.000000000
 40
0.000000000
 40
0.000000000
 40
0.000000000
 40
0.336599213
 40
0.336599213
 40
0.336599213
 40
0.448798951
 40
0.448798951
 40
0.448798951
 40
0.560998688
 40
0.560998688
 40
0.560998688
 40
0.673198426
 40
0.673198426
 40
0.673198426
 40
0.785398163
 40
0.785398163
 40
0.785398163
 40
0.897597901
 40
0.897597901
 40
0.897597901
 40
1.009797639
 40
1.009797639
 40
1.009797639
 40
1.121997376
 40
1.121997376
 40
1.121997376
 40
1.234197114
 40
1.234197114
 40
1.234197114
 40
1.346396852
 40
1.346396852
 40
1.346396852
 40
1.458596589
 40
1.458596589
 40
1.458596589
 40
1.570796327
 40
1.570796327
 40
1.570796327
 40
1.570796327
 10
133.500000000
 20
109.000000000
 30
0.000000000
 10
133.500000000
 20
109.224696414
 30
0.000000000
 10
133.500000000
 20
109.447286685
 30
0.000000000
 10
133.500000000
 20
109.660558124
 30
0.000000000
 10
133.500000000
 20
109.729627909
 30
0.000000000
 10
133.500000000
 20
109.798697693
 30
0.000000000
 10
133.500000000
 20
109.867767478
 30
0.000000000
 10
133.500000000
 20
109.933199703
 30
0.000000000
 10
133.500000000
 20
109.998631928
 30
0.000000000
 10
133.500000000
 20
110.064064153
 30
0.000000000
 10
133.500000000
 20
110.125035970
 30
0.000000000
 10
133.500000000
 20
110.186007787
 30
0.000000000
 10
133.500000000
 20
110.246979604
 30
0.000000000
 10
133.500000000
 20
110.302724257
 30
0.000000000
 10
133.500000000
 20
110.358468909
 30
0.000000000
 10
133.500000000
 20
110.414213562
 30
0.000000000
 10
133.500000000
 20
110.464030030
 30
0.000000000
 10
133.500000000
 20
110.513846497
 30
0.000000000
 10
133.500000000
 20
110.563662965
 30
0.000000000
 10
133.500000000
 20
110.606924776
 30
0.000000000
 10
133.500000000
 20
110.650186587
 30
0.000000000
 10
133.500000000
 20
110.693448398
 30
0.000000000
 10
133.500000000
 20
110.729611511
 30
0.000000000
 10
133.500000000
 20
110.765774623
 30
0.000000000
 10
133.500000000
 20
110.801937736
 30
0.000000000
 10
133.500000000
 20
110.830547377
 30
0.000000000
 10
133.500000000
 20
110.859157019
 30
0.000000000
 10
133.500000000
 20
110.887766661
 30
0.000000000
 10
133.500000000
 20
110.908463049
 30
0.000000000
 10
133.500000000
 20
110.929159436
 30
0.000000000
 10
133.500000000
 20
110.949855824
 30
0.000000000
 10
133.500000000
 20
110.962378690
 30
0.000000000
 10
133.500000000
 20
110.974901555
 30
0.000000000
 10
133.500000000
 20
110.987424420
 30
0.000000000
 10
133.500000000
 20
110.991616280
 30
0.000000000
 10
133.500000000
 20
110.995808140
 30
0.000000000
 10
133.500000000
 20
111.000000000
 30
0.000000000
  0
SPLINE
  5
A0D
330
A02
100
AcDbEntity
  8
ProjItem
100
AcDbSpline
210
0
220
0
230
1
 70
8
 71
3
 72
41
 73
37
 74
0
 40
0.000000000
 40
0.000000000
 40
0.000000000
 40
0.000000000
 40
0.336599213
 40
0.336599213
 40
0.336599213
 40
0.448798951
 40
0.448798951
 40
0.448798951
 40
0.560998688
 40
0.560998688
 40
0.560998688
 40
0.673198426
 40
0.673198426
 40
0.673198426
 40
0.785398163
 40
0.785398163
 40
0.785398163
 40
0.897597901
 40
0.897597901
 40
0.897597901
 40
1.009797639
 40
1.009797639
 40
1.009797639
 40
1.121997376
 40
1.121997376
 40
1.121997376
 40
1.234197114
 40
1.234197114
 40
1.234197114
 40
1.346396852
 40
1.346396852
 40
1.346396852
 40
1.458596589
 40
1.458596589
 40
1.458596589
 40
1.570796327
 40
1.570796327
 40
1.570796327
 40
1.570796327
 10
163.500000000
 20
109.000000000
 30
0.000000000
 10
163.500000000
 20
109.224696414
 30
0.000000000
 10
163.500000000
 20
109.447286685
 30
0.000000000
 10
163.500000000
 20
109.660558124
 30
0.000000000
 10
163.500000000
 20
109.729627909
 30
0.000000000
 10
163.500000000
 20
109.798697693
 30
0.000000000
 10
163.500000000
 20
109.867767478
 30
0.000000000
 10
163.500000000
 20
109.933199703
 30
0.000000000
 10
163.500000000
 20
109.998631928
 30
0.000000000
 10
163.500000000
 20
110.064064153
 30
0.000000000
 10
163.500000000
 20
110.125035970
 30
0.000000000
 10
163.500000000
 20
110.186007787
 30
0.000000000
 10
163.500000000
 20
110.246979604
 30
0.000000000
 10
163.500000000
 20
110.302724257
 30
0.000000000
 10
163.500000000
 20
110.358468909
 30
0.000000000
 10
163.500000000
 20
110.414213562
 30
0.000000000
 10
163.500000000
 20
110.464030030
 30
0.000000000
 10
163.500000000
 20
110.513846497
 30
0.000000000
 10
163.500000000
 20
110.563662965
 30
0.000000000
 10
163.500000000
 20
110.606924776
 30
0.000000000
 10
163.500000000
 20
110.650186587
 30
0.000000000
 10
163.500000000
 20
110.693448398
 30
0.000000000
 10
163.500000000
 20
110.729611511
 30
0.000000000
 10
163.500000000
 20
110.765774623
 30
0.000000000
 10
163.500000000
 20
110.801937736
 30
0.000000000
 10
163.500000000
 20
110.830547377
 30
0.000000000
 10
163.500000000
 20
110.859157019
 30
0.000000000
 10
163.500000000
 20
110.887766661
 30
0.000000000
 10
163.500000000
 20
110.908463049
 30
0.000000000
 10
163.500000000
 20
110.929159436
 30
0.000000000
 10
163.500000000
 20
110.949855824
 30
0.000000000
 10
163.500000000
 20
110.962378690
 30
0.000000000
 10
163.500000000
 20
110.974901555
 30
0.000000000
 10
163.500000000
 20
110.987424420
 30
0.000000000
 10
163.500000000
 20
110.991616280
 30
0.000000000
 10
163.500000000
 20
110.995808140
 30
0.000000000
 10
163.500000000
 20
111.000000000
 30
0.000000000
  0
LINE
  5
A0E
330
A02
100
AcDbEntity
  8
ProjItem
100
AcDbLine
 10
163.500000000
 20
109.000000000
 30
0.000000000
 11
163.500000000
 21
101.000000000
 31
0.000000000
  0
SPLINE
  5
A0F
330
A02
100
AcDbEntity
  8
ProjItem
100
AcDbSpline
210
0
220
0
230
1
 70
8
 71
3
 72
35
 73
31
 74
0
 40
0.000000000
 40
0.000000000
 40
0.000000000
 40
0.000000000
 40
0.112199738
 40
0.112199738
 40
0.112199738
 40
0.224399475
 40
0.224399475
 40
0.224399475
 40
0.336599213
 40
0.336599213
 40
0.336599213
 40
0.448798951
 40
0.448798951
 40
0.448798951
 40
0.560998688
 40
0.560998688
 40
0.560998688
 40
0.673198426
 40
0.673198426
 40
0.673198426
 40
0.785398163
 40
0.785398163
 40
0.785398163
 40
0.897597901
 40
0.897597901
 40
0.897597901
 40
1.121997376
 40
1.121997376
 40
1.121997376
 40
1.570796327
 40
1.570796327
 40
1.570796327
 40
1.570796327
 10
163.500000000
 20
100.000000000
 30
0.000000000
 10
163.500000000
 20
100.002095930
 30
0.000000000
 10
163.500000000
 20
100.004191860
 30
0.000000000
 10
163.500000000
 20
100.006287790
 30
0.000000000
 10
163.500000000
 20
100.012549223
 30
0.000000000
 10
163.500000000
 20
100.018810655
 30
0.000000000
 10
163.500000000
 20
100.025072088
 30
0.000000000
 10
163.500000000
 20
100.035420282
 30
0.000000000
 10
163.500000000
 20
100.045768476
 30
0.000000000
 10
163.500000000
 20
100.056116670
 30
0.000000000
 10
163.500000000
 20
100.070421490
 30
0.000000000
 10
163.500000000
 20
100.084726311
 30
0.000000000
 10
163.500000000
 20
100.099031132
 30
0.000000000
 10
163.500000000
 20
100.117112688
 30
0.000000000
 10
163.500000000
 20
100.135194245
 30
0.000000000
 10
163.500000000
 20
100.153275801
 30
0.000000000
 10
163.500000000
 20
100.174906706
 30
0.000000000
 10
163.500000000
 20
100.196537612
 30
0.000000000
 10
163.500000000
 20
100.218168518
 30
0.000000000
 10
163.500000000
 20
100.243076751
 30
0.000000000
 10
163.500000000
 20
100.267984985
 30
0.000000000
 10
163.500000000
 20
100.292893219
 30
0.000000000
 10
163.500000000
 20
100.320765545
 30
0.000000000
 10
163.500000000
 20
100.348637872
 30
0.000000000
 10
163.500000000
 20
100.376510198
 30
0.000000000
 10
163.500000000
 20
100.436231233
 30
0.000000000
 10
163.500000000
 20
100.499433254
 30
0.000000000
 10
163.500000000
 20
100.566116261
 30
0.000000000
 10
163.500000000
 20
100.701836753
 30
0.000000000
 10
163.500000000
 20
100.850207115
 30
0.000000000
 10
163.500000000
 20
101.000000000
 30
0.000000000
  0
LINE
  5
A10
330
A02
100
AcDbEntity
  8
ProjItem
100
AcDbLine
 10
163.500000000
 20
99.000000000
 30
0.000000000
 11
163.500000000
 21
100.000000000
 31
0.000000000
  0
LINE
  5
A11
330
A02
100
AcDbEntity
  8
ProjItem
100
AcDbLine
 10
133.500000000
 20
109.000000000
 30
0.000000000
 11
163.500000000
 21
109.000000000
 31
0.000000000
  0
LINE
  5
A12
330
A02
100
AcDbEntity
  8
ProjItem
100
AcDbLine
 10
133.500000000
 20
99.000000000
 30
0.000000000
 11
163.500000000
 21
99.000000000
 31
0.000000000
  0
LINE
  5
A13
330
A02
100
AcDbEntity
  8
ProjItem
100
AcDbLine
 10
133.500000000
 20
100.000000000
 30
0.000000000
 11
163.500000000
 21
100.000000000
 31
0.000000000
  0
LINE
  5
A14
330
A02
100
AcDbEntity
  8
ProjItem
100
AcDbLine
 10
133.500000000
 20
101.000000000
 30
0.000000000
 11
163.500000000
 21
101.000000000
 31
0.000000000
  0
LINE
  5
A15
330
A02
100
AcDbEntity
  8
ProjItem
100
AcDbLine
 10
133.500000000
 20
111.000000000
 30
0.000000000
 11
158.500000000
 21
111.000000000
 31
0.000000000
  0
LINE
  5
A16
330
A02
100
AcDbEntity
  8
ProjItem
100
AcDbLine
 10
158.500000000
 20
111.000000000
 30
0.000000000
 11
163.500000000
 21
111.000000000
 31
0.000000000
  0
SPLINE
  5
A17
330
A02
100
AcDbEntity
  8
ProjItem
100
AcDbSpline
210
0
220
0
230
1
 70
8
 71
1
 72
17
 73
15
 74
0
 40
0.000000000
 40
0.000000000
 40
0.224399475
 40
0.448798951
 40
0.673198426
 40
0.897597901
 40
1.121997376
 40
1.346396852
 40
1.570796327
 40
1.795195802
 40
2.019595277
 40
2.243994753
 40
2.468394228
 40
2.692793703
 40
2.917193178
 40
3.141592654
 40
3.141592654
 10
150.244840000
 20
111.000000000
 30
0.000000000
 10
150.201093218
 20
111.000000000
 30
0.000000000
 10
150.072046519
 20
111.000000000
 30
0.000000000
 10
149.864170844
 20
111.000000000
 30
0.000000000
 10
149.587889946
 20
111.000000000
 30
0.000000000
 10
149.257057703
 20
111.000000000
 30
0.000000000
 10
148.888263426
 20
111.000000000
 30
0.000000000
 10
148.500000000
 20
111.000000000
 30
0.000000000
 10
148.111736574
 20
111.000000000
 30
0.000000000
 10
147.742942297
 20
111.000000000
 30
0.000000000
 10
147.412110054
 20
111.000000000
 30
0.000000000
 10
147.135829156
 20
111.000000000
 30
0.000000000
 10
146.927953481
 20
111.000000000
 30
0.000000000
 10
146.798906782
 20
111.000000000
 30
0.000000000
 10
146.755160000
 20
111.000000000
 30
0.000000000
  0
SPLINE
  5
A18
330
A02
100
AcDbEntity
  8
ProjItem
100
AcDbSpline
210
0
220
0
230
1
 70
8
 71
1
 72
17
 73
15
 74
0
 40
3.141592654
 40
3.141592654
 40
3.365992129
 40
3.590391604
 40
3.814791079
 40
4.039190555
 40
4.263590030
 40
4.487989505
 40
4.712388980
 40
4.936788456
 40
5.161187931
 40
5.385587406
 40
5.609986881
 40
5.834386357
 40
6.058785832
 40
6.283185307
 40
6.283185307
 10
146.755160000
 20
111.000000000
 30
0.000000000
 10
146.798906782
 20
111.000000000
 30
0.000000000
 10
146.927953481
 20
111.000000000
 30
0.000000000
 10
147.135829156
 20
111.000000000
 30
0.000000000
 10
147.412110054
 20
111.000000000
 30
0.000000000
 10
147.742942297
 20
111.000000000
 30
0.000000000
 10
148.111736574
 20
111.000000000
 30
0.000000000
 10
148.500000000
 20
111.000000000
 30
0.000000000
 10
148.888263426
 20
111.000000000
 30
0.000000000
 10
149.257057703
 20
111.000000000
 30
0.000000000
 10
149.587889946
 20
111.000000000
 30
0.000000000
 10
149.864170844
 20
111.000000000
 30
0.000000000
 10
150.072046519
 20
111.000000000
 30
0.000000000
 10
150.201093218
 20
111.000000000
 30
0.000000000
 10
150.244840000
 20
111.000000000
 30
0.000000000
  0
LINE
  5
A19
330
A02
100
AcDbEntity
  8
ProjItem
100
AcDbLine
 10
158.500000000
 20
111.000000000
 30
0.000000000
 11
158.500000000
 21
110.000000000
 31
0.000000000
  0
LINE
  5
A1A
330
A02
100
AcDbEntity
  8
ProjItem
100
AcDbLine
 10
133.500000000
 20
111.000000000
 30
0.000000000
 11
133.500000000
 21
110.000000000
 31
0.000000000
  0
LINE
  5
A1B
330
A02
100
AcDbEntity
  8
ProjItem
100
AcDbLine
 10
133.500000000
 20
110.000000000
 30
0.000000000
 11
158.500000000
 21
110.000000000
 31
0.000000000
  0
LINE
  5
A1C
330
A02
100
AcDbEntity
  8
ProjItem
100
AcDbLine
 10
163.500000000
 20
111.000000000
 30
0.000000000
 11
163.500000000
 21
110.000000000
 31
0.000000000
  0
LINE
  5
A1D
330
A02
100
AcDbEntity
  8
ProjItem
100
AcDbLine
 10
158.500000000
 20
110.000000000
 30
0.000000000
 11
163.500000000
 21
110.000000000
 31
0.000000000
  0
SPLINE
  5
A1E
330
A02
100
AcDbEntity
  8
ProjItem
100
AcDbSpline
210
0
220
0
230
1
 70
8
 71
2
 72
24
 73
21
 74
0
 40
0.000000000
 40
0.000000000
 40
0.000000000
 40
0.336599213
 40
0.336599213
 40
0.560998688
 40
0.560998688
 40
0.785398163
 40
0.785398163
 40
0.897597901
 40
0.897597901
 40
1.009797639
 40
1.009797639
 40
1.121997376
 40
1.121997376
 40
1.234197114
 40
1.234197114
 40
1.346396852
 40
1.346396852
 40
1.458596589
 40
1.458596589
 40
1.570796327
 40
1.570796327
 40
1.570796327
 10
133.500000000
 20
109.000000000
 30
0.000000000
 10
133.500000000
 20
109.169423897
 30
0.000000000
 10
133.500000000
 20
109.330279062
 30
0.000000000
 10
133.500000000
 20
109.435413799
 30
0.000000000
 10
133.500000000
 20
109.532032077
 30
0.000000000
 10
133.500000000
 20
109.625688494
 30
0.000000000
 10
133.500000000
 20
109.707106781
 30
0.000000000
 10
133.500000000
 20
109.744469132
 30
0.000000000
 10
133.500000000
 20
109.781831482
 30
0.000000000
 10
133.500000000
 20
109.814277841
 30
0.000000000
 10
133.500000000
 20
109.846724199
 30
0.000000000
 10
133.500000000
 20
109.873846534
 30
0.000000000
 10
133.500000000
 20
109.900968868
 30
0.000000000
 10
133.500000000
 20
109.922426099
 30
0.000000000
 10
133.500000000
 20
109.943883330
 30
0.000000000
 10
133.500000000
 20
109.959405621
 30
0.000000000
 10
133.500000000
 20
109.974927912
 30
0.000000000
 10
133.500000000
 20
109.984320061
 30
0.000000000
 10
133.500000000
 20
109.993712210
 30
0.000000000
 10
133.500000000
 20
109.996856105
 30
0.000000000
 10
133.500000000
 20
110.000000000
 30
0.000000000
  0
LINE
  5
A1F
330
A02
100
AcDbEntity
  8
ProjItem
100
AcDbLine
 10
133.500000000
 20
101.000000000
 30
0.000000000
 11
133.500000000
 21
109.000000000
 31
0.000000000
  0
SPLINE
  5
A20
330
A02
100
AcDbEntity
  8
ProjItem
100
AcDbSpline
210
0
220
0
230
1
 70
8
 71
2
 72
30
 73
27
 74
0
 40
0.000000000
 40
0.000000000
 40
0.000000000
 40
0.112199738
 40
0.112199738
 40
0.224399475
 40
0.224399475
 40
0.336599213
 40
0.336599213
 40
0.448798951
 40
0.448798951
 40
0.560998688
 40
0.560998688
 40
0.673198426
 40
0.673198426
 40
0.785398163
 40
0.785398163
 40
0.897597901
 40
0.897597901
 40
1.009797639
 40
1.009797639
 40
1.121997376
 40
1.121997376
 40
1.234197114
 40
1.234197114
 40
1.346396852
 40
1.346396852
 40
1.570796327
 40
1.570796327
 40
1.570796327
 10
133.500000000
 20
99.000000000
 30
0.000000000
 10
133.500000000
 20
99.006287790
 30
0.000000000
 10
133.500000000
 20
99.012575580
 30
0.000000000
 10
133.500000000
 20
99.031359878
 30
0.000000000
 10
133.500000000
 20
99.050144176
 30
0.000000000
 10
133.500000000
 20
99.081188758
 30
0.000000000
 10
133.500000000
 20
99.112233339
 30
0.000000000
 10
133.500000000
 20
99.155147802
 30
0.000000000
 10
133.500000000
 20
99.198062264
 30
0.000000000
 10
133.500000000
 20
99.252306933
 30
0.000000000
 10
133.500000000
 20
99.306551602
 30
0.000000000
 10
133.500000000
 20
99.371444318
 30
0.000000000
 10
133.500000000
 20
99.436337035
 30
0.000000000
 10
133.500000000
 20
99.511061736
 30
0.000000000
 10
133.500000000
 20
99.585786438
 30
0.000000000
 10
133.500000000
 20
99.669403417
 30
0.000000000
 10
133.500000000
 20
99.753020396
 30
0.000000000
 10
133.500000000
 20
99.844478122
 30
0.000000000
 10
133.500000000
 20
99.935935847
 30
0.000000000
 10
133.500000000
 20
100.034084184
 30
0.000000000
 10
133.500000000
 20
100.132232522
 30
0.000000000
 10
133.500000000
 20
100.235837199
 30
0.000000000
 10
133.500000000
 20
100.339441876
 30
0.000000000
 10
133.500000000
 20
100.447200004
 30
0.000000000
 10
133.500000000
 20
100.554958132
 30
0.000000000
 10
133.500000000
 20
100.775281378
 30
0.000000000
 10
133.500000000
 20
101.000000000
 30
0.000000000
  0
SPLINE
  5
A21
330
A02
100
AcDbEntity
  8
ProjItem
100
AcDbSpline
210
0
220
0
230
1
 70
8
 71
2
 72
30
 73
27
 74
0
 40
0.000000000
 40
0.000000000
 40
0.000000000
 40
0.112199738
 40
0.112199738
 40
0.224399475
 40
0.224399475
 40
0.336599213
 40
0.336599213
 40
0.448798951
 40
0.448798951
 40
0.560998688
 40
0.560998688
 40
0.673198426
 40
0.673198426
 40
0.785398163
 40
0.785398163
 40
0.897597901
 40
0.897597901
 40
1.009797639
 40
1.009797639
 40
1.121997376
 40
1.121997376
 40
1.234197114
 40
1.234197114
 40
1.346396852
 40
1.346396852
 40
1.570796327
 40
1.570796327
 40
1.570796327
 10
163.500000000
 20
99.000000000
 30
0.000000000
 10
163.500000000
 20
99.006287790
 30
0.000000000
 10
163.500000000
 20
99.012575580
 30
0.000000000
 10
163.500000000
 20
99.031359878
 30
0.000000000
 10
163.500000000
 20
99.050144176
 30
0.000000000
 10
163.500000000
 20
99.081188758
 30
0.000000000
 10
163.500000000
 20
99.112233339
 30
0.000000000
 10
163.500000000
 20
99.155147802
 30
0.000000000
 10
163.500000000
 20
99.198062264
 30
0.000000000
 10
163.500000000
 20
99.252306933
 30
0.000000000
 10
163.500000000
 20
99.306551602
 30
0.000000000
 10
163.500000000
 20
99.371444318
 30
0.000000000
 10
163.500000000
 20
99.436337035
 30
0.000000000
 10
163.500000000
 20
99.511061736
 30
0.000000000
 10
163.500000000
 20
99.585786438
 30
0.000000000
 10
163.500000000
 20
99.669403417
 30
0.000000000
 10
163.500000000
 20
99.753020396
 30
0.000000000
 10
163.500000000
 20
99.844478122
 30
0.000000000
 10
163.500000000
 20
99.935935847
 30
0.000000000
 10
163.500000000
 20
100.034084184
 30
0.000000000
 10
163.500000000
 20
100.132232522
 30
0.000000000
 10
163.500000000
 20
100.235837199
 30
0.000000000
 10
163.500000000
 20
100.339441876
 30
0.000000000
 10
163.500000000
 20
100.447200004
 30
0.000000000
 10
163.500000000
 20
100.554958132
 30
0.000000000
 10
163.500000000
 20
100.775281378
 30
0.000000000
 10
163.500000000
 20
101.000000000
 30
0.000000000
  0
LINE
  5
A22
330
A02
100
AcDbEntity
  8
ProjItem
100
AcDbLine
 10
163.500000000
 20
109.000000000
 30
0.000000000
 11
163.500000000
 21
101.000000000
 31
0.000000000
  0
SPLINE
  5
A23
330
A02
100
AcDbEntity
  8
ProjItem
100
AcDbSpline
210
0
220
0
230
1
 70
8
 71
2
 72
24
 73
21
 74
0
 40
0.000000000
 40
0.000000000
 40
0.000000000
 40
0.336599213
 40
0.336599213
 40
0.560998688
 40
0.560998688
 40
0.785398163
 40
0.785398163
 40
0.897597901
 40
0.897597901
 40
1.009797639
 40
1.009797639
 40
1.121997376
 40
1.121997376
 40
1.234197114
 40
1.234197114
 40
1.346396852
 40
1.346396852
 40
1.458596589
 40
1.458596589
 40
1.570796327
 40
1.570796327
 40
1.570796327
 10
163.500000000
 20
109.000000000
 30
0.000000000
 10
163.500000000
 20
109.169423897
 30
0.000000000
 10
163.500000000
 20
109.330279062
 30
0.000000000
 10
163.500000000
 20
109.435413799
 30
0.000000000
 10
163.500000000
 20
109.532032077
 30
0.000000000
 10
163.500000000
 20
109.625688494
 30
0.000000000
 10
163.500000000
 20
109.707106781
 30
0.000000000
 10
163.500000000
 20
109.744469132
 30
0.000000000
 10
163.500000000
 20
109.781831482
 30
0.000000000
 10
163.500000000
 20
109.814277841
 30
0.000000000
 10
163.500000000
 20
109.846724199
 30
0.000000000
 10
163.500000000
 20
109.873846534
 30
0.000000000
 10
163.500000000
 20
109.900968868
 30
0.000000000
 10
163.500000000
 20
109.922426099
 30
0.000000000
 10
163.500000000
 20
109.943883330
 30
0.000000000
 10
163.500000000
 20
109.959405621
 30
0.000000000
 10
163.500000000
 20
109.974927912
 30
0.000000000
 10
163.500000000
 20
109.984320061
 30
0.000000000
 10
163.500000000
 20
109.993712210
 30
0.000000000
 10
163.500000000
 20
109.996856105
 30
0.000000000
 10
163.500000000
 20
110.000000000
 30
0.000000000
  0
LINE
  5
A24
330
A02
100
AcDbEntity
  8
ProjItem
100
AcDbLine
 10
150.244840000
 20
111.000000000
 30
0.000000000
 11
150.244840000
 21
110.000000000
 31
0.000000000
  0
SPLINE
  5
A25
330
A02
100
AcDbEntity
  8
ProjItem
100
AcDbSpline
210
0
220
0
230
1
 70
8
 71
1
 72
17
 73
15
 74
0
 40
0.000000000
 40
0.000000000
 40
0.224399475
 40
0.448798951
 40
0.673198426
 40
0.897597901
 40
1.121997376
 40
1.346396852
 40
1.570796327
 40
1.795195802
 40
2.019595277
 40
2.243994753
 40
2.468394228
 40
2.692793703
 40
2.917193178
 40
3.141592654
 40
3.141592654
 10
150.244840000
 20
110.000000000
 30
0.000000000
 10
150.201093218
 20
110.000000000
 30
0.000000000
 10
150.072046519
 20
110.000000000
 30
0.000000000
 10
149.864170844
 20
110.000000000
 30
0.000000000
 10
149.587889946
 20
110.000000000
 30
0.000000000
 10
149.257057703
 20
110.000000000
 30
0.000000000
 10
148.888263426
 20
110.000000000
 30
0.000000000
 10
148.500000000
 20
110.000000000
 30
0.000000000
 10
148.111736574
 20
110.000000000
 30
0.000000000
 10
147.742942297
 20
110.000000000
 30
0.000000000
 10
147.412110054
 20
110.000000000
 30
0.000000000
 10
147.135829156
 20
110.000000000
 30
0.000000000
 10
146.927953481
 20
110.000000000
 30
0.000000000
 10
146.798906782
 20
110.000000000
 30
0.000000000
 10
146.755160000
 20
110.000000000
 30
0.000000000
  0
SPLINE
  5
A26
330
A02
100
AcDbEntity
  8
ProjItem
100
AcDbSpline
210
0
220
0
230
1
 70
8
 71
1
 72
17
 73
15
 74
0
 40
3.141592654
 40
3.141592654
 40
3.365992129
 40
3.590391604
 40
3.814791079
 40
4.039190555
 40
4.263590030
 40
4.487989505
 40
4.712388980
 40
4.936788456
 40
5.161187931
 40
5.385587406
 40
5.609986881
 40
5.834386357
 40
6.058785832
 40
6.283185307
 40
6.283185307
 10
146.755160000
 20
110.000000000
 30
0.000000000
 10
146.798906782
 20
110.000000000
 30
0.000000000
 10
146.927953481
 20
110.000000000
 30
0.000000000
 10
147.135829156
 20
110.000000000
 30
0.000000000
 10
147.412110054
 20
110.000000000
 30
0.000000000
 10
147.742942297
 20
110.000000000
 30
0.000000000
 10
148.111736574
 20
110.000000000
 30
0.000000000
 10
148.500000000
 20
110.000000000
 30
0.000000000
 10
148.888263426
 20
110.000000000
 30
0.000000000
 10
149.257057703
 20
110.000000000
 30
0.000000000
 10
149.587889946
 20
110.000000000
 30
0.000000000
 10
149.864170844
 20
110.000000000
 30
0.000000000
 10
150.072046519
 20
110.000000000
 30
0.000000000
 10
150.201093218
 20
110.000000000
 30
0.000000000
 10
150.244840000
 20
110.000000000
 30
0.000000000
  0
LINE
  5
A27
330
A02
100
AcDbEntity
  8
ProjItem
100
AcDbLine
 10
133.500000000
 20
110.000000000
 30
0.000000000
 11
163.500000000
 21
110.000000000
 31
0.000000000
  0
LINE
  5
A28
330
A02
100
AcDbEntity
  8
ProjItem
100
AcDbLine
 10
133.500000000
 20
109.000000000
 30
0.000000000
 11
163.500000000
 21
109.000000000
 31
0.000000000
  0
LINE
  5
A29
330
A02
100
AcDbEntity
  8
ProjItem
100
AcDbLine
 10
163.500000000
 20
101.000000000
 30
0.000000000
 11
133.500000000
 21
101.000000000
 31
0.000000000
  0
LINE
  5
A2A
330
A02
100
AcDbEntity
  8
ProjItem
100
AcDbLine
 10
133.500000000
 20
99.000000000
 30
0.000000000
 11
163.500000000
 21
99.000000000
 31
0.000000000
  0
SPLINE
  5
A2B
330
A02
100
AcDbEntity
  8
ProjItem
100
AcDbSpline
210
0
220
0
230
1
 70
8
 71
1
 72
17
 73
15
 74
0
 40
0.000000000
 40
0.000000000
 40
0.224399475
 40
0.448798951
 40
0.673198426
 40
0.897597901
 40
1.121997376
 40
1.346396852
 40
1.570796327
 40
1.795195802
 40
2.019595277
 40
2.243994753
 40
2.468394228
 40
2.692793703
 40
2.917193178
 40
3.141592654
 40
3.141592654
 10
150.994603000
 20
99.000000000
 30
0.000000000
 10
150.932058095
 20
99.000000000
 30
0.000000000
 10
150.747559641
 20
99.000000000
 30
0.000000000
 10
150.450359162
 20
99.000000000
 30
0.000000000
 10
150.055359530
 20
99.000000000
 30
0.000000000
 10
149.582367677
 20
99.000000000
 30
0.000000000
 10
149.055101389
 20
99.000000000
 30
0.000000000
 10
148.500000000
 20
99.000000000
 30
0.000000000
 10
147.944898611
 20
99.000000000
 30
0.000000000
 10
147.417632323
 20
99.000000000
 30
0.000000000
 10
146.944640470
 20
99.000000000
 30
0.000000000
 10
146.549640838
 20
99.000000000
 30
0.000000000
 10
146.252440359
 20
99.000000000
 30
0.000000000
 10
146.067941905
 20
99.000000000
 30
0.000000000
 10
146.005397000
 20
99.000000000
 30
0.000000000
  0
SPLINE
  5
A2C
330
A02
100
AcDbEntity
  8
ProjItem
100
AcDbSpline
210
0
220
0
230
1
 70
8
 71
1
 72
17
 73
15
 74
0
 40
3.141592654
 40
3.141592654
 40
3.365992129
 40
3.590391604
 40
3.814791079
 40
4.039190555
 40
4.263590030
 40
4.487989505
 40
4.712388980
 40
4.936788456
 40
5.161187931
 40
5.385587406
 40
5.609986881
 40
5.834386357
 40
6.058785832
 40
6.283185307
 40
6.283185307
 10
146.005397000
 20
99.000000000
 30
0.000000000
 10
146.067941905
 20
99.000000000
 30
0.000000000
 10
146.252440359
 20
99.000000000
 30
0.000000000
 10
146.549640838
 20
99.000000000
 30
0.000000000
 10
146.944640470
 20
99.000000000
 30
0.000000000
 10
147.417632323
 20
99.000000000
 30
0.000000000
 10
147.944898611
 20
99.000000000
 30
0.000000000
 10
148.500000000
 20
99.000000000
 30
0.000000000
 10
149.055101389
 20
99.000000000
 30
0.000000000
 10
149.582367677
 20
99.000000000
 30
0.000000000
 10
150.055359530
 20
99.000000000
 30
0.000000000
 10
150.450359162
 20
99.000000000
 30
0.000000000
 10
150.747559641
 20
99.000000000
 30
0.000000000
 10
150.932058095
 20
99.000000000
 30
0.000000000
 10
150.994603000
 20
99.000000000
 30
0.000000000
  0
LINE
  5
A2D
330
A02
100
AcDbEntity
  8
ProjItem
100
AcDbLine
 10
133.500000000
 20
100.000000000
 30
0.000000000
 11
163.500000000
 21
100.000000000
 31
0.000000000
  0
SPLINE
  5
A2E
330
A02
100
AcDbEntity
  8
ProjItem
100
AcDbSpline
210
0
220
0
230
1
 70
8
 71
1
 72
17
 73
15
 74
0
 40
0.000000000
 40
0.000000000
 40
0.224399475
 40
0.448798951
 40
0.673198426
 40
0.897597901
 40
1.121997376
 40
1.346396852
 40
1.570796327
 40
1.795195802
 40
2.019595277
 40
2.243994753
 40
2.468394228
 40
2.692793703
 40
2.917193178
 40
3.141592654
 40
3.141592654
 10
150.994603000
 20
100.000000000
 30
0.000000000
 10
150.932058095
 20
100.000000000
 30
0.000000000
 10
150.747559641
 20
100.000000000
 30
0.000000000
 10
150.450359162
 20
100.000000000
 30
0.000000000
 10
150.055359530
 20
100.000000000
 30
0.000000000
 10
149.582367677
 20
100.000000000
 30
0.000000000
 10
149.055101389
 20
100.000000000
 30
0.000000000
 10
148.500000000
 20
100.000000000
 30
0.000000000
 10
147.944898611
 20
100.000000000
 30
0.000000000
 10
147.417632323
 20
100.000000000
 30
0.000000000
 10
146.944640470
 20
100.000000000
 30
0.000000000
 10
146.549640838
 20
100.000000000
 30
0.000000000
 10
146.252440359
 20
100.000000000
 30
0.000000000
 10
146.067941905
 20
100.000000000
 30
0.000000000
 10
146.005397000
 20
100.000000000
 30
0.000000000
  0
SPLINE
  5
A2F
330
A02
100
AcDbEntity
  8
ProjItem
100
AcDbSpline
210
0
220
0
230
1
 70
8
 71
1
 72
17
 73
15
 74
0
 40
3.141592654
 40
3.141592654
 40
3.365992129
 40
3.590391604
 40
3.814791079
 40
4.039190555
 40
4.263590030
 40
4.487989505
 40
4.712388980
 40
4.936788456
 40
5.161187931
 40
5.385587406
 40
5.609986881
 40
5.834386357
 40
6.058785832
 40
6.283185307
 40
6.283185307
 10
146.005397000
 20
100.000000000
 30
0.000000000
 10
146.067941905
 20
100.000000000
 30
0.000000000
 10
146.252440359
 20
100.000000000
 30
0.000000000
 10
146.549640838
 20
100.000000000
 30
0.000000000
 10
146.944640470
 20
100.000000000
 30
0.000000000
 10
147.417632323
 20
100.000000000
 30
0.000000000
 10
147.944898611
 20
100.000000000
 30
0.000000000
 10
148.500000000
 20
100.000000000
 30
0.000000000
 10
149.055101389
 20
100.000000000
 30
0.000000000
 10
149.582367677
 20
100.000000000
 30
0.000000000
 10
150.055359530
 20
100.000000000
 30
0.000000000
 10
150.450359162
 20
100.000000000
 30
0.000000000
 10
150.747559641
 20
100.000000000
 30
0.000000000
 10
150.932058095
 20
100.000000000
 30
0.000000000
 10
150.994603000
 20
100.000000000
 30
0.000000000
  0
LINE
  5
A30
330
A02
100
AcDbEntity
  8
ProjItem
100
AcDbLine
 10
150.994603000
 20
100.000000000
 30
0.000000000
 11
150.994603000
 21
99.000000000
 31
0.000000000
  0
LINE
  5
A31
330
A02
100
AcDbEntity
  8
ProjItem
100
AcDbLine
 10
146.755160000
 20
110.000000000
 30
0.000000000
 11
146.755160000
 21
111.000000000
 31
0.000000000
  0
LINE
  5
A32
330
A02
100
AcDbEntity
  8
ProjItem
100
AcDbLine
 10
146.005397000
 20
99.000000000
 30
0.000000000
 11
146.005397000
 21
100.000000000
 31
0.000000000
  0
LINE
  5
A33
330
A02
100
AcDbEntity
  8
ProjItem002
100
AcDbLine
 10
188.500000100
 20
111.000000000
 30
0.000000000
 11
178.500000100
 21
111.000000000
 31
0.000000000
  0
LINE
  5
A34
330
A02
100
AcDbEntity
  8
ProjItem002
100
AcDbLine
 10
178.500000100
 20
111.000000000
 30
0.000000000
 11
178.500000100
 21
110.000000000
 31
0.000000000
  0
LINE
  5
A35
330
A02
100
AcDbEntity
  8
ProjItem002
100
AcDbLine
 10
188.500000100
 20
110.000000000
 30
0.000000000
 11
178.500000100
 21
110.000000000
 31
0.000000000
  0
ARC
  5
A36
330
A02
100
AcDbEntity
  8
ProjItem002
100
AcDbCircle
 10
188.500000100
 20
109.000000000
 30
0.000000000
 40
1.000000000
100
AcDbArc
 50
0.000000000
 51
90.000000000
  0
LINE
  5
A37
330
A02
100
AcDbEntity
  8
ProjItem002
100
AcDbLine
 10
189.500000100
 20
101.000000000
 30
0.000000000
 11
189.500000100
 21
109.000000000
 31
0.000000000
  0
ARC
  5
A38
330
A02
100
AcDbEntity
  8
ProjItem002
100
AcDbCircle
 10
191.500000100
 20
101.000000000
 30
0.000000000
 40
2.000000000
100
AcDbArc
 50
180.000000000
 51
-90.000000000
  0
LINE
  5
A39
330
A02
100
AcDbEntity
  8
ProjItem002
100
AcDbLine
 10
209.500000100
 20
99.000000000
 30
0.000000000
 11
191.500000100
 21
99.000000000
 31
0.000000000
  0
LINE
  5
A3A
330
A02
100
AcDbEntity
  8
ProjItem002
100
AcDbLine
 10
209.500000100
 20
99.000000000
 30
0.000000000
 11
209.500000100
 21
100.000000000
 31
0.000000000
  0
LINE
  5
A3B
330
A02
100
AcDbEntity
  8
ProjItem002
100
AcDbLine
 10
209.500000100
 20
100.000000000
 30
0.000000000
 11
191.500000100
 21
100.000000000
 31
0.000000000
  0
ARC
  5
A3C
330
A02
100
AcDbEntity
  8
ProjItem002
100
AcDbCircle
 10
191.500000100
 20
101.000000000
 30
0.000000000
 40
1.000000000
100
AcDbArc
 50
180.000000000
 51
-90.000000000
  0
LINE
  5
A3D
330
A02
100
AcDbEntity
  8
ProjItem002
100
AcDbLine
 10
190.500000100
 20
101.000000000
 30
0.000000000
 11
190.500000100
 21
109.000000000
 31
0.000000000
  0
ARC
  5
A3E
330
A02
100
AcDbEntity
  8
ProjItem002
100
AcDbCircle
 10
188.500000100
 20
109.000000000
 30
0.000000000
 40
2.000000000
100
AcDbArc
 50
0.000000000
 51
90.000000000
  0
LINE
  5
A3F
330
A02
100
AcDbEntity
  8
ProjItem002
100
AcDbLine
 10
178.500000100
 20
111.000000000
 30
0.000000000
 11
183.500000100
 21
111.000000000
 31
0.000000000
  0
LINE
  5
A40
330
A02
100
AcDbEntity
  8
ProjItem002
100
AcDbLine
 10
183.500000100
 20
111.000000000
 30
0.000000000
 11
188.500000100
 21
111.000000000
 31
0.000000000
  0
SPLINE
  5
A41
330
A02
100
AcDbEntity
  8
ProjItem002
100
AcDbSpline
210
0
220
0
230
1
 70
8
 71
3
 72
41
 73
37
 74
0
 40
0.000000000
 40
0.000000000
 40
0.000000000
 40
0.000000000
 40
0.336599213
 40
0.336599213
 40
0.336599213
 40
0.448798951
 40
0.448798951
 40
0.448798951
 40
0.560998688
 40
0.560998688
 40
0.560998688
 40
0.673198426
 40
0.673198426
 40
0.673198426
 40
0.785398163
 40
0.785398163
 40
0.785398163
 40
0.897597901
 40
0.897597901
 40
0.897597901
 40
1.009797639
 40
1.009797639
 40
1.009797639
 40
1.121997376
 40
1.121997376
 40
1.121997376
 40
1.234197114
 40
1.234197114
 40
1.234197114
 40
1.346396852
 40
1.346396852
 40
1.346396852
 40
1.458596589
 40
1.458596589
 40
1.458596589
 40
1.570796327
 40
1.570796327
 40
1.570796327
 40
1.570796327
 10
184.498083100
 20
111.000000000
 30
0.000000000
 10
184.302053454
 20
111.000000000
 30
0.000000000
 10
184.107861250
 20
111.000000000
 30
0.000000000
 10
183.921798982
 20
111.000000000
 30
0.000000000
 10
183.861541120
 20
111.000000000
 30
0.000000000
 10
183.801283258
 20
111.000000000
 30
0.000000000
 10
183.741025397
 20
111.000000000
 30
0.000000000
 10
183.683941015
 20
111.000000000
 30
0.000000000
 10
183.626856633
 20
111.000000000
 30
0.000000000
 10
183.569772252
 20
111.000000000
 30
0.000000000
 10
183.516579219
 20
111.000000000
 30
0.000000000
 10
183.463386187
 20
111.000000000
 30
0.000000000
 10
183.410193154
 20
111.000000000
 30
0.000000000
 10
183.361560404
 20
111.000000000
 30
0.000000000
 10
183.312927654
 20
111.000000000
 30
0.000000000
 10
183.264294904
 20
111.000000000
 30
0.000000000
 10
183.220834021
 20
111.000000000
 30
0.000000000
 10
183.177373139
 20
111.000000000
 30
0.000000000
 10
183.133912256
 20
111.000000000
 30
0.000000000
 10
183.096169787
 20
111.000000000
 30
0.000000000
 10
183.058427318
 20
111.000000000
 30
0.000000000
 10
183.020684848
 20
111.000000000
 30
0.000000000
 10
182.989135426
 20
111.000000000
 30
0.000000000
 10
182.957586003
 20
111.000000000
 30
0.000000000
 10
182.926036581
 20
111.000000000
 30
0.000000000
 10
182.901076957
 20
111.000000000
 30
0.000000000
 10
182.876117333
 20
111.000000000
 30
0.000000000
 10
182.851157710
 20
111.000000000
 30
0.000000000
 10
182.833101767
 20
111.000000000
 30
0.000000000
 10
182.815045824
 20
111.000000000
 30
0.000000000
 10
182.796989882
 20
111.000000000
 30
0.000000000
 10
182.786064684
 20
111.000000000
 30
0.000000000
 10
182.775139486
 20
111.000000000
 30
0.000000000
 10
182.764214288
 20
111.000000000
 30
0.000000000
 10
182.760557225
 20
111.000000000
 30
0.000000000
 10
182.756900163
 20
111.000000000
 30
0.000000000
 10
182.753243100
 20
111.000000000
 30
0.000000000
  0
SPLINE
  5
A42
330
A02
100
AcDbEntity
  8
ProjItem002
100
AcDbSpline
210
0
220
0
230
1
 70
8
 71
1
 72
17
 73
15
 74
0
 40
1.570796327
 40
1.570796327
 40
1.795195802
 40
2.019595277
 40
2.243994753
 40
2.468394228
 40
2.692793703
 40
2.917193178
 40
3.141592654
 40
3.365992129
 40
3.590391604
 40
3.814791079
 40
4.039190555
 40
4.263590030
 40
4.487989505
 40
4.712388980
 40
4.712388980
 10
182.753243100
 20
111.000000000
 30
0.000000000
 10
182.796989882
 20
111.000000000
 30
0.000000000
 10
182.926036581
 20
111.000000000
 30
0.000000000
 10
183.133912256
 20
111.000000000
 30
0.000000000
 10
183.410193154
 20
111.000000000
 30
0.000000000
 10
183.741025397
 20
111.000000000
 30
0.000000000
 10
184.109819674
 20
111.000000000
 30
0.000000000
 10
184.498083100
 20
111.000000000
 30
0.000000000
 10
184.886346526
 20
111.000000000
 30
0.000000000
 10
185.255140803
 20
111.000000000
 30
0.000000000
 10
185.585973046
 20
111.000000000
 30
0.000000000
 10
185.862253944
 20
111.000000000
 30
0.000000000
 10
186.070129619
 20
111.000000000
 30
0.000000000
 10
186.199176318
 20
111.000000000
 30
0.000000000
 10
186.242923100
 20
111.000000000
 30
0.000000000
  0
SPLINE
  5
A43
330
A02
100
AcDbEntity
  8
ProjItem002
100
AcDbSpline
210
0
220
0
230
1
 70
8
 71
2
 72
28
 73
25
 74
0
 40
4.712388980
 40
4.712388980
 40
4.712388980
 40
4.824588718
 40
4.824588718
 40
4.936788456
 40
4.936788456
 40
5.048988193
 40
5.048988193
 40
5.161187931
 40
5.161187931
 40
5.273387669
 40
5.273387669
 40
5.385587406
 40
5.385587406
 40
5.497787144
 40
5.497787144
 40
5.609986881
 40
5.609986881
 40
5.722186619
 40
5.722186619
 40
5.834386357
 40
5.834386357
 40
6.058785832
 40
6.058785832
 40
6.283185307
 40
6.283185307
 40
6.283185307
 10
186.242923100
 20
111.000000000
 30
0.000000000
 10
186.237437506
 20
111.000000000
 30
0.000000000
 10
186.231951912
 20
111.000000000
 30
0.000000000
 10
186.215564115
 20
111.000000000
 30
0.000000000
 10
186.199176318
 20
111.000000000
 30
0.000000000
 10
186.172092404
 20
111.000000000
 30
0.000000000
 10
186.145008490
 20
111.000000000
 30
0.000000000
 10
186.107569055
 20
111.000000000
 30
0.000000000
 10
186.070129619
 20
111.000000000
 30
0.000000000
 10
186.022805486
 20
111.000000000
 30
0.000000000
 10
185.975481352
 20
111.000000000
 30
0.000000000
 10
185.918867648
 20
111.000000000
 30
0.000000000
 10
185.862253944
 20
111.000000000
 30
0.000000000
 10
185.797062620
 20
111.000000000
 30
0.000000000
 10
185.731871296
 20
111.000000000
 30
0.000000000
 10
185.658922171
 20
111.000000000
 30
0.000000000
 10
185.585973046
 20
111.000000000
 30
0.000000000
 10
185.506183497
 20
111.000000000
 30
0.000000000
 10
185.426393948
 20
111.000000000
 30
0.000000000
 10
185.340767376
 20
111.000000000
 30
0.000000000
 10
185.255140803
 20
111.000000000
 30
0.000000000
 10
185.076399443
 20
111.000000000
 30
0.000000000
 10
184.886346526
 20
111.000000000
 30
0.000000000
 10
184.694132120
 20
111.000000000
 30
0.000000000
 10
184.498083100
 20
111.000000000
 30
0.000000000
  0
LINE
  5
A44
330
A02
100
AcDbEntity
  8
ProjItem002
100
AcDbLine
 10
178.500000100
 20
111.000000000
 30
0.000000000
 11
178.500000100
 21
110.000000000
 31
0.000000000
  0
LINE
  5
A45
330
A02
100
AcDbEntity
  8
ProjItem002
100
AcDbLine
 10
183.500000100
 20
111.000000000
 30
0.000000000
 11
183.500000100
 21
110.000000000
 31
0.000000000
  0
LINE
  5
A46
330
A02
100
AcDbEntity
  8
ProjItem002
100
AcDbLine
 10
178.500000100
 20
110.000000000
 30
0.000000000
 11
183.500000100
 21
110.000000000
 31
0.000000000
  0
ARC
  5
A47
330
A02
100
AcDbEntity
  8
ProjItem002
100
AcDbCircle
 10
188.500000100
 20
109.000000000
 30
0.000000000
 40
2.000000000
100
AcDbArc
 50
0.000000000
 51
90.000000000
  0
LINE
  5
A48
330
A02
100
AcDbEntity
  8
ProjItem002
100
AcDbLine
 10
190.500000100
 20
109.000000000
 30
0.000000000
 11
190.500000100
 21
101.000000000
 31
0.000000000
  0
ARC
  5
A49
330
A02
100
AcDbEntity
  8
ProjItem002
100
AcDbCircle
 10
191.500000100
 20
101.000000000
 30
0.000000000
 40
1.000000000
100
AcDbArc
 50
180.000000000
 51
-90.000000000
  0
LINE
  5
A4A
330
A02
100
AcDbEntity
  8
ProjItem002
100
AcDbLine
 10
209.500000100
 20
100.000000000
 30
0.000000000
 11
191.500000100
 21
100.000000000
 31
0.000000000
  0
LINE
  5
A4B
330
A02
100
AcDbEntity
  8
ProjItem002
100
AcDbLine
 10
209.500000100
 20
99.000000000
 30
0.000000000
 11
209.500000100
 21
100.000000000
 31
0.000000000
  0
LINE
  5
A4C
330
A02
100
AcDbEntity
  8
ProjItem002
100
AcDbLine
 10
209.500000100
 20
99.000000000
 30
0.000000000
 11
191.500000100
 21
99.000000000
 31
0.000000000
  0
ARC
  5
A4D
330
A02
100
AcDbEntity
  8
ProjItem002
100
AcDbCircle
 10
191.500000100
 20
101.000000000
 30
0.000000000
 40
2.000000000
100
AcDbArc
 50
180.000000000
 51
-90.000000000
  0
LINE
  5
A4E
330
A02
100
AcDbEntity
  8
ProjItem002
100
AcDbLine
 10
189.500000100
 20
109.000000000
 30
0.000000000
 11
189.500000100
 21
101.000000000
 31
0.000000000
  0
ARC
  5
A4F
330
A02
100
AcDbEntity
  8
ProjItem002
100
AcDbCircle
 10
188.500000100
 20
109.000000000
 30
0.000000000
 40
1.000000000
100
AcDbArc
 50
0.000000000
 51
90.000000000
  0
LINE
  5
A50
330
A02
100
AcDbEntity
  8
ProjItem002
100
AcDbLine
 10
183.500000100
 20
110.000000000
 30
0.000000000
 11
188.500000100
 21
110.000000000
 31
0.000000000
  0
SPLINE
  5
A51
330
A02
100
AcDbEntity
  8
ProjItem002
100
AcDbSpline
210
0
220
0
230
1
 70
8
 71
3
 72
41
 73
37
 74
0
 40
0.000000000
 40
0.000000000
 40
0.000000000
 40
0.000000000
 40
0.336599213
 40
0.336599213
 40
0.336599213
 40
0.448798951
 40
0.448798951
 40
0.448798951
 40
0.560998688
 40
0.560998688
 40
0.560998688
 40
0.673198426
 40
0.673198426
 40
0.673198426
 40
0.785398163
 40
0.785398163
 40
0.785398163
 40
0.897597901
 40
0.897597901
 40
0.897597901
 40
1.009797639
 40
1.009797639
 40
1.009797639
 40
1.121997376
 40
1.121997376
 40
1.121997376
 40
1.234197114
 40
1.234197114
 40
1.234197114
 40
1.346396852
 40
1.346396852
 40
1.346396852
 40
1.458596589
 40
1.458596589
 40
1.458596589
 40
1.570796327
 40
1.570796327
 40
1.570796327
 40
1.570796327
 10
184.498083100
 20
110.000000000
 30
0.000000000
 10
184.302053454
 20
110.000000000
 30
0.000000000
 10
184.107861250
 20
110.000000000
 30
0.000000000
 10
183.921798982
 20
110.000000000
 30
0.000000000
 10
183.861541120
 20
110.000000000
 30
0.000000000
 10
183.801283258
 20
110.000000000
 30
0.000000000
 10
183.741025397
 20
110.000000000
 30
0.000000000
 10
183.683941015
 20
110.000000000
 30
0.000000000
 10
183.626856633
 20
110.000000000
 30
0.000000000
 10
183.569772252
 20
110.000000000
 30
0.000000000
 10
183.516579219
 20
110.000000000
 30
0.000000000
 10
183.463386187
 20
110.000000000
 30
0.000000000
 10
183.410193154
 20
110.000000000
 30
0.000000000
 10
183.361560404
 20
110.000000000
 30
0.000000000
 10
183.312927654
 20
110.000000000
 30
0.000000000
 10
183.264294904
 20
110.000000000
 30
0.000000000
 10
183.220834021
 20
110.000000000
 30
0.000000000
 10
183.177373139
 20
110.000000000
 30
0.000000000
 10
183.133912256
 20
110.000000000
 30
0.000000000
 10
183.096169787
 20
110.000000000
 30
0.000000000
 10
183.058427318
 20
110.000000000
 30
0.000000000
 10
183.020684848
 20
110.000000000
 30
0.000000000
 10
182.989135426
 20
110.000000000
 30
0.000000000
 10
182.957586003
 20
110.000000000
 30
0.000000000
 10
182.926036581
 20
110.000000000
 30
0.000000000
 10
182.901076957
 20
110.000000000
 30
0.000000000
 10
182.876117333
 20
110.000000000
 30
0.000000000
 10
182.851157710
 20
110.000000000
 30
0.000000000
 10
182.833101767
 20
110.000000000
 30
0.000000000
 10
182.815045824
 20
110.000000000
 30
0.000000000
 10
182.796989882
 20
110.000000000
 30
0.000000000
 10
182.786064684
 20
110.000000000
 30
0.000000000
 10
182.775139486
 20
110.000000000
 30
0.000000000
 10
182.764214288
 20
110.000000000
 30
0.000000000
 10
182.760557225
 20
110.000000000
 30
0.000000000
 10
182.756900163
 20
110.000000000
 30
0.000000000
 10
182.753243100
 20
110.000000000
 30
0.000000000
  0
SPLINE
  5
A52
330
A02
100
AcDbEntity
  8
ProjItem002
100
AcDbSpline
210
0
220
0
230
1
 70
8
 71
1
 72
17
 73
15
 74
0
 40
1.570796327
 40
1.570796327
 40
1.795195802
 40
2.019595277
 40
2.243994753
 40
2.468394228
 40
2.692793703
 40
2.917193178
 40
3.141592654
 40
3.365992129
 40
3.590391604
 40
3.814791079
 40
4.039190555
 40
4.263590030
 40
4.487989505
 40
4.712388980
 40
4.712388980
 10
182.753243100
 20
110.000000000
 30
0.000000000
 10
182.796989882
 20
110.000000000
 30
0.000000000
 10
182.926036581
 20
110.000000000
 30
0.000000000
 10
183.133912256
 20
110.000000000
 30
0.000000000
 10
183.410193154
 20
110.000000000
 30
0.000000000
 10
183.741025397
 20
110.000000000
 30
0.000000000
 10
184.109819674
 20
110.000000000
 30
0.000000000
 10
184.498083100
 20
110.000000000
 30
0.000000000
 10
184.886346526
 20
110.000000000
 30
0.000000000
 10
185.255140803
 20
110.000000000
 30
0.000000000
 10
185.585973046
 20
110.000000000
 30
0.000000000
 10
185.862253944
 20
110.000000000
 30
0.000000000
 10
186.070129619
 20
110.000000000
 30
0.000000000
 10
186.199176318
 20
110.000000000
 30
0.000000000
 10
186.242923100
 20
110.000000000
 30
0.000000000
  0
SPLINE
  5
A53
330
A02
100
AcDbEntity
  8
ProjItem002
100
AcDbSpline
210
0
220
0
230
1
 70
8
 71
2
 72
28
 73
25
 74
0
 40
4.712388980
 40
4.712388980
 40
4.712388980
 40
4.824588718
 40
4.824588718
 40
4.936788456
 40
4.936788456
 40
5.048988193
 40
5.048988193
 40
5.161187931
 40
5.161187931
 40
5.273387669
 40
5.273387669
 40
5.385587406
 40
5.385587406
 40
5.497787144
 40
5.497787144
 40
5.609986881
 40
5.609986881
 40
5.722186619
 40
5.722186619
 40
5.834386357
 40
5.834386357
 40
6.058785832
 40
6.058785832
 40
6.283185307
 40
6.283185307
 40
6.283185307
 10
186.242923100
 20
110.000000000
 30
0.000000000
 10
186.237437506
 20
110.000000000
 30
0.000000000
 10
186.231951912
 20
110.000000000
 30
0.000000000
 10
186.215564115
 20
110.000000000
 30
0.000000000
 10
186.199176318
 20
110.000000000
 30
0.000000000
 10
186.172092404
 20
110.000000000
 30
0.000000000
 10
186.145008490
 20
110.000000000
 30
0.000000000
 10
186.107569055
 20
110.000000000
 30
0.000000000
 10
186.070129619
 20
110.000000000
 30
0.000000000
 10
186.022805486
 20
110.000000000
 30
0.000000000
 10
185.975481352
 20
110.000000000
 30
0.000000000
 10
185.918867648
 20
110.000000000
 30
0.000000000
 10
185.862253944
 20
110.000000000
 30
0.000000000
 10
185.797062620
 20
110.000000000
 30
0.000000000
 10
185.731871296
 20
110.000000000
 30
0.000000000
 10
185.658922171
 20
110.000000000
 30
0.000000000
 10
185.585973046
 20
110.000000000
 30
0.000000000
 10
185.506183497
 20
110.000000000
 30
0.000000000
 10
185.426393948
 20
110.000000000
 30
0.000000000
 10
185.340767376
 20
110.000000000
 30
0.000000000
 10
185.255140803
 20
110.000000000
 30
0.000000000
 10
185.076399443
 20
110.000000000
 30
0.000000000
 10
184.886346526
 20
110.000000000
 30
0.000000000
 10
184.694132120
 20
110.000000000
 30
0.000000000
 10
184.498083100
 20
110.000000000
 30
0.000000000
  0
SPLINE
  5
A54
330
A02
100
AcDbEntity
  8
ProjItem002
100
AcDbSpline
210
0
220
0
230
1
 70
8
 71
2
 72
30
 73
27
 74
0
 40
0.000000000
 40
0.000000000
 40
0.000000000
 40
0.224399475
 40
0.224399475
 40
0.336599213
 40
0.336599213
 40
0.448798951
 40
0.448798951
 40
0.560998688
 40
0.560998688
 40
0.673198426
 40
0.673198426
 40
0.785398163
 40
0.785398163
 40
0.897597901
 40
0.897597901
 40
1.009797639
 40
1.009797639
 40
1.121997376
 40
1.121997376
 40
1.234197114
 40
1.234197114
 40
1.346396852
 40
1.346396852
 40
1.458596589
 40
1.458596589
 40
1.570796327
 40
1.570796327
 40
1.570796327
 10
200.500000100
 20
99.000000000
 30
0.000000000
 10
200.219708226
 20
99.000000000
 30
0.000000000
 10
199.944898711
 20
99.000000000
 30
0.000000000
 10
199.810491836
 20
99.000000000
 30
0.000000000
 10
199.676084961
 20
99.000000000
 30
0.000000000
 10
199.546858692
 20
99.000000000
 30
0.000000000
 10
199.417632423
 20
99.000000000
 30
0.000000000
 10
199.295211854
 20
99.000000000
 30
0.000000000
 10
199.172791286
 20
99.000000000
 30
0.000000000
 10
199.058715928
 20
99.000000000
 30
0.000000000
 10
198.944640570
 20
99.000000000
 30
0.000000000
 10
198.840344986
 20
99.000000000
 30
0.000000000
 10
198.736049402
 20
99.000000000
 30
0.000000000
 10
198.642845170
 20
99.000000000
 30
0.000000000
 10
198.549640938
 20
99.000000000
 30
0.000000000
 10
198.468700155
 20
99.000000000
 30
0.000000000
 10
198.387759372
 20
99.000000000
 30
0.000000000
 10
198.320099916
 20
99.000000000
 30
0.000000000
 10
198.252440459
 20
99.000000000
 30
0.000000000
 10
198.198913186
 20
99.000000000
 30
0.000000000
 10
198.145385913
 20
99.000000000
 30
0.000000000
 10
198.106663959
 20
99.000000000
 30
0.000000000
 10
198.067942005
 20
99.000000000
 30
0.000000000
 10
198.044512323
 20
99.000000000
 30
0.000000000
 10
198.021082640
 20
99.000000000
 30
0.000000000
 10
198.013239870
 20
99.000000000
 30
0.000000000
 10
198.005397100
 20
99.000000000
 30
0.000000000
  0
SPLINE
  5
A55
330
A02
100
AcDbEntity
  8
ProjItem002
100
AcDbSpline
210
0
220
0
230
1
 70
8
 71
1
 72
17
 73
15
 74
0
 40
1.570796327
 40
1.570796327
 40
1.795195802
 40
2.019595277
 40
2.243994753
 40
2.468394228
 40
2.692793703
 40
2.917193178
 40
3.141592654
 40
3.365992129
 40
3.590391604
 40
3.814791079
 40
4.039190555
 40
4.263590030
 40
4.487989505
 40
4.712388980
 40
4.712388980
 10
198.005397100
 20
99.000000000
 30
0.000000000
 10
198.067942005
 20
99.000000000
 30
0.000000000
 10
198.252440459
 20
99.000000000
 30
0.000000000
 10
198.549640938
 20
99.000000000
 30
0.000000000
 10
198.944640570
 20
99.000000000
 30
0.000000000
 10
199.417632423
 20
99.000000000
 30
0.000000000
 10
199.944898711
 20
99.000000000
 30
0.000000000
 10
200.500000100
 20
99.000000000
 30
0.000000000
 10
201.055101489
 20
99.000000000
 30
0.000000000
 10
201.582367777
 20
99.000000000
 30
0.000000000
 10
202.055359630
 20
99.000000000
 30
0.000000000
 10
202.450359262
 20
99.000000000
 30
0.000000000
 10
202.747559741
 20
99.000000000
 30
0.000000000
 10
202.932058195
 20
99.000000000
 30
0.000000000
 10
202.994603100
 20
99.000000000
 30
0.000000000
  0
SPLINE
  5
A56
330
A02
100
AcDbEntity
  8
ProjItem002
100
AcDbSpline
210
0
220
0
230
1
 70
8
 71
2
 72
30
 73
27
 74
0
 40
4.712388980
 40
4.712388980
 40
4.712388980
 40
4.824588718
 40
4.824588718
 40
4.936788456
 40
4.936788456
 40
5.048988193
 40
5.048988193
 40
5.161187931
 40
5.161187931
 40
5.273387669
 40
5.273387669
 40
5.385587406
 40
5.385587406
 40
5.497787144
 40
5.497787144
 40
5.609986881
 40
5.609986881
 40
5.722186619
 40
5.722186619
 40
5.834386357
 40
5.834386357
 40
5.946586094
 40
5.946586094
 40
6.058785832
 40
6.058785832
 40
6.283185307
 40
6.283185307
 40
6.283185307
 10
202.994603100
 20
99.000000000
 30
0.000000000
 10
202.986760330
 20
99.000000000
 30
0.000000000
 10
202.978917560
 20
99.000000000
 30
0.000000000
 10
202.955487877
 20
99.000000000
 30
0.000000000
 10
202.932058195
 20
99.000000000
 30
0.000000000
 10
202.893336241
 20
99.000000000
 30
0.000000000
 10
202.854614287
 20
99.000000000
 30
0.000000000
 10
202.801087014
 20
99.000000000
 30
0.000000000
 10
202.747559741
 20
99.000000000
 30
0.000000000
 10
202.679900284
 20
99.000000000
 30
0.000000000
 10
202.612240828
 20
99.000000000
 30
0.000000000
 10
202.531300045
 20
99.000000000
 30
0.000000000
 10
202.450359262
 20
99.000000000
 30
0.000000000
 10
202.357155030
 20
99.000000000
 30
0.000000000
 10
202.263950798
 20
99.000000000
 30
0.000000000
 10
202.159655214
 20
99.000000000
 30
0.000000000
 10
202.055359630
 20
99.000000000
 30
0.000000000
 10
201.941284272
 20
99.000000000
 30
0.000000000
 10
201.827208914
 20
99.000000000
 30
0.000000000
 10
201.704788346
 20
99.000000000
 30
0.000000000
 10
201.582367777
 20
99.000000000
 30
0.000000000
 10
201.453141508
 20
99.000000000
 30
0.000000000
 10
201.323915239
 20
99.000000000
 30
0.000000000
 10
201.189508364
 20
99.000000000
 30
0.000000000
 10
201.055101489
 20
99.000000000
 30
0.000000000
 10
200.780291974
 20
99.000000000
 30
0.000000000
 10
200.500000100
 20
99.000000000
 30
0.000000000
  0
SPLINE
  5
A57
330
A02
100
AcDbEntity
  8
ProjItem002
100
AcDbSpline
210
0
220
0
230
1
 70
8
 71
2
 72
30
 73
27
 74
0
 40
0.000000000
 40
0.000000000
 40
0.000000000
 40
0.224399475
 40
0.224399475
 40
0.336599213
 40
0.336599213
 40
0.448798951
 40
0.448798951
 40
0.560998688
 40
0.560998688
 40
0.673198426
 40
0.673198426
 40
0.785398163
 40
0.785398163
 40
0.897597901
 40
0.897597901
 40
1.009797639
 40
1.009797639
 40
1.121997376
 40
1.121997376
 40
1.234197114
 40
1.234197114
 40
1.346396852
 40
1.346396852
 40
1.458596589
 40
1.458596589
 40
1.570796327
 40
1.570796327
 40
1.570796327
 10
200.500000100
 20
100.000000000
 30
0.000000000
 10
200.219708226
 20
100.000000000
 30
0.000000000
 10
199.944898711
 20
100.000000000
 30
0.000000000
 10
199.810491836
 20
100.000000000
 30
0.000000000
 10
199.676084961
 20
100.000000000
 30
0.000000000
 10
199.546858692
 20
100.000000000
 30
0.000000000
 10
199.417632423
 20
100.000000000
 30
0.000000000
 10
199.295211854
 20
100.000000000
 30
0.000000000
 10
199.172791286
 20
100.000000000
 30
0.000000000
 10
199.058715928
 20
100.000000000
 30
0.000000000
 10
198.944640570
 20
100.000000000
 30
0.000000000
 10
198.840344986
 20
100.000000000
 30
0.000000000
 10
198.736049402
 20
100.000000000
 30
0.000000000
 10
198.642845170
 20
100.000000000
 30
0.000000000
 10
198.549640938
 20
100.000000000
 30
0.000000000
 10
198.468700155
 20
100.000000000
 30
0.000000000
 10
198.387759372
 20
100.000000000
 30
0.000000000
 10
198.320099916
 20
100.000000000
 30
0.000000000
 10
198.252440459
 20
100.000000000
 30
0.000000000
 10
198.198913186
 20
100.000000000
 30
0.000000000
 10
198.145385913
 20
100.000000000
 30
0.000000000
 10
198.106663959
 20
100.000000000
 30
0.000000000
 10
198.067942005
 20
100.000000000
 30
0.000000000
 10
198.044512323
 20
100.000000000
 30
0.000000000
 10
198.021082640
 20
100.000000000
 30
0.000000000
 10
198.013239870
 20
100.000000000
 30
0.000000000
 10
198.005397100
 20
100.000000000
 30
0.000000000
  0
SPLINE
  5
A58
330
A02
100
AcDbEntity
  8
ProjItem002
100
AcDbSpline
210
0
220
0
230
1
 70
8
 71
1
 72
17
 73
15
 74
0
 40
1.570796327
 40
1.570796327
 40
1.795195802
 40
2.019595277
 40
2.243994753
 40
2.468394228
 40
2.692793703
 40
2.917193178
 40
3.141592654
 40
3.365992129
 40
3.590391604
 40
3.814791079
 40
4.039190555
 40
4.263590030
 40
4.487989505
 40
4.712388980
 40
4.712388980
 10
198.005397100
 20
100.000000000
 30
0.000000000
 10
198.067942005
 20
100.000000000
 30
0.000000000
 10
198.252440459
 20
100.000000000
 30
0.000000000
 10
198.549640938
 20
100.000000000
 30
0.000000000
 10
198.944640570
 20
100.000000000
 30
0.000000000
 10
199.417632423
 20
100.000000000
 30
0.000000000
 10
199.944898711
 20
100.000000000
 30
0.000000000
 10
200.500000100
 20
100.000000000
 30
0.000000000
 10
201.055101489
 20
100.000000000
 30
0.000000000
 10
201.582367777
 20
100.000000000
 30
0.000000000
 10
202.055359630
 20
100.000000000
 30
0.000000000
 10
202.450359262
 20
100.000000000
 30
0.000000000
 10
202.747559741
 20
100.000000000
 30
0.000000000
 10
202.932058195
 20
100.000000000
 30
0.000000000
 10
202.994603100
 20
100.000000000
 30
0.000000000
  0
SPLINE
  5
A59
330
A02
100
AcDbEntity
  8
ProjItem002
100
AcDbSpline
210
0
220
0
230
1
 70
8
 71
2
 72
30
 73
27
 74
0
 40
4.712388980
 40
4.712388980
 40
4.712388980
 40
4.824588718
 40
4.824588718
 40
4.936788456
 40
4.936788456
 40
5.048988193
 40
5.048988193
 40
5.161187931
 40
5.161187931
 40
5.273387669
 40
5.273387669
 40
5.385587406
 40
5.385587406
 40
5.497787144
 40
5.497787144
 40
5.609986881
 40
5.609986881
 40
5.722186619
 40
5.722186619
 40
5.834386357
 40
5.834386357
 40
5.946586094
 40
5.946586094
 40
6.058785832
 40
6.058785832
 40
6.283185307
 40
6.283185307
 40
6.283185307
 10
202.994603100
 20
100.000000000
 30
0.000000000
 10
202.986760330
 20
100.000000000
 30
0.000000000
 10
202.978917560
 20
100.000000000
 30
0.000000000
 10
202.955487877
 20
100.000000000
 30
0.000000000
 10
202.932058195
 20
100.000000000
 30
0.000000000
 10
202.893336241
 20
100.000000000
 30
0.000000000
 10
202.854614287
 20
100.000000000
 30
0.000000000
 10
202.801087014
 20
100.000000000
 30
0.000000000
 10
202.747559741
 20
100.000000000
 30
0.000000000
 10
202.679900284
 20
100.000000000
 30
0.000000000
 10
202.612240828
 20
100.000000000
 30
0.000000000
 10
202.531300045
 20
100.000000000
 30
0.000000000
 10
202.450359262
 20
100.000000000
 30
0.000000000
 10
202.357155030
 20
100.000000000
 30
0.000000000
 10
202.263950798
 20
100.000000000
 30
0.000000000
 10
202.159655214
 20
100.000000000
 30
0.000000000
 10
202.055359630
 20
100.000000000
 30
0.000000000
 10
201.941284272
 20
100.000000000
 30
0.000000000
 10
201.827208914
 20
100.000000000
 30
0.000000000
 10
201.704788346
 20
100.000000000
 30
0.000000000
 10
201.582367777
 20
100.000000000
 30
0.000000000
 10
201.453141508
 20
100.000000000
 30
0.000000000
 10
201.323915239
 20
100.000000000
 30
0.000000000
 10
201.189508364
 20
100.000000000
 30
0.000000000
 10
201.055101489
 20
100.000000000
 30
0.000000000
 10
200.780291974
 20
100.000000000
 30
0.000000000
 10
200.500000100
 20
100.000000000
 30
0.000000000
  0
LINE
  5
A5A
330
A02
100
AcDbEntity
  8
ProjItem002
100
AcDbLine
 10
186.242923100
 20
110.000000000
 30
0.000000000
 11
186.242923100
 21
111.000000000
 31
0.000000000
  0
LINE
  5
A5B
330
A02
100
AcDbEntity
  8
ProjItem002
100
AcDbLine
 10
182.753243100
 20
110.000000000
 30
0.000000000
 11
182.753243100
 21
111.000000000
 31
0.000000000
  0
LINE
  5
A5C
330
A02
100
AcDbEntity
  8
ProjItem002
100
AcDbLine
 10
202.994603100
 20
99.000000000
 30
0.000000000
 11
202.994603100
 21
100.000000000
 31
0.000000000
  0
LINE
  5
A5D
330
A02
100
AcDbEntity
  8
ProjItem002
100
AcDbLine
 10
198.005397100
 20
99.000000000
 30
0.000000000
 11
198.005397100
 21
100.000000000
 31
0.000000000
  0
LINE
  5
A5E
330
A02
100
AcDbEntity
  8
ProjItem003
100
AcDbLine
 10
133.500000000
 20
126.000000100
 30
0.000000000
 11
158.500000000
 21
126.000000100
 31
0.000000000
  0
LINE
  5
A5F
330
A02
100
AcDbEntity
  8
ProjItem003
100
AcDbLine
 10
158.500000000
 20
126.000000100
 30
0.000000000
 11
163.500000000
 21
131.000000100
 31
0.000000000
  0
LINE
  5
A60
330
A02
100
AcDbEntity
  8
ProjItem003
100
AcDbLine
 10
133.500000000
 20
136.000000100
 30
0.000000000
 11
133.500000000
 21
126.000000100
 31
0.000000000
  0
SPLINE
  5
A61
330
A02
100
AcDbEntity
  8
ProjItem003
100
AcDbSpline
210
0
220
0
230
1
 70
8
 71
3
 72
35
 73
31
 74
0
 40
0.000000000
 40
0.000000000
 40
0.000000000
 40
0.000000000
 40
0.112199738
 40
0.112199738
 40
0.112199738
 40
0.224399475
 40
0.224399475
 40
0.224399475
 40
0.336599213
 40
0.336599213
 40
0.336599213
 40
0.448798951
 40
0.448798951
 40
0.448798951
 40
0.560998688
 40
0.560998688
 40
0.560998688
 40
0.673198426
 40
0.673198426
 40
0.673198426
 40
0.785398163
 40
0.785398163
 40
0.785398163
 40
0.897597901
 40
0.897597901
 40
0.897597901
 40
1.121997376
 40
1.121997376
 40
1.121997376
 40
1.570796327
 40
1.570796327
 40
1.570796327
 40
1.570796327
 10
133.500000000
 20
137.000000100
 30
0.000000000
 10
133.500000000
 20
136.997904170
 30
0.000000000
 10
133.500000000
 20
136.995808240
 30
0.000000000
 10
133.500000000
 20
136.993712310
 30
0.000000000
 10
133.500000000
 20
136.987450877
 30
0.000000000
 10
133.500000000
 20
136.981189445
 30
0.000000000
 10
133.500000000
 20
136.974928012
 30
0.000000000
 10
133.500000000
 20
136.964579818
 30
0.000000000
 10
133.500000000
 20
136.954231624
 30
0.000000000
 10
133.500000000
 20
136.943883430
 30
0.000000000
 10
133.500000000
 20
136.929578610
 30
0.000000000
 10
133.500000000
 20
136.915273789
 30
0.000000000
 10
133.500000000
 20
136.900968968
 30
0.000000000
 10
133.500000000
 20
136.882887412
 30
0.000000000
 10
133.500000000
 20
136.864805855
 30
0.000000000
 10
133.500000000
 20
136.846724299
 30
0.000000000
 10
133.500000000
 20
136.825093394
 30
0.000000000
 10
133.500000000
 20
136.803462488
 30
0.000000000
 10
133.500000000
 20
136.781831582
 30
0.000000000
 10
133.500000000
 20
136.756923349
 30
0.000000000
 10
133.500000000
 20
136.732015115
 30
0.000000000
 10
133.500000000
 20
136.707106881
 30
0.000000000
 10
133.500000000
 20
136.679234555
 30
0.000000000
 10
133.500000000
 20
136.651362228
 30
0.000000000
 10
133.500000000
 20
136.623489902
 30
0.000000000
 10
133.500000000
 20
136.563768867
 30
0.000000000
 10
133.500000000
 20
136.500566846
 30
0.000000000
 10
133.500000000
 20
136.433883839
 30
0.000000000
 10
133.500000000
 20
136.298163347
 30
0.000000000
 10
133.500000000
 20
136.149792985
 30
0.000000000
 10
133.500000000
 20
136.000000100
 30
0.000000000
  0
SPLINE
  5
A62
330
A02
100
AcDbEntity
  8
ProjItem003
100
AcDbSpline
210
0
220
0
230
1
 70
8
 71
3
 72
41
 73
37
 74
0
 40
0.000000000
 40
0.000000000
 40
0.000000000
 40
0.000000000
 40
0.336599213
 40
0.336599213
 40
0.336599213
 40
0.448798951
 40
0.448798951
 40
0.448798951
 40
0.560998688
 40
0.560998688
 40
0.560998688
 40
0.673198426
 40
0.673198426
 40
0.673198426
 40
0.785398163
 40
0.785398163
 40
0.785398163
 40
0.897597901
 40
0.897597901
 40
0.897597901
 40
1.009797639
 40
1.009797639
 40
1.009797639
 40
1.121997376
 40
1.121997376
 40
1.121997376
 40
1.234197114
 40
1.234197114
 40
1.234197114
 40
1.346396852
 40
1.346396852
 40
1.346396852
 40
1.458596589
 40
1.458596589
 40
1.458596589
 40
1.570796327
 40
1.570796327
 40
1.570796327
 40
1.570796327
 10
133.500000000
 20
139.000000100
 30
0.000000000
 10
133.500000000
 20
138.775303686
 30
0.000000000
 10
133.500000000
 20
138.552713415
 30
0.000000000
 10
133.500000000
 20
138.339441976
 30
0.000000000
 10
133.500000000
 20
138.270372191
 30
0.000000000
 10
133.500000000
 20
138.201302407
 30
0.000000000
 10
133.500000000
 20
138.132232622
 30
0.000000000
 10
133.500000000
 20
138.066800397
 30
0.000000000
 10
133.500000000
 20
138.001368172
 30
0.000000000
 10
133.500000000
 20
137.935935947
 30
0.000000000
 10
133.500000000
 20
137.874964130
 30
0.000000000
 10
133.500000000
 20
137.813992313
 30
0.000000000
 10
133.500000000
 20
137.753020496
 30
0.000000000
 10
133.500000000
 20
137.697275843
 30
0.000000000
 10
133.500000000
 20
137.641531191
 30
0.000000000
 10
133.500000000
 20
137.585786538
 30
0.000000000
 10
133.500000000
 20
137.535970070
 30
0.000000000
 10
133.500000000
 20
137.486153603
 30
0.000000000
 10
133.500000000
 20
137.436337135
 30
0.000000000
 10
133.500000000
 20
137.393075324
 30
0.000000000
 10
133.500000000
 20
137.349813513
 30
0.000000000
 10
133.500000000
 20
137.306551702
 30
0.000000000
 10
133.500000000
 20
137.270388589
 30
0.000000000
 10
133.500000000
 20
137.234225477
 30
0.000000000
 10
133.500000000
 20
137.198062364
 30
0.000000000
 10
133.500000000
 20
137.169452723
 30
0.000000000
 10
133.500000000
 20
137.140843081
 30
0.000000000
 10
133.500000000
 20
137.112233439
 30
0.000000000
 10
133.500000000
 20
137.091537051
 30
0.000000000
 10
133.500000000
 20
137.070840664
 30
0.000000000
 10
133.500000000
 20
137.050144276
 30
0.000000000
 10
133.500000000
 20
137.037621410
 30
0.000000000
 10
133.500000000
 20
137.025098545
 30
0.000000000
 10
133.500000000
 20
137.012575680
 30
0.000000000
 10
133.500000000
 20
137.008383820
 30
0.000000000
 10
133.500000000
 20
137.004191960
 30
0.000000000
 10
133.500000000
 20
137.000000100
 30
0.000000000
  0
LINE
  5
A63
330
A02
100
AcDbEntity
  8
ProjItem003
100
AcDbLine
 10
133.500000000
 20
157.000000100
 30
0.000000000
 11
133.500000000
 21
139.000000100
 31
0.000000000
  0
LINE
  5
A64
330
A02
100
AcDbEntity
  8
ProjItem003
100
AcDbLine
 10
163.500000000
 20
157.000000100
 30
0.000000000
 11
163.500000000
 21
139.000000100
 31
0.000000000
  0
SPLINE
  5
A65
330
A02
100
AcDbEntity
  8
ProjItem003
100
AcDbSpline
210
0
220
0
230
1
 70
8
 71
3
 72
41
 73
37
 74
0
 40
0.000000000
 40
0.000000000
 40
0.000000000
 40
0.000000000
 40
0.336599213
 40
0.336599213
 40
0.336599213
 40
0.448798951
 40
0.448798951
 40
0.448798951
 40
0.560998688
 40
0.560998688
 40
0.560998688
 40
0.673198426
 40
0.673198426
 40
0.673198426
 40
0.785398163
 40
0.785398163
 40
0.785398163
 40
0.897597901
 40
0.897597901
 40
0.897597901
 40
1.009797639
 40
1.009797639
 40
1.009797639
 40
1.121997376
 40
1.121997376
 40
1.121997376
 40
1.234197114
 40
1.234197114
 40
1.234197114
 40
1.346396852
 40
1.346396852
 40
1.346396852
 40
1.458596589
 40
1.458596589
 40
1.458596589
 40
1.570796327
 40
1.570796327
 40
1.570796327
 40
1.570796327
 10
163.500000000
 20
139.000000100
 30
0.000000000
 10
163.500000000
 20
138.775303686
 30
0.000000000
 10
163.500000000
 20
138.552713415
 30
0.000000000
 10
163.500000000
 20
138.339441976
 30
0.000000000
 10
163.500000000
 20
138.270372191
 30
0.000000000
 10
163.500000000
 20
138.201302407
 30
0.000000000
 10
163.500000000
 20
138.132232622
 30
0.000000000
 10
163.500000000
 20
138.066800397
 30
0.000000000
 10
163.500000000
 20
138.001368172
 30
0.000000000
 10
163.500000000
 20
137.935935947
 30
0.000000000
 10
163.500000000
 20
137.874964130
 30
0.000000000
 10
163.500000000
 20
137.813992313
 30
0.000000000
 10
163.500000000
 20
137.753020496
 30
0.000000000
 10
163.500000000
 20
137.697275843
 30
0.000000000
 10
163.500000000
 20
137.641531191
 30
0.000000000
 10
163.500000000
 20
137.585786538
 30
0.000000000
 10
163.500000000
 20
137.535970070
 30
0.000000000
 10
163.500000000
 20
137.486153603
 30
0.000000000
 10
163.500000000
 20
137.436337135
 30
0.000000000
 10
163.500000000
 20
137.393075324
 30
0.000000000
 10
163.500000000
 20
137.349813513
 30
0.000000000
 10
163.500000000
 20
137.306551702
 30
0.000000000
 10
163.500000000
 20
137.270388589
 30
0.000000000
 10
163.500000000
 20
137.234225477
 30
0.000000000
 10
163.500000000
 20
137.198062364
 30
0.000000000
 10
163.500000000
 20
137.169452723
 30
0.000000000
 10
163.500000000
 20
137.140843081
 30
0.000000000
 10
163.500000000
 20
137.112233439
 30
0.000000000
 10
163.500000000
 20
137.091537051
 30
0.000000000
 10
163.500000000
 20
137.070840664
 30
0.000000000
 10
163.500000000
 20
137.050144276
 30
0.000000000
 10
163.500000000
 20
137.037621410
 30
0.000000000
 10
163.500000000
 20
137.025098545
 30
0.000000000
 10
163.500000000
 20
137.012575680
 30
0.000000000
 10
163.500000000
 20
137.008383820
 30
0.000000000
 10
163.500000000
 20
137.004191960
 30
0.000000000
 10
163.500000000
 20
137.000000100
 30
0.000000000
  0
SPLINE
  5
A66
330
A02
100
AcDbEntity
  8
ProjItem003
100
AcDbSpline
210
0
220
0
230
1
 70
8
 71
3
 72
35
 73
31
 74
0
 40
0.000000000
 40
0.000000000
 40
0.000000000
 40
0.000000000
 40
0.112199738
 40
0.112199738
 40
0.112199738
 40
0.224399475
 40
0.224399475
 40
0.224399475
 40
0.336599213
 40
0.336599213
 40
0.336599213
 40
0.448798951
 40
0.448798951
 40
0.448798951
 40
0.560998688
 40
0.560998688
 40
0.560998688
 40
0.673198426
 40
0.673198426
 40
0.673198426
 40
0.785398163
 40
0.785398163
 40
0.785398163
 40
0.897597901
 40
0.897597901
 40
0.897597901
 40
1.121997376
 40
1.121997376
 40
1.121997376
 40
1.570796327
 40
1.570796327
 40
1.570796327
 40
1.570796327
 10
163.500000000
 20
137.000000100
 30
0.000000000
 10
163.500000000
 20
136.997904170
 30
0.000000000
 10
163.500000000
 20
136.995808240
 30
0.000000000
 10
163.500000000
 20
136.993712310
 30
0.000000000
 10
163.500000000
 20
136.987450877
 30
0.000000000
 10
163.500000000
 20
136.981189445
 30
0.000000000
 10
163.500000000
 20
136.974928012
 30
0.000000000
 10
163.500000000
 20
136.964579818
 30
0.000000000
 10
163.500000000
 20
136.954231624
 30
0.000000000
 10
163.500000000
 20
136.943883430
 30
0.000000000
 10
163.500000000
 20
136.929578610
 30
0.000000000
 10
163.500000000
 20
136.915273789
 30
0.000000000
 10
163.500000000
 20
136.900968968
 30
0.000000000
 10
163.500000000
 20
136.882887412
 30
0.000000000
 10
163.500000000
 20
136.864805855
 30
0.000000000
 10
163.500000000
 20
136.846724299
 30
0.000000000
 10
163.500000000
 20
136.825093394
 30
0.000000000
 10
163.500000000
 20
136.803462488
 30
0.000000000
 10
163.500000000
 20
136.781831582
 30
0.000000000
 10
163.500000000
 20
136.756923349
 30
0.000000000
 10
163.500000000
 20
136.732015115
 30
0.000000000
 10
163.500000000
 20
136.707106881
 30
0.000000000
 10
163.500000000
 20
136.679234555
 30
0.000000000
 10
163.500000000
 20
136.651362228
 30
0.000000000
 10
163.500000000
 20
136.623489902
 30
0.000000000
 10
163.500000000
 20
136.563768867
 30
0.000000000
 10
163.500000000
 20
136.500566846
 30
0.000000000
 10
163.500000000
 20
136.433883839
 30
0.000000000
 10
163.500000000
 20
136.298163347
 30
0.000000000
 10
163.500000000
 20
136.149792985
 30
0.000000000
 10
163.500000000
 20
136.000000100
 30
0.000000000
  0
LINE
  5
A67
330
A02
100
AcDbEntity
  8
ProjItem003
100
AcDbLine
 10
163.500000000
 20
131.000000100
 30
0.000000000
 11
163.500000000
 21
136.000000100
 31
0.000000000
  0
CIRCLE
  5
A68
330
A02
100
AcDbEntity
  8
ProjItem003
100
AcDbCircle
 10
148.500000000
 20
131.998083100
 30
0.000000000
 40
1.744840000
  0
LINE
  5
A69
330
A02
100
AcDbEntity
  8
ProjItem003
100
AcDbLine
 10
133.500000000
 20
136.000000100
 30
0.000000000
 11
163.500000000
 21
136.000000100
 31
0.000000000
  0
LINE
  5
A6A
330
A02
100
AcDbEntity
  8
ProjItem003
100
AcDbLine
 10
163.500000000
 20
137.000000100
 30
0.000000000
 11
133.500000000
 21
137.000000100
 31
0.000000000
  0
LINE
  5
A6B
330
A02
100
AcDbEntity
  8
ProjItem003
100
AcDbLine
 10
133.500000000
 20
139.000000100
 30
0.000000000
 11
163.500000000
 21
139.000000100
 31
0.000000000
  0
LINE
  5
A6C
330
A02
100
AcDbEntity
  8
ProjItem003
100
AcDbLine
 10
133.500000000
 20
157.000000100
 30
0.000000000
 11
163.500000000
 21
157.000000100
 31
0.000000000
  0
CIRCLE
  5
A6D
330
A02
100
AcDbEntity
  8
ProjItem003
100
AcDbCircle
 10
148.500000000
 20
148.000000100
 30
0.000000000
 40
2.494603000
  0
LINE
  5
A6E
330
A02
100
AcDbEntity
  8
ProjItem003
100
AcDbLine
 10
133.500000000
 20
126.000000100
 30
0.000000000
 11
158.500000000
 21
126.000000100
 31
0.000000000
  0
LINE
  5
A6F
330
A02
100
AcDbEntity
  8
ProjItem003
100
AcDbLine
 10
158.500000000
 20
126.000000100
 30
0.000000000
 11
163.500000000
 21
131.000000100
 31
0.000000000
  0
LINE
  5
A70
330
A02
100
AcDbEntity
  8
ProjItem003
100
AcDbLine
 10
133.500000000
 20
136.000000100
 30
0.000000000
 11
133.500000000
 21
126.000000100
 31
0.000000000
  0
LINE
  5
A71
330
A02
100
AcDbEntity
  8
ProjItem003
100
AcDbLine
 10
163.500000000
 20
131.000000100
 30
0.000000000
 11
163.500000000
 21
136.000000100
 31
0.000000000
  0
LINE
  5
A72
330
A02
100
AcDbEntity
  8
ProjItem003
100
AcDbLine
 10
163.500000000
 20
136.000000100
 30
0.000000000
 11
133.500000000
 21
136.000000100
 31
0.000000000
  0
CIRCLE
  5
A73
330
A02
100
AcDbEntity
  8
ProjItem003
100
AcDbCircle
 10
148.500000000
 20
131.998083100
 30
0.000000000
 40
1.744840000
  0
LINE
  5
A74
330
A02
100
AcDbEntity
  8
ProjItem003
100
AcDbLine
 10
133.500000000
 20
157.000000100
 30
0.000000000
 11
133.500000000
 21
139.000000100
 31
0.000000000
  0
SPLINE
  5
A75
330
A02
100
AcDbEntity
  8
ProjItem003
100
AcDbSpline
210
0
220
0
230
1
 70
8
 71
2
 72
24
 73
21
 74
0
 40
0.000000000
 40
0.000000000
 40
0.000000000
 40
0.336599213
 40
0.336599213
 40
0.560998688
 40
0.560998688
 40
0.785398163
 40
0.785398163
 40
0.897597901
 40
0.897597901
 40
1.009797639
 40
1.009797639
 40
1.121997376
 40
1.121997376
 40
1.234197114
 40
1.234197114
 40
1.346396852
 40
1.346396852
 40
1.458596589
 40
1.458596589
 40
1.570796327
 40
1.570796327
 40
1.570796327
 10
133.500000000
 20
139.000000100
 30
0.000000000
 10
133.500000000
 20
138.830576203
 30
0.000000000
 10
133.500000000
 20
138.669721038
 30
0.000000000
 10
133.500000000
 20
138.564586301
 30
0.000000000
 10
133.500000000
 20
138.467968023
 30
0.000000000
 10
133.500000000
 20
138.374311606
 30
0.000000000
 10
133.500000000
 20
138.292893319
 30
0.000000000
 10
133.500000000
 20
138.255530968
 30
0.000000000
 10
133.500000000
 20
138.218168618
 30
0.000000000
 10
133.500000000
 20
138.185722259
 30
0.000000000
 10
133.500000000
 20
138.153275901
 30
0.000000000
 10
133.500000000
 20
138.126153566
 30
0.000000000
 10
133.500000000
 20
138.099031232
 30
0.000000000
 10
133.500000000
 20
138.077574001
 30
0.000000000
 10
133.500000000
 20
138.056116770
 30
0.000000000
 10
133.500000000
 20
138.040594479
 30
0.000000000
 10
133.500000000
 20
138.025072188
 30
0.000000000
 10
133.500000000
 20
138.015680039
 30
0.000000000
 10
133.500000000
 20
138.006287890
 30
0.000000000
 10
133.500000000
 20
138.003143995
 30
0.000000000
 10
133.500000000
 20
138.000000100
 30
0.000000000
  0
SPLINE
  5
A76
330
A02
100
AcDbEntity
  8
ProjItem003
100
AcDbSpline
210
0
220
0
230
1
 70
8
 71
2
 72
30
 73
27
 74
0
 40
0.000000000
 40
0.000000000
 40
0.000000000
 40
0.112199738
 40
0.112199738
 40
0.224399475
 40
0.224399475
 40
0.336599213
 40
0.336599213
 40
0.448798951
 40
0.448798951
 40
0.560998688
 40
0.560998688
 40
0.673198426
 40
0.673198426
 40
0.785398163
 40
0.785398163
 40
0.897597901
 40
0.897597901
 40
1.009797639
 40
1.009797639
 40
1.121997376
 40
1.121997376
 40
1.234197114
 40
1.234197114
 40
1.346396852
 40
1.346396852
 40
1.570796327
 40
1.570796327
 40
1.570796327
 10
133.500000000
 20
138.000000100
 30
0.000000000
 10
133.500000000
 20
137.993712310
 30
0.000000000
 10
133.500000000
 20
137.987424520
 30
0.000000000
 10
133.500000000
 20
137.968640222
 30
0.000000000
 10
133.500000000
 20
137.949855924
 30
0.000000000
 10
133.500000000
 20
137.918811342
 30
0.000000000
 10
133.500000000
 20
137.887766761
 30
0.000000000
 10
133.500000000
 20
137.844852298
 30
0.000000000
 10
133.500000000
 20
137.801937836
 30
0.000000000
 10
133.500000000
 20
137.747693167
 30
0.000000000
 10
133.500000000
 20
137.693448498
 30
0.000000000
 10
133.500000000
 20
137.628555782
 30
0.000000000
 10
133.500000000
 20
137.563663065
 30
0.000000000
 10
133.500000000
 20
137.488938364
 30
0.000000000
 10
133.500000000
 20
137.414213662
 30
0.000000000
 10
133.500000000
 20
137.330596683
 30
0.000000000
 10
133.500000000
 20
137.246979704
 30
0.000000000
 10
133.500000000
 20
137.155521978
 30
0.000000000
 10
133.500000000
 20
137.064064253
 30
0.000000000
 10
133.500000000
 20
136.965915916
 30
0.000000000
 10
133.500000000
 20
136.867767578
 30
0.000000000
 10
133.500000000
 20
136.764162901
 30
0.000000000
 10
133.500000000
 20
136.660558224
 30
0.000000000
 10
133.500000000
 20
136.552800096
 30
0.000000000
 10
133.500000000
 20
136.445041968
 30
0.000000000
 10
133.500000000
 20
136.224718722
 30
0.000000000
 10
133.500000000
 20
136.000000100
 30
0.000000000
  0
SPLINE
  5
A77
330
A02
100
AcDbEntity
  8
ProjItem003
100
AcDbSpline
210
0
220
0
230
1
 70
8
 71
2
 72
30
 73
27
 74
0
 40
0.000000000
 40
0.000000000
 40
0.000000000
 40
0.112199738
 40
0.112199738
 40
0.224399475
 40
0.224399475
 40
0.336599213
 40
0.336599213
 40
0.448798951
 40
0.448798951
 40
0.560998688
 40
0.560998688
 40
0.673198426
 40
0.673198426
 40
0.785398163
 40
0.785398163
 40
0.897597901
 40
0.897597901
 40
1.009797639
 40
1.009797639
 40
1.121997376
 40
1.121997376
 40
1.234197114
 40
1.234197114
 40
1.346396852
 40
1.346396852
 40
1.570796327
 40
1.570796327
 40
1.570796327
 10
163.500000000
 20
138.000000100
 30
0.000000000
 10
163.500000000
 20
137.993712310
 30
0.000000000
 10
163.500000000
 20
137.987424520
 30
0.000000000
 10
163.500000000
 20
137.968640222
 30
0.000000000
 10
163.500000000
 20
137.949855924
 30
0.000000000
 10
163.500000000
 20
137.918811342
 30
0.000000000
 10
163.500000000
 20
137.887766761
 30
0.000000000
 10
163.500000000
 20
137.844852298
 30
0.000000000
 10
163.500000000
 20
137.801937836
 30
0.000000000
 10
163.500000000
 20
137.747693167
 30
0.000000000
 10
163.500000000
 20
137.693448498
 30
0.000000000
 10
163.500000000
 20
137.628555782
 30
0.000000000
 10
163.500000000
 20
137.563663065
 30
0.000000000
 10
163.500000000
 20
137.488938364
 30
0.000000000
 10
163.500000000
 20
137.414213662
 30
0.000000000
 10
163.500000000
 20
137.330596683
 30
0.000000000
 10
163.500000000
 20
137.246979704
 30
0.000000000
 10
163.500000000
 20
137.155521978
 30
0.000000000
 10
163.500000000
 20
137.064064253
 30
0.000000000
 10
163.500000000
 20
136.965915916
 30
0.000000000
 10
163.500000000
 20
136.867767578
 30
0.000000000
 10
163.500000000
 20
136.764162901
 30
0.000000000
 10
163.500000000
 20
136.660558224
 30
0.000000000
 10
163.500000000
 20
136.552800096
 30
0.000000000
 10
163.500000000
 20
136.445041968
 30
0.000000000
 10
163.500000000
 20
136.224718722
 30
0.000000000
 10
163.500000000
 20
136.000000100
 30
0.000000000
  0
SPLINE
  5
A78
330
A02
100
AcDbEntity
  8
ProjItem003
100
AcDbSpline
210
0
220
0
230
1
 70
8
 71
2
 72
24
 73
21
 74
0
 40
0.000000000
 40
0.000000000
 40
0.000000000
 40
0.336599213
 40
0.336599213
 40
0.560998688
 40
0.560998688
 40
0.785398163
 40
0.785398163
 40
0.897597901
 40
0.897597901
 40
1.009797639
 40
1.009797639
 40
1.121997376
 40
1.121997376
 40
1.234197114
 40
1.234197114
 40
1.346396852
 40
1.346396852
 40
1.458596589
 40
1.458596589
 40
1.570796327
 40
1.570796327
 40
1.570796327
 10
163.500000000
 20
139.000000100
 30
0.000000000
 10
163.500000000
 20
138.830576203
 30
0.000000000
 10
163.500000000
 20
138.669721038
 30
0.000000000
 10
163.500000000
 20
138.564586301
 30
0.000000000
 10
163.500000000
 20
138.467968023
 30
0.000000000
 10
163.500000000
 20
138.374311606
 30
0.000000000
 10
163.500000000
 20
138.292893319
 30
0.000000000
 10
163.500000000
 20
138.255530968
 30
0.000000000
 10
163.500000000
 20
138.218168618
 30
0.000000000
 10
163.500000000
 20
138.185722259
 30
0.000000000
 10
163.500000000
 20
138.153275901
 30
0.000000000
 10
163.500000000
 20
138.126153566
 30
0.000000000
 10
163.500000000
 20
138.099031232
 30
0.000000000
 10
163.500000000
 20
138.077574001
 30
0.000000000
 10
163.500000000
 20
138.056116770
 30
0.000000000
 10
163.500000000
 20
138.040594479
 30
0.000000000
 10
163.500000000
 20
138.025072188
 30
0.000000000
 10
163.500000000
 20
138.015680039
 30
0.000000000
 10
163.500000000
 20
138.006287890
 30
0.000000000
 10
163.500000000
 20
138.003143995
 30
0.000000000
 10
163.500000000
 20
138.000000100
 30
0.000000000
  0
LINE
  5
A79
330
A02
100
AcDbEntity
  8
ProjItem003
100
AcDbLine
 10
163.500000000
 20
157.000000100
 30
0.000000000
 11
163.500000000
 21
139.000000100
 31
0.000000000
  0
LINE
  5
A7A
330
A02
100
AcDbEntity
  8
ProjItem003
100
AcDbLine
 10
133.500000000
 20
138.000000100
 30
0.000000000
 11
163.500000000
 21
138.000000100
 31
0.000000000
  0
LINE
  5
A7B
330
A02
100
AcDbEntity
  8
ProjItem003
100
AcDbLine
 10
133.500000000
 20
137.000000100
 30
0.000000000
 11
163.500000000
 21
137.000000100
 31
0.000000000
  0
LINE
  5
A7C
330
A02
100
AcDbEntity
  8
ProjItem003
100
AcDbLine
 10
133.500000000
 20
157.000000100
 30
0.000000000
 11
163.500000000
 21
157.000000100
 31
0.000000000
  0
LINE
  5
A7D
330
A02
100
AcDbEntity
  8
ProjItem003
100
AcDbLine
 10
133.500000000
 20
139.000000100
 30
0.000000000
 11
163.500000000
 21
139.000000100
 31
0.000000000
  0
CIRCLE
  5
A7E
330
A02
100
AcDbEntity
  8
ProjItem003
100
AcDbCircle
 10
148.500000000
 20
148.000000100
 30
0.000000000
 40
2.494603000
  0
LINE
  5
A7F
330
A02
100
AcDbEntity
  8
ProjItem003
100
AcDbLine
 10
133.500000000
 20
138.000000100
 30
0.000000000
 11
163.500000000
 21
138.000000100
 31
0.000000000
  0
ENDSEC
  0
SECTION
  2
OBJECTS
  0
DICTIONARY
  5
F000
330
0
100
AcDbDictionary
  3
ACAD_GROUP
350
F001
  0
DICTIONARY
  5
F001
330
F000
100
AcDbDictionary
  0
ENDSEC
  0
EOF