999
FreeCAD v1.0 39285 (Git)
  0
SECTION
  2
HEADER
  9
$ACADVER
  1
AC1014
  9
$ACADMAINTVER
 70
     9
  9
$DWGCODEPAGE
  3
ANSI_1252
  9
$TEXTSTYLE
  7
STANDARD
  9
$DIMSTYLE
  2
STANDARD
  9
$DIMTXSTY
  7
STANDARD
  9
$CMLSTYLE
  2
STANDARD
  9
$LUNITS
 70
2
  9
$INSUNITS
 70
4
  9
$PEXTMAX
 10
50
 20
50
 30
50
  9
$PEXTMIN
 10
0
 20
0
 30
0
  9
$HANDSEED
  5
FFFF
  0
ENDSEC
  0
SECTION
  2
CLASSES
  0
CLASS
  1
ACDBDICTIONARYWDFLT
  2
AcDbDictionaryWithDefault
  3
ObjectDBX Classes
 90
        0
280
     0
281
     0
  0
CLASS
  1
XRECORD
  2
AcDbXrecord
  3
ObjectDBX Classes
 90
        0
280
     0
281
     0
  0
CLASS
  1
LWPOLYLINE
  2
AcDbPolyline
  3
ObjectDBX Classes
 90
        0
280
     0
281
     1
  0
ENDSEC
  0
SECTION
  2
TABLES
  0
TABLE
  2
VPORT
  5
20
330
0
100
AcDbSymbolTable
 70
     1
  0
VPORT
  5
21
330
20
100
AcDbSymbolTableRecord
100
AcDbViewportTableRecord
  2
*ACTIVE
 70
     0
  0
ENDTAB
  0
TABLE
  2
LTYPE
  5
22
330
0
100
AcDbSymbolTable
 70
     1
  0
LTYPE
  5
23
330
21
100
AcDbSymbolTableRecord
100
AcDbLinetypeTableRecord
  2
BYBLOCK
 70
     0
  3

 72
    65
 73
     0
 40
0.0
  0
LTYPE
  5
24
330
21
100
AcDbSymbolTableRecord
100
AcDbLinetypeTableRecord
  2
BYLAYER
 70
     0
  3

 72
    65
 73
     0
 40
0.0
  0
LTYPE
  5
25
330
21
100
AcDbSymbolTableRecord
100
AcDbLinetypeTableRecord
  2
CONTINUOUS
 70
     0
  3
Solid line
 72
    65
 73
     0
 40
0.0
  0
ENDTAB
  0
TABLE
  2
LAYER
  5
A70
330
0
100
AcDbSymbolTable
 70
4
  0
LAYER
  5
A71
330
A70
100
AcDbSymbolTableRecord
100
AcDbLayerTableRecord
  2
0
 70
   0
 62
   7
  6
CONTINUOUS
  0
LAYER
  5
A72
330
A70
100
AcDbSymbolTableRecord
100
AcDbLayerTableRecord
  2
ProjItem
 70
    0
 62
    7
  6
CONTINUOUS
  0
LAYER
  5
A73
330
A70
100
AcDbSymbolTableRecord
100
AcDbLayerTableRecord
  2
ProjItem001
 70
    0
 62
    7
  6
CONTINUOUS
  0
LAYER
  5
A74
330
A70
100
AcDbSymbolTableRecord
100
AcDbLayerTableRecord
  2
ProjItem002
 70
    0
 62
    7
  6
CONTINUOUS
  0
ENDTAB
  0
TABLE
  2
STYLE
  5
70
330
0
100
AcDbSymbolTable
 70
     2
  0
STYLE
  5
71
330
70
100
AcDbSymbolTableRecord
100
AcDbTextStyleTableRecord
  2
STANDARD
 70
     0
 40
0.0
 41
1.0
 50
0.0
 71
     0
 42
2.5
  3
arial.ttf
  4

  0
STYLE
  5
72
330
70
100
AcDbSymbolTableRecord
100
AcDbTextStyleTableRecord
  2
ANNOTATIVE
 70
     0
 40
0.0
 41
1.0
 50
0.0
 71
     0
 42
2.5
  3
arial.ttf
  4

  0
ENDTAB
  0
TABLE
  2
VIEW
  5
73
330
0
100
AcDbSymbolTable
 70
     0
  0
ENDTAB
  0
TABLE
  2
UCS
  5
74
330
0
100
AcDbSymbolTable
 70
     0
  0
ENDTAB
  0
TABLE
  2
APPID
  5
75
330
0
100
AcDbSymbolTable
 70
     2
  0
APPID
  5
76
330
75
100
AcDbSymbolTableRecord
100
AcDbRegAppTableRecord
  2
ACAD
 70
     0
  0
APPID
  5
77
330
75
100
AcDbSymbolTableRecord
100
AcDbRegAppTableRecord
  2
ACADANNOTATIVE
 70
     0
  0
ENDTAB
  0
TABLE
  2
DIMSTYLE
  5
78
330
0
100
AcDbSymbolTable
 70
     2
  0
DIMSTYLE
105
79
330
78
100
AcDbSymbolTableRecord
100
AcDbDimStyleTableRecord
  2
STANDARD
 70
     0
  3

  4

  5

  6

  7

 40
0.0
 41
2.5
 42
0.625
 43
3.75
 44
1.25
 45
0.0
 46
0.0
 47
0.0
 48
0.0
140
2.5
141
2.5
142
0.0
143
0.03937007874016
144
1.0
145
0.0
146
1.0
147
0.625
 71
     0
 72
     0
 73
     0
 74
     0
 75
     0
 76
     0
 77
     1
 78
     8
170
     0
171
     3
172
     1
173
     0
174
     0
175
     0
176
     0
177
     0
178
     0
270
     2
271
     2
272
     2
273
     2
274
     3
340
71
275
     0
280
     0
281
     0
282
     0
283
     0
284
     8
285
     0
286
     0
287
     3
288
     0
  0
ENDTAB
  0
TABLE
  2
BLOCK_RECORD
  5
A01
330
0
100
AcDbSymbolTable
  70
5
  0
BLOCK_RECORD
  5
A02
330
A01
100
AcDbSymbolTableRecord
100
AcDbBlockTableRecord
  2
*MODEL_SPACE
  0
BLOCK_RECORD
  5
A03
330
A01
100
AcDbSymbolTableRecord
100
AcDbBlockTableRecord
  2
*PAPER_SPACE
  0
ENDTAB
  0
ENDSEC
  0
SECTION
  2
BLOCKS
  0
BLOCK
  5
A04
330
A02
100
AcDbEntity
  8
0
100
AcDbBlockBegin
  2
*MODEL_SPACE
 70
   0
 10
0
 20
0
 30
0
  3
*MODEL_SPACE
  1
 
  0
ENDBLK
  5
A05
330
A02
100
AcDbEntity
  8
0
100
AcDbBlockEnd
  0
BLOCK
  5
A06
330
A03
100
AcDbEntity
 67
1
  8
0
100
AcDbBlockBegin
  2
*PAPER_SPACE
 70
   0
 10
0
 20
0
 30
0
  3
*PAPER_SPACE
  1
 
  0
ENDBLK
  5
A07
330
A03
100
AcDbEntity
 67
    1
  8
0
100
AcDbBlockEnd
  0
ENDSEC
  0
SECTION
  2
ENTITIES
  0
LINE
  5
A08
330
A02
100
AcDbEntity
  8
ProjItem
100
AcDbLine
 10
154.500000000
 20
90.000000000
 30
0.000000000
 11
154.500000000
 21
120.000000000
 31
0.000000000
  0
LINE
  5
A09
330
A02
100
AcDbEntity
  8
ProjItem
100
AcDbLine
 10
142.500000000
 20
120.000000000
 30
0.000000000
 11
143.500000000
 21
120.000000000
 31
0.000000000
  0
SPLINE
  5
A0A
330
A02
100
AcDbEntity
  8
ProjItem
100
AcDbSpline
210
0
220
0
230
1
 70
8
 71
3
 72
35
 73
31
 74
0
 40
0.000000000
 40
0.000000000
 40
0.000000000
 40
0.000000000
 40
0.112199738
 40
0.112199738
 40
0.112199738
 40
0.224399475
 40
0.224399475
 40
0.224399475
 40
0.336599213
 40
0.336599213
 40
0.336599213
 40
0.448798951
 40
0.448798951
 40
0.448798951
 40
0.560998688
 40
0.560998688
 40
0.560998688
 40
0.673198426
 40
0.673198426
 40
0.673198426
 40
0.785398163
 40
0.785398163
 40
0.785398163
 40
1.009797639
 40
1.009797639
 40
1.009797639
 40
1.121997376
 40
1.121997376
 40
1.121997376
 40
1.570796327
 40
1.570796327
 40
1.570796327
 40
1.570796327
 10
143.500000000
 20
120.000000000
 30
0.000000000
 10
143.502095930
 20
120.000000000
 30
0.000000000
 10
143.504191860
 20
120.000000000
 30
0.000000000
 10
143.506287790
 20
120.000000000
 30
0.000000000
 10
143.512549223
 20
120.000000000
 30
0.000000000
 10
143.518810655
 20
120.000000000
 30
0.000000000
 10
143.525072088
 20
120.000000000
 30
0.000000000
 10
143.535420282
 20
120.000000000
 30
0.000000000
 10
143.545768476
 20
120.000000000
 30
0.000000000
 10
143.556116670
 20
120.000000000
 30
0.000000000
 10
143.570421490
 20
120.000000000
 30
0.000000000
 10
143.584726311
 20
120.000000000
 30
0.000000000
 10
143.599031132
 20
120.000000000
 30
0.000000000
 10
143.617112688
 20
120.000000000
 30
0.000000000
 10
143.635194245
 20
120.000000000
 30
0.000000000
 10
143.653275801
 20
120.000000000
 30
0.000000000
 10
143.674906706
 20
120.000000000
 30
0.000000000
 10
143.696537612
 20
120.000000000
 30
0.000000000
 10
143.718168518
 20
120.000000000
 30
0.000000000
 10
143.743076751
 20
120.000000000
 30
0.000000000
 10
143.767984985
 20
120.000000000
 30
0.000000000
 10
143.792893219
 20
120.000000000
 30
0.000000000
 10
143.847172077
 20
120.000000000
 30
0.000000000
 10
143.905530312
 20
120.000000000
 30
0.000000000
 10
143.967967923
 20
120.000000000
 30
0.000000000
 10
144.000684036
 20
120.000000000
 30
0.000000000
 10
144.033400148
 20
120.000000000
 30
0.000000000
 10
144.066116261
 20
120.000000000
 30
0.000000000
 10
144.201836753
 20
120.000000000
 30
0.000000000
 10
144.350207115
 20
120.000000000
 30
0.000000000
 10
144.500000000
 20
120.000000000
 30
0.000000000
  0
LINE
  5
A0B
330
A02
100
AcDbEntity
  8
ProjItem
100
AcDbLine
 10
144.500000000
 20
120.000000000
 30
0.000000000
 11
152.500000000
 21
120.000000000
 31
0.000000000
  0
SPLINE
  5
A0C
330
A02
100
AcDbEntity
  8
ProjItem
100
AcDbSpline
210
0
220
0
230
1
 70
8
 71
3
 72
41
 73
37
 74
0
 40
0.000000000
 40
0.000000000
 40
0.000000000
 40
0.000000000
 40
0.336599213
 40
0.336599213
 40
0.336599213
 40
0.448798951
 40
0.448798951
 40
0.448798951
 40
0.560998688
 40
0.560998688
 40
0.560998688
 40
0.673198426
 40
0.673198426
 40
0.673198426
 40
0.785398163
 40
0.785398163
 40
0.785398163
 40
0.897597901
 40
0.897597901
 40
0.897597901
 40
1.009797639
 40
1.009797639
 40
1.009797639
 40
1.121997376
 40
1.121997376
 40
1.121997376
 40
1.234197114
 40
1.234197114
 40
1.234197114
 40
1.346396852
 40
1.346396852
 40
1.346396852
 40
1.458596589
 40
1.458596589
 40
1.458596589
 40
1.570796327
 40
1.570796327
 40
1.570796327
 40
1.570796327
 10
152.500000000
 20
120.000000000
 30
0.000000000
 10
152.724696414
 20
120.000000000
 30
0.000000000
 10
152.947286685
 20
120.000000000
 30
0.000000000
 10
153.160558124
 20
120.000000000
 30
0.000000000
 10
153.229627909
 20
120.000000000
 30
0.000000000
 10
153.298697693
 20
120.000000000
 30
0.000000000
 10
153.367767478
 20
120.000000000
 30
0.000000000
 10
153.433199703
 20
120.000000000
 30
0.000000000
 10
153.498631928
 20
120.000000000
 30
0.000000000
 10
153.564064153
 20
120.000000000
 30
0.000000000
 10
153.625035970
 20
120.000000000
 30
0.000000000
 10
153.686007787
 20
120.000000000
 30
0.000000000
 10
153.746979604
 20
120.000000000
 30
0.000000000
 10
153.802724257
 20
120.000000000
 30
0.000000000
 10
153.858468909
 20
120.000000000
 30
0.000000000
 10
153.914213562
 20
120.000000000
 30
0.000000000
 10
153.964030030
 20
120.000000000
 30
0.000000000
 10
154.013846497
 20
120.000000000
 30
0.000000000
 10
154.063662965
 20
120.000000000
 30
0.000000000
 10
154.106924776
 20
120.000000000
 30
0.000000000
 10
154.150186587
 20
120.000000000
 30
0.000000000
 10
154.193448398
 20
120.000000000
 30
0.000000000
 10
154.229611511
 20
120.000000000
 30
0.000000000
 10
154.265774623
 20
120.000000000
 30
0.000000000
 10
154.301937736
 20
120.000000000
 30
0.000000000
 10
154.330547377
 20
120.000000000
 30
0.000000000
 10
154.359157019
 20
120.000000000
 30
0.000000000
 10
154.387766661
 20
120.000000000
 30
0.000000000
 10
154.408463049
 20
120.000000000
 30
0.000000000
 10
154.429159436
 20
120.000000000
 30
0.000000000
 10
154.449855824
 20
120.000000000
 30
0.000000000
 10
154.462378690
 20
120.000000000
 30
0.000000000
 10
154.474901555
 20
120.000000000
 30
0.000000000
 10
154.487424420
 20
120.000000000
 30
0.000000000
 10
154.491616280
 20
120.000000000
 30
0.000000000
 10
154.495808140
 20
120.000000000
 30
0.000000000
 10
154.500000000
 20
120.000000000
 30
0.000000000
  0
SPLINE
  5
A0D
330
A02
100
AcDbEntity
  8
ProjItem
100
AcDbSpline
210
0
220
0
230
1
 70
8
 71
3
 72
41
 73
37
 74
0
 40
0.000000000
 40
0.000000000
 40
0.000000000
 40
0.000000000
 40
0.336599213
 40
0.336599213
 40
0.336599213
 40
0.448798951
 40
0.448798951
 40
0.448798951
 40
0.560998688
 40
0.560998688
 40
0.560998688
 40
0.673198426
 40
0.673198426
 40
0.673198426
 40
0.785398163
 40
0.785398163
 40
0.785398163
 40
0.897597901
 40
0.897597901
 40
0.897597901
 40
1.009797639
 40
1.009797639
 40
1.009797639
 40
1.121997376
 40
1.121997376
 40
1.121997376
 40
1.234197114
 40
1.234197114
 40
1.234197114
 40
1.346396852
 40
1.346396852
 40
1.346396852
 40
1.458596589
 40
1.458596589
 40
1.458596589
 40
1.570796327
 40
1.570796327
 40
1.570796327
 40
1.570796327
 10
152.500000000
 20
90.000000000
 30
0.000000000
 10
152.724696414
 20
90.000000000
 30
0.000000000
 10
152.947286685
 20
90.000000000
 30
0.000000000
 10
153.160558124
 20
90.000000000
 30
0.000000000
 10
153.229627909
 20
90.000000000
 30
0.000000000
 10
153.298697693
 20
90.000000000
 30
0.000000000
 10
153.367767478
 20
90.000000000
 30
0.000000000
 10
153.433199703
 20
90.000000000
 30
0.000000000
 10
153.498631928
 20
90.000000000
 30
0.000000000
 10
153.564064153
 20
90.000000000
 30
0.000000000
 10
153.625035970
 20
90.000000000
 30
0.000000000
 10
153.686007787
 20
90.000000000
 30
0.000000000
 10
153.746979604
 20
90.000000000
 30
0.000000000
 10
153.802724257
 20
90.000000000
 30
0.000000000
 10
153.858468909
 20
90.000000000
 30
0.000000000
 10
153.914213562
 20
90.000000000
 30
0.000000000
 10
153.964030030
 20
90.000000000
 30
0.000000000
 10
154.013846497
 20
90.000000000
 30
0.000000000
 10
154.063662965
 20
90.000000000
 30
0.000000000
 10
154.106924776
 20
90.000000000
 30
0.000000000
 10
154.150186587
 20
90.000000000
 30
0.000000000
 10
154.193448398
 20
90.000000000
 30
0.000000000
 10
154.229611511
 20
90.000000000
 30
0.000000000
 10
154.265774623
 20
90.000000000
 30
0.000000000
 10
154.301937736
 20
90.000000000
 30
0.000000000
 10
154.330547377
 20
90.000000000
 30
0.000000000
 10
154.359157019
 20
90.000000000
 30
0.000000000
 10
154.387766661
 20
90.000000000
 30
0.000000000
 10
154.408463049
 20
90.000000000
 30
0.000000000
 10
154.429159436
 20
90.000000000
 30
0.000000000
 10
154.449855824
 20
90.000000000
 30
0.000000000
 10
154.462378690
 20
90.000000000
 30
0.000000000
 10
154.474901555
 20
90.000000000
 30
0.000000000
 10
154.487424420
 20
90.000000000
 30
0.000000000
 10
154.491616280
 20
90.000000000
 30
0.000000000
 10
154.495808140
 20
90.000000000
 30
0.000000000
 10
154.500000000
 20
90.000000000
 30
0.000000000
  0
LINE
  5
A0E
330
A02
100
AcDbEntity
  8
ProjItem
100
AcDbLine
 10
152.500000000
 20
90.000000000
 30
0.000000000
 11
144.500000000
 21
90.000000000
 31
0.000000000
  0
SPLINE
  5
A0F
330
A02
100
AcDbEntity
  8
ProjItem
100
AcDbSpline
210
0
220
0
230
1
 70
8
 71
3
 72
35
 73
31
 74
0
 40
0.000000000
 40
0.000000000
 40
0.000000000
 40
0.000000000
 40
0.112199738
 40
0.112199738
 40
0.112199738
 40
0.224399475
 40
0.224399475
 40
0.224399475
 40
0.336599213
 40
0.336599213
 40
0.336599213
 40
0.448798951
 40
0.448798951
 40
0.448798951
 40
0.560998688
 40
0.560998688
 40
0.560998688
 40
0.673198426
 40
0.673198426
 40
0.673198426
 40
0.785398163
 40
0.785398163
 40
0.785398163
 40
1.009797639
 40
1.009797639
 40
1.009797639
 40
1.121997376
 40
1.121997376
 40
1.121997376
 40
1.570796327
 40
1.570796327
 40
1.570796327
 40
1.570796327
 10
143.500000000
 20
90.000000000
 30
0.000000000
 10
143.502095930
 20
90.000000000
 30
0.000000000
 10
143.504191860
 20
90.000000000
 30
0.000000000
 10
143.506287790
 20
90.000000000
 30
0.000000000
 10
143.512549223
 20
90.000000000
 30
0.000000000
 10
143.518810655
 20
90.000000000
 30
0.000000000
 10
143.525072088
 20
90.000000000
 30
0.000000000
 10
143.535420282
 20
90.000000000
 30
0.000000000
 10
143.545768476
 20
90.000000000
 30
0.000000000
 10
143.556116670
 20
90.000000000
 30
0.000000000
 10
143.570421490
 20
90.000000000
 30
0.000000000
 10
143.584726311
 20
90.000000000
 30
0.000000000
 10
143.599031132
 20
90.000000000
 30
0.000000000
 10
143.617112688
 20
90.000000000
 30
0.000000000
 10
143.635194245
 20
90.000000000
 30
0.000000000
 10
143.653275801
 20
90.000000000
 30
0.000000000
 10
143.674906706
 20
90.000000000
 30
0.000000000
 10
143.696537612
 20
90.000000000
 30
0.000000000
 10
143.718168518
 20
90.000000000
 30
0.000000000
 10
143.743076751
 20
90.000000000
 30
0.000000000
 10
143.767984985
 20
90.000000000
 30
0.000000000
 10
143.792893219
 20
90.000000000
 30
0.000000000
 10
143.847172077
 20
90.000000000
 30
0.000000000
 10
143.905530312
 20
90.000000000
 30
0.000000000
 10
143.967967923
 20
90.000000000
 30
0.000000000
 10
144.000684036
 20
90.000000000
 30
0.000000000
 10
144.033400148
 20
90.000000000
 30
0.000000000
 10
144.066116261
 20
90.000000000
 30
0.000000000
 10
144.201836753
 20
90.000000000
 30
0.000000000
 10
144.350207115
 20
90.000000000
 30
0.000000000
 10
144.500000000
 20
90.000000000
 30
0.000000000
  0
LINE
  5
A10
330
A02
100
AcDbEntity
  8
ProjItem
100
AcDbLine
 10
142.500000000
 20
90.000000000
 30
0.000000000
 11
143.500000000
 21
90.000000000
 31
0.000000000
  0
LINE
  5
A11
330
A02
100
AcDbEntity
  8
ProjItem
100
AcDbLine
 10
152.500000000
 20
120.000000000
 30
0.000000000
 11
152.500000000
 21
90.000000000
 31
0.000000000
  0
LINE
  5
A12
330
A02
100
AcDbEntity
  8
ProjItem
100
AcDbLine
 10
142.500000000
 20
120.000000000
 30
0.000000000
 11
142.500000000
 21
90.000000000
 31
0.000000000
  0
LINE
  5
A13
330
A02
100
AcDbEntity
  8
ProjItem
100
AcDbLine
 10
143.500000000
 20
120.000000000
 30
0.000000000
 11
143.500000000
 21
90.000000000
 31
0.000000000
  0
LINE
  5
A14
330
A02
100
AcDbEntity
  8
ProjItem
100
AcDbLine
 10
144.500000000
 20
120.000000000
 30
0.000000000
 11
144.500000000
 21
90.000000000
 31
0.000000000
  0
LINE
  5
A15
330
A02
100
AcDbEntity
  8
ProjItem
100
AcDbLine
 10
154.500000000
 20
120.000000000
 30
0.000000000
 11
154.500000000
 21
95.000000000
 31
0.000000000
  0
LINE
  5
A16
330
A02
100
AcDbEntity
  8
ProjItem
100
AcDbLine
 10
154.500000000
 20
95.000000000
 30
0.000000000
 11
154.500000000
 21
90.000000000
 31
0.000000000
  0
SPLINE
  5
A17
330
A02
100
AcDbEntity
  8
ProjItem
100
AcDbSpline
210
0
220
0
230
1
 70
8
 71
1
 72
17
 73
15
 74
0
 40
0.000000000
 40
0.000000000
 40
0.224399475
 40
0.448798951
 40
0.673198426
 40
0.897597901
 40
1.121997376
 40
1.346396852
 40
1.570796327
 40
1.795195802
 40
2.019595277
 40
2.243994753
 40
2.468394228
 40
2.692793703
 40
2.917193178
 40
3.141592654
 40
3.141592654
 10
154.500000000
 20
102.811974000
 30
0.000000000
 10
154.500000000
 20
102.866832380
 30
0.000000000
 10
154.500000000
 20
103.028656692
 30
0.000000000
 10
154.500000000
 20
103.289332389
 30
0.000000000
 10
154.500000000
 20
103.635788103
 30
0.000000000
 10
154.500000000
 20
104.050651098
 30
0.000000000
 10
154.500000000
 20
104.513118411
 30
0.000000000
 10
154.500000000
 20
105.000000000
 30
0.000000000
 10
154.500000000
 20
105.486881589
 30
0.000000000
 10
154.500000000
 20
105.949348902
 30
0.000000000
 10
154.500000000
 20
106.364211897
 30
0.000000000
 10
154.500000000
 20
106.710667611
 30
0.000000000
 10
154.500000000
 20
106.971343308
 30
0.000000000
 10
154.500000000
 20
107.133167620
 30
0.000000000
 10
154.500000000
 20
107.188026000
 30
0.000000000
  0
SPLINE
  5
A18
330
A02
100
AcDbEntity
  8
ProjItem
100
AcDbSpline
210
0
220
0
230
1
 70
8
 71
1
 72
17
 73
15
 74
0
 40
3.141592654
 40
3.141592654
 40
3.365992129
 40
3.590391604
 40
3.814791079
 40
4.039190555
 40
4.263590030
 40
4.487989505
 40
4.712388980
 40
4.936788456
 40
5.161187931
 40
5.385587406
 40
5.609986881
 40
5.834386357
 40
6.058785832
 40
6.283185307
 40
6.283185307
 10
154.500000000
 20
107.188026000
 30
0.000000000
 10
154.500000000
 20
107.133167620
 30
0.000000000
 10
154.500000000
 20
106.971343308
 30
0.000000000
 10
154.500000000
 20
106.710667611
 30
0.000000000
 10
154.500000000
 20
106.364211897
 30
0.000000000
 10
154.500000000
 20
105.949348902
 30
0.000000000
 10
154.500000000
 20
105.486881589
 30
0.000000000
 10
154.500000000
 20
105.000000000
 30
0.000000000
 10
154.500000000
 20
104.513118411
 30
0.000000000
 10
154.500000000
 20
104.050651098
 30
0.000000000
 10
154.500000000
 20
103.635788103
 30
0.000000000
 10
154.500000000
 20
103.289332389
 30
0.000000000
 10
154.500000000
 20
103.028656692
 30
0.000000000
 10
154.500000000
 20
102.866832380
 30
0.000000000
 10
154.500000000
 20
102.811974000
 30
0.000000000
  0
LINE
  5
A19
330
A02
100
AcDbEntity
  8
ProjItem
100
AcDbLine
 10
154.500000000
 20
95.000000000
 30
0.000000000
 11
153.500000000
 21
95.000000000
 31
0.000000000
  0
LINE
  5
A1A
330
A02
100
AcDbEntity
  8
ProjItem
100
AcDbLine
 10
154.500000000
 20
120.000000000
 30
0.000000000
 11
153.500000000
 21
120.000000000
 31
0.000000000
  0
LINE
  5
A1B
330
A02
100
AcDbEntity
  8
ProjItem
100
AcDbLine
 10
153.500000000
 20
120.000000000
 30
0.000000000
 11
153.500000000
 21
95.000000000
 31
0.000000000
  0
LINE
  5
A1C
330
A02
100
AcDbEntity
  8
ProjItem
100
AcDbLine
 10
154.500000000
 20
90.000000000
 30
0.000000000
 11
153.500000000
 21
90.000000000
 31
0.000000000
  0
LINE
  5
A1D
330
A02
100
AcDbEntity
  8
ProjItem
100
AcDbLine
 10
153.500000000
 20
95.000000000
 30
0.000000000
 11
153.500000000
 21
90.000000000
 31
0.000000000
  0
SPLINE
  5
A1E
330
A02
100
AcDbEntity
  8
ProjItem
100
AcDbSpline
210
0
220
0
230
1
 70
8
 71
2
 72
24
 73
21
 74
0
 40
0.000000000
 40
0.000000000
 40
0.000000000
 40
0.336599213
 40
0.336599213
 40
0.560998688
 40
0.560998688
 40
0.785398163
 40
0.785398163
 40
0.897597901
 40
0.897597901
 40
1.009797639
 40
1.009797639
 40
1.121997376
 40
1.121997376
 40
1.234197114
 40
1.234197114
 40
1.346396852
 40
1.346396852
 40
1.458596589
 40
1.458596589
 40
1.570796327
 40
1.570796327
 40
1.570796327
 10
152.500000000
 20
120.000000000
 30
0.000000000
 10
152.669423897
 20
120.000000000
 30
0.000000000
 10
152.830279062
 20
120.000000000
 30
0.000000000
 10
152.935413799
 20
120.000000000
 30
0.000000000
 10
153.032032077
 20
120.000000000
 30
0.000000000
 10
153.125688494
 20
120.000000000
 30
0.000000000
 10
153.207106781
 20
120.000000000
 30
0.000000000
 10
153.244469132
 20
120.000000000
 30
0.000000000
 10
153.281831482
 20
120.000000000
 30
0.000000000
 10
153.314277841
 20
120.000000000
 30
0.000000000
 10
153.346724199
 20
120.000000000
 30
0.000000000
 10
153.373846534
 20
120.000000000
 30
0.000000000
 10
153.400968868
 20
120.000000000
 30
0.000000000
 10
153.422426099
 20
120.000000000
 30
0.000000000
 10
153.443883330
 20
120.000000000
 30
0.000000000
 10
153.459405621
 20
120.000000000
 30
0.000000000
 10
153.474927912
 20
120.000000000
 30
0.000000000
 10
153.484320061
 20
120.000000000
 30
0.000000000
 10
153.493712210
 20
120.000000000
 30
0.000000000
 10
153.496856105
 20
120.000000000
 30
0.000000000
 10
153.500000000
 20
120.000000000
 30
0.000000000
  0
LINE
  5
A1F
330
A02
100
AcDbEntity
  8
ProjItem
100
AcDbLine
 10
144.500000000
 20
120.000000000
 30
0.000000000
 11
152.500000000
 21
120.000000000
 31
0.000000000
  0
SPLINE
  5
A20
330
A02
100
AcDbEntity
  8
ProjItem
100
AcDbSpline
210
0
220
0
230
1
 70
8
 71
2
 72
30
 73
27
 74
0
 40
0.000000000
 40
0.000000000
 40
0.000000000
 40
0.112199738
 40
0.112199738
 40
0.224399475
 40
0.224399475
 40
0.336599213
 40
0.336599213
 40
0.448798951
 40
0.448798951
 40
0.560998688
 40
0.560998688
 40
0.673198426
 40
0.673198426
 40
0.785398163
 40
0.785398163
 40
0.897597901
 40
0.897597901
 40
1.009797639
 40
1.009797639
 40
1.121997376
 40
1.121997376
 40
1.234197114
 40
1.234197114
 40
1.346396852
 40
1.346396852
 40
1.570796327
 40
1.570796327
 40
1.570796327
 10
142.500000000
 20
120.000000000
 30
0.000000000
 10
142.506287790
 20
120.000000000
 30
0.000000000
 10
142.512575580
 20
120.000000000
 30
0.000000000
 10
142.531359878
 20
120.000000000
 30
0.000000000
 10
142.550144176
 20
120.000000000
 30
0.000000000
 10
142.581188758
 20
120.000000000
 30
0.000000000
 10
142.612233339
 20
120.000000000
 30
0.000000000
 10
142.655147802
 20
120.000000000
 30
0.000000000
 10
142.698062264
 20
120.000000000
 30
0.000000000
 10
142.752306933
 20
120.000000000
 30
0.000000000
 10
142.806551602
 20
120.000000000
 30
0.000000000
 10
142.871444318
 20
120.000000000
 30
0.000000000
 10
142.936337035
 20
120.000000000
 30
0.000000000
 10
143.011061736
 20
120.000000000
 30
0.000000000
 10
143.085786438
 20
120.000000000
 30
0.000000000
 10
143.169403417
 20
120.000000000
 30
0.000000000
 10
143.253020396
 20
120.000000000
 30
0.000000000
 10
143.344478122
 20
120.000000000
 30
0.000000000
 10
143.435935847
 20
120.000000000
 30
0.000000000
 10
143.534084184
 20
120.000000000
 30
0.000000000
 10
143.632232522
 20
120.000000000
 30
0.000000000
 10
143.735837199
 20
120.000000000
 30
0.000000000
 10
143.839441876
 20
120.000000000
 30
0.000000000
 10
143.947200004
 20
120.000000000
 30
0.000000000
 10
144.054958132
 20
120.000000000
 30
0.000000000
 10
144.275281378
 20
120.000000000
 30
0.000000000
 10
144.500000000
 20
120.000000000
 30
0.000000000
  0
SPLINE
  5
A21
330
A02
100
AcDbEntity
  8
ProjItem
100
AcDbSpline
210
0
220
0
230
1
 70
8
 71
2
 72
30
 73
27
 74
0
 40
0.000000000
 40
0.000000000
 40
0.000000000
 40
0.112199738
 40
0.112199738
 40
0.224399475
 40
0.224399475
 40
0.336599213
 40
0.336599213
 40
0.448798951
 40
0.448798951
 40
0.560998688
 40
0.560998688
 40
0.673198426
 40
0.673198426
 40
0.785398163
 40
0.785398163
 40
0.897597901
 40
0.897597901
 40
1.009797639
 40
1.009797639
 40
1.121997376
 40
1.121997376
 40
1.234197114
 40
1.234197114
 40
1.346396852
 40
1.346396852
 40
1.570796327
 40
1.570796327
 40
1.570796327
 10
142.500000000
 20
90.000000000
 30
0.000000000
 10
142.506287790
 20
90.000000000
 30
0.000000000
 10
142.512575580
 20
90.000000000
 30
0.000000000
 10
142.531359878
 20
90.000000000
 30
0.000000000
 10
142.550144176
 20
90.000000000
 30
0.000000000
 10
142.581188758
 20
90.000000000
 30
0.000000000
 10
142.612233339
 20
90.000000000
 30
0.000000000
 10
142.655147802
 20
90.000000000
 30
0.000000000
 10
142.698062264
 20
90.000000000
 30
0.000000000
 10
142.752306933
 20
90.000000000
 30
0.000000000
 10
142.806551602
 20
90.000000000
 30
0.000000000
 10
142.871444318
 20
90.000000000
 30
0.000000000
 10
142.936337035
 20
90.000000000
 30
0.000000000
 10
143.011061736
 20
90.000000000
 30
0.000000000
 10
143.085786438
 20
90.000000000
 30
0.000000000
 10
143.169403417
 20
90.000000000
 30
0.000000000
 10
143.253020396
 20
90.000000000
 30
0.000000000
 10
143.344478122
 20
90.000000000
 30
0.000000000
 10
143.435935847
 20
90.000000000
 30
0.000000000
 10
143.534084184
 20
90.000000000
 30
0.000000000
 10
143.632232522
 20
90.000000000
 30
0.000000000
 10
143.735837199
 20
90.000000000
 30
0.000000000
 10
143.839441876
 20
90.000000000
 30
0.000000000
 10
143.947200004
 20
90.000000000
 30
0.000000000
 10
144.054958132
 20
90.000000000
 30
0.000000000
 10
144.275281378
 20
90.000000000
 30
0.000000000
 10
144.500000000
 20
90.000000000
 30
0.000000000
  0
LINE
  5
A22
330
A02
100
AcDbEntity
  8
ProjItem
100
AcDbLine
 10
152.500000000
 20
90.000000000
 30
0.000000000
 11
144.500000000
 21
90.000000000
 31
0.000000000
  0
SPLINE
  5
A23
330
A02
100
AcDbEntity
  8
ProjItem
100
AcDbSpline
210
0
220
0
230
1
 70
8
 71
2
 72
24
 73
21
 74
0
 40
0.000000000
 40
0.000000000
 40
0.000000000
 40
0.336599213
 40
0.336599213
 40
0.560998688
 40
0.560998688
 40
0.785398163
 40
0.785398163
 40
0.897597901
 40
0.897597901
 40
1.009797639
 40
1.009797639
 40
1.121997376
 40
1.121997376
 40
1.234197114
 40
1.234197114
 40
1.346396852
 40
1.346396852
 40
1.458596589
 40
1.458596589
 40
1.570796327
 40
1.570796327
 40
1.570796327
 10
152.500000000
 20
90.000000000
 30
0.000000000
 10
152.669423897
 20
90.000000000
 30
0.000000000
 10
152.830279062
 20
90.000000000
 30
0.000000000
 10
152.935413799
 20
90.000000000
 30
0.000000000
 10
153.032032077
 20
90.000000000
 30
0.000000000
 10
153.125688494
 20
90.000000000
 30
0.000000000
 10
153.207106781
 20
90.000000000
 30
0.000000000
 10
153.244469132
 20
90.000000000
 30
0.000000000
 10
153.281831482
 20
90.000000000
 30
0.000000000
 10
153.314277841
 20
90.000000000
 30
0.000000000
 10
153.346724199
 20
90.000000000
 30
0.000000000
 10
153.373846534
 20
90.000000000
 30
0.000000000
 10
153.400968868
 20
90.000000000
 30
0.000000000
 10
153.422426099
 20
90.000000000
 30
0.000000000
 10
153.443883330
 20
90.000000000
 30
0.000000000
 10
153.459405621
 20
90.000000000
 30
0.000000000
 10
153.474927912
 20
90.000000000
 30
0.000000000
 10
153.484320061
 20
90.000000000
 30
0.000000000
 10
153.493712210
 20
90.000000000
 30
0.000000000
 10
153.496856105
 20
90.000000000
 30
0.000000000
 10
153.500000000
 20
90.000000000
 30
0.000000000
  0
LINE
  5
A24
330
A02
100
AcDbEntity
  8
ProjItem
100
AcDbLine
 10
154.500000000
 20
102.811974000
 30
0.000000000
 11
153.500000000
 21
102.811974000
 31
0.000000000
  0
SPLINE
  5
A25
330
A02
100
AcDbEntity
  8
ProjItem
100
AcDbSpline
210
0
220
0
230
1
 70
8
 71
1
 72
17
 73
15
 74
0
 40
0.000000000
 40
0.000000000
 40
0.224399475
 40
0.448798951
 40
0.673198426
 40
0.897597901
 40
1.121997376
 40
1.346396852
 40
1.570796327
 40
1.795195802
 40
2.019595277
 40
2.243994753
 40
2.468394228
 40
2.692793703
 40
2.917193178
 40
3.141592654
 40
3.141592654
 10
153.500000000
 20
102.811974000
 30
0.000000000
 10
153.500000000
 20
102.866832380
 30
0.000000000
 10
153.500000000
 20
103.028656692
 30
0.000000000
 10
153.500000000
 20
103.289332389
 30
0.000000000
 10
153.500000000
 20
103.635788103
 30
0.000000000
 10
153.500000000
 20
104.050651098
 30
0.000000000
 10
153.500000000
 20
104.513118411
 30
0.000000000
 10
153.500000000
 20
105.000000000
 30
0.000000000
 10
153.500000000
 20
105.486881589
 30
0.000000000
 10
153.500000000
 20
105.949348902
 30
0.000000000
 10
153.500000000
 20
106.364211897
 30
0.000000000
 10
153.500000000
 20
106.710667611
 30
0.000000000
 10
153.500000000
 20
106.971343308
 30
0.000000000
 10
153.500000000
 20
107.133167620
 30
0.000000000
 10
153.500000000
 20
107.188026000
 30
0.000000000
  0
SPLINE
  5
A26
330
A02
100
AcDbEntity
  8
ProjItem
100
AcDbSpline
210
0
220
0
230
1
 70
8
 71
1
 72
17
 73
15
 74
0
 40
3.141592654
 40
3.141592654
 40
3.365992129
 40
3.590391604
 40
3.814791079
 40
4.039190555
 40
4.263590030
 40
4.487989505
 40
4.712388980
 40
4.936788456
 40
5.161187931
 40
5.385587406
 40
5.609986881
 40
5.834386357
 40
6.058785832
 40
6.283185307
 40
6.283185307
 10
153.500000000
 20
107.188026000
 30
0.000000000
 10
153.500000000
 20
107.133167620
 30
0.000000000
 10
153.500000000
 20
106.971343308
 30
0.000000000
 10
153.500000000
 20
106.710667611
 30
0.000000000
 10
153.500000000
 20
106.364211897
 30
0.000000000
 10
153.500000000
 20
105.949348902
 30
0.000000000
 10
153.500000000
 20
105.486881589
 30
0.000000000
 10
153.500000000
 20
105.000000000
 30
0.000000000
 10
153.500000000
 20
104.513118411
 30
0.000000000
 10
153.500000000
 20
104.050651098
 30
0.000000000
 10
153.500000000
 20
103.635788103
 30
0.000000000
 10
153.500000000
 20
103.289332389
 30
0.000000000
 10
153.500000000
 20
103.028656692
 30
0.000000000
 10
153.500000000
 20
102.866832380
 30
0.000000000
 10
153.500000000
 20
102.811974000
 30
0.000000000
  0
LINE
  5
A27
330
A02
100
AcDbEntity
  8
ProjItem
100
AcDbLine
 10
153.500000000
 20
120.000000000
 30
0.000000000
 11
153.500000000
 21
90.000000000
 31
0.000000000
  0
LINE
  5
A28
330
A02
100
AcDbEntity
  8
ProjItem
100
AcDbLine
 10
152.500000000
 20
120.000000000
 30
0.000000000
 11
152.500000000
 21
90.000000000
 31
0.000000000
  0
LINE
  5
A29
330
A02
100
AcDbEntity
  8
ProjItem
100
AcDbLine
 10
144.500000000
 20
90.000000000
 30
0.000000000
 11
144.500000000
 21
120.000000000
 31
0.000000000
  0
LINE
  5
A2A
330
A02
100
AcDbEntity
  8
ProjItem
100
AcDbLine
 10
142.500000000
 20
120.000000000
 30
0.000000000
 11
142.500000000
 21
90.000000000
 31
0.000000000
  0
LINE
  5
A2B
330
A02
100
AcDbEntity
  8
ProjItem
100
AcDbLine
 10
143.500000000
 20
120.000000000
 30
0.000000000
 11
143.500000000
 21
90.000000000
 31
0.000000000
  0
LINE
  5
A2C
330
A02
100
AcDbEntity
  8
ProjItem
100
AcDbLine
 10
153.500000000
 20
107.188026000
 30
0.000000000
 11
154.500000000
 21
107.188026000
 31
0.000000000
  0
LINE
  5
A2D
330
A02
100
AcDbEntity
  8
ProjItem001
100
AcDbLine
 10
169.500000100
 20
120.000000000
 30
0.000000000
 11
169.500000100
 21
95.000000000
 31
0.000000000
  0
LINE
  5
A2E
330
A02
100
AcDbEntity
  8
ProjItem001
100
AcDbLine
 10
169.500000100
 20
95.000000000
 30
0.000000000
 11
174.500000100
 21
90.000000000
 31
0.000000000
  0
LINE
  5
A2F
330
A02
100
AcDbEntity
  8
ProjItem001
100
AcDbLine
 10
179.500000100
 20
120.000000000
 30
0.000000000
 11
169.500000100
 21
120.000000000
 31
0.000000000
  0
SPLINE
  5
A30
330
A02
100
AcDbEntity
  8
ProjItem001
100
AcDbSpline
210
0
220
0
230
1
 70
8
 71
3
 72
35
 73
31
 74
0
 40
0.000000000
 40
0.000000000
 40
0.000000000
 40
0.000000000
 40
0.112199738
 40
0.112199738
 40
0.112199738
 40
0.224399475
 40
0.224399475
 40
0.224399475
 40
0.336599213
 40
0.336599213
 40
0.336599213
 40
0.448798951
 40
0.448798951
 40
0.448798951
 40
0.560998688
 40
0.560998688
 40
0.560998688
 40
0.673198426
 40
0.673198426
 40
0.673198426
 40
0.785398163
 40
0.785398163
 40
0.785398163
 40
1.009797639
 40
1.009797639
 40
1.009797639
 40
1.121997376
 40
1.121997376
 40
1.121997376
 40
1.570796327
 40
1.570796327
 40
1.570796327
 40
1.570796327
 10
180.500000100
 20
120.000000000
 30
0.000000000
 10
180.497904170
 20
120.000000000
 30
0.000000000
 10
180.495808240
 20
120.000000000
 30
0.000000000
 10
180.493712310
 20
120.000000000
 30
0.000000000
 10
180.487450877
 20
120.000000000
 30
0.000000000
 10
180.481189445
 20
120.000000000
 30
0.000000000
 10
180.474928012
 20
120.000000000
 30
0.000000000
 10
180.464579818
 20
120.000000000
 30
0.000000000
 10
180.454231624
 20
120.000000000
 30
0.000000000
 10
180.443883430
 20
120.000000000
 30
0.000000000
 10
180.429578610
 20
120.000000000
 30
0.000000000
 10
180.415273789
 20
120.000000000
 30
0.000000000
 10
180.400968968
 20
120.000000000
 30
0.000000000
 10
180.382887412
 20
120.000000000
 30
0.000000000
 10
180.364805855
 20
120.000000000
 30
0.000000000
 10
180.346724299
 20
120.000000000
 30
0.000000000
 10
180.325093394
 20
120.000000000
 30
0.000000000
 10
180.303462488
 20
120.000000000
 30
0.000000000
 10
180.281831582
 20
120.000000000
 30
0.000000000
 10
180.256923349
 20
120.000000000
 30
0.000000000
 10
180.232015115
 20
120.000000000
 30
0.000000000
 10
180.207106881
 20
120.000000000
 30
0.000000000
 10
180.152828023
 20
120.000000000
 30
0.000000000
 10
180.094469788
 20
120.000000000
 30
0.000000000
 10
180.032032177
 20
120.000000000
 30
0.000000000
 10
179.999316064
 20
120.000000000
 30
0.000000000
 10
179.966599952
 20
120.000000000
 30
0.000000000
 10
179.933883839
 20
120.000000000
 30
0.000000000
 10
179.798163347
 20
120.000000000
 30
0.000000000
 10
179.649792985
 20
120.000000000
 30
0.000000000
 10
179.500000100
 20
120.000000000
 30
0.000000000
  0
SPLINE
  5
A31
330
A02
100
AcDbEntity
  8
ProjItem001
100
AcDbSpline
210
0
220
0
230
1
 70
8
 71
3
 72
41
 73
37
 74
0
 40
0.000000000
 40
0.000000000
 40
0.000000000
 40
0.000000000
 40
0.336599213
 40
0.336599213
 40
0.336599213
 40
0.448798951
 40
0.448798951
 40
0.448798951
 40
0.560998688
 40
0.560998688
 40
0.560998688
 40
0.673198426
 40
0.673198426
 40
0.673198426
 40
0.785398163
 40
0.785398163
 40
0.785398163
 40
0.897597901
 40
0.897597901
 40
0.897597901
 40
1.009797639
 40
1.009797639
 40
1.009797639
 40
1.121997376
 40
1.121997376
 40
1.121997376
 40
1.234197114
 40
1.234197114
 40
1.234197114
 40
1.346396852
 40
1.346396852
 40
1.346396852
 40
1.458596589
 40
1.458596589
 40
1.458596589
 40
1.570796327
 40
1.570796327
 40
1.570796327
 40
1.570796327
 10
182.500000100
 20
120.000000000
 30
0.000000000
 10
182.275303686
 20
120.000000000
 30
0.000000000
 10
182.052713415
 20
120.000000000
 30
0.000000000
 10
181.839441976
 20
120.000000000
 30
0.000000000
 10
181.770372191
 20
120.000000000
 30
0.000000000
 10
181.701302407
 20
120.000000000
 30
0.000000000
 10
181.632232622
 20
120.000000000
 30
0.000000000
 10
181.566800397
 20
120.000000000
 30
0.000000000
 10
181.501368172
 20
120.000000000
 30
0.000000000
 10
181.435935947
 20
120.000000000
 30
0.000000000
 10
181.374964130
 20
120.000000000
 30
0.000000000
 10
181.313992313
 20
120.000000000
 30
0.000000000
 10
181.253020496
 20
120.000000000
 30
0.000000000
 10
181.197275843
 20
120.000000000
 30
0.000000000
 10
181.141531191
 20
120.000000000
 30
0.000000000
 10
181.085786538
 20
120.000000000
 30
0.000000000
 10
181.035970070
 20
120.000000000
 30
0.000000000
 10
180.986153603
 20
120.000000000
 30
0.000000000
 10
180.936337135
 20
120.000000000
 30
0.000000000
 10
180.893075324
 20
120.000000000
 30
0.000000000
 10
180.849813513
 20
120.000000000
 30
0.000000000
 10
180.806551702
 20
120.000000000
 30
0.000000000
 10
180.770388589
 20
120.000000000
 30
0.000000000
 10
180.734225477
 20
120.000000000
 30
0.000000000
 10
180.698062364
 20
120.000000000
 30
0.000000000
 10
180.669452723
 20
120.000000000
 30
0.000000000
 10
180.640843081
 20
120.000000000
 30
0.000000000
 10
180.612233439
 20
120.000000000
 30
0.000000000
 10
180.591537051
 20
120.000000000
 30
0.000000000
 10
180.570840664
 20
120.000000000
 30
0.000000000
 10
180.550144276
 20
120.000000000
 30
0.000000000
 10
180.537621410
 20
120.000000000
 30
0.000000000
 10
180.525098545
 20
120.000000000
 30
0.000000000
 10
180.512575680
 20
120.000000000
 30
0.000000000
 10
180.508383820
 20
120.000000000
 30
0.000000000
 10
180.504191960
 20
120.000000000
 30
0.000000000
 10
180.500000100
 20
120.000000000
 30
0.000000000
  0
LINE
  5
A32
330
A02
100
AcDbEntity
  8
ProjItem001
100
AcDbLine
 10
200.500000100
 20
120.000000000
 30
0.000000000
 11
182.500000100
 21
120.000000000
 31
0.000000000
  0
LINE
  5
A33
330
A02
100
AcDbEntity
  8
ProjItem001
100
AcDbLine
 10
200.500000100
 20
90.000000000
 30
0.000000000
 11
182.500000100
 21
90.000000000
 31
0.000000000
  0
SPLINE
  5
A34
330
A02
100
AcDbEntity
  8
ProjItem001
100
AcDbSpline
210
0
220
0
230
1
 70
8
 71
3
 72
41
 73
37
 74
0
 40
0.000000000
 40
0.000000000
 40
0.000000000
 40
0.000000000
 40
0.336599213
 40
0.336599213
 40
0.336599213
 40
0.448798951
 40
0.448798951
 40
0.448798951
 40
0.560998688
 40
0.560998688
 40
0.560998688
 40
0.673198426
 40
0.673198426
 40
0.673198426
 40
0.785398163
 40
0.785398163
 40
0.785398163
 40
0.897597901
 40
0.897597901
 40
0.897597901
 40
1.009797639
 40
1.009797639
 40
1.009797639
 40
1.121997376
 40
1.121997376
 40
1.121997376
 40
1.234197114
 40
1.234197114
 40
1.234197114
 40
1.346396852
 40
1.346396852
 40
1.346396852
 40
1.458596589
 40
1.458596589
 40
1.458596589
 40
1.570796327
 40
1.570796327
 40
1.570796327
 40
1.570796327
 10
182.500000100
 20
90.000000000
 30
0.000000000
 10
182.275303686
 20
90.000000000
 30
0.000000000
 10
182.052713415
 20
90.000000000
 30
0.000000000
 10
181.839441976
 20
90.000000000
 30
0.000000000
 10
181.770372191
 20
90.000000000
 30
0.000000000
 10
181.701302407
 20
90.000000000
 30
0.000000000
 10
181.632232622
 20
90.000000000
 30
0.000000000
 10
181.566800397
 20
90.000000000
 30
0.000000000
 10
181.501368172
 20
90.000000000
 30
0.000000000
 10
181.435935947
 20
90.000000000
 30
0.000000000
 10
181.374964130
 20
90.000000000
 30
0.000000000
 10
181.313992313
 20
90.000000000
 30
0.000000000
 10
181.253020496
 20
90.000000000
 30
0.000000000
 10
181.197275843
 20
90.000000000
 30
0.000000000
 10
181.141531191
 20
90.000000000
 30
0.000000000
 10
181.085786538
 20
90.000000000
 30
0.000000000
 10
181.035970070
 20
90.000000000
 30
0.000000000
 10
180.986153603
 20
90.000000000
 30
0.000000000
 10
180.936337135
 20
90.000000000
 30
0.000000000
 10
180.893075324
 20
90.000000000
 30
0.000000000
 10
180.849813513
 20
90.000000000
 30
0.000000000
 10
180.806551702
 20
90.000000000
 30
0.000000000
 10
180.770388589
 20
90.000000000
 30
0.000000000
 10
180.734225477
 20
90.000000000
 30
0.000000000
 10
180.698062364
 20
90.000000000
 30
0.000000000
 10
180.669452723
 20
90.000000000
 30
0.000000000
 10
180.640843081
 20
90.000000000
 30
0.000000000
 10
180.612233439
 20
90.000000000
 30
0.000000000
 10
180.591537051
 20
90.000000000
 30
0.000000000
 10
180.570840664
 20
90.000000000
 30
0.000000000
 10
180.550144276
 20
90.000000000
 30
0.000000000
 10
180.537621410
 20
90.000000000
 30
0.000000000
 10
180.525098545
 20
90.000000000
 30
0.000000000
 10
180.512575680
 20
90.000000000
 30
0.000000000
 10
180.508383820
 20
90.000000000
 30
0.000000000
 10
180.504191960
 20
90.000000000
 30
0.000000000
 10
180.500000100
 20
90.000000000
 30
0.000000000
  0
SPLINE
  5
A35
330
A02
100
AcDbEntity
  8
ProjItem001
100
AcDbSpline
210
0
220
0
230
1
 70
8
 71
3
 72
35
 73
31
 74
0
 40
0.000000000
 40
0.000000000
 40
0.000000000
 40
0.000000000
 40
0.112199738
 40
0.112199738
 40
0.112199738
 40
0.224399475
 40
0.224399475
 40
0.224399475
 40
0.336599213
 40
0.336599213
 40
0.336599213
 40
0.448798951
 40
0.448798951
 40
0.448798951
 40
0.560998688
 40
0.560998688
 40
0.560998688
 40
0.673198426
 40
0.673198426
 40
0.673198426
 40
0.785398163
 40
0.785398163
 40
0.785398163
 40
1.009797639
 40
1.009797639
 40
1.009797639
 40
1.121997376
 40
1.121997376
 40
1.121997376
 40
1.570796327
 40
1.570796327
 40
1.570796327
 40
1.570796327
 10
180.500000100
 20
90.000000000
 30
0.000000000
 10
180.497904170
 20
90.000000000
 30
0.000000000
 10
180.495808240
 20
90.000000000
 30
0.000000000
 10
180.493712310
 20
90.000000000
 30
0.000000000
 10
180.487450877
 20
90.000000000
 30
0.000000000
 10
180.481189445
 20
90.000000000
 30
0.000000000
 10
180.474928012
 20
90.000000000
 30
0.000000000
 10
180.464579818
 20
90.000000000
 30
0.000000000
 10
180.454231624
 20
90.000000000
 30
0.000000000
 10
180.443883430
 20
90.000000000
 30
0.000000000
 10
180.429578610
 20
90.000000000
 30
0.000000000
 10
180.415273789
 20
90.000000000
 30
0.000000000
 10
180.400968968
 20
90.000000000
 30
0.000000000
 10
180.382887412
 20
90.000000000
 30
0.000000000
 10
180.364805855
 20
90.000000000
 30
0.000000000
 10
180.346724299
 20
90.000000000
 30
0.000000000
 10
180.325093394
 20
90.000000000
 30
0.000000000
 10
180.303462488
 20
90.000000000
 30
0.000000000
 10
180.281831582
 20
90.000000000
 30
0.000000000
 10
180.256923349
 20
90.000000000
 30
0.000000000
 10
180.232015115
 20
90.000000000
 30
0.000000000
 10
180.207106881
 20
90.000000000
 30
0.000000000
 10
180.152828023
 20
90.000000000
 30
0.000000000
 10
180.094469788
 20
90.000000000
 30
0.000000000
 10
180.032032177
 20
90.000000000
 30
0.000000000
 10
179.999316064
 20
90.000000000
 30
0.000000000
 10
179.966599952
 20
90.000000000
 30
0.000000000
 10
179.933883839
 20
90.000000000
 30
0.000000000
 10
179.798163347
 20
90.000000000
 30
0.000000000
 10
179.649792985
 20
90.000000000
 30
0.000000000
 10
179.500000100
 20
90.000000000
 30
0.000000000
  0
LINE
  5
A36
330
A02
100
AcDbEntity
  8
ProjItem001
100
AcDbLine
 10
174.500000100
 20
90.000000000
 30
0.000000000
 11
179.500000100
 21
90.000000000
 31
0.000000000
  0
CIRCLE
  5
A37
330
A02
100
AcDbEntity
  8
ProjItem001
100
AcDbCircle
 10
174.692097100
 20
105.000000000
 30
0.000000000
 40
2.188026000
  0
LINE
  5
A38
330
A02
100
AcDbEntity
  8
ProjItem001
100
AcDbLine
 10
179.500000100
 20
120.000000000
 30
0.000000000
 11
179.500000100
 21
90.000000000
 31
0.000000000
  0
LINE
  5
A39
330
A02
100
AcDbEntity
  8
ProjItem001
100
AcDbLine
 10
180.500000100
 20
90.000000000
 30
0.000000000
 11
180.500000100
 21
120.000000000
 31
0.000000000
  0
LINE
  5
A3A
330
A02
100
AcDbEntity
  8
ProjItem001
100
AcDbLine
 10
182.500000100
 20
120.000000000
 30
0.000000000
 11
182.500000100
 21
90.000000000
 31
0.000000000
  0
LINE
  5
A3B
330
A02
100
AcDbEntity
  8
ProjItem001
100
AcDbLine
 10
200.500000100
 20
120.000000000
 30
0.000000000
 11
200.500000100
 21
90.000000000
 31
0.000000000
  0
LINE
  5
A3C
330
A02
100
AcDbEntity
  8
ProjItem001
100
AcDbLine
 10
169.500000100
 20
120.000000000
 30
0.000000000
 11
169.500000100
 21
95.000000000
 31
0.000000000
  0
LINE
  5
A3D
330
A02
100
AcDbEntity
  8
ProjItem001
100
AcDbLine
 10
169.500000100
 20
95.000000000
 30
0.000000000
 11
174.500000100
 21
90.000000000
 31
0.000000000
  0
LINE
  5
A3E
330
A02
100
AcDbEntity
  8
ProjItem001
100
AcDbLine
 10
179.500000100
 20
120.000000000
 30
0.000000000
 11
169.500000100
 21
120.000000000
 31
0.000000000
  0
LINE
  5
A3F
330
A02
100
AcDbEntity
  8
ProjItem001
100
AcDbLine
 10
174.500000100
 20
90.000000000
 30
0.000000000
 11
179.500000100
 21
90.000000000
 31
0.000000000
  0
LINE
  5
A40
330
A02
100
AcDbEntity
  8
ProjItem001
100
AcDbLine
 10
179.500000100
 20
90.000000000
 30
0.000000000
 11
179.500000100
 21
120.000000000
 31
0.000000000
  0
CIRCLE
  5
A41
330
A02
100
AcDbEntity
  8
ProjItem001
100
AcDbCircle
 10
174.692097100
 20
105.000000000
 30
0.000000000
 40
2.188026000
  0
LINE
  5
A42
330
A02
100
AcDbEntity
  8
ProjItem001
100
AcDbLine
 10
200.500000100
 20
120.000000000
 30
0.000000000
 11
182.500000100
 21
120.000000000
 31
0.000000000
  0
SPLINE
  5
A43
330
A02
100
AcDbEntity
  8
ProjItem001
100
AcDbSpline
210
0
220
0
230
1
 70
8
 71
2
 72
24
 73
21
 74
0
 40
0.000000000
 40
0.000000000
 40
0.000000000
 40
0.336599213
 40
0.336599213
 40
0.560998688
 40
0.560998688
 40
0.785398163
 40
0.785398163
 40
0.897597901
 40
0.897597901
 40
1.009797639
 40
1.009797639
 40
1.121997376
 40
1.121997376
 40
1.234197114
 40
1.234197114
 40
1.346396852
 40
1.346396852
 40
1.458596589
 40
1.458596589
 40
1.570796327
 40
1.570796327
 40
1.570796327
 10
182.500000100
 20
120.000000000
 30
0.000000000
 10
182.330576203
 20
120.000000000
 30
0.000000000
 10
182.169721038
 20
120.000000000
 30
0.000000000
 10
182.064586301
 20
120.000000000
 30
0.000000000
 10
181.967968023
 20
120.000000000
 30
0.000000000
 10
181.874311606
 20
120.000000000
 30
0.000000000
 10
181.792893319
 20
120.000000000
 30
0.000000000
 10
181.755530968
 20
120.000000000
 30
0.000000000
 10
181.718168618
 20
120.000000000
 30
0.000000000
 10
181.685722259
 20
120.000000000
 30
0.000000000
 10
181.653275901
 20
120.000000000
 30
0.000000000
 10
181.626153566
 20
120.000000000
 30
0.000000000
 10
181.599031232
 20
120.000000000
 30
0.000000000
 10
181.577574001
 20
120.000000000
 30
0.000000000
 10
181.556116770
 20
120.000000000
 30
0.000000000
 10
181.540594479
 20
120.000000000
 30
0.000000000
 10
181.525072188
 20
120.000000000
 30
0.000000000
 10
181.515680039
 20
120.000000000
 30
0.000000000
 10
181.506287890
 20
120.000000000
 30
0.000000000
 10
181.503143995
 20
120.000000000
 30
0.000000000
 10
181.500000100
 20
120.000000000
 30
0.000000000
  0
SPLINE
  5
A44
330
A02
100
AcDbEntity
  8
ProjItem001
100
AcDbSpline
210
0
220
0
230
1
 70
8
 71
2
 72
30
 73
27
 74
0
 40
0.000000000
 40
0.000000000
 40
0.000000000
 40
0.112199738
 40
0.112199738
 40
0.224399475
 40
0.224399475
 40
0.336599213
 40
0.336599213
 40
0.448798951
 40
0.448798951
 40
0.560998688
 40
0.560998688
 40
0.673198426
 40
0.673198426
 40
0.785398163
 40
0.785398163
 40
0.897597901
 40
0.897597901
 40
1.009797639
 40
1.009797639
 40
1.121997376
 40
1.121997376
 40
1.234197114
 40
1.234197114
 40
1.346396852
 40
1.346396852
 40
1.570796327
 40
1.570796327
 40
1.570796327
 10
181.500000100
 20
120.000000000
 30
0.000000000
 10
181.493712310
 20
120.000000000
 30
0.000000000
 10
181.487424520
 20
120.000000000
 30
0.000000000
 10
181.468640222
 20
120.000000000
 30
0.000000000
 10
181.449855924
 20
120.000000000
 30
0.000000000
 10
181.418811342
 20
120.000000000
 30
0.000000000
 10
181.387766761
 20
120.000000000
 30
0.000000000
 10
181.344852298
 20
120.000000000
 30
0.000000000
 10
181.301937836
 20
120.000000000
 30
0.000000000
 10
181.247693167
 20
120.000000000
 30
0.000000000
 10
181.193448498
 20
120.000000000
 30
0.000000000
 10
181.128555782
 20
120.000000000
 30
0.000000000
 10
181.063663065
 20
120.000000000
 30
0.000000000
 10
180.988938364
 20
120.000000000
 30
0.000000000
 10
180.914213662
 20
120.000000000
 30
0.000000000
 10
180.830596683
 20
120.000000000
 30
0.000000000
 10
180.746979704
 20
120.000000000
 30
0.000000000
 10
180.655521978
 20
120.000000000
 30
0.000000000
 10
180.564064253
 20
120.000000000
 30
0.000000000
 10
180.465915916
 20
120.000000000
 30
0.000000000
 10
180.367767578
 20
120.000000000
 30
0.000000000
 10
180.264162901
 20
120.000000000
 30
0.000000000
 10
180.160558224
 20
120.000000000
 30
0.000000000
 10
180.052800096
 20
120.000000000
 30
0.000000000
 10
179.945041968
 20
120.000000000
 30
0.000000000
 10
179.724718722
 20
120.000000000
 30
0.000000000
 10
179.500000100
 20
120.000000000
 30
0.000000000
  0
SPLINE
  5
A45
330
A02
100
AcDbEntity
  8
ProjItem001
100
AcDbSpline
210
0
220
0
230
1
 70
8
 71
2
 72
30
 73
27
 74
0
 40
0.000000000
 40
0.000000000
 40
0.000000000
 40
0.112199738
 40
0.112199738
 40
0.224399475
 40
0.224399475
 40
0.336599213
 40
0.336599213
 40
0.448798951
 40
0.448798951
 40
0.560998688
 40
0.560998688
 40
0.673198426
 40
0.673198426
 40
0.785398163
 40
0.785398163
 40
0.897597901
 40
0.897597901
 40
1.009797639
 40
1.009797639
 40
1.121997376
 40
1.121997376
 40
1.234197114
 40
1.234197114
 40
1.346396852
 40
1.346396852
 40
1.570796327
 40
1.570796327
 40
1.570796327
 10
181.500000100
 20
90.000000000
 30
0.000000000
 10
181.493712310
 20
90.000000000
 30
0.000000000
 10
181.487424520
 20
90.000000000
 30
0.000000000
 10
181.468640222
 20
90.000000000
 30
0.000000000
 10
181.449855924
 20
90.000000000
 30
0.000000000
 10
181.418811342
 20
90.000000000
 30
0.000000000
 10
181.387766761
 20
90.000000000
 30
0.000000000
 10
181.344852298
 20
90.000000000
 30
0.000000000
 10
181.301937836
 20
90.000000000
 30
0.000000000
 10
181.247693167
 20
90.000000000
 30
0.000000000
 10
181.193448498
 20
90.000000000
 30
0.000000000
 10
181.128555782
 20
90.000000000
 30
0.000000000
 10
181.063663065
 20
90.000000000
 30
0.000000000
 10
180.988938364
 20
90.000000000
 30
0.000000000
 10
180.914213662
 20
90.000000000
 30
0.000000000
 10
180.830596683
 20
90.000000000
 30
0.000000000
 10
180.746979704
 20
90.000000000
 30
0.000000000
 10
180.655521978
 20
90.000000000
 30
0.000000000
 10
180.564064253
 20
90.000000000
 30
0.000000000
 10
180.465915916
 20
90.000000000
 30
0.000000000
 10
180.367767578
 20
90.000000000
 30
0.000000000
 10
180.264162901
 20
90.000000000
 30
0.000000000
 10
180.160558224
 20
90.000000000
 30
0.000000000
 10
180.052800096
 20
90.000000000
 30
0.000000000
 10
179.945041968
 20
90.000000000
 30
0.000000000
 10
179.724718722
 20
90.000000000
 30
0.000000000
 10
179.500000100
 20
90.000000000
 30
0.000000000
  0
SPLINE
  5
A46
330
A02
100
AcDbEntity
  8
ProjItem001
100
AcDbSpline
210
0
220
0
230
1
 70
8
 71
2
 72
24
 73
21
 74
0
 40
0.000000000
 40
0.000000000
 40
0.000000000
 40
0.336599213
 40
0.336599213
 40
0.560998688
 40
0.560998688
 40
0.785398163
 40
0.785398163
 40
0.897597901
 40
0.897597901
 40
1.009797639
 40
1.009797639
 40
1.121997376
 40
1.121997376
 40
1.234197114
 40
1.234197114
 40
1.346396852
 40
1.346396852
 40
1.458596589
 40
1.458596589
 40
1.570796327
 40
1.570796327
 40
1.570796327
 10
182.500000100
 20
90.000000000
 30
0.000000000
 10
182.330576203
 20
90.000000000
 30
0.000000000
 10
182.169721038
 20
90.000000000
 30
0.000000000
 10
182.064586301
 20
90.000000000
 30
0.000000000
 10
181.967968023
 20
90.000000000
 30
0.000000000
 10
181.874311606
 20
90.000000000
 30
0.000000000
 10
181.792893319
 20
90.000000000
 30
0.000000000
 10
181.755530968
 20
90.000000000
 30
0.000000000
 10
181.718168618
 20
90.000000000
 30
0.000000000
 10
181.685722259
 20
90.000000000
 30
0.000000000
 10
181.653275901
 20
90.000000000
 30
0.000000000
 10
181.626153566
 20
90.000000000
 30
0.000000000
 10
181.599031232
 20
90.000000000
 30
0.000000000
 10
181.577574001
 20
90.000000000
 30
0.000000000
 10
181.556116770
 20
90.000000000
 30
0.000000000
 10
181.540594479
 20
90.000000000
 30
0.000000000
 10
181.525072188
 20
90.000000000
 30
0.000000000
 10
181.515680039
 20
90.000000000
 30
0.000000000
 10
181.506287890
 20
90.000000000
 30
0.000000000
 10
181.503143995
 20
90.000000000
 30
0.000000000
 10
181.500000100
 20
90.000000000
 30
0.000000000
  0
LINE
  5
A47
330
A02
100
AcDbEntity
  8
ProjItem001
100
AcDbLine
 10
200.500000100
 20
90.000000000
 30
0.000000000
 11
182.500000100
 21
90.000000000
 31
0.000000000
  0
LINE
  5
A48
330
A02
100
AcDbEntity
  8
ProjItem001
100
AcDbLine
 10
181.500000100
 20
120.000000000
 30
0.000000000
 11
181.500000100
 21
90.000000000
 31
0.000000000
  0
LINE
  5
A49
330
A02
100
AcDbEntity
  8
ProjItem001
100
AcDbLine
 10
180.500000100
 20
120.000000000
 30
0.000000000
 11
180.500000100
 21
90.000000000
 31
0.000000000
  0
LINE
  5
A4A
330
A02
100
AcDbEntity
  8
ProjItem001
100
AcDbLine
 10
200.500000100
 20
120.000000000
 30
0.000000000
 11
200.500000100
 21
90.000000000
 31
0.000000000
  0
LINE
  5
A4B
330
A02
100
AcDbEntity
  8
ProjItem001
100
AcDbLine
 10
182.500000100
 20
120.000000000
 30
0.000000000
 11
182.500000100
 21
90.000000000
 31
0.000000000
  0
LINE
  5
A4C
330
A02
100
AcDbEntity
  8
ProjItem001
100
AcDbLine
 10
181.500000100
 20
120.000000000
 30
0.000000000
 11
181.500000100
 21
90.000000000
 31
0.000000000
  0
LINE
  5
A4D
330
A02
100
AcDbEntity
  8
ProjItem002
100
AcDbLine
 10
154.500000000
 20
135.000000100
 30
0.000000000
 11
154.500000000
 21
140.000000100
 31
0.000000000
  0
LINE
  5
A4E
330
A02
100
AcDbEntity
  8
ProjItem002
100
AcDbLine
 10
154.500000000
 20
140.000000100
 30
0.000000000
 11
154.500000000
 21
145.000000100
 31
0.000000000
  0
LINE
  5
A4F
330
A02
100
AcDbEntity
  8
ProjItem002
100
AcDbLine
 10
154.500000000
 20
135.000000100
 30
0.000000000
 11
153.500000000
 21
135.000000100
 31
0.000000000
  0
LINE
  5
A50
330
A02
100
AcDbEntity
  8
ProjItem002
100
AcDbLine
 10
154.500000000
 20
140.000000100
 30
0.000000000
 11
153.500000000
 21
140.000000100
 31
0.000000000
  0
LINE
  5
A51
330
A02
100
AcDbEntity
  8
ProjItem002
100
AcDbLine
 10
153.500000000
 20
135.000000100
 30
0.000000000
 11
153.500000000
 21
140.000000100
 31
0.000000000
  0
ARC
  5
A52
330
A02
100
AcDbEntity
  8
ProjItem002
100
AcDbCircle
 10
152.500000000
 20
145.000000100
 30
0.000000000
 40
2.000000000
100
AcDbArc
 50
0.000000000
 51
90.000000000
  0
LINE
  5
A53
330
A02
100
AcDbEntity
  8
ProjItem002
100
AcDbLine
 10
152.500000000
 20
147.000000100
 30
0.000000000
 11
144.500000000
 21
147.000000100
 31
0.000000000
  0
ARC
  5
A54
330
A02
100
AcDbEntity
  8
ProjItem002
100
AcDbCircle
 10
144.500000000
 20
148.000000100
 30
0.000000000
 40
1.000000000
100
AcDbArc
 50
180.000000000
 51
-90.000000000
  0
LINE
  5
A55
330
A02
100
AcDbEntity
  8
ProjItem002
100
AcDbLine
 10
143.500000000
 20
166.000000100
 30
0.000000000
 11
143.500000000
 21
148.000000100
 31
0.000000000
  0
LINE
  5
A56
330
A02
100
AcDbEntity
  8
ProjItem002
100
AcDbLine
 10
142.500000000
 20
166.000000100
 30
0.000000000
 11
143.500000000
 21
166.000000100
 31
0.000000000
  0
LINE
  5
A57
330
A02
100
AcDbEntity
  8
ProjItem002
100
AcDbLine
 10
142.500000000
 20
166.000000100
 30
0.000000000
 11
142.500000000
 21
148.000000100
 31
0.000000000
  0
ARC
  5
A58
330
A02
100
AcDbEntity
  8
ProjItem002
100
AcDbCircle
 10
144.500000000
 20
148.000000100
 30
0.000000000
 40
2.000000000
100
AcDbArc
 50
180.000000000
 51
-90.000000000
  0
LINE
  5
A59
330
A02
100
AcDbEntity
  8
ProjItem002
100
AcDbLine
 10
152.500000000
 20
146.000000100
 30
0.000000000
 11
144.500000000
 21
146.000000100
 31
0.000000000
  0
ARC
  5
A5A
330
A02
100
AcDbEntity
  8
ProjItem002
100
AcDbCircle
 10
152.500000000
 20
145.000000100
 30
0.000000000
 40
1.000000000
100
AcDbArc
 50
0.000000000
 51
90.000000000
  0
LINE
  5
A5B
330
A02
100
AcDbEntity
  8
ProjItem002
100
AcDbLine
 10
153.500000000
 20
140.000000100
 30
0.000000000
 11
153.500000000
 21
145.000000100
 31
0.000000000
  0
LINE
  5
A5C
330
A02
100
AcDbEntity
  8
ProjItem002
100
AcDbLine
 10
154.500000000
 20
145.000000100
 30
0.000000000
 11
154.500000000
 21
135.000000100
 31
0.000000000
  0
SPLINE
  5
A5D
330
A02
100
AcDbEntity
  8
ProjItem002
100
AcDbSpline
210
0
220
0
230
1
 70
8
 71
2
 72
30
 73
27
 74
0
 40
0.000000000
 40
0.000000000
 40
0.000000000
 40
0.224399475
 40
0.224399475
 40
0.336599213
 40
0.336599213
 40
0.448798951
 40
0.448798951
 40
0.560998688
 40
0.560998688
 40
0.673198426
 40
0.673198426
 40
0.785398163
 40
0.785398163
 40
0.897597901
 40
0.897597901
 40
1.009797639
 40
1.009797639
 40
1.121997376
 40
1.121997376
 40
1.234197114
 40
1.234197114
 40
1.346396852
 40
1.346396852
 40
1.458596589
 40
1.458596589
 40
1.570796327
 40
1.570796327
 40
1.570796327
 10
154.500000000
 20
140.192097100
 30
0.000000000
 10
154.500000000
 20
139.946252007
 30
0.000000000
 10
154.500000000
 20
139.705215511
 30
0.000000000
 10
154.500000000
 20
139.587326718
 30
0.000000000
 10
154.500000000
 20
139.469437925
 30
0.000000000
 10
154.500000000
 20
139.356093062
 30
0.000000000
 10
154.500000000
 20
139.242748198
 30
0.000000000
 10
154.500000000
 20
139.135372641
 30
0.000000000
 10
154.500000000
 20
139.027997084
 30
0.000000000
 10
154.500000000
 20
138.927941143
 30
0.000000000
 10
154.500000000
 20
138.827885203
 30
0.000000000
 10
154.500000000
 20
138.736407140
 30
0.000000000
 10
154.500000000
 20
138.644929078
 30
0.000000000
 10
154.500000000
 20
138.563179283
 30
0.000000000
 10
154.500000000
 20
138.481429489
 30
0.000000000
 10
154.500000000
 20
138.410436013
 30
0.000000000
 10
154.500000000
 20
138.339442537
 30
0.000000000
 10
154.500000000
 20
138.280098165
 30
0.000000000
 10
154.500000000
 20
138.220753792
 30
0.000000000
 10
154.500000000
 20
138.173804812
 30
0.000000000
 10
154.500000000
 20
138.126855832
 30
0.000000000
 10
154.500000000
 20
138.092892656
 30
0.000000000
 10
154.500000000
 20
138.058929480
 30
0.000000000
 10
154.500000000
 20
138.038379214
 30
0.000000000
 10
154.500000000
 20
138.017828948
 30
0.000000000
 10
154.500000000
 20
138.010950024
 30
0.000000000
 10
154.500000000
 20
138.004071100
 30
0.000000000
  0
SPLINE
  5
A5E
330
A02
100
AcDbEntity
  8
ProjItem002
100
AcDbSpline
210
0
220
0
230
1
 70
8
 71
1
 72
17
 73
15
 74
0
 40
1.570796327
 40
1.570796327
 40
1.795195802
 40
2.019595277
 40
2.243994753
 40
2.468394228
 40
2.692793703
 40
2.917193178
 40
3.141592654
 40
3.365992129
 40
3.590391604
 40
3.814791079
 40
4.039190555
 40
4.263590030
 40
4.487989505
 40
4.712388980
 40
4.712388980
 10
154.500000000
 20
138.004071100
 30
0.000000000
 10
154.500000000
 20
138.058929480
 30
0.000000000
 10
154.500000000
 20
138.220753792
 30
0.000000000
 10
154.500000000
 20
138.481429489
 30
0.000000000
 10
154.500000000
 20
138.827885203
 30
0.000000000
 10
154.500000000
 20
139.242748198
 30
0.000000000
 10
154.500000000
 20
139.705215511
 30
0.000000000
 10
154.500000000
 20
140.192097100
 30
0.000000000
 10
154.500000000
 20
140.678978689
 30
0.000000000
 10
154.500000000
 20
141.141446002
 30
0.000000000
 10
154.500000000
 20
141.556308997
 30
0.000000000
 10
154.500000000
 20
141.902764711
 30
0.000000000
 10
154.500000000
 20
142.163440408
 30
0.000000000
 10
154.500000000
 20
142.325264720
 30
0.000000000
 10
154.500000000
 20
142.380123100
 30
0.000000000
  0
SPLINE
  5
A5F
330
A02
100
AcDbEntity
  8
ProjItem002
100
AcDbSpline
210
0
220
0
230
1
 70
8
 71
2
 72
30
 73
27
 74
0
 40
4.712388980
 40
4.712388980
 40
4.712388980
 40
4.824588718
 40
4.824588718
 40
4.936788456
 40
4.936788456
 40
5.048988193
 40
5.048988193
 40
5.161187931
 40
5.161187931
 40
5.273387669
 40
5.273387669
 40
5.385587406
 40
5.385587406
 40
5.497787144
 40
5.497787144
 40
5.609986881
 40
5.609986881
 40
5.722186619
 40
5.722186619
 40
5.834386357
 40
5.834386357
 40
5.946586094
 40
5.946586094
 40
6.058785832
 40
6.058785832
 40
6.283185307
 40
6.283185307
 40
6.283185307
 10
154.500000000
 20
142.380123100
 30
0.000000000
 10
154.500000000
 20
142.373244176
 30
0.000000000
 10
154.500000000
 20
142.366365252
 30
0.000000000
 10
154.500000000
 20
142.345814986
 30
0.000000000
 10
154.500000000
 20
142.325264720
 30
0.000000000
 10
154.500000000
 20
142.291301544
 30
0.000000000
 10
154.500000000
 20
142.257338368
 30
0.000000000
 10
154.500000000
 20
142.210389388
 30
0.000000000
 10
154.500000000
 20
142.163440408
 30
0.000000000
 10
154.500000000
 20
142.104096035
 30
0.000000000
 10
154.500000000
 20
142.044751663
 30
0.000000000
 10
154.500000000
 20
141.973758187
 30
0.000000000
 10
154.500000000
 20
141.902764711
 30
0.000000000
 10
154.500000000
 20
141.821014917
 30
0.000000000
 10
154.500000000
 20
141.739265122
 30
0.000000000
 10
154.500000000
 20
141.647787060
 30
0.000000000
 10
154.500000000
 20
141.556308997
 30
0.000000000
 10
154.500000000
 20
141.456253057
 30
0.000000000
 10
154.500000000
 20
141.356197116
 30
0.000000000
 10
154.500000000
 20
141.248821559
 30
0.000000000
 10
154.500000000
 20
141.141446002
 30
0.000000000
 10
154.500000000
 20
141.028101138
 30
0.000000000
 10
154.500000000
 20
140.914756275
 30
0.000000000
 10
154.500000000
 20
140.796867482
 30
0.000000000
 10
154.500000000
 20
140.678978689
 30
0.000000000
 10
154.500000000
 20
140.437942193
 30
0.000000000
 10
154.500000000
 20
140.192097100
 30
0.000000000
  0
LINE
  5
A60
330
A02
100
AcDbEntity
  8
ProjItem002
100
AcDbLine
 10
154.500000000
 20
135.000000100
 30
0.000000000
 11
153.500000000
 21
135.000000100
 31
0.000000000
  0
LINE
  5
A61
330
A02
100
AcDbEntity
  8
ProjItem002
100
AcDbLine
 10
153.500000000
 20
145.000000100
 30
0.000000000
 11
153.500000000
 21
135.000000100
 31
0.000000000
  0
ARC
  5
A62
330
A02
100
AcDbEntity
  8
ProjItem002
100
AcDbCircle
 10
152.500000000
 20
145.000000100
 30
0.000000000
 40
1.000000000
100
AcDbArc
 50
0.000000000
 51
90.000000000
  0
LINE
  5
A63
330
A02
100
AcDbEntity
  8
ProjItem002
100
AcDbLine
 10
144.500000000
 20
146.000000100
 30
0.000000000
 11
152.500000000
 21
146.000000100
 31
0.000000000
  0
ARC
  5
A64
330
A02
100
AcDbEntity
  8
ProjItem002
100
AcDbCircle
 10
144.500000000
 20
148.000000100
 30
0.000000000
 40
2.000000000
100
AcDbArc
 50
180.000000000
 51
-90.000000000
  0
LINE
  5
A65
330
A02
100
AcDbEntity
  8
ProjItem002
100
AcDbLine
 10
142.500000000
 20
166.000000100
 30
0.000000000
 11
142.500000000
 21
148.000000100
 31
0.000000000
  0
LINE
  5
A66
330
A02
100
AcDbEntity
  8
ProjItem002
100
AcDbLine
 10
142.500000000
 20
166.000000100
 30
0.000000000
 11
143.500000000
 21
166.000000100
 31
0.000000000
  0
LINE
  5
A67
330
A02
100
AcDbEntity
  8
ProjItem002
100
AcDbLine
 10
143.500000000
 20
166.000000100
 30
0.000000000
 11
143.500000000
 21
148.000000100
 31
0.000000000
  0
ARC
  5
A68
330
A02
100
AcDbEntity
  8
ProjItem002
100
AcDbCircle
 10
144.500000000
 20
148.000000100
 30
0.000000000
 40
1.000000000
100
AcDbArc
 50
180.000000000
 51
-90.000000000
  0
LINE
  5
A69
330
A02
100
AcDbEntity
  8
ProjItem002
100
AcDbLine
 10
144.500000000
 20
147.000000100
 30
0.000000000
 11
152.500000000
 21
147.000000100
 31
0.000000000
  0
ARC
  5
A6A
330
A02
100
AcDbEntity
  8
ProjItem002
100
AcDbCircle
 10
152.500000000
 20
145.000000100
 30
0.000000000
 40
2.000000000
100
AcDbArc
 50
0.000000000
 51
90.000000000
  0
SPLINE
  5
A6B
330
A02
100
AcDbEntity
  8
ProjItem002
100
AcDbSpline
210
0
220
0
230
1
 70
8
 71
2
 72
30
 73
27
 74
0
 40
0.000000000
 40
0.000000000
 40
0.000000000
 40
0.224399475
 40
0.224399475
 40
0.336599213
 40
0.336599213
 40
0.448798951
 40
0.448798951
 40
0.560998688
 40
0.560998688
 40
0.673198426
 40
0.673198426
 40
0.785398163
 40
0.785398163
 40
0.897597901
 40
0.897597901
 40
1.009797639
 40
1.009797639
 40
1.121997376
 40
1.121997376
 40
1.234197114
 40
1.234197114
 40
1.346396852
 40
1.346396852
 40
1.458596589
 40
1.458596589
 40
1.570796327
 40
1.570796327
 40
1.570796327
 10
153.500000000
 20
140.192097100
 30
0.000000000
 10
153.500000000
 20
139.946252007
 30
0.000000000
 10
153.500000000
 20
139.705215511
 30
0.000000000
 10
153.500000000
 20
139.587326718
 30
0.000000000
 10
153.500000000
 20
139.469437925
 30
0.000000000
 10
153.500000000
 20
139.356093062
 30
0.000000000
 10
153.500000000
 20
139.242748198
 30
0.000000000
 10
153.500000000
 20
139.135372641
 30
0.000000000
 10
153.500000000
 20
139.027997084
 30
0.000000000
 10
153.500000000
 20
138.927941143
 30
0.000000000
 10
153.500000000
 20
138.827885203
 30
0.000000000
 10
153.500000000
 20
138.736407140
 30
0.000000000
 10
153.500000000
 20
138.644929078
 30
0.000000000
 10
153.500000000
 20
138.563179283
 30
0.000000000
 10
153.500000000
 20
138.481429489
 30
0.000000000
 10
153.500000000
 20
138.410436013
 30
0.000000000
 10
153.500000000
 20
138.339442537
 30
0.000000000
 10
153.500000000
 20
138.280098165
 30
0.000000000
 10
153.500000000
 20
138.220753792
 30
0.000000000
 10
153.500000000
 20
138.173804812
 30
0.000000000
 10
153.500000000
 20
138.126855832
 30
0.000000000
 10
153.500000000
 20
138.092892656
 30
0.000000000
 10
153.500000000
 20
138.058929480
 30
0.000000000
 10
153.500000000
 20
138.038379214
 30
0.000000000
 10
153.500000000
 20
138.017828948
 30
0.000000000
 10
153.500000000
 20
138.010950024
 30
0.000000000
 10
153.500000000
 20
138.004071100
 30
0.000000000
  0
SPLINE
  5
A6C
330
A02
100
AcDbEntity
  8
ProjItem002
100
AcDbSpline
210
0
220
0
230
1
 70
8
 71
1
 72
17
 73
15
 74
0
 40
1.570796327
 40
1.570796327
 40
1.795195802
 40
2.019595277
 40
2.243994753
 40
2.468394228
 40
2.692793703
 40
2.917193178
 40
3.141592654
 40
3.365992129
 40
3.590391604
 40
3.814791079
 40
4.039190555
 40
4.263590030
 40
4.487989505
 40
4.712388980
 40
4.712388980
 10
153.500000000
 20
138.004071100
 30
0.000000000
 10
153.500000000
 20
138.058929480
 30
0.000000000
 10
153.500000000
 20
138.220753792
 30
0.000000000
 10
153.500000000
 20
138.481429489
 30
0.000000000
 10
153.500000000
 20
138.827885203
 30
0.000000000
 10
153.500000000
 20
139.242748198
 30
0.000000000
 10
153.500000000
 20
139.705215511
 30
0.000000000
 10
153.500000000
 20
140.192097100
 30
0.000000000
 10
153.500000000
 20
140.678978689
 30
0.000000000
 10
153.500000000
 20
141.141446002
 30
0.000000000
 10
153.500000000
 20
141.556308997
 30
0.000000000
 10
153.500000000
 20
141.902764711
 30
0.000000000
 10
153.500000000
 20
142.163440408
 30
0.000000000
 10
153.500000000
 20
142.325264720
 30
0.000000000
 10
153.500000000
 20
142.380123100
 30
0.000000000
  0
SPLINE
  5
A6D
330
A02
100
AcDbEntity
  8
ProjItem002
100
AcDbSpline
210
0
220
0
230
1
 70
8
 71
2
 72
30
 73
27
 74
0
 40
4.712388980
 40
4.712388980
 40
4.712388980
 40
4.824588718
 40
4.824588718
 40
4.936788456
 40
4.936788456
 40
5.048988193
 40
5.048988193
 40
5.161187931
 40
5.161187931
 40
5.273387669
 40
5.273387669
 40
5.385587406
 40
5.385587406
 40
5.497787144
 40
5.497787144
 40
5.609986881
 40
5.609986881
 40
5.722186619
 40
5.722186619
 40
5.834386357
 40
5.834386357
 40
5.946586094
 40
5.946586094
 40
6.058785832
 40
6.058785832
 40
6.283185307
 40
6.283185307
 40
6.283185307
 10
153.500000000
 20
142.380123100
 30
0.000000000
 10
153.500000000
 20
142.373244176
 30
0.000000000
 10
153.500000000
 20
142.366365252
 30
0.000000000
 10
153.500000000
 20
142.345814986
 30
0.000000000
 10
153.500000000
 20
142.325264720
 30
0.000000000
 10
153.500000000
 20
142.291301544
 30
0.000000000
 10
153.500000000
 20
142.257338368
 30
0.000000000
 10
153.500000000
 20
142.210389388
 30
0.000000000
 10
153.500000000
 20
142.163440408
 30
0.000000000
 10
153.500000000
 20
142.104096035
 30
0.000000000
 10
153.500000000
 20
142.044751663
 30
0.000000000
 10
153.500000000
 20
141.973758187
 30
0.000000000
 10
153.500000000
 20
141.902764711
 30
0.000000000
 10
153.500000000
 20
141.821014917
 30
0.000000000
 10
153.500000000
 20
141.739265122
 30
0.000000000
 10
153.500000000
 20
141.647787060
 30
0.000000000
 10
153.500000000
 20
141.556308997
 30
0.000000000
 10
153.500000000
 20
141.456253057
 30
0.000000000
 10
153.500000000
 20
141.356197116
 30
0.000000000
 10
153.500000000
 20
141.248821559
 30
0.000000000
 10
153.500000000
 20
141.141446002
 30
0.000000000
 10
153.500000000
 20
141.028101138
 30
0.000000000
 10
153.500000000
 20
140.914756275
 30
0.000000000
 10
153.500000000
 20
140.796867482
 30
0.000000000
 10
153.500000000
 20
140.678978689
 30
0.000000000
 10
153.500000000
 20
140.437942193
 30
0.000000000
 10
153.500000000
 20
140.192097100
 30
0.000000000
  0
LINE
  5
A6E
330
A02
100
AcDbEntity
  8
ProjItem002
100
AcDbLine
 10
153.500000000
 20
138.004071100
 30
0.000000000
 11
154.500000000
 21
138.004071100
 31
0.000000000
  0
LINE
  5
A6F
330
A02
100
AcDbEntity
  8
ProjItem002
100
AcDbLine
 10
153.500000000
 20
142.380123100
 30
0.000000000
 11
154.500000000
 21
142.380123100
 31
0.000000000
  0
ENDSEC
  0
SECTION
  2
OBJECTS
  0
DICTIONARY
  5
F000
330
0
100
AcDbDictionary
  3
ACAD_GROUP
350
F001
  0
DICTIONARY
  5
F001
330
F000
100
AcDbDictionary
  0
ENDSEC
  0
EOF