999
FreeCAD v1.0 39285 (Git)
  0
SECTION
  2
HEADER
  9
$ACADVER
  1
AC1014
  9
$ACADMAINTVER
 70
     9
  9
$DWGCODEPAGE
  3
ANSI_1252
  9
$TEXTSTYLE
  7
STANDARD
  9
$DIMSTYLE
  2
STANDARD
  9
$DIMTXSTY
  7
STANDARD
  9
$CMLSTYLE
  2
STANDARD
  9
$LUNITS
 70
2
  9
$INSUNITS
 70
4
  9
$PEXTMAX
 10
50
 20
50
 30
50
  9
$PEXTMIN
 10
0
 20
0
 30
0
  9
$HANDSEED
  5
FFFF
  0
ENDSEC
  0
SECTION
  2
CLASSES
  0
CLASS
  1
ACDBDICTIONARYWDFLT
  2
AcDbDictionaryWithDefault
  3
ObjectDBX Classes
 90
        0
280
     0
281
     0
  0
CLASS
  1
XRECORD
  2
AcDbXrecord
  3
ObjectDBX Classes
 90
        0
280
     0
281
     0
  0
CLASS
  1
LWPOLYLINE
  2
AcDbPolyline
  3
ObjectDBX Classes
 90
        0
280
     0
281
     1
  0
ENDSEC
  0
SECTION
  2
TABLES
  0
TABLE
  2
VPORT
  5
20
330
0
100
AcDbSymbolTable
 70
     1
  0
VPORT
  5
21
330
20
100
AcDbSymbolTableRecord
100
AcDbViewportTableRecord
  2
*ACTIVE
 70
     0
  0
ENDTAB
  0
TABLE
  2
LTYPE
  5
22
330
0
100
AcDbSymbolTable
 70
     1
  0
LTYPE
  5
23
330
21
100
AcDbSymbolTableRecord
100
AcDbLinetypeTableRecord
  2
BYBLOCK
 70
     0
  3

 72
    65
 73
     0
 40
0.0
  0
LTYPE
  5
24
330
21
100
AcDbSymbolTableRecord
100
AcDbLinetypeTableRecord
  2
BYLAYER
 70
     0
  3

 72
    65
 73
     0
 40
0.0
  0
LTYPE
  5
25
330
21
100
AcDbSymbolTableRecord
100
AcDbLinetypeTableRecord
  2
CONTINUOUS
 70
     0
  3
Solid line
 72
    65
 73
     0
 40
0.0
  0
ENDTAB
  0
TABLE
  2
LAYER
  5
B2C
330
0
100
AcDbSymbolTable
 70
4
  0
LAYER
  5
B2D
330
B2C
100
AcDbSymbolTableRecord
100
AcDbLayerTableRecord
  2
0
 70
   0
 62
   7
  6
CONTINUOUS
  0
LAYER
  5
B2E
330
B2C
100
AcDbSymbolTableRecord
100
AcDbLayerTableRecord
  2
ProjItem
 70
    0
 62
    7
  6
CONTINUOUS
  0
LAYER
  5
B2F
330
B2C
100
AcDbSymbolTableRecord
100
AcDbLayerTableRecord
  2
ProjItem001
 70
    0
 62
    7
  6
CONTINUOUS
  0
LAYER
  5
B30
330
B2C
100
AcDbSymbolTableRecord
100
AcDbLayerTableRecord
  2
ProjItem002
 70
    0
 62
    7
  6
CONTINUOUS
  0
ENDTAB
  0
TABLE
  2
STYLE
  5
70
330
0
100
AcDbSymbolTable
 70
     2
  0
STYLE
  5
71
330
70
100
AcDbSymbolTableRecord
100
AcDbTextStyleTableRecord
  2
STANDARD
 70
     0
 40
0.0
 41
1.0
 50
0.0
 71
     0
 42
2.5
  3
arial.ttf
  4

  0
STYLE
  5
72
330
70
100
AcDbSymbolTableRecord
100
AcDbTextStyleTableRecord
  2
ANNOTATIVE
 70
     0
 40
0.0
 41
1.0
 50
0.0
 71
     0
 42
2.5
  3
arial.ttf
  4

  0
ENDTAB
  0
TABLE
  2
VIEW
  5
73
330
0
100
AcDbSymbolTable
 70
     0
  0
ENDTAB
  0
TABLE
  2
UCS
  5
74
330
0
100
AcDbSymbolTable
 70
     0
  0
ENDTAB
  0
TABLE
  2
APPID
  5
75
330
0
100
AcDbSymbolTable
 70
     2
  0
APPID
  5
76
330
75
100
AcDbSymbolTableRecord
100
AcDbRegAppTableRecord
  2
ACAD
 70
     0
  0
APPID
  5
77
330
75
100
AcDbSymbolTableRecord
100
AcDbRegAppTableRecord
  2
ACADANNOTATIVE
 70
     0
  0
ENDTAB
  0
TABLE
  2
DIMSTYLE
  5
78
330
0
100
AcDbSymbolTable
 70
     2
  0
DIMSTYLE
105
79
330
78
100
AcDbSymbolTableRecord
100
AcDbDimStyleTableRecord
  2
STANDARD
 70
     0
  3

  4

  5

  6

  7

 40
0.0
 41
2.5
 42
0.625
 43
3.75
 44
1.25
 45
0.0
 46
0.0
 47
0.0
 48
0.0
140
2.5
141
2.5
142
0.0
143
0.03937007874016
144
1.0
145
0.0
146
1.0
147
0.625
 71
     0
 72
     0
 73
     0
 74
     0
 75
     0
 76
     0
 77
     1
 78
     8
170
     0
171
     3
172
     1
173
     0
174
     0
175
     0
176
     0
177
     0
178
     0
270
     2
271
     2
272
     2
273
     2
274
     3
340
71
275
     0
280
     0
281
     0
282
     0
283
     0
284
     8
285
     0
286
     0
287
     3
288
     0
  0
ENDTAB
  0
TABLE
  2
BLOCK_RECORD
  5
A01
330
0
100
AcDbSymbolTable
  70
5
  0
BLOCK_RECORD
  5
A02
330
A01
100
AcDbSymbolTableRecord
100
AcDbBlockTableRecord
  2
*MODEL_SPACE
  0
BLOCK_RECORD
  5
A03
330
A01
100
AcDbSymbolTableRecord
100
AcDbBlockTableRecord
  2
*PAPER_SPACE
  0
ENDTAB
  0
ENDSEC
  0
SECTION
  2
BLOCKS
  0
BLOCK
  5
A04
330
A02
100
AcDbEntity
  8
0
100
AcDbBlockBegin
  2
*MODEL_SPACE
 70
   0
 10
0
 20
0
 30
0
  3
*MODEL_SPACE
  1
 
  0
ENDBLK
  5
A05
330
A02
100
AcDbEntity
  8
0
100
AcDbBlockEnd
  0
BLOCK
  5
A06
330
A03
100
AcDbEntity
 67
1
  8
0
100
AcDbBlockBegin
  2
*PAPER_SPACE
 70
   0
 10
0
 20
0
 30
0
  3
*PAPER_SPACE
  1
 
  0
ENDBLK
  5
A07
330
A03
100
AcDbEntity
 67
    1
  8
0
100
AcDbBlockEnd
  0
ENDSEC
  0
SECTION
  2
ENTITIES
  0
LINE
  5
A08
330
A02
100
AcDbEntity
  8
ProjItem
100
AcDbLine
 10
141.000000000
 20
99.000000000
 30
0.000000000
 11
167.000000000
 21
99.000000000
 31
0.000000000
  0
ARC
  5
A09
330
A02
100
AcDbEntity
  8
ProjItem
100
AcDbCircle
 10
141.000000000
 20
101.000000000
 30
0.000000000
 40
2.000000000
100
AcDbArc
 50
180.000000000
 51
-90.000000000
  0
SPLINE
  5
A0A
330
A02
100
AcDbEntity
  8
ProjItem
100
AcDbSpline
210
0
220
0
230
1
 70
8
 71
2
 72
30
 73
27
 74
0
 40
0.000000000
 40
0.000000000
 40
0.000000000
 40
0.112199738
 40
0.112199738
 40
0.224399475
 40
0.224399475
 40
0.336599213
 40
0.336599213
 40
0.448798951
 40
0.448798951
 40
0.560998688
 40
0.560998688
 40
0.673198426
 40
0.673198426
 40
0.785398163
 40
0.785398163
 40
0.897597901
 40
0.897597901
 40
1.009797639
 40
1.009797639
 40
1.121997376
 40
1.121997376
 40
1.234197114
 40
1.234197114
 40
1.346396852
 40
1.346396852
 40
1.570796327
 40
1.570796327
 40
1.570796327
 10
167.000000000
 20
99.000000000
 30
0.000000000
 10
167.000000000
 20
99.006287790
 30
0.000000000
 10
167.000000000
 20
99.012575580
 30
0.000000000
 10
167.000000000
 20
99.031359878
 30
0.000000000
 10
167.000000000
 20
99.050144176
 30
0.000000000
 10
167.000000000
 20
99.081188758
 30
0.000000000
 10
167.000000000
 20
99.112233339
 30
0.000000000
 10
167.000000000
 20
99.155147802
 30
0.000000000
 10
167.000000000
 20
99.198062264
 30
0.000000000
 10
167.000000000
 20
99.252306933
 30
0.000000000
 10
167.000000000
 20
99.306551602
 30
0.000000000
 10
167.000000000
 20
99.371444318
 30
0.000000000
 10
167.000000000
 20
99.436337035
 30
0.000000000
 10
167.000000000
 20
99.511061736
 30
0.000000000
 10
167.000000000
 20
99.585786438
 30
0.000000000
 10
167.000000000
 20
99.669403417
 30
0.000000000
 10
167.000000000
 20
99.753020396
 30
0.000000000
 10
167.000000000
 20
99.844478122
 30
0.000000000
 10
167.000000000
 20
99.935935847
 30
0.000000000
 10
167.000000000
 20
100.034084184
 30
0.000000000
 10
167.000000000
 20
100.132232522
 30
0.000000000
 10
167.000000000
 20
100.235837199
 30
0.000000000
 10
167.000000000
 20
100.339441876
 30
0.000000000
 10
167.000000000
 20
100.447200004
 30
0.000000000
 10
167.000000000
 20
100.554958132
 30
0.000000000
 10
167.000000000
 20
100.775281378
 30
0.000000000
 10
167.000000000
 20
101.000000000
 30
0.000000000
  0
SPLINE
  5
A0B
330
A02
100
AcDbEntity
  8
ProjItem
100
AcDbSpline
210
0
220
0
230
1
 70
8
 71
2
 72
30
 73
27
 74
0
 40
0.000000000
 40
0.000000000
 40
0.000000000
 40
0.112199738
 40
0.112199738
 40
0.224399475
 40
0.224399475
 40
0.336599213
 40
0.336599213
 40
0.448798951
 40
0.448798951
 40
0.560998688
 40
0.560998688
 40
0.673198426
 40
0.673198426
 40
0.785398163
 40
0.785398163
 40
0.897597901
 40
0.897597901
 40
1.009797639
 40
1.009797639
 40
1.121997376
 40
1.121997376
 40
1.234197114
 40
1.234197114
 40
1.346396852
 40
1.346396852
 40
1.570796327
 40
1.570796327
 40
1.570796327
 10
141.000000000
 20
99.000000000
 30
0.000000000
 10
141.000000000
 20
99.006287790
 30
0.000000000
 10
141.000000000
 20
99.012575580
 30
0.000000000
 10
141.000000000
 20
99.031359878
 30
0.000000000
 10
141.000000000
 20
99.050144176
 30
0.000000000
 10
141.000000000
 20
99.081188758
 30
0.000000000
 10
141.000000000
 20
99.112233339
 30
0.000000000
 10
141.000000000
 20
99.155147802
 30
0.000000000
 10
141.000000000
 20
99.198062264
 30
0.000000000
 10
141.000000000
 20
99.252306933
 30
0.000000000
 10
141.000000000
 20
99.306551602
 30
0.000000000
 10
141.000000000
 20
99.371444318
 30
0.000000000
 10
141.000000000
 20
99.436337035
 30
0.000000000
 10
141.000000000
 20
99.511061736
 30
0.000000000
 10
141.000000000
 20
99.585786438
 30
0.000000000
 10
141.000000000
 20
99.669403417
 30
0.000000000
 10
141.000000000
 20
99.753020396
 30
0.000000000
 10
141.000000000
 20
99.844478122
 30
0.000000000
 10
141.000000000
 20
99.935935847
 30
0.000000000
 10
141.000000000
 20
100.034084184
 30
0.000000000
 10
141.000000000
 20
100.132232522
 30
0.000000000
 10
141.000000000
 20
100.235837199
 30
0.000000000
 10
141.000000000
 20
100.339441876
 30
0.000000000
 10
141.000000000
 20
100.447200004
 30
0.000000000
 10
141.000000000
 20
100.554958132
 30
0.000000000
 10
141.000000000
 20
100.775281378
 30
0.000000000
 10
141.000000000
 20
101.000000000
 30
0.000000000
  0
LINE
  5
A0C
330
A02
100
AcDbEntity
  8
ProjItem
100
AcDbLine
 10
167.000000000
 20
101.000000000
 30
0.000000000
 11
141.000000000
 21
101.000000000
 31
0.000000000
  0
ARC
  5
A0D
330
A02
100
AcDbEntity
  8
ProjItem
100
AcDbCircle
 10
167.000000000
 20
101.000000000
 30
0.000000000
 40
2.000000000
100
AcDbArc
 50
-90.000000000
 51
0.000000000
  0
ARC
  5
A0E
330
A02
100
AcDbEntity
  8
ProjItem
100
AcDbCircle
 10
141.000000000
 20
101.000000000
 30
0.000000000
 40
1.000000000
100
AcDbArc
 50
180.000000000
 51
-90.000000000
  0
LINE
  5
A0F
330
A02
100
AcDbEntity
  8
ProjItem
100
AcDbLine
 10
139.000000000
 20
101.000000000
 30
0.000000000
 11
139.000000000
 21
109.000000000
 31
0.000000000
  0
LINE
  5
A10
330
A02
100
AcDbEntity
  8
ProjItem
100
AcDbLine
 10
167.900000000
 20
101.000000000
 30
0.000000000
 11
167.000000000
 21
101.000000000
 31
0.000000000
  0
LINE
  5
A11
330
A02
100
AcDbEntity
  8
ProjItem
100
AcDbLine
 10
167.900000000
 20
109.000000000
 30
0.000000000
 11
167.900000000
 21
101.000000000
 31
0.000000000
  0
LINE
  5
A12
330
A02
100
AcDbEntity
  8
ProjItem
100
AcDbLine
 10
140.100000000
 20
109.000000000
 30
0.000000000
 11
167.900000000
 21
109.000000000
 31
0.000000000
  0
LINE
  5
A13
330
A02
100
AcDbEntity
  8
ProjItem
100
AcDbLine
 10
141.000000000
 20
101.000000000
 30
0.000000000
 11
140.100000000
 21
101.000000000
 31
0.000000000
  0
LINE
  5
A14
330
A02
100
AcDbEntity
  8
ProjItem
100
AcDbLine
 10
140.100000000
 20
101.000000000
 30
0.000000000
 11
140.100000000
 21
109.000000000
 31
0.000000000
  0
CIRCLE
  5
A15
330
A02
100
AcDbEntity
  8
ProjItem
100
AcDbCircle
 10
154.000000000
 20
104.834776000
 30
0.000000000
 40
1.868305000
  0
ARC
  5
A16
330
A02
100
AcDbEntity
  8
ProjItem
100
AcDbCircle
 10
167.000000000
 20
101.000000000
 30
0.000000000
 40
1.000000000
100
AcDbArc
 50
-90.000000000
 51
0.000000000
  0
LINE
  5
A17
330
A02
100
AcDbEntity
  8
ProjItem
100
AcDbLine
 10
169.000000000
 20
101.000000000
 30
0.000000000
 11
169.000000000
 21
109.000000000
 31
0.000000000
  0
LINE
  5
A18
330
A02
100
AcDbEntity
  8
ProjItem
100
AcDbLine
 10
139.000000000
 20
101.000000000
 30
0.000000000
 11
140.000000000
 21
101.000000000
 31
0.000000000
  0
LINE
  5
A19
330
A02
100
AcDbEntity
  8
ProjItem
100
AcDbLine
 10
140.000000000
 20
101.000000000
 30
0.000000000
 11
140.000000000
 21
109.000000000
 31
0.000000000
  0
ARC
  5
A1A
330
A02
100
AcDbEntity
  8
ProjItem
100
AcDbCircle
 10
138.000000000
 20
109.000000000
 30
0.000000000
 40
2.000000000
100
AcDbArc
 50
0.000000000
 51
90.000000000
  0
LINE
  5
A1B
330
A02
100
AcDbEntity
  8
ProjItem
100
AcDbLine
 10
138.000000000
 20
111.000000000
 30
0.000000000
 11
128.000000000
 21
111.000000000
 31
0.000000000
  0
LINE
  5
A1C
330
A02
100
AcDbEntity
  8
ProjItem
100
AcDbLine
 10
128.000000000
 20
110.000000000
 30
0.000000000
 11
128.000000000
 21
111.000000000
 31
0.000000000
  0
LINE
  5
A1D
330
A02
100
AcDbEntity
  8
ProjItem
100
AcDbLine
 10
138.000000000
 20
110.000000000
 30
0.000000000
 11
128.000000000
 21
110.000000000
 31
0.000000000
  0
ARC
  5
A1E
330
A02
100
AcDbEntity
  8
ProjItem
100
AcDbCircle
 10
138.000000000
 20
109.000000000
 30
0.000000000
 40
1.000000000
100
AcDbArc
 50
0.000000000
 51
90.000000000
  0
LINE
  5
A1F
330
A02
100
AcDbEntity
  8
ProjItem
100
AcDbLine
 10
169.000000000
 20
101.000000000
 30
0.000000000
 11
168.000000000
 21
101.000000000
 31
0.000000000
  0
LINE
  5
A20
330
A02
100
AcDbEntity
  8
ProjItem
100
AcDbLine
 10
169.000000000
 20
109.000000000
 30
0.000000000
 11
168.000000000
 21
109.000000000
 31
0.000000000
  0
LINE
  5
A21
330
A02
100
AcDbEntity
  8
ProjItem
100
AcDbLine
 10
168.000000000
 20
101.000000000
 30
0.000000000
 11
168.000000000
 21
109.000000000
 31
0.000000000
  0
LINE
  5
A22
330
A02
100
AcDbEntity
  8
ProjItem
100
AcDbLine
 10
141.000000000
 20
99.000000000
 30
0.000000000
 11
167.000000000
 21
99.000000000
 31
0.000000000
  0
SPLINE
  5
A23
330
A02
100
AcDbEntity
  8
ProjItem
100
AcDbSpline
210
0
220
0
230
1
 70
8
 71
1
 72
17
 73
15
 74
0
 40
0.000000000
 40
0.000000000
 40
0.224399475
 40
0.448798951
 40
0.673198426
 40
0.897597901
 40
1.121997376
 40
1.346396852
 40
1.570796327
 40
1.795195802
 40
2.019595277
 40
2.243994753
 40
2.468394228
 40
2.692793703
 40
2.917193178
 40
3.141592654
 40
3.141592654
 10
164.230959000
 20
99.000000000
 30
0.000000000
 10
164.155742737
 20
99.000000000
 30
0.000000000
 10
163.933865604
 20
99.000000000
 30
0.000000000
 10
163.576453447
 20
99.000000000
 30
0.000000000
 10
163.101428406
 20
99.000000000
 30
0.000000000
 10
162.532610217
 20
99.000000000
 30
0.000000000
 10
161.898521802
 20
99.000000000
 30
0.000000000
 10
161.230959000
 20
99.000000000
 30
0.000000000
 10
160.563396198
 20
99.000000000
 30
0.000000000
 10
159.929307783
 20
99.000000000
 30
0.000000000
 10
159.360489594
 20
99.000000000
 30
0.000000000
 10
158.885464553
 20
99.000000000
 30
0.000000000
 10
158.528052396
 20
99.000000000
 30
0.000000000
 10
158.306175263
 20
99.000000000
 30
0.000000000
 10
158.230959000
 20
99.000000000
 30
0.000000000
  0
SPLINE
  5
A24
330
A02
100
AcDbEntity
  8
ProjItem
100
AcDbSpline
210
0
220
0
230
1
 70
8
 71
1
 72
17
 73
15
 74
0
 40
3.141592654
 40
3.141592654
 40
3.365992129
 40
3.590391604
 40
3.814791079
 40
4.039190555
 40
4.263590030
 40
4.487989505
 40
4.712388980
 40
4.936788456
 40
5.161187931
 40
5.385587406
 40
5.609986881
 40
5.834386357
 40
6.058785832
 40
6.283185307
 40
6.283185307
 10
158.230959000
 20
99.000000000
 30
0.000000000
 10
158.306175263
 20
99.000000000
 30
0.000000000
 10
158.528052396
 20
99.000000000
 30
0.000000000
 10
158.885464553
 20
99.000000000
 30
0.000000000
 10
159.360489594
 20
99.000000000
 30
0.000000000
 10
159.929307783
 20
99.000000000
 30
0.000000000
 10
160.563396198
 20
99.000000000
 30
0.000000000
 10
161.230959000
 20
99.000000000
 30
0.000000000
 10
161.898521802
 20
99.000000000
 30
0.000000000
 10
162.532610217
 20
99.000000000
 30
0.000000000
 10
163.101428406
 20
99.000000000
 30
0.000000000
 10
163.576453447
 20
99.000000000
 30
0.000000000
 10
163.933865604
 20
99.000000000
 30
0.000000000
 10
164.155742737
 20
99.000000000
 30
0.000000000
 10
164.230959000
 20
99.000000000
 30
0.000000000
  0
ARC
  5
A25
330
A02
100
AcDbEntity
  8
ProjItem
100
AcDbCircle
 10
141.000000000
 20
101.000000000
 30
0.000000000
 40
2.000000000
100
AcDbArc
 50
180.000000000
 51
-90.000000000
  0
SPLINE
  5
A26
330
A02
100
AcDbEntity
  8
ProjItem
100
AcDbSpline
210
0
220
0
230
1
 70
8
 71
2
 72
30
 73
27
 74
0
 40
0.000000000
 40
0.000000000
 40
0.000000000
 40
0.112199738
 40
0.112199738
 40
0.224399475
 40
0.224399475
 40
0.336599213
 40
0.336599213
 40
0.448798951
 40
0.448798951
 40
0.560998688
 40
0.560998688
 40
0.673198426
 40
0.673198426
 40
0.785398163
 40
0.785398163
 40
0.897597901
 40
0.897597901
 40
1.009797639
 40
1.009797639
 40
1.121997376
 40
1.121997376
 40
1.234197114
 40
1.234197114
 40
1.346396852
 40
1.346396852
 40
1.570796327
 40
1.570796327
 40
1.570796327
 10
167.000000000
 20
99.000000000
 30
0.000000000
 10
167.000000000
 20
99.006287790
 30
0.000000000
 10
167.000000000
 20
99.012575580
 30
0.000000000
 10
167.000000000
 20
99.031359878
 30
0.000000000
 10
167.000000000
 20
99.050144176
 30
0.000000000
 10
167.000000000
 20
99.081188758
 30
0.000000000
 10
167.000000000
 20
99.112233339
 30
0.000000000
 10
167.000000000
 20
99.155147802
 30
0.000000000
 10
167.000000000
 20
99.198062264
 30
0.000000000
 10
167.000000000
 20
99.252306933
 30
0.000000000
 10
167.000000000
 20
99.306551602
 30
0.000000000
 10
167.000000000
 20
99.371444318
 30
0.000000000
 10
167.000000000
 20
99.436337035
 30
0.000000000
 10
167.000000000
 20
99.511061736
 30
0.000000000
 10
167.000000000
 20
99.585786438
 30
0.000000000
 10
167.000000000
 20
99.669403417
 30
0.000000000
 10
167.000000000
 20
99.753020396
 30
0.000000000
 10
167.000000000
 20
99.844478122
 30
0.000000000
 10
167.000000000
 20
99.935935847
 30
0.000000000
 10
167.000000000
 20
100.034084184
 30
0.000000000
 10
167.000000000
 20
100.132232522
 30
0.000000000
 10
167.000000000
 20
100.235837199
 30
0.000000000
 10
167.000000000
 20
100.339441876
 30
0.000000000
 10
167.000000000
 20
100.447200004
 30
0.000000000
 10
167.000000000
 20
100.554958132
 30
0.000000000
 10
167.000000000
 20
100.775281378
 30
0.000000000
 10
167.000000000
 20
101.000000000
 30
0.000000000
  0
SPLINE
  5
A27
330
A02
100
AcDbEntity
  8
ProjItem
100
AcDbSpline
210
0
220
0
230
1
 70
8
 71
2
 72
30
 73
27
 74
0
 40
0.000000000
 40
0.000000000
 40
0.000000000
 40
0.112199738
 40
0.112199738
 40
0.224399475
 40
0.224399475
 40
0.336599213
 40
0.336599213
 40
0.448798951
 40
0.448798951
 40
0.560998688
 40
0.560998688
 40
0.673198426
 40
0.673198426
 40
0.785398163
 40
0.785398163
 40
0.897597901
 40
0.897597901
 40
1.009797639
 40
1.009797639
 40
1.121997376
 40
1.121997376
 40
1.234197114
 40
1.234197114
 40
1.346396852
 40
1.346396852
 40
1.570796327
 40
1.570796327
 40
1.570796327
 10
141.000000000
 20
99.000000000
 30
0.000000000
 10
141.000000000
 20
99.006287790
 30
0.000000000
 10
141.000000000
 20
99.012575580
 30
0.000000000
 10
141.000000000
 20
99.031359878
 30
0.000000000
 10
141.000000000
 20
99.050144176
 30
0.000000000
 10
141.000000000
 20
99.081188758
 30
0.000000000
 10
141.000000000
 20
99.112233339
 30
0.000000000
 10
141.000000000
 20
99.155147802
 30
0.000000000
 10
141.000000000
 20
99.198062264
 30
0.000000000
 10
141.000000000
 20
99.252306933
 30
0.000000000
 10
141.000000000
 20
99.306551602
 30
0.000000000
 10
141.000000000
 20
99.371444318
 30
0.000000000
 10
141.000000000
 20
99.436337035
 30
0.000000000
 10
141.000000000
 20
99.511061736
 30
0.000000000
 10
141.000000000
 20
99.585786438
 30
0.000000000
 10
141.000000000
 20
99.669403417
 30
0.000000000
 10
141.000000000
 20
99.753020396
 30
0.000000000
 10
141.000000000
 20
99.844478122
 30
0.000000000
 10
141.000000000
 20
99.935935847
 30
0.000000000
 10
141.000000000
 20
100.034084184
 30
0.000000000
 10
141.000000000
 20
100.132232522
 30
0.000000000
 10
141.000000000
 20
100.235837199
 30
0.000000000
 10
141.000000000
 20
100.339441876
 30
0.000000000
 10
141.000000000
 20
100.447200004
 30
0.000000000
 10
141.000000000
 20
100.554958132
 30
0.000000000
 10
141.000000000
 20
100.775281378
 30
0.000000000
 10
141.000000000
 20
101.000000000
 30
0.000000000
  0
LINE
  5
A28
330
A02
100
AcDbEntity
  8
ProjItem
100
AcDbLine
 10
167.000000000
 20
101.000000000
 30
0.000000000
 11
141.000000000
 21
101.000000000
 31
0.000000000
  0
ARC
  5
A29
330
A02
100
AcDbEntity
  8
ProjItem
100
AcDbCircle
 10
167.000000000
 20
101.000000000
 30
0.000000000
 40
2.000000000
100
AcDbArc
 50
-90.000000000
 51
0.000000000
  0
LINE
  5
A2A
330
A02
100
AcDbEntity
  8
ProjItem
100
AcDbLine
 10
164.230959000
 20
100.000000000
 30
0.000000000
 11
164.230959000
 21
99.000000000
 31
0.000000000
  0
SPLINE
  5
A2B
330
A02
100
AcDbEntity
  8
ProjItem
100
AcDbSpline
210
0
220
0
230
1
 70
8
 71
1
 72
17
 73
15
 74
0
 40
0.000000000
 40
0.000000000
 40
0.224399475
 40
0.448798951
 40
0.673198426
 40
0.897597901
 40
1.121997376
 40
1.346396852
 40
1.570796327
 40
1.795195802
 40
2.019595277
 40
2.243994753
 40
2.468394228
 40
2.692793703
 40
2.917193178
 40
3.141592654
 40
3.141592654
 10
164.230959000
 20
100.000000000
 30
0.000000000
 10
164.155742737
 20
100.000000000
 30
0.000000000
 10
163.933865604
 20
100.000000000
 30
0.000000000
 10
163.576453447
 20
100.000000000
 30
0.000000000
 10
163.101428406
 20
100.000000000
 30
0.000000000
 10
162.532610217
 20
100.000000000
 30
0.000000000
 10
161.898521802
 20
100.000000000
 30
0.000000000
 10
161.230959000
 20
100.000000000
 30
0.000000000
 10
160.563396198
 20
100.000000000
 30
0.000000000
 10
159.929307783
 20
100.000000000
 30
0.000000000
 10
159.360489594
 20
100.000000000
 30
0.000000000
 10
158.885464553
 20
100.000000000
 30
0.000000000
 10
158.528052396
 20
100.000000000
 30
0.000000000
 10
158.306175263
 20
100.000000000
 30
0.000000000
 10
158.230959000
 20
100.000000000
 30
0.000000000
  0
SPLINE
  5
A2C
330
A02
100
AcDbEntity
  8
ProjItem
100
AcDbSpline
210
0
220
0
230
1
 70
8
 71
1
 72
17
 73
15
 74
0
 40
3.141592654
 40
3.141592654
 40
3.365992129
 40
3.590391604
 40
3.814791079
 40
4.039190555
 40
4.263590030
 40
4.487989505
 40
4.712388980
 40
4.936788456
 40
5.161187931
 40
5.385587406
 40
5.609986881
 40
5.834386357
 40
6.058785832
 40
6.283185307
 40
6.283185307
 10
158.230959000
 20
100.000000000
 30
0.000000000
 10
158.306175263
 20
100.000000000
 30
0.000000000
 10
158.528052396
 20
100.000000000
 30
0.000000000
 10
158.885464553
 20
100.000000000
 30
0.000000000
 10
159.360489594
 20
100.000000000
 30
0.000000000
 10
159.929307783
 20
100.000000000
 30
0.000000000
 10
160.563396198
 20
100.000000000
 30
0.000000000
 10
161.230959000
 20
100.000000000
 30
0.000000000
 10
161.898521802
 20
100.000000000
 30
0.000000000
 10
162.532610217
 20
100.000000000
 30
0.000000000
 10
163.101428406
 20
100.000000000
 30
0.000000000
 10
163.576453447
 20
100.000000000
 30
0.000000000
 10
163.933865604
 20
100.000000000
 30
0.000000000
 10
164.155742737
 20
100.000000000
 30
0.000000000
 10
164.230959000
 20
100.000000000
 30
0.000000000
  0
ARC
  5
A2D
330
A02
100
AcDbEntity
  8
ProjItem
100
AcDbCircle
 10
141.000000000
 20
101.000000000
 30
0.000000000
 40
1.000000000
100
AcDbArc
 50
180.000000000
 51
-90.000000000
  0
LINE
  5
A2E
330
A02
100
AcDbEntity
  8
ProjItem
100
AcDbLine
 10
141.000000000
 20
99.000000000
 30
0.000000000
 11
141.000000000
 21
100.000000000
 31
0.000000000
  0
LINE
  5
A2F
330
A02
100
AcDbEntity
  8
ProjItem
100
AcDbLine
 10
140.000000000
 20
101.000000000
 30
0.000000000
 11
139.000000000
 21
101.000000000
 31
0.000000000
  0
LINE
  5
A30
330
A02
100
AcDbEntity
  8
ProjItem
100
AcDbLine
 10
141.000000000
 20
99.000000000
 30
0.000000000
 11
141.000000000
 21
100.000000000
 31
0.000000000
  0
LINE
  5
A31
330
A02
100
AcDbEntity
  8
ProjItem
100
AcDbLine
 10
139.000000000
 20
101.000000000
 30
0.000000000
 11
140.000000000
 21
101.000000000
 31
0.000000000
  0
LINE
  5
A32
330
A02
100
AcDbEntity
  8
ProjItem
100
AcDbLine
 10
139.000000000
 20
109.000000000
 30
0.000000000
 11
139.000000000
 21
101.000000000
 31
0.000000000
  0
SPLINE
  5
A33
330
A02
100
AcDbEntity
  8
ProjItem
100
AcDbSpline
210
0
220
0
230
1
 70
8
 71
3
 72
35
 73
31
 74
0
 40
0.000000000
 40
0.000000000
 40
0.000000000
 40
0.000000000
 40
0.112199738
 40
0.112199738
 40
0.112199738
 40
0.224399475
 40
0.224399475
 40
0.224399475
 40
0.336599213
 40
0.336599213
 40
0.336599213
 40
0.448798951
 40
0.448798951
 40
0.448798951
 40
0.560998688
 40
0.560998688
 40
0.560998688
 40
0.673198426
 40
0.673198426
 40
0.673198426
 40
0.785398163
 40
0.785398163
 40
0.785398163
 40
0.897597901
 40
0.897597901
 40
0.897597901
 40
1.121997376
 40
1.121997376
 40
1.121997376
 40
1.570796327
 40
1.570796327
 40
1.570796327
 40
1.570796327
 10
167.000000000
 20
100.000000000
 30
0.000000000
 10
167.000000000
 20
100.002095930
 30
0.000000000
 10
167.000000000
 20
100.004191860
 30
0.000000000
 10
167.000000000
 20
100.006287790
 30
0.000000000
 10
167.000000000
 20
100.012549223
 30
0.000000000
 10
167.000000000
 20
100.018810655
 30
0.000000000
 10
167.000000000
 20
100.025072088
 30
0.000000000
 10
167.000000000
 20
100.035420282
 30
0.000000000
 10
167.000000000
 20
100.045768476
 30
0.000000000
 10
167.000000000
 20
100.056116670
 30
0.000000000
 10
167.000000000
 20
100.070421490
 30
0.000000000
 10
167.000000000
 20
100.084726311
 30
0.000000000
 10
167.000000000
 20
100.099031132
 30
0.000000000
 10
167.000000000
 20
100.117112688
 30
0.000000000
 10
167.000000000
 20
100.135194245
 30
0.000000000
 10
167.000000000
 20
100.153275801
 30
0.000000000
 10
167.000000000
 20
100.174906706
 30
0.000000000
 10
167.000000000
 20
100.196537612
 30
0.000000000
 10
167.000000000
 20
100.218168518
 30
0.000000000
 10
167.000000000
 20
100.243076751
 30
0.000000000
 10
167.000000000
 20
100.267984985
 30
0.000000000
 10
167.000000000
 20
100.292893219
 30
0.000000000
 10
167.000000000
 20
100.320765545
 30
0.000000000
 10
167.000000000
 20
100.348637872
 30
0.000000000
 10
167.000000000
 20
100.376510198
 30
0.000000000
 10
167.000000000
 20
100.436231233
 30
0.000000000
 10
167.000000000
 20
100.499433254
 30
0.000000000
 10
167.000000000
 20
100.566116261
 30
0.000000000
 10
167.000000000
 20
100.701836753
 30
0.000000000
 10
167.000000000
 20
100.850207115
 30
0.000000000
 10
167.000000000
 20
101.000000000
 30
0.000000000
  0
LINE
  5
A34
330
A02
100
AcDbEntity
  8
ProjItem
100
AcDbLine
 10
167.000000000
 20
99.000000000
 30
0.000000000
 11
167.000000000
 21
100.000000000
 31
0.000000000
  0
SPLINE
  5
A35
330
A02
100
AcDbEntity
  8
ProjItem
100
AcDbSpline
210
0
220
0
230
1
 70
8
 71
3
 72
35
 73
31
 74
0
 40
0.000000000
 40
0.000000000
 40
0.000000000
 40
0.000000000
 40
0.112199738
 40
0.112199738
 40
0.112199738
 40
0.224399475
 40
0.224399475
 40
0.224399475
 40
0.336599213
 40
0.336599213
 40
0.336599213
 40
0.448798951
 40
0.448798951
 40
0.448798951
 40
0.560998688
 40
0.560998688
 40
0.560998688
 40
0.673198426
 40
0.673198426
 40
0.673198426
 40
0.785398163
 40
0.785398163
 40
0.785398163
 40
0.897597901
 40
0.897597901
 40
0.897597901
 40
1.121997376
 40
1.121997376
 40
1.121997376
 40
1.570796327
 40
1.570796327
 40
1.570796327
 40
1.570796327
 10
141.000000000
 20
100.000000000
 30
0.000000000
 10
141.000000000
 20
100.002095930
 30
0.000000000
 10
141.000000000
 20
100.004191860
 30
0.000000000
 10
141.000000000
 20
100.006287790
 30
0.000000000
 10
141.000000000
 20
100.012549223
 30
0.000000000
 10
141.000000000
 20
100.018810655
 30
0.000000000
 10
141.000000000
 20
100.025072088
 30
0.000000000
 10
141.000000000
 20
100.035420282
 30
0.000000000
 10
141.000000000
 20
100.045768476
 30
0.000000000
 10
141.000000000
 20
100.056116670
 30
0.000000000
 10
141.000000000
 20
100.070421490
 30
0.000000000
 10
141.000000000
 20
100.084726311
 30
0.000000000
 10
141.000000000
 20
100.099031132
 30
0.000000000
 10
141.000000000
 20
100.117112688
 30
0.000000000
 10
141.000000000
 20
100.135194245
 30
0.000000000
 10
141.000000000
 20
100.153275801
 30
0.000000000
 10
141.000000000
 20
100.174906706
 30
0.000000000
 10
141.000000000
 20
100.196537612
 30
0.000000000
 10
141.000000000
 20
100.218168518
 30
0.000000000
 10
141.000000000
 20
100.243076751
 30
0.000000000
 10
141.000000000
 20
100.267984985
 30
0.000000000
 10
141.000000000
 20
100.292893219
 30
0.000000000
 10
141.000000000
 20
100.320765545
 30
0.000000000
 10
141.000000000
 20
100.348637872
 30
0.000000000
 10
141.000000000
 20
100.376510198
 30
0.000000000
 10
141.000000000
 20
100.436231233
 30
0.000000000
 10
141.000000000
 20
100.499433254
 30
0.000000000
 10
141.000000000
 20
100.566116261
 30
0.000000000
 10
141.000000000
 20
100.701836753
 30
0.000000000
 10
141.000000000
 20
100.850207115
 30
0.000000000
 10
141.000000000
 20
101.000000000
 30
0.000000000
  0
SPLINE
  5
A36
330
A02
100
AcDbEntity
  8
ProjItem
100
AcDbSpline
210
0
220
0
230
1
 70
8
 71
3
 72
35
 73
31
 74
0
 40
0.000000000
 40
0.000000000
 40
0.000000000
 40
0.000000000
 40
0.112199738
 40
0.112199738
 40
0.112199738
 40
0.224399475
 40
0.224399475
 40
0.224399475
 40
0.336599213
 40
0.336599213
 40
0.336599213
 40
0.448798951
 40
0.448798951
 40
0.448798951
 40
0.560998688
 40
0.560998688
 40
0.560998688
 40
0.673198426
 40
0.673198426
 40
0.673198426
 40
0.785398163
 40
0.785398163
 40
0.785398163
 40
0.897597901
 40
0.897597901
 40
0.897597901
 40
1.121997376
 40
1.121997376
 40
1.121997376
 40
1.570796327
 40
1.570796327
 40
1.570796327
 40
1.570796327
 10
167.000000000
 20
100.000000000
 30
0.000000000
 10
167.000000000
 20
100.002095930
 30
0.000000000
 10
167.000000000
 20
100.004191860
 30
0.000000000
 10
167.000000000
 20
100.006287790
 30
0.000000000
 10
167.000000000
 20
100.012549223
 30
0.000000000
 10
167.000000000
 20
100.018810655
 30
0.000000000
 10
167.000000000
 20
100.025072088
 30
0.000000000
 10
167.000000000
 20
100.035420282
 30
0.000000000
 10
167.000000000
 20
100.045768476
 30
0.000000000
 10
167.000000000
 20
100.056116670
 30
0.000000000
 10
167.000000000
 20
100.070421490
 30
0.000000000
 10
167.000000000
 20
100.084726311
 30
0.000000000
 10
167.000000000
 20
100.099031132
 30
0.000000000
 10
167.000000000
 20
100.117112688
 30
0.000000000
 10
167.000000000
 20
100.135194245
 30
0.000000000
 10
167.000000000
 20
100.153275801
 30
0.000000000
 10
167.000000000
 20
100.174906706
 30
0.000000000
 10
167.000000000
 20
100.196537612
 30
0.000000000
 10
167.000000000
 20
100.218168518
 30
0.000000000
 10
167.000000000
 20
100.243076751
 30
0.000000000
 10
167.000000000
 20
100.267984985
 30
0.000000000
 10
167.000000000
 20
100.292893219
 30
0.000000000
 10
167.000000000
 20
100.320765545
 30
0.000000000
 10
167.000000000
 20
100.348637872
 30
0.000000000
 10
167.000000000
 20
100.376510198
 30
0.000000000
 10
167.000000000
 20
100.436231233
 30
0.000000000
 10
167.000000000
 20
100.499433254
 30
0.000000000
 10
167.000000000
 20
100.566116261
 30
0.000000000
 10
167.000000000
 20
100.701836753
 30
0.000000000
 10
167.000000000
 20
100.850207115
 30
0.000000000
 10
167.000000000
 20
101.000000000
 30
0.000000000
  0
LINE
  5
A37
330
A02
100
AcDbEntity
  8
ProjItem
100
AcDbLine
 10
167.000000000
 20
99.000000000
 30
0.000000000
 11
167.000000000
 21
100.000000000
 31
0.000000000
  0
SPLINE
  5
A38
330
A02
100
AcDbEntity
  8
ProjItem
100
AcDbSpline
210
0
220
0
230
1
 70
8
 71
3
 72
35
 73
31
 74
0
 40
0.000000000
 40
0.000000000
 40
0.000000000
 40
0.000000000
 40
0.112199738
 40
0.112199738
 40
0.112199738
 40
0.224399475
 40
0.224399475
 40
0.224399475
 40
0.336599213
 40
0.336599213
 40
0.336599213
 40
0.448798951
 40
0.448798951
 40
0.448798951
 40
0.560998688
 40
0.560998688
 40
0.560998688
 40
0.673198426
 40
0.673198426
 40
0.673198426
 40
0.785398163
 40
0.785398163
 40
0.785398163
 40
0.897597901
 40
0.897597901
 40
0.897597901
 40
1.121997376
 40
1.121997376
 40
1.121997376
 40
1.570796327
 40
1.570796327
 40
1.570796327
 40
1.570796327
 10
141.000000000
 20
100.000000000
 30
0.000000000
 10
141.000000000
 20
100.002095930
 30
0.000000000
 10
141.000000000
 20
100.004191860
 30
0.000000000
 10
141.000000000
 20
100.006287790
 30
0.000000000
 10
141.000000000
 20
100.012549223
 30
0.000000000
 10
141.000000000
 20
100.018810655
 30
0.000000000
 10
141.000000000
 20
100.025072088
 30
0.000000000
 10
141.000000000
 20
100.035420282
 30
0.000000000
 10
141.000000000
 20
100.045768476
 30
0.000000000
 10
141.000000000
 20
100.056116670
 30
0.000000000
 10
141.000000000
 20
100.070421490
 30
0.000000000
 10
141.000000000
 20
100.084726311
 30
0.000000000
 10
141.000000000
 20
100.099031132
 30
0.000000000
 10
141.000000000
 20
100.117112688
 30
0.000000000
 10
141.000000000
 20
100.135194245
 30
0.000000000
 10
141.000000000
 20
100.153275801
 30
0.000000000
 10
141.000000000
 20
100.174906706
 30
0.000000000
 10
141.000000000
 20
100.196537612
 30
0.000000000
 10
141.000000000
 20
100.218168518
 30
0.000000000
 10
141.000000000
 20
100.243076751
 30
0.000000000
 10
141.000000000
 20
100.267984985
 30
0.000000000
 10
141.000000000
 20
100.292893219
 30
0.000000000
 10
141.000000000
 20
100.320765545
 30
0.000000000
 10
141.000000000
 20
100.348637872
 30
0.000000000
 10
141.000000000
 20
100.376510198
 30
0.000000000
 10
141.000000000
 20
100.436231233
 30
0.000000000
 10
141.000000000
 20
100.499433254
 30
0.000000000
 10
141.000000000
 20
100.566116261
 30
0.000000000
 10
141.000000000
 20
100.701836753
 30
0.000000000
 10
141.000000000
 20
100.850207115
 30
0.000000000
 10
141.000000000
 20
101.000000000
 30
0.000000000
  0
LINE
  5
A39
330
A02
100
AcDbEntity
  8
ProjItem
100
AcDbLine
 10
167.900000000
 20
101.000000000
 30
0.000000000
 11
167.000000000
 21
101.000000000
 31
0.000000000
  0
LINE
  5
A3A
330
A02
100
AcDbEntity
  8
ProjItem
100
AcDbLine
 10
141.000000000
 20
101.000000000
 30
0.000000000
 11
140.100000000
 21
101.000000000
 31
0.000000000
  0
LINE
  5
A3B
330
A02
100
AcDbEntity
  8
ProjItem
100
AcDbLine
 10
140.100000000
 20
101.000000000
 30
0.000000000
 11
140.100000000
 21
109.000000000
 31
0.000000000
  0
LINE
  5
A3C
330
A02
100
AcDbEntity
  8
ProjItem
100
AcDbLine
 10
140.100000000
 20
109.000000000
 30
0.000000000
 11
167.900000000
 21
109.000000000
 31
0.000000000
  0
LINE
  5
A3D
330
A02
100
AcDbEntity
  8
ProjItem
100
AcDbLine
 10
167.900000000
 20
109.000000000
 30
0.000000000
 11
167.900000000
 21
101.000000000
 31
0.000000000
  0
ARC
  5
A3E
330
A02
100
AcDbEntity
  8
ProjItem
100
AcDbCircle
 10
167.000000000
 20
101.000000000
 30
0.000000000
 40
1.000000000
100
AcDbArc
 50
-90.000000000
 51
0.000000000
  0
LINE
  5
A3F
330
A02
100
AcDbEntity
  8
ProjItem
100
AcDbLine
 10
168.000000000
 20
101.000000000
 30
0.000000000
 11
169.000000000
 21
101.000000000
 31
0.000000000
  0
LINE
  5
A40
330
A02
100
AcDbEntity
  8
ProjItem
100
AcDbLine
 10
169.000000000
 20
101.000000000
 30
0.000000000
 11
168.000000000
 21
101.000000000
 31
0.000000000
  0
LINE
  5
A41
330
A02
100
AcDbEntity
  8
ProjItem
100
AcDbLine
 10
169.000000000
 20
109.000000000
 30
0.000000000
 11
169.000000000
 21
101.000000000
 31
0.000000000
  0
LINE
  5
A42
330
A02
100
AcDbEntity
  8
ProjItem
100
AcDbLine
 10
141.000000000
 20
100.000000000
 30
0.000000000
 11
167.000000000
 21
100.000000000
 31
0.000000000
  0
LINE
  5
A43
330
A02
100
AcDbEntity
  8
ProjItem
100
AcDbLine
 10
141.000000000
 20
100.000000000
 30
0.000000000
 11
167.000000000
 21
100.000000000
 31
0.000000000
  0
LINE
  5
A44
330
A02
100
AcDbEntity
  8
ProjItem
100
AcDbLine
 10
139.000000000
 20
101.000000000
 30
0.000000000
 11
140.000000000
 21
101.000000000
 31
0.000000000
  0
ARC
  5
A45
330
A02
100
AcDbEntity
  8
ProjItem
100
AcDbCircle
 10
138.000000000
 20
109.000000000
 30
0.000000000
 40
1.000000000
100
AcDbArc
 50
0.000000000
 51
90.000000000
  0
LINE
  5
A46
330
A02
100
AcDbEntity
  8
ProjItem
100
AcDbLine
 10
128.000000000
 20
110.000000000
 30
0.000000000
 11
138.000000000
 21
110.000000000
 31
0.000000000
  0
LINE
  5
A47
330
A02
100
AcDbEntity
  8
ProjItem
100
AcDbLine
 10
128.000000000
 20
110.000000000
 30
0.000000000
 11
128.000000000
 21
111.000000000
 31
0.000000000
  0
LINE
  5
A48
330
A02
100
AcDbEntity
  8
ProjItem
100
AcDbLine
 10
128.000000000
 20
111.000000000
 30
0.000000000
 11
138.000000000
 21
111.000000000
 31
0.000000000
  0
ARC
  5
A49
330
A02
100
AcDbEntity
  8
ProjItem
100
AcDbCircle
 10
138.000000000
 20
109.000000000
 30
0.000000000
 40
2.000000000
100
AcDbArc
 50
0.000000000
 51
90.000000000
  0
LINE
  5
A4A
330
A02
100
AcDbEntity
  8
ProjItem
100
AcDbLine
 10
140.000000000
 20
109.000000000
 30
0.000000000
 11
140.000000000
 21
101.000000000
 31
0.000000000
  0
LINE
  5
A4B
330
A02
100
AcDbEntity
  8
ProjItem
100
AcDbLine
 10
141.000000000
 20
101.000000000
 30
0.000000000
 11
167.000000000
 21
101.000000000
 31
0.000000000
  0
LINE
  5
A4C
330
A02
100
AcDbEntity
  8
ProjItem
100
AcDbLine
 10
167.900000000
 20
101.000000000
 30
0.000000000
 11
167.000000000
 21
101.000000000
 31
0.000000000
  0
LINE
  5
A4D
330
A02
100
AcDbEntity
  8
ProjItem
100
AcDbLine
 10
141.000000000
 20
101.000000000
 30
0.000000000
 11
140.100000000
 21
101.000000000
 31
0.000000000
  0
LINE
  5
A4E
330
A02
100
AcDbEntity
  8
ProjItem
100
AcDbLine
 10
167.900000000
 20
109.000000000
 30
0.000000000
 11
167.900000000
 21
101.000000000
 31
0.000000000
  0
LINE
  5
A4F
330
A02
100
AcDbEntity
  8
ProjItem
100
AcDbLine
 10
140.100000000
 20
109.000000000
 30
0.000000000
 11
167.900000000
 21
109.000000000
 31
0.000000000
  0
LINE
  5
A50
330
A02
100
AcDbEntity
  8
ProjItem
100
AcDbLine
 10
140.100000000
 20
101.000000000
 30
0.000000000
 11
140.100000000
 21
109.000000000
 31
0.000000000
  0
CIRCLE
  5
A51
330
A02
100
AcDbEntity
  8
ProjItem
100
AcDbCircle
 10
154.000000000
 20
104.834776000
 30
0.000000000
 40
1.868305000
  0
LINE
  5
A52
330
A02
100
AcDbEntity
  8
ProjItem
100
AcDbLine
 10
141.000000000
 20
101.000000000
 30
0.000000000
 11
167.000000000
 21
101.000000000
 31
0.000000000
  0
LINE
  5
A53
330
A02
100
AcDbEntity
  8
ProjItem
100
AcDbLine
 10
167.900000000
 20
101.000000000
 30
0.000000000
 11
167.000000000
 21
101.000000000
 31
0.000000000
  0
LINE
  5
A54
330
A02
100
AcDbEntity
  8
ProjItem
100
AcDbLine
 10
141.000000000
 20
101.000000000
 30
0.000000000
 11
140.100000000
 21
101.000000000
 31
0.000000000
  0
LINE
  5
A55
330
A02
100
AcDbEntity
  8
ProjItem
100
AcDbLine
 10
140.100000000
 20
101.000000000
 30
0.000000000
 11
140.100000000
 21
109.000000000
 31
0.000000000
  0
LINE
  5
A56
330
A02
100
AcDbEntity
  8
ProjItem
100
AcDbLine
 10
140.100000000
 20
109.000000000
 30
0.000000000
 11
167.900000000
 21
109.000000000
 31
0.000000000
  0
LINE
  5
A57
330
A02
100
AcDbEntity
  8
ProjItem
100
AcDbLine
 10
167.900000000
 20
109.000000000
 30
0.000000000
 11
167.900000000
 21
101.000000000
 31
0.000000000
  0
LINE
  5
A58
330
A02
100
AcDbEntity
  8
ProjItem
100
AcDbLine
 10
169.000000000
 20
101.000000000
 30
0.000000000
 11
168.000000000
 21
101.000000000
 31
0.000000000
  0
LINE
  5
A59
330
A02
100
AcDbEntity
  8
ProjItem
100
AcDbLine
 10
169.000000000
 20
109.000000000
 30
0.000000000
 11
168.000000000
 21
109.000000000
 31
0.000000000
  0
LINE
  5
A5A
330
A02
100
AcDbEntity
  8
ProjItem
100
AcDbLine
 10
168.000000000
 20
109.000000000
 30
0.000000000
 11
168.000000000
 21
101.000000000
 31
0.000000000
  0
SPLINE
  5
A5B
330
A02
100
AcDbEntity
  8
ProjItem
100
AcDbSpline
210
0
220
0
230
1
 70
8
 71
1
 72
17
 73
15
 74
0
 40
0.000000000
 40
0.000000000
 40
0.224399475
 40
0.448798951
 40
0.673198426
 40
0.897597901
 40
1.121997376
 40
1.346396852
 40
1.570796327
 40
1.795195802
 40
2.019595277
 40
2.243994753
 40
2.468394228
 40
2.692793703
 40
2.917193178
 40
3.141592654
 40
3.141592654
 10
134.838882000
 20
111.000000000
 30
0.000000000
 10
134.786818105
 20
111.000000000
 30
0.000000000
 10
134.633237120
 20
111.000000000
 30
0.000000000
 10
134.385840238
 20
111.000000000
 30
0.000000000
 10
134.057032971
 20
111.000000000
 30
0.000000000
 10
133.663303088
 20
111.000000000
 30
0.000000000
 10
133.224393851
 20
111.000000000
 30
0.000000000
 10
132.762314000
 20
111.000000000
 30
0.000000000
 10
132.300234149
 20
111.000000000
 30
0.000000000
 10
131.861324912
 20
111.000000000
 30
0.000000000
 10
131.467595029
 20
111.000000000
 30
0.000000000
 10
131.138787762
 20
111.000000000
 30
0.000000000
 10
130.891390880
 20
111.000000000
 30
0.000000000
 10
130.737809895
 20
111.000000000
 30
0.000000000
 10
130.685746000
 20
111.000000000
 30
0.000000000
  0
SPLINE
  5
A5C
330
A02
100
AcDbEntity
  8
ProjItem
100
AcDbSpline
210
0
220
0
230
1
 70
8
 71
1
 72
17
 73
15
 74
0
 40
3.141592654
 40
3.141592654
 40
3.365992129
 40
3.590391604
 40
3.814791079
 40
4.039190555
 40
4.263590030
 40
4.487989505
 40
4.712388980
 40
4.936788456
 40
5.161187931
 40
5.385587406
 40
5.609986881
 40
5.834386357
 40
6.058785832
 40
6.283185307
 40
6.283185307
 10
130.685746000
 20
111.000000000
 30
0.000000000
 10
130.737809895
 20
111.000000000
 30
0.000000000
 10
130.891390880
 20
111.000000000
 30
0.000000000
 10
131.138787762
 20
111.000000000
 30
0.000000000
 10
131.467595029
 20
111.000000000
 30
0.000000000
 10
131.861324912
 20
111.000000000
 30
0.000000000
 10
132.300234149
 20
111.000000000
 30
0.000000000
 10
132.762314000
 20
111.000000000
 30
0.000000000
 10
133.224393851
 20
111.000000000
 30
0.000000000
 10
133.663303088
 20
111.000000000
 30
0.000000000
 10
134.057032971
 20
111.000000000
 30
0.000000000
 10
134.385840238
 20
111.000000000
 30
0.000000000
 10
134.633237120
 20
111.000000000
 30
0.000000000
 10
134.786818105
 20
111.000000000
 30
0.000000000
 10
134.838882000
 20
111.000000000
 30
0.000000000
  0
SPLINE
  5
A5D
330
A02
100
AcDbEntity
  8
ProjItem
100
AcDbSpline
210
0
220
0
230
1
 70
8
 71
1
 72
17
 73
15
 74
0
 40
0.000000000
 40
0.000000000
 40
0.224399475
 40
0.448798951
 40
0.673198426
 40
0.897597901
 40
1.121997376
 40
1.346396852
 40
1.570796327
 40
1.795195802
 40
2.019595277
 40
2.243994753
 40
2.468394228
 40
2.692793703
 40
2.917193178
 40
3.141592654
 40
3.141592654
 10
134.838882000
 20
110.000000000
 30
0.000000000
 10
134.786818105
 20
110.000000000
 30
0.000000000
 10
134.633237120
 20
110.000000000
 30
0.000000000
 10
134.385840238
 20
110.000000000
 30
0.000000000
 10
134.057032971
 20
110.000000000
 30
0.000000000
 10
133.663303088
 20
110.000000000
 30
0.000000000
 10
133.224393851
 20
110.000000000
 30
0.000000000
 10
132.762314000
 20
110.000000000
 30
0.000000000
 10
132.300234149
 20
110.000000000
 30
0.000000000
 10
131.861324912
 20
110.000000000
 30
0.000000000
 10
131.467595029
 20
110.000000000
 30
0.000000000
 10
131.138787762
 20
110.000000000
 30
0.000000000
 10
130.891390880
 20
110.000000000
 30
0.000000000
 10
130.737809895
 20
110.000000000
 30
0.000000000
 10
130.685746000
 20
110.000000000
 30
0.000000000
  0
SPLINE
  5
A5E
330
A02
100
AcDbEntity
  8
ProjItem
100
AcDbSpline
210
0
220
0
230
1
 70
8
 71
1
 72
17
 73
15
 74
0
 40
3.141592654
 40
3.141592654
 40
3.365992129
 40
3.590391604
 40
3.814791079
 40
4.039190555
 40
4.263590030
 40
4.487989505
 40
4.712388980
 40
4.936788456
 40
5.161187931
 40
5.385587406
 40
5.609986881
 40
5.834386357
 40
6.058785832
 40
6.283185307
 40
6.283185307
 10
130.685746000
 20
110.000000000
 30
0.000000000
 10
130.737809895
 20
110.000000000
 30
0.000000000
 10
130.891390880
 20
110.000000000
 30
0.000000000
 10
131.138787762
 20
110.000000000
 30
0.000000000
 10
131.467595029
 20
110.000000000
 30
0.000000000
 10
131.861324912
 20
110.000000000
 30
0.000000000
 10
132.300234149
 20
110.000000000
 30
0.000000000
 10
132.762314000
 20
110.000000000
 30
0.000000000
 10
133.224393851
 20
110.000000000
 30
0.000000000
 10
133.663303088
 20
110.000000000
 30
0.000000000
 10
134.057032971
 20
110.000000000
 30
0.000000000
 10
134.385840238
 20
110.000000000
 30
0.000000000
 10
134.633237120
 20
110.000000000
 30
0.000000000
 10
134.786818105
 20
110.000000000
 30
0.000000000
 10
134.838882000
 20
110.000000000
 30
0.000000000
  0
LINE
  5
A5F
330
A02
100
AcDbEntity
  8
ProjItem
100
AcDbLine
 10
134.838882000
 20
111.000000000
 30
0.000000000
 11
134.838882000
 21
110.000000000
 31
0.000000000
  0
LINE
  5
A60
330
A02
100
AcDbEntity
  8
ProjItem
100
AcDbLine
 10
158.230959000
 20
100.000000000
 30
0.000000000
 11
158.230959000
 21
99.000000000
 31
0.000000000
  0
LINE
  5
A61
330
A02
100
AcDbEntity
  8
ProjItem
100
AcDbLine
 10
130.685746000
 20
110.000000000
 30
0.000000000
 11
130.685746000
 21
111.000000000
 31
0.000000000
  0
LINE
  5
A62
330
A02
100
AcDbEntity
  8
ProjItem001
100
AcDbLine
 10
141.000000000
 20
144.000000200
 30
0.000000000
 11
141.000000000
 21
128.000000200
 31
0.000000000
  0
LINE
  5
A63
330
A02
100
AcDbEntity
  8
ProjItem001
100
AcDbLine
 10
141.000000000
 20
144.000000200
 30
0.000000000
 11
167.000000000
 21
144.000000200
 31
0.000000000
  0
LINE
  5
A64
330
A02
100
AcDbEntity
  8
ProjItem001
100
AcDbLine
 10
141.000000000
 20
128.000000200
 30
0.000000000
 11
167.000000000
 21
128.000000200
 31
0.000000000
  0
LINE
  5
A65
330
A02
100
AcDbEntity
  8
ProjItem001
100
AcDbLine
 10
167.000000000
 20
144.000000200
 30
0.000000000
 11
167.000000000
 21
128.000000200
 31
0.000000000
  0
CIRCLE
  5
A66
330
A02
100
AcDbEntity
  8
ProjItem001
100
AcDbCircle
 10
161.230959000
 20
132.775767200
 30
0.000000000
 40
3.000000000
  0
SPLINE
  5
A67
330
A02
100
AcDbEntity
  8
ProjItem001
100
AcDbSpline
210
0
220
0
230
1
 70
8
 71
3
 72
41
 73
37
 74
0
 40
0.000000000
 40
0.000000000
 40
0.000000000
 40
0.000000000
 40
0.336599213
 40
0.336599213
 40
0.336599213
 40
0.448798951
 40
0.448798951
 40
0.448798951
 40
0.560998688
 40
0.560998688
 40
0.560998688
 40
0.673198426
 40
0.673198426
 40
0.673198426
 40
0.785398163
 40
0.785398163
 40
0.785398163
 40
0.897597901
 40
0.897597901
 40
0.897597901
 40
1.009797639
 40
1.009797639
 40
1.009797639
 40
1.121997376
 40
1.121997376
 40
1.121997376
 40
1.234197114
 40
1.234197114
 40
1.234197114
 40
1.346396852
 40
1.346396852
 40
1.346396852
 40
1.458596589
 40
1.458596589
 40
1.458596589
 40
1.570796327
 40
1.570796327
 40
1.570796327
 40
1.570796327
 10
141.000000000
 20
128.000000200
 30
0.000000000
 10
140.775303586
 20
128.000000200
 30
0.000000000
 10
140.552713315
 20
128.000000200
 30
0.000000000
 10
140.339441876
 20
128.000000200
 30
0.000000000
 10
140.270372091
 20
128.000000200
 30
0.000000000
 10
140.201302307
 20
128.000000200
 30
0.000000000
 10
140.132232522
 20
128.000000200
 30
0.000000000
 10
140.066800297
 20
128.000000200
 30
0.000000000
 10
140.001368072
 20
128.000000200
 30
0.000000000
 10
139.935935847
 20
128.000000200
 30
0.000000000
 10
139.874964030
 20
128.000000200
 30
0.000000000
 10
139.813992213
 20
128.000000200
 30
0.000000000
 10
139.753020396
 20
128.000000200
 30
0.000000000
 10
139.697275743
 20
128.000000200
 30
0.000000000
 10
139.641531091
 20
128.000000200
 30
0.000000000
 10
139.585786438
 20
128.000000200
 30
0.000000000
 10
139.535969970
 20
128.000000200
 30
0.000000000
 10
139.486153503
 20
128.000000200
 30
0.000000000
 10
139.436337035
 20
128.000000200
 30
0.000000000
 10
139.393075224
 20
128.000000200
 30
0.000000000
 10
139.349813413
 20
128.000000200
 30
0.000000000
 10
139.306551602
 20
128.000000200
 30
0.000000000
 10
139.270388489
 20
128.000000200
 30
0.000000000
 10
139.234225377
 20
128.000000200
 30
0.000000000
 10
139.198062264
 20
128.000000200
 30
0.000000000
 10
139.169452623
 20
128.000000200
 30
0.000000000
 10
139.140842981
 20
128.000000200
 30
0.000000000
 10
139.112233339
 20
128.000000200
 30
0.000000000
 10
139.091536951
 20
128.000000200
 30
0.000000000
 10
139.070840564
 20
128.000000200
 30
0.000000000
 10
139.050144176
 20
128.000000200
 30
0.000000000
 10
139.037621310
 20
128.000000200
 30
0.000000000
 10
139.025098445
 20
128.000000200
 30
0.000000000
 10
139.012575580
 20
128.000000200
 30
0.000000000
 10
139.008383720
 20
128.000000200
 30
0.000000000
 10
139.004191860
 20
128.000000200
 30
0.000000000
 10
139.000000000
 20
128.000000200
 30
0.000000000
  0
SPLINE
  5
A68
330
A02
100
AcDbEntity
  8
ProjItem001
100
AcDbSpline
210
0
220
0
230
1
 70
8
 71
3
 72
41
 73
37
 74
0
 40
0.000000000
 40
0.000000000
 40
0.000000000
 40
0.000000000
 40
0.336599213
 40
0.336599213
 40
0.336599213
 40
0.448798951
 40
0.448798951
 40
0.448798951
 40
0.560998688
 40
0.560998688
 40
0.560998688
 40
0.673198426
 40
0.673198426
 40
0.673198426
 40
0.785398163
 40
0.785398163
 40
0.785398163
 40
0.897597901
 40
0.897597901
 40
0.897597901
 40
1.009797639
 40
1.009797639
 40
1.009797639
 40
1.121997376
 40
1.121997376
 40
1.121997376
 40
1.234197114
 40
1.234197114
 40
1.234197114
 40
1.346396852
 40
1.346396852
 40
1.346396852
 40
1.458596589
 40
1.458596589
 40
1.458596589
 40
1.570796327
 40
1.570796327
 40
1.570796327
 40
1.570796327
 10
141.000000000
 20
144.000000200
 30
0.000000000
 10
140.775303586
 20
144.000000200
 30
0.000000000
 10
140.552713315
 20
144.000000200
 30
0.000000000
 10
140.339441876
 20
144.000000200
 30
0.000000000
 10
140.270372091
 20
144.000000200
 30
0.000000000
 10
140.201302307
 20
144.000000200
 30
0.000000000
 10
140.132232522
 20
144.000000200
 30
0.000000000
 10
140.066800297
 20
144.000000200
 30
0.000000000
 10
140.001368072
 20
144.000000200
 30
0.000000000
 10
139.935935847
 20
144.000000200
 30
0.000000000
 10
139.874964030
 20
144.000000200
 30
0.000000000
 10
139.813992213
 20
144.000000200
 30
0.000000000
 10
139.753020396
 20
144.000000200
 30
0.000000000
 10
139.697275743
 20
144.000000200
 30
0.000000000
 10
139.641531091
 20
144.000000200
 30
0.000000000
 10
139.585786438
 20
144.000000200
 30
0.000000000
 10
139.535969970
 20
144.000000200
 30
0.000000000
 10
139.486153503
 20
144.000000200
 30
0.000000000
 10
139.436337035
 20
144.000000200
 30
0.000000000
 10
139.393075224
 20
144.000000200
 30
0.000000000
 10
139.349813413
 20
144.000000200
 30
0.000000000
 10
139.306551602
 20
144.000000200
 30
0.000000000
 10
139.270388489
 20
144.000000200
 30
0.000000000
 10
139.234225377
 20
144.000000200
 30
0.000000000
 10
139.198062264
 20
144.000000200
 30
0.000000000
 10
139.169452623
 20
144.000000200
 30
0.000000000
 10
139.140842981
 20
144.000000200
 30
0.000000000
 10
139.112233339
 20
144.000000200
 30
0.000000000
 10
139.091536951
 20
144.000000200
 30
0.000000000
 10
139.070840564
 20
144.000000200
 30
0.000000000
 10
139.050144176
 20
144.000000200
 30
0.000000000
 10
139.037621310
 20
144.000000200
 30
0.000000000
 10
139.025098445
 20
144.000000200
 30
0.000000000
 10
139.012575580
 20
144.000000200
 30
0.000000000
 10
139.008383720
 20
144.000000200
 30
0.000000000
 10
139.004191860
 20
144.000000200
 30
0.000000000
 10
139.000000000
 20
144.000000200
 30
0.000000000
  0
LINE
  5
A69
330
A02
100
AcDbEntity
  8
ProjItem001
100
AcDbLine
 10
139.000000000
 20
128.000000200
 30
0.000000000
 11
139.000000000
 21
144.000000200
 31
0.000000000
  0
SPLINE
  5
A6A
330
A02
100
AcDbEntity
  8
ProjItem001
100
AcDbSpline
210
0
220
0
230
1
 70
8
 71
3
 72
41
 73
37
 74
0
 40
0.000000000
 40
0.000000000
 40
0.000000000
 40
0.000000000
 40
0.336599213
 40
0.336599213
 40
0.336599213
 40
0.448798951
 40
0.448798951
 40
0.448798951
 40
0.560998688
 40
0.560998688
 40
0.560998688
 40
0.673198426
 40
0.673198426
 40
0.673198426
 40
0.785398163
 40
0.785398163
 40
0.785398163
 40
0.897597901
 40
0.897597901
 40
0.897597901
 40
1.009797639
 40
1.009797639
 40
1.009797639
 40
1.121997376
 40
1.121997376
 40
1.121997376
 40
1.234197114
 40
1.234197114
 40
1.234197114
 40
1.346396852
 40
1.346396852
 40
1.346396852
 40
1.458596589
 40
1.458596589
 40
1.458596589
 40
1.570796327
 40
1.570796327
 40
1.570796327
 40
1.570796327
 10
167.000000000
 20
144.000000200
 30
0.000000000
 10
167.000000000
 20
144.224696614
 30
0.000000000
 10
167.000000000
 20
144.447286885
 30
0.000000000
 10
167.000000000
 20
144.660558324
 30
0.000000000
 10
167.000000000
 20
144.729628109
 30
0.000000000
 10
167.000000000
 20
144.798697893
 30
0.000000000
 10
167.000000000
 20
144.867767678
 30
0.000000000
 10
167.000000000
 20
144.933199903
 30
0.000000000
 10
167.000000000
 20
144.998632128
 30
0.000000000
 10
167.000000000
 20
145.064064353
 30
0.000000000
 10
167.000000000
 20
145.125036170
 30
0.000000000
 10
167.000000000
 20
145.186007987
 30
0.000000000
 10
167.000000000
 20
145.246979804
 30
0.000000000
 10
167.000000000
 20
145.302724457
 30
0.000000000
 10
167.000000000
 20
145.358469109
 30
0.000000000
 10
167.000000000
 20
145.414213762
 30
0.000000000
 10
167.000000000
 20
145.464030230
 30
0.000000000
 10
167.000000000
 20
145.513846697
 30
0.000000000
 10
167.000000000
 20
145.563663165
 30
0.000000000
 10
167.000000000
 20
145.606924976
 30
0.000000000
 10
167.000000000
 20
145.650186787
 30
0.000000000
 10
167.000000000
 20
145.693448598
 30
0.000000000
 10
167.000000000
 20
145.729611711
 30
0.000000000
 10
167.000000000
 20
145.765774823
 30
0.000000000
 10
167.000000000
 20
145.801937936
 30
0.000000000
 10
167.000000000
 20
145.830547577
 30
0.000000000
 10
167.000000000
 20
145.859157219
 30
0.000000000
 10
167.000000000
 20
145.887766861
 30
0.000000000
 10
167.000000000
 20
145.908463249
 30
0.000000000
 10
167.000000000
 20
145.929159636
 30
0.000000000
 10
167.000000000
 20
145.949856024
 30
0.000000000
 10
167.000000000
 20
145.962378890
 30
0.000000000
 10
167.000000000
 20
145.974901755
 30
0.000000000
 10
167.000000000
 20
145.987424620
 30
0.000000000
 10
167.000000000
 20
145.991616480
 30
0.000000000
 10
167.000000000
 20
145.995808340
 30
0.000000000
 10
167.000000000
 20
146.000000200
 30
0.000000000
  0
SPLINE
  5
A6B
330
A02
100
AcDbEntity
  8
ProjItem001
100
AcDbSpline
210
0
220
0
230
1
 70
8
 71
3
 72
41
 73
37
 74
0
 40
0.000000000
 40
0.000000000
 40
0.000000000
 40
0.000000000
 40
0.336599213
 40
0.336599213
 40
0.336599213
 40
0.448798951
 40
0.448798951
 40
0.448798951
 40
0.560998688
 40
0.560998688
 40
0.560998688
 40
0.673198426
 40
0.673198426
 40
0.673198426
 40
0.785398163
 40
0.785398163
 40
0.785398163
 40
0.897597901
 40
0.897597901
 40
0.897597901
 40
1.009797639
 40
1.009797639
 40
1.009797639
 40
1.121997376
 40
1.121997376
 40
1.121997376
 40
1.234197114
 40
1.234197114
 40
1.234197114
 40
1.346396852
 40
1.346396852
 40
1.346396852
 40
1.458596589
 40
1.458596589
 40
1.458596589
 40
1.570796327
 40
1.570796327
 40
1.570796327
 40
1.570796327
 10
141.000000000
 20
144.000000200
 30
0.000000000
 10
141.000000000
 20
144.224696614
 30
0.000000000
 10
141.000000000
 20
144.447286885
 30
0.000000000
 10
141.000000000
 20
144.660558324
 30
0.000000000
 10
141.000000000
 20
144.729628109
 30
0.000000000
 10
141.000000000
 20
144.798697893
 30
0.000000000
 10
141.000000000
 20
144.867767678
 30
0.000000000
 10
141.000000000
 20
144.933199903
 30
0.000000000
 10
141.000000000
 20
144.998632128
 30
0.000000000
 10
141.000000000
 20
145.064064353
 30
0.000000000
 10
141.000000000
 20
145.125036170
 30
0.000000000
 10
141.000000000
 20
145.186007987
 30
0.000000000
 10
141.000000000
 20
145.246979804
 30
0.000000000
 10
141.000000000
 20
145.302724457
 30
0.000000000
 10
141.000000000
 20
145.358469109
 30
0.000000000
 10
141.000000000
 20
145.414213762
 30
0.000000000
 10
141.000000000
 20
145.464030230
 30
0.000000000
 10
141.000000000
 20
145.513846697
 30
0.000000000
 10
141.000000000
 20
145.563663165
 30
0.000000000
 10
141.000000000
 20
145.606924976
 30
0.000000000
 10
141.000000000
 20
145.650186787
 30
0.000000000
 10
141.000000000
 20
145.693448598
 30
0.000000000
 10
141.000000000
 20
145.729611711
 30
0.000000000
 10
141.000000000
 20
145.765774823
 30
0.000000000
 10
141.000000000
 20
145.801937936
 30
0.000000000
 10
141.000000000
 20
145.830547577
 30
0.000000000
 10
141.000000000
 20
145.859157219
 30
0.000000000
 10
141.000000000
 20
145.887766861
 30
0.000000000
 10
141.000000000
 20
145.908463249
 30
0.000000000
 10
141.000000000
 20
145.929159636
 30
0.000000000
 10
141.000000000
 20
145.949856024
 30
0.000000000
 10
141.000000000
 20
145.962378890
 30
0.000000000
 10
141.000000000
 20
145.974901755
 30
0.000000000
 10
141.000000000
 20
145.987424620
 30
0.000000000
 10
141.000000000
 20
145.991616480
 30
0.000000000
 10
141.000000000
 20
145.995808340
 30
0.000000000
 10
141.000000000
 20
146.000000200
 30
0.000000000
  0
LINE
  5
A6C
330
A02
100
AcDbEntity
  8
ProjItem001
100
AcDbLine
 10
167.000000000
 20
146.000000200
 30
0.000000000
 11
141.000000000
 21
146.000000200
 31
0.000000000
  0
SPLINE
  5
A6D
330
A02
100
AcDbEntity
  8
ProjItem001
100
AcDbSpline
210
0
220
0
230
1
 70
8
 71
3
 72
41
 73
37
 74
0
 40
0.000000000
 40
0.000000000
 40
0.000000000
 40
0.000000000
 40
0.336599213
 40
0.336599213
 40
0.336599213
 40
0.448798951
 40
0.448798951
 40
0.448798951
 40
0.560998688
 40
0.560998688
 40
0.560998688
 40
0.673198426
 40
0.673198426
 40
0.673198426
 40
0.785398163
 40
0.785398163
 40
0.785398163
 40
0.897597901
 40
0.897597901
 40
0.897597901
 40
1.009797639
 40
1.009797639
 40
1.009797639
 40
1.121997376
 40
1.121997376
 40
1.121997376
 40
1.234197114
 40
1.234197114
 40
1.234197114
 40
1.346396852
 40
1.346396852
 40
1.346396852
 40
1.458596589
 40
1.458596589
 40
1.458596589
 40
1.570796327
 40
1.570796327
 40
1.570796327
 40
1.570796327
 10
167.000000000
 20
128.000000200
 30
0.000000000
 10
167.000000000
 20
127.775303786
 30
0.000000000
 10
167.000000000
 20
127.552713515
 30
0.000000000
 10
167.000000000
 20
127.339442076
 30
0.000000000
 10
167.000000000
 20
127.270372291
 30
0.000000000
 10
167.000000000
 20
127.201302507
 30
0.000000000
 10
167.000000000
 20
127.132232722
 30
0.000000000
 10
167.000000000
 20
127.066800497
 30
0.000000000
 10
167.000000000
 20
127.001368272
 30
0.000000000
 10
167.000000000
 20
126.935936047
 30
0.000000000
 10
167.000000000
 20
126.874964230
 30
0.000000000
 10
167.000000000
 20
126.813992413
 30
0.000000000
 10
167.000000000
 20
126.753020596
 30
0.000000000
 10
167.000000000
 20
126.697275943
 30
0.000000000
 10
167.000000000
 20
126.641531291
 30
0.000000000
 10
167.000000000
 20
126.585786638
 30
0.000000000
 10
167.000000000
 20
126.535970170
 30
0.000000000
 10
167.000000000
 20
126.486153703
 30
0.000000000
 10
167.000000000
 20
126.436337235
 30
0.000000000
 10
167.000000000
 20
126.393075424
 30
0.000000000
 10
167.000000000
 20
126.349813613
 30
0.000000000
 10
167.000000000
 20
126.306551802
 30
0.000000000
 10
167.000000000
 20
126.270388689
 30
0.000000000
 10
167.000000000
 20
126.234225577
 30
0.000000000
 10
167.000000000
 20
126.198062464
 30
0.000000000
 10
167.000000000
 20
126.169452823
 30
0.000000000
 10
167.000000000
 20
126.140843181
 30
0.000000000
 10
167.000000000
 20
126.112233539
 30
0.000000000
 10
167.000000000
 20
126.091537151
 30
0.000000000
 10
167.000000000
 20
126.070840764
 30
0.000000000
 10
167.000000000
 20
126.050144376
 30
0.000000000
 10
167.000000000
 20
126.037621510
 30
0.000000000
 10
167.000000000
 20
126.025098645
 30
0.000000000
 10
167.000000000
 20
126.012575780
 30
0.000000000
 10
167.000000000
 20
126.008383920
 30
0.000000000
 10
167.000000000
 20
126.004192060
 30
0.000000000
 10
167.000000000
 20
126.000000200
 30
0.000000000
  0
SPLINE
  5
A6E
330
A02
100
AcDbEntity
  8
ProjItem001
100
AcDbSpline
210
0
220
0
230
1
 70
8
 71
3
 72
41
 73
37
 74
0
 40
0.000000000
 40
0.000000000
 40
0.000000000
 40
0.000000000
 40
0.336599213
 40
0.336599213
 40
0.336599213
 40
0.448798951
 40
0.448798951
 40
0.448798951
 40
0.560998688
 40
0.560998688
 40
0.560998688
 40
0.673198426
 40
0.673198426
 40
0.673198426
 40
0.785398163
 40
0.785398163
 40
0.785398163
 40
0.897597901
 40
0.897597901
 40
0.897597901
 40
1.009797639
 40
1.009797639
 40
1.009797639
 40
1.121997376
 40
1.121997376
 40
1.121997376
 40
1.234197114
 40
1.234197114
 40
1.234197114
 40
1.346396852
 40
1.346396852
 40
1.346396852
 40
1.458596589
 40
1.458596589
 40
1.458596589
 40
1.570796327
 40
1.570796327
 40
1.570796327
 40
1.570796327
 10
141.000000000
 20
128.000000200
 30
0.000000000
 10
141.000000000
 20
127.775303786
 30
0.000000000
 10
141.000000000
 20
127.552713515
 30
0.000000000
 10
141.000000000
 20
127.339442076
 30
0.000000000
 10
141.000000000
 20
127.270372291
 30
0.000000000
 10
141.000000000
 20
127.201302507
 30
0.000000000
 10
141.000000000
 20
127.132232722
 30
0.000000000
 10
141.000000000
 20
127.066800497
 30
0.000000000
 10
141.000000000
 20
127.001368272
 30
0.000000000
 10
141.000000000
 20
126.935936047
 30
0.000000000
 10
141.000000000
 20
126.874964230
 30
0.000000000
 10
141.000000000
 20
126.813992413
 30
0.000000000
 10
141.000000000
 20
126.753020596
 30
0.000000000
 10
141.000000000
 20
126.697275943
 30
0.000000000
 10
141.000000000
 20
126.641531291
 30
0.000000000
 10
141.000000000
 20
126.585786638
 30
0.000000000
 10
141.000000000
 20
126.535970170
 30
0.000000000
 10
141.000000000
 20
126.486153703
 30
0.000000000
 10
141.000000000
 20
126.436337235
 30
0.000000000
 10
141.000000000
 20
126.393075424
 30
0.000000000
 10
141.000000000
 20
126.349813613
 30
0.000000000
 10
141.000000000
 20
126.306551802
 30
0.000000000
 10
141.000000000
 20
126.270388689
 30
0.000000000
 10
141.000000000
 20
126.234225577
 30
0.000000000
 10
141.000000000
 20
126.198062464
 30
0.000000000
 10
141.000000000
 20
126.169452823
 30
0.000000000
 10
141.000000000
 20
126.140843181
 30
0.000000000
 10
141.000000000
 20
126.112233539
 30
0.000000000
 10
141.000000000
 20
126.091537151
 30
0.000000000
 10
141.000000000
 20
126.070840764
 30
0.000000000
 10
141.000000000
 20
126.050144376
 30
0.000000000
 10
141.000000000
 20
126.037621510
 30
0.000000000
 10
141.000000000
 20
126.025098645
 30
0.000000000
 10
141.000000000
 20
126.012575780
 30
0.000000000
 10
141.000000000
 20
126.008383920
 30
0.000000000
 10
141.000000000
 20
126.004192060
 30
0.000000000
 10
141.000000000
 20
126.000000200
 30
0.000000000
  0
LINE
  5
A6F
330
A02
100
AcDbEntity
  8
ProjItem001
100
AcDbLine
 10
167.000000000
 20
126.000000200
 30
0.000000000
 11
141.000000000
 21
126.000000200
 31
0.000000000
  0
SPLINE
  5
A70
330
A02
100
AcDbEntity
  8
ProjItem001
100
AcDbSpline
210
0
220
0
230
1
 70
8
 71
3
 72
41
 73
37
 74
0
 40
0.000000000
 40
0.000000000
 40
0.000000000
 40
0.000000000
 40
0.336599213
 40
0.336599213
 40
0.336599213
 40
0.448798951
 40
0.448798951
 40
0.448798951
 40
0.560998688
 40
0.560998688
 40
0.560998688
 40
0.673198426
 40
0.673198426
 40
0.673198426
 40
0.785398163
 40
0.785398163
 40
0.785398163
 40
0.897597901
 40
0.897597901
 40
0.897597901
 40
1.009797639
 40
1.009797639
 40
1.009797639
 40
1.121997376
 40
1.121997376
 40
1.121997376
 40
1.234197114
 40
1.234197114
 40
1.234197114
 40
1.346396852
 40
1.346396852
 40
1.346396852
 40
1.458596589
 40
1.458596589
 40
1.458596589
 40
1.570796327
 40
1.570796327
 40
1.570796327
 40
1.570796327
 10
167.000000000
 20
128.000000200
 30
0.000000000
 10
167.224696414
 20
128.000000200
 30
0.000000000
 10
167.447286685
 20
128.000000200
 30
0.000000000
 10
167.660558124
 20
128.000000200
 30
0.000000000
 10
167.729627909
 20
128.000000200
 30
0.000000000
 10
167.798697693
 20
128.000000200
 30
0.000000000
 10
167.867767478
 20
128.000000200
 30
0.000000000
 10
167.933199703
 20
128.000000200
 30
0.000000000
 10
167.998631928
 20
128.000000200
 30
0.000000000
 10
168.064064153
 20
128.000000200
 30
0.000000000
 10
168.125035970
 20
128.000000200
 30
0.000000000
 10
168.186007787
 20
128.000000200
 30
0.000000000
 10
168.246979604
 20
128.000000200
 30
0.000000000
 10
168.302724257
 20
128.000000200
 30
0.000000000
 10
168.358468909
 20
128.000000200
 30
0.000000000
 10
168.414213562
 20
128.000000200
 30
0.000000000
 10
168.464030030
 20
128.000000200
 30
0.000000000
 10
168.513846497
 20
128.000000200
 30
0.000000000
 10
168.563662965
 20
128.000000200
 30
0.000000000
 10
168.606924776
 20
128.000000200
 30
0.000000000
 10
168.650186587
 20
128.000000200
 30
0.000000000
 10
168.693448398
 20
128.000000200
 30
0.000000000
 10
168.729611511
 20
128.000000200
 30
0.000000000
 10
168.765774623
 20
128.000000200
 30
0.000000000
 10
168.801937736
 20
128.000000200
 30
0.000000000
 10
168.830547377
 20
128.000000200
 30
0.000000000
 10
168.859157019
 20
128.000000200
 30
0.000000000
 10
168.887766661
 20
128.000000200
 30
0.000000000
 10
168.908463049
 20
128.000000200
 30
0.000000000
 10
168.929159436
 20
128.000000200
 30
0.000000000
 10
168.949855824
 20
128.000000200
 30
0.000000000
 10
168.962378690
 20
128.000000200
 30
0.000000000
 10
168.974901555
 20
128.000000200
 30
0.000000000
 10
168.987424420
 20
128.000000200
 30
0.000000000
 10
168.991616280
 20
128.000000200
 30
0.000000000
 10
168.995808140
 20
128.000000200
 30
0.000000000
 10
169.000000000
 20
128.000000200
 30
0.000000000
  0
SPLINE
  5
A71
330
A02
100
AcDbEntity
  8
ProjItem001
100
AcDbSpline
210
0
220
0
230
1
 70
8
 71
3
 72
41
 73
37
 74
0
 40
0.000000000
 40
0.000000000
 40
0.000000000
 40
0.000000000
 40
0.336599213
 40
0.336599213
 40
0.336599213
 40
0.448798951
 40
0.448798951
 40
0.448798951
 40
0.560998688
 40
0.560998688
 40
0.560998688
 40
0.673198426
 40
0.673198426
 40
0.673198426
 40
0.785398163
 40
0.785398163
 40
0.785398163
 40
0.897597901
 40
0.897597901
 40
0.897597901
 40
1.009797639
 40
1.009797639
 40
1.009797639
 40
1.121997376
 40
1.121997376
 40
1.121997376
 40
1.234197114
 40
1.234197114
 40
1.234197114
 40
1.346396852
 40
1.346396852
 40
1.346396852
 40
1.458596589
 40
1.458596589
 40
1.458596589
 40
1.570796327
 40
1.570796327
 40
1.570796327
 40
1.570796327
 10
167.000000000
 20
144.000000200
 30
0.000000000
 10
167.224696414
 20
144.000000200
 30
0.000000000
 10
167.447286685
 20
144.000000200
 30
0.000000000
 10
167.660558124
 20
144.000000200
 30
0.000000000
 10
167.729627909
 20
144.000000200
 30
0.000000000
 10
167.798697693
 20
144.000000200
 30
0.000000000
 10
167.867767478
 20
144.000000200
 30
0.000000000
 10
167.933199703
 20
144.000000200
 30
0.000000000
 10
167.998631928
 20
144.000000200
 30
0.000000000
 10
168.064064153
 20
144.000000200
 30
0.000000000
 10
168.125035970
 20
144.000000200
 30
0.000000000
 10
168.186007787
 20
144.000000200
 30
0.000000000
 10
168.246979604
 20
144.000000200
 30
0.000000000
 10
168.302724257
 20
144.000000200
 30
0.000000000
 10
168.358468909
 20
144.000000200
 30
0.000000000
 10
168.414213562
 20
144.000000200
 30
0.000000000
 10
168.464030030
 20
144.000000200
 30
0.000000000
 10
168.513846497
 20
144.000000200
 30
0.000000000
 10
168.563662965
 20
144.000000200
 30
0.000000000
 10
168.606924776
 20
144.000000200
 30
0.000000000
 10
168.650186587
 20
144.000000200
 30
0.000000000
 10
168.693448398
 20
144.000000200
 30
0.000000000
 10
168.729611511
 20
144.000000200
 30
0.000000000
 10
168.765774623
 20
144.000000200
 30
0.000000000
 10
168.801937736
 20
144.000000200
 30
0.000000000
 10
168.830547377
 20
144.000000200
 30
0.000000000
 10
168.859157019
 20
144.000000200
 30
0.000000000
 10
168.887766661
 20
144.000000200
 30
0.000000000
 10
168.908463049
 20
144.000000200
 30
0.000000000
 10
168.929159436
 20
144.000000200
 30
0.000000000
 10
168.949855824
 20
144.000000200
 30
0.000000000
 10
168.962378690
 20
144.000000200
 30
0.000000000
 10
168.974901555
 20
144.000000200
 30
0.000000000
 10
168.987424420
 20
144.000000200
 30
0.000000000
 10
168.991616280
 20
144.000000200
 30
0.000000000
 10
168.995808140
 20
144.000000200
 30
0.000000000
 10
169.000000000
 20
144.000000200
 30
0.000000000
  0
LINE
  5
A72
330
A02
100
AcDbEntity
  8
ProjItem001
100
AcDbLine
 10
169.000000000
 20
128.000000200
 30
0.000000000
 11
169.000000000
 21
144.000000200
 31
0.000000000
  0
LINE
  5
A73
330
A02
100
AcDbEntity
  8
ProjItem001
100
AcDbLine
 10
139.000000000
 20
127.100000200
 30
0.000000000
 11
139.000000000
 21
128.000000200
 31
0.000000000
  0
LINE
  5
A74
330
A02
100
AcDbEntity
  8
ProjItem001
100
AcDbLine
 10
139.000000000
 20
144.000000200
 30
0.000000000
 11
139.000000000
 21
144.900000200
 31
0.000000000
  0
LINE
  5
A75
330
A02
100
AcDbEntity
  8
ProjItem001
100
AcDbLine
 10
167.900000000
 20
146.000000200
 30
0.000000000
 11
167.000000000
 21
146.000000200
 31
0.000000000
  0
LINE
  5
A76
330
A02
100
AcDbEntity
  8
ProjItem001
100
AcDbLine
 10
141.000000000
 20
146.000000200
 30
0.000000000
 11
140.100000000
 21
146.000000200
 31
0.000000000
  0
LINE
  5
A77
330
A02
100
AcDbEntity
  8
ProjItem001
100
AcDbLine
 10
167.900000000
 20
126.000000200
 30
0.000000000
 11
167.000000000
 21
126.000000200
 31
0.000000000
  0
LINE
  5
A78
330
A02
100
AcDbEntity
  8
ProjItem001
100
AcDbLine
 10
141.000000000
 20
126.000000200
 30
0.000000000
 11
140.100000000
 21
126.000000200
 31
0.000000000
  0
LINE
  5
A79
330
A02
100
AcDbEntity
  8
ProjItem001
100
AcDbLine
 10
169.000000000
 20
127.100000200
 30
0.000000000
 11
169.000000000
 21
128.000000200
 31
0.000000000
  0
LINE
  5
A7A
330
A02
100
AcDbEntity
  8
ProjItem001
100
AcDbLine
 10
169.000000000
 20
144.000000200
 30
0.000000000
 11
169.000000000
 21
144.900000200
 31
0.000000000
  0
LINE
  5
A7B
330
A02
100
AcDbEntity
  8
ProjItem001
100
AcDbLine
 10
140.000000000
 20
127.100000200
 30
0.000000000
 11
140.000000000
 21
128.000000200
 31
0.000000000
  0
LINE
  5
A7C
330
A02
100
AcDbEntity
  8
ProjItem001
100
AcDbLine
 10
139.000000000
 20
127.100000200
 30
0.000000000
 11
140.000000000
 21
127.100000200
 31
0.000000000
  0
LINE
  5
A7D
330
A02
100
AcDbEntity
  8
ProjItem001
100
AcDbLine
 10
139.000000000
 20
144.900000200
 30
0.000000000
 11
140.000000000
 21
144.900000200
 31
0.000000000
  0
LINE
  5
A7E
330
A02
100
AcDbEntity
  8
ProjItem001
100
AcDbLine
 10
140.000000000
 20
144.000000200
 30
0.000000000
 11
140.000000000
 21
144.900000200
 31
0.000000000
  0
LINE
  5
A7F
330
A02
100
AcDbEntity
  8
ProjItem001
100
AcDbLine
 10
138.000000000
 20
144.900000200
 30
0.000000000
 11
128.000000000
 21
144.900000200
 31
0.000000000
  0
SPLINE
  5
A80
330
A02
100
AcDbEntity
  8
ProjItem001
100
AcDbSpline
210
0
220
0
230
1
 70
8
 71
3
 72
35
 73
31
 74
0
 40
0.000000000
 40
0.000000000
 40
0.000000000
 40
0.000000000
 40
0.112199738
 40
0.112199738
 40
0.112199738
 40
0.224399475
 40
0.224399475
 40
0.224399475
 40
0.336599213
 40
0.336599213
 40
0.336599213
 40
0.448798951
 40
0.448798951
 40
0.448798951
 40
0.560998688
 40
0.560998688
 40
0.560998688
 40
0.673198426
 40
0.673198426
 40
0.673198426
 40
0.785398163
 40
0.785398163
 40
0.785398163
 40
0.897597901
 40
0.897597901
 40
0.897597901
 40
1.121997376
 40
1.121997376
 40
1.121997376
 40
1.570796327
 40
1.570796327
 40
1.570796327
 40
1.570796327
 10
139.000000000
 20
144.900000200
 30
0.000000000
 10
138.997904070
 20
144.900000200
 30
0.000000000
 10
138.995808140
 20
144.900000200
 30
0.000000000
 10
138.993712210
 20
144.900000200
 30
0.000000000
 10
138.987450777
 20
144.900000200
 30
0.000000000
 10
138.981189345
 20
144.900000200
 30
0.000000000
 10
138.974927912
 20
144.900000200
 30
0.000000000
 10
138.964579718
 20
144.900000200
 30
0.000000000
 10
138.954231524
 20
144.900000200
 30
0.000000000
 10
138.943883330
 20
144.900000200
 30
0.000000000
 10
138.929578510
 20
144.900000200
 30
0.000000000
 10
138.915273689
 20
144.900000200
 30
0.000000000
 10
138.900968868
 20
144.900000200
 30
0.000000000
 10
138.882887312
 20
144.900000200
 30
0.000000000
 10
138.864805755
 20
144.900000200
 30
0.000000000
 10
138.846724199
 20
144.900000200
 30
0.000000000
 10
138.825093294
 20
144.900000200
 30
0.000000000
 10
138.803462388
 20
144.900000200
 30
0.000000000
 10
138.781831482
 20
144.900000200
 30
0.000000000
 10
138.756923249
 20
144.900000200
 30
0.000000000
 10
138.732015015
 20
144.900000200
 30
0.000000000
 10
138.707106781
 20
144.900000200
 30
0.000000000
 10
138.679234455
 20
144.900000200
 30
0.000000000
 10
138.651362128
 20
144.900000200
 30
0.000000000
 10
138.623489802
 20
144.900000200
 30
0.000000000
 10
138.563768767
 20
144.900000200
 30
0.000000000
 10
138.500566746
 20
144.900000200
 30
0.000000000
 10
138.433883739
 20
144.900000200
 30
0.000000000
 10
138.298163247
 20
144.900000200
 30
0.000000000
 10
138.149792885
 20
144.900000200
 30
0.000000000
 10
138.000000000
 20
144.900000200
 30
0.000000000
  0
SPLINE
  5
A81
330
A02
100
AcDbEntity
  8
ProjItem001
100
AcDbSpline
210
0
220
0
230
1
 70
8
 71
3
 72
35
 73
31
 74
0
 40
0.000000000
 40
0.000000000
 40
0.000000000
 40
0.000000000
 40
0.112199738
 40
0.112199738
 40
0.112199738
 40
0.224399475
 40
0.224399475
 40
0.224399475
 40
0.336599213
 40
0.336599213
 40
0.336599213
 40
0.448798951
 40
0.448798951
 40
0.448798951
 40
0.560998688
 40
0.560998688
 40
0.560998688
 40
0.673198426
 40
0.673198426
 40
0.673198426
 40
0.785398163
 40
0.785398163
 40
0.785398163
 40
0.897597901
 40
0.897597901
 40
0.897597901
 40
1.121997376
 40
1.121997376
 40
1.121997376
 40
1.570796327
 40
1.570796327
 40
1.570796327
 40
1.570796327
 10
139.000000000
 20
127.100000200
 30
0.000000000
 10
138.997904070
 20
127.100000200
 30
0.000000000
 10
138.995808140
 20
127.100000200
 30
0.000000000
 10
138.993712210
 20
127.100000200
 30
0.000000000
 10
138.987450777
 20
127.100000200
 30
0.000000000
 10
138.981189345
 20
127.100000200
 30
0.000000000
 10
138.974927912
 20
127.100000200
 30
0.000000000
 10
138.964579718
 20
127.100000200
 30
0.000000000
 10
138.954231524
 20
127.100000200
 30
0.000000000
 10
138.943883330
 20
127.100000200
 30
0.000000000
 10
138.929578510
 20
127.100000200
 30
0.000000000
 10
138.915273689
 20
127.100000200
 30
0.000000000
 10
138.900968868
 20
127.100000200
 30
0.000000000
 10
138.882887312
 20
127.100000200
 30
0.000000000
 10
138.864805755
 20
127.100000200
 30
0.000000000
 10
138.846724199
 20
127.100000200
 30
0.000000000
 10
138.825093294
 20
127.100000200
 30
0.000000000
 10
138.803462388
 20
127.100000200
 30
0.000000000
 10
138.781831482
 20
127.100000200
 30
0.000000000
 10
138.756923249
 20
127.100000200
 30
0.000000000
 10
138.732015015
 20
127.100000200
 30
0.000000000
 10
138.707106781
 20
127.100000200
 30
0.000000000
 10
138.679234455
 20
127.100000200
 30
0.000000000
 10
138.651362128
 20
127.100000200
 30
0.000000000
 10
138.623489802
 20
127.100000200
 30
0.000000000
 10
138.563768767
 20
127.100000200
 30
0.000000000
 10
138.500566746
 20
127.100000200
 30
0.000000000
 10
138.433883739
 20
127.100000200
 30
0.000000000
 10
138.298163247
 20
127.100000200
 30
0.000000000
 10
138.149792885
 20
127.100000200
 30
0.000000000
 10
138.000000000
 20
127.100000200
 30
0.000000000
  0
LINE
  5
A82
330
A02
100
AcDbEntity
  8
ProjItem001
100
AcDbLine
 10
138.000000000
 20
127.100000200
 30
0.000000000
 11
138.000000000
 21
144.900000200
 31
0.000000000
  0
LINE
  5
A83
330
A02
100
AcDbEntity
  8
ProjItem001
100
AcDbLine
 10
128.000000000
 20
127.100000200
 30
0.000000000
 11
138.000000000
 21
127.100000200
 31
0.000000000
  0
LINE
  5
A84
330
A02
100
AcDbEntity
  8
ProjItem001
100
AcDbLine
 10
167.900000000
 20
145.000000200
 30
0.000000000
 11
167.000000000
 21
145.000000200
 31
0.000000000
  0
LINE
  5
A85
330
A02
100
AcDbEntity
  8
ProjItem001
100
AcDbLine
 10
167.900000000
 20
146.000000200
 30
0.000000000
 11
167.900000000
 21
145.000000200
 31
0.000000000
  0
LINE
  5
A86
330
A02
100
AcDbEntity
  8
ProjItem001
100
AcDbLine
 10
140.100000000
 20
146.000000200
 30
0.000000000
 11
140.100000000
 21
145.000000200
 31
0.000000000
  0
LINE
  5
A87
330
A02
100
AcDbEntity
  8
ProjItem001
100
AcDbLine
 10
141.000000000
 20
145.000000200
 30
0.000000000
 11
140.100000000
 21
145.000000200
 31
0.000000000
  0
LINE
  5
A88
330
A02
100
AcDbEntity
  8
ProjItem001
100
AcDbLine
 10
167.900000000
 20
127.000000200
 30
0.000000000
 11
167.000000000
 21
127.000000200
 31
0.000000000
  0
LINE
  5
A89
330
A02
100
AcDbEntity
  8
ProjItem001
100
AcDbLine
 10
167.900000000
 20
126.000000200
 30
0.000000000
 11
167.900000000
 21
127.000000200
 31
0.000000000
  0
LINE
  5
A8A
330
A02
100
AcDbEntity
  8
ProjItem001
100
AcDbLine
 10
140.100000000
 20
126.000000200
 30
0.000000000
 11
140.100000000
 21
127.000000200
 31
0.000000000
  0
LINE
  5
A8B
330
A02
100
AcDbEntity
  8
ProjItem001
100
AcDbLine
 10
141.000000000
 20
127.000000200
 30
0.000000000
 11
140.100000000
 21
127.000000200
 31
0.000000000
  0
LINE
  5
A8C
330
A02
100
AcDbEntity
  8
ProjItem001
100
AcDbLine
 10
168.000000000
 20
127.100000200
 30
0.000000000
 11
168.000000000
 21
128.000000200
 31
0.000000000
  0
LINE
  5
A8D
330
A02
100
AcDbEntity
  8
ProjItem001
100
AcDbLine
 10
169.000000000
 20
127.100000200
 30
0.000000000
 11
168.000000000
 21
127.100000200
 31
0.000000000
  0
LINE
  5
A8E
330
A02
100
AcDbEntity
  8
ProjItem001
100
AcDbLine
 10
169.000000000
 20
144.900000200
 30
0.000000000
 11
168.000000000
 21
144.900000200
 31
0.000000000
  0
LINE
  5
A8F
330
A02
100
AcDbEntity
  8
ProjItem001
100
AcDbLine
 10
168.000000000
 20
144.000000200
 30
0.000000000
 11
168.000000000
 21
144.900000200
 31
0.000000000
  0
LINE
  5
A90
330
A02
100
AcDbEntity
  8
ProjItem001
100
AcDbLine
 10
128.000000000
 20
144.900000200
 30
0.000000000
 11
128.000000000
 21
127.100000200
 31
0.000000000
  0
CIRCLE
  5
A91
330
A02
100
AcDbEntity
  8
ProjItem001
100
AcDbCircle
 10
132.762314000
 20
136.000000200
 30
0.000000000
 40
2.076568000
  0
CIRCLE
  5
A92
330
A02
100
AcDbEntity
  8
ProjItem001
100
AcDbCircle
 10
161.230959000
 20
132.775767200
 30
0.000000000
 40
3.000000000
  0
SPLINE
  5
A93
330
A02
100
AcDbEntity
  8
ProjItem001
100
AcDbSpline
210
0
220
0
230
1
 70
8
 71
2
 72
24
 73
21
 74
0
 40
0.000000000
 40
0.000000000
 40
0.000000000
 40
0.336599213
 40
0.336599213
 40
0.560998688
 40
0.560998688
 40
0.785398163
 40
0.785398163
 40
0.897597901
 40
0.897597901
 40
1.009797639
 40
1.009797639
 40
1.121997376
 40
1.121997376
 40
1.234197114
 40
1.234197114
 40
1.346396852
 40
1.346396852
 40
1.458596589
 40
1.458596589
 40
1.570796327
 40
1.570796327
 40
1.570796327
 10
141.000000000
 20
128.000000200
 30
0.000000000
 10
140.830576103
 20
128.000000200
 30
0.000000000
 10
140.669720938
 20
128.000000200
 30
0.000000000
 10
140.564586201
 20
128.000000200
 30
0.000000000
 10
140.467967923
 20
128.000000200
 30
0.000000000
 10
140.374311506
 20
128.000000200
 30
0.000000000
 10
140.292893219
 20
128.000000200
 30
0.000000000
 10
140.255530868
 20
128.000000200
 30
0.000000000
 10
140.218168518
 20
128.000000200
 30
0.000000000
 10
140.185722159
 20
128.000000200
 30
0.000000000
 10
140.153275801
 20
128.000000200
 30
0.000000000
 10
140.126153466
 20
128.000000200
 30
0.000000000
 10
140.099031132
 20
128.000000200
 30
0.000000000
 10
140.077573901
 20
128.000000200
 30
0.000000000
 10
140.056116670
 20
128.000000200
 30
0.000000000
 10
140.040594379
 20
128.000000200
 30
0.000000000
 10
140.025072088
 20
128.000000200
 30
0.000000000
 10
140.015679939
 20
128.000000200
 30
0.000000000
 10
140.006287790
 20
128.000000200
 30
0.000000000
 10
140.003143895
 20
128.000000200
 30
0.000000000
 10
140.000000000
 20
128.000000200
 30
0.000000000
  0
LINE
  5
A94
330
A02
100
AcDbEntity
  8
ProjItem001
100
AcDbLine
 10
140.000000000
 20
128.000000200
 30
0.000000000
 11
139.000000000
 21
128.000000200
 31
0.000000000
  0
SPLINE
  5
A95
330
A02
100
AcDbEntity
  8
ProjItem001
100
AcDbSpline
210
0
220
0
230
1
 70
8
 71
2
 72
24
 73
21
 74
0
 40
0.000000000
 40
0.000000000
 40
0.000000000
 40
0.336599213
 40
0.336599213
 40
0.560998688
 40
0.560998688
 40
0.785398163
 40
0.785398163
 40
0.897597901
 40
0.897597901
 40
1.009797639
 40
1.009797639
 40
1.121997376
 40
1.121997376
 40
1.234197114
 40
1.234197114
 40
1.346396852
 40
1.346396852
 40
1.458596589
 40
1.458596589
 40
1.570796327
 40
1.570796327
 40
1.570796327
 10
141.000000000
 20
144.000000200
 30
0.000000000
 10
140.830576103
 20
144.000000200
 30
0.000000000
 10
140.669720938
 20
144.000000200
 30
0.000000000
 10
140.564586201
 20
144.000000200
 30
0.000000000
 10
140.467967923
 20
144.000000200
 30
0.000000000
 10
140.374311506
 20
144.000000200
 30
0.000000000
 10
140.292893219
 20
144.000000200
 30
0.000000000
 10
140.255530868
 20
144.000000200
 30
0.000000000
 10
140.218168518
 20
144.000000200
 30
0.000000000
 10
140.185722159
 20
144.000000200
 30
0.000000000
 10
140.153275801
 20
144.000000200
 30
0.000000000
 10
140.126153466
 20
144.000000200
 30
0.000000000
 10
140.099031132
 20
144.000000200
 30
0.000000000
 10
140.077573901
 20
144.000000200
 30
0.000000000
 10
140.056116670
 20
144.000000200
 30
0.000000000
 10
140.040594379
 20
144.000000200
 30
0.000000000
 10
140.025072088
 20
144.000000200
 30
0.000000000
 10
140.015679939
 20
144.000000200
 30
0.000000000
 10
140.006287790
 20
144.000000200
 30
0.000000000
 10
140.003143895
 20
144.000000200
 30
0.000000000
 10
140.000000000
 20
144.000000200
 30
0.000000000
  0
LINE
  5
A96
330
A02
100
AcDbEntity
  8
ProjItem001
100
AcDbLine
 10
139.000000000
 20
144.000000200
 30
0.000000000
 11
140.000000000
 21
144.000000200
 31
0.000000000
  0
LINE
  5
A97
330
A02
100
AcDbEntity
  8
ProjItem001
100
AcDbLine
 10
139.000000000
 20
144.900000200
 30
0.000000000
 11
139.000000000
 21
127.100000200
 31
0.000000000
  0
SPLINE
  5
A98
330
A02
100
AcDbEntity
  8
ProjItem001
100
AcDbSpline
210
0
220
0
230
1
 70
8
 71
2
 72
24
 73
21
 74
0
 40
0.000000000
 40
0.000000000
 40
0.000000000
 40
0.336599213
 40
0.336599213
 40
0.560998688
 40
0.560998688
 40
0.785398163
 40
0.785398163
 40
0.897597901
 40
0.897597901
 40
1.009797639
 40
1.009797639
 40
1.121997376
 40
1.121997376
 40
1.234197114
 40
1.234197114
 40
1.346396852
 40
1.346396852
 40
1.458596589
 40
1.458596589
 40
1.570796327
 40
1.570796327
 40
1.570796327
 10
167.000000000
 20
144.000000200
 30
0.000000000
 10
167.000000000
 20
144.169424097
 30
0.000000000
 10
167.000000000
 20
144.330279262
 30
0.000000000
 10
167.000000000
 20
144.435413999
 30
0.000000000
 10
167.000000000
 20
144.532032277
 30
0.000000000
 10
167.000000000
 20
144.625688694
 30
0.000000000
 10
167.000000000
 20
144.707106981
 30
0.000000000
 10
167.000000000
 20
144.744469332
 30
0.000000000
 10
167.000000000
 20
144.781831682
 30
0.000000000
 10
167.000000000
 20
144.814278041
 30
0.000000000
 10
167.000000000
 20
144.846724399
 30
0.000000000
 10
167.000000000
 20
144.873846734
 30
0.000000000
 10
167.000000000
 20
144.900969068
 30
0.000000000
 10
167.000000000
 20
144.922426299
 30
0.000000000
 10
167.000000000
 20
144.943883530
 30
0.000000000
 10
167.000000000
 20
144.959405821
 30
0.000000000
 10
167.000000000
 20
144.974928112
 30
0.000000000
 10
167.000000000
 20
144.984320261
 30
0.000000000
 10
167.000000000
 20
144.993712410
 30
0.000000000
 10
167.000000000
 20
144.996856305
 30
0.000000000
 10
167.000000000
 20
145.000000200
 30
0.000000000
  0
LINE
  5
A99
330
A02
100
AcDbEntity
  8
ProjItem001
100
AcDbLine
 10
167.000000000
 20
145.000000200
 30
0.000000000
 11
167.000000000
 21
146.000000200
 31
0.000000000
  0
SPLINE
  5
A9A
330
A02
100
AcDbEntity
  8
ProjItem001
100
AcDbSpline
210
0
220
0
230
1
 70
8
 71
2
 72
24
 73
21
 74
0
 40
0.000000000
 40
0.000000000
 40
0.000000000
 40
0.336599213
 40
0.336599213
 40
0.560998688
 40
0.560998688
 40
0.785398163
 40
0.785398163
 40
0.897597901
 40
0.897597901
 40
1.009797639
 40
1.009797639
 40
1.121997376
 40
1.121997376
 40
1.234197114
 40
1.234197114
 40
1.346396852
 40
1.346396852
 40
1.458596589
 40
1.458596589
 40
1.570796327
 40
1.570796327
 40
1.570796327
 10
141.000000000
 20
144.000000200
 30
0.000000000
 10
141.000000000
 20
144.169424097
 30
0.000000000
 10
141.000000000
 20
144.330279262
 30
0.000000000
 10
141.000000000
 20
144.435413999
 30
0.000000000
 10
141.000000000
 20
144.532032277
 30
0.000000000
 10
141.000000000
 20
144.625688694
 30
0.000000000
 10
141.000000000
 20
144.707106981
 30
0.000000000
 10
141.000000000
 20
144.744469332
 30
0.000000000
 10
141.000000000
 20
144.781831682
 30
0.000000000
 10
141.000000000
 20
144.814278041
 30
0.000000000
 10
141.000000000
 20
144.846724399
 30
0.000000000
 10
141.000000000
 20
144.873846734
 30
0.000000000
 10
141.000000000
 20
144.900969068
 30
0.000000000
 10
141.000000000
 20
144.922426299
 30
0.000000000
 10
141.000000000
 20
144.943883530
 30
0.000000000
 10
141.000000000
 20
144.959405821
 30
0.000000000
 10
141.000000000
 20
144.974928112
 30
0.000000000
 10
141.000000000
 20
144.984320261
 30
0.000000000
 10
141.000000000
 20
144.993712410
 30
0.000000000
 10
141.000000000
 20
144.996856305
 30
0.000000000
 10
141.000000000
 20
145.000000200
 30
0.000000000
  0
LINE
  5
A9B
330
A02
100
AcDbEntity
  8
ProjItem001
100
AcDbLine
 10
141.000000000
 20
146.000000200
 30
0.000000000
 11
141.000000000
 21
145.000000200
 31
0.000000000
  0
LINE
  5
A9C
330
A02
100
AcDbEntity
  8
ProjItem001
100
AcDbLine
 10
140.100000000
 20
146.000000200
 30
0.000000000
 11
167.900000000
 21
146.000000200
 31
0.000000000
  0
SPLINE
  5
A9D
330
A02
100
AcDbEntity
  8
ProjItem001
100
AcDbSpline
210
0
220
0
230
1
 70
8
 71
1
 72
17
 73
15
 74
0
 40
0.000000000
 40
0.000000000
 40
0.224399475
 40
0.448798951
 40
0.673198426
 40
0.897597901
 40
1.121997376
 40
1.346396852
 40
1.570796327
 40
1.795195802
 40
2.019595277
 40
2.243994753
 40
2.468394228
 40
2.692793703
 40
2.917193178
 40
3.141592654
 40
3.141592654
 10
155.868305000
 20
146.000000200
 30
0.000000000
 10
155.821462693
 20
146.000000200
 30
0.000000000
 10
155.683284641
 20
146.000000200
 30
0.000000000
 10
155.460699668
 20
146.000000200
 30
0.000000000
 10
155.164869114
 20
146.000000200
 30
0.000000000
 10
154.810627159
 20
146.000000200
 30
0.000000000
 10
154.415736974
 20
146.000000200
 30
0.000000000
 10
154.000000000
 20
146.000000200
 30
0.000000000
 10
153.584263026
 20
146.000000200
 30
0.000000000
 10
153.189372841
 20
146.000000200
 30
0.000000000
 10
152.835130886
 20
146.000000200
 30
0.000000000
 10
152.539300332
 20
146.000000200
 30
0.000000000
 10
152.316715359
 20
146.000000200
 30
0.000000000
 10
152.178537307
 20
146.000000200
 30
0.000000000
 10
152.131695000
 20
146.000000200
 30
0.000000000
  0
SPLINE
  5
A9E
330
A02
100
AcDbEntity
  8
ProjItem001
100
AcDbSpline
210
0
220
0
230
1
 70
8
 71
1
 72
17
 73
15
 74
0
 40
3.141592654
 40
3.141592654
 40
3.365992129
 40
3.590391604
 40
3.814791079
 40
4.039190555
 40
4.263590030
 40
4.487989505
 40
4.712388980
 40
4.936788456
 40
5.161187931
 40
5.385587406
 40
5.609986881
 40
5.834386357
 40
6.058785832
 40
6.283185307
 40
6.283185307
 10
152.131695000
 20
146.000000200
 30
0.000000000
 10
152.178537307
 20
146.000000200
 30
0.000000000
 10
152.316715359
 20
146.000000200
 30
0.000000000
 10
152.539300332
 20
146.000000200
 30
0.000000000
 10
152.835130886
 20
146.000000200
 30
0.000000000
 10
153.189372841
 20
146.000000200
 30
0.000000000
 10
153.584263026
 20
146.000000200
 30
0.000000000
 10
154.000000000
 20
146.000000200
 30
0.000000000
 10
154.415736974
 20
146.000000200
 30
0.000000000
 10
154.810627159
 20
146.000000200
 30
0.000000000
 10
155.164869114
 20
146.000000200
 30
0.000000000
 10
155.460699668
 20
146.000000200
 30
0.000000000
 10
155.683284641
 20
146.000000200
 30
0.000000000
 10
155.821462693
 20
146.000000200
 30
0.000000000
 10
155.868305000
 20
146.000000200
 30
0.000000000
  0
SPLINE
  5
A9F
330
A02
100
AcDbEntity
  8
ProjItem001
100
AcDbSpline
210
0
220
0
230
1
 70
8
 71
2
 72
24
 73
21
 74
0
 40
0.000000000
 40
0.000000000
 40
0.000000000
 40
0.336599213
 40
0.336599213
 40
0.560998688
 40
0.560998688
 40
0.785398163
 40
0.785398163
 40
0.897597901
 40
0.897597901
 40
1.009797639
 40
1.009797639
 40
1.121997376
 40
1.121997376
 40
1.234197114
 40
1.234197114
 40
1.346396852
 40
1.346396852
 40
1.458596589
 40
1.458596589
 40
1.570796327
 40
1.570796327
 40
1.570796327
 10
167.000000000
 20
128.000000200
 30
0.000000000
 10
167.000000000
 20
127.830576303
 30
0.000000000
 10
167.000000000
 20
127.669721138
 30
0.000000000
 10
167.000000000
 20
127.564586401
 30
0.000000000
 10
167.000000000
 20
127.467968123
 30
0.000000000
 10
167.000000000
 20
127.374311706
 30
0.000000000
 10
167.000000000
 20
127.292893419
 30
0.000000000
 10
167.000000000
 20
127.255531068
 30
0.000000000
 10
167.000000000
 20
127.218168718
 30
0.000000000
 10
167.000000000
 20
127.185722359
 30
0.000000000
 10
167.000000000
 20
127.153276001
 30
0.000000000
 10
167.000000000
 20
127.126153666
 30
0.000000000
 10
167.000000000
 20
127.099031332
 30
0.000000000
 10
167.000000000
 20
127.077574101
 30
0.000000000
 10
167.000000000
 20
127.056116870
 30
0.000000000
 10
167.000000000
 20
127.040594579
 30
0.000000000
 10
167.000000000
 20
127.025072288
 30
0.000000000
 10
167.000000000
 20
127.015680139
 30
0.000000000
 10
167.000000000
 20
127.006287990
 30
0.000000000
 10
167.000000000
 20
127.003144095
 30
0.000000000
 10
167.000000000
 20
127.000000200
 30
0.000000000
  0
LINE
  5
AA0
330
A02
100
AcDbEntity
  8
ProjItem001
100
AcDbLine
 10
167.000000000
 20
127.000000200
 30
0.000000000
 11
167.000000000
 21
126.000000200
 31
0.000000000
  0
SPLINE
  5
AA1
330
A02
100
AcDbEntity
  8
ProjItem001
100
AcDbSpline
210
0
220
0
230
1
 70
8
 71
2
 72
24
 73
21
 74
0
 40
0.000000000
 40
0.000000000
 40
0.000000000
 40
0.336599213
 40
0.336599213
 40
0.560998688
 40
0.560998688
 40
0.785398163
 40
0.785398163
 40
0.897597901
 40
0.897597901
 40
1.009797639
 40
1.009797639
 40
1.121997376
 40
1.121997376
 40
1.234197114
 40
1.234197114
 40
1.346396852
 40
1.346396852
 40
1.458596589
 40
1.458596589
 40
1.570796327
 40
1.570796327
 40
1.570796327
 10
141.000000000
 20
128.000000200
 30
0.000000000
 10
141.000000000
 20
127.830576303
 30
0.000000000
 10
141.000000000
 20
127.669721138
 30
0.000000000
 10
141.000000000
 20
127.564586401
 30
0.000000000
 10
141.000000000
 20
127.467968123
 30
0.000000000
 10
141.000000000
 20
127.374311706
 30
0.000000000
 10
141.000000000
 20
127.292893419
 30
0.000000000
 10
141.000000000
 20
127.255531068
 30
0.000000000
 10
141.000000000
 20
127.218168718
 30
0.000000000
 10
141.000000000
 20
127.185722359
 30
0.000000000
 10
141.000000000
 20
127.153276001
 30
0.000000000
 10
141.000000000
 20
127.126153666
 30
0.000000000
 10
141.000000000
 20
127.099031332
 30
0.000000000
 10
141.000000000
 20
127.077574101
 30
0.000000000
 10
141.000000000
 20
127.056116870
 30
0.000000000
 10
141.000000000
 20
127.040594579
 30
0.000000000
 10
141.000000000
 20
127.025072288
 30
0.000000000
 10
141.000000000
 20
127.015680139
 30
0.000000000
 10
141.000000000
 20
127.006287990
 30
0.000000000
 10
141.000000000
 20
127.003144095
 30
0.000000000
 10
141.000000000
 20
127.000000200
 30
0.000000000
  0
LINE
  5
AA2
330
A02
100
AcDbEntity
  8
ProjItem001
100
AcDbLine
 10
141.000000000
 20
126.000000200
 30
0.000000000
 11
141.000000000
 21
127.000000200
 31
0.000000000
  0
LINE
  5
AA3
330
A02
100
AcDbEntity
  8
ProjItem001
100
AcDbLine
 10
140.100000000
 20
126.000000200
 30
0.000000000
 11
167.900000000
 21
126.000000200
 31
0.000000000
  0
SPLINE
  5
AA4
330
A02
100
AcDbEntity
  8
ProjItem001
100
AcDbSpline
210
0
220
0
230
1
 70
8
 71
2
 72
24
 73
21
 74
0
 40
0.000000000
 40
0.000000000
 40
0.000000000
 40
0.336599213
 40
0.336599213
 40
0.560998688
 40
0.560998688
 40
0.785398163
 40
0.785398163
 40
0.897597901
 40
0.897597901
 40
1.009797639
 40
1.009797639
 40
1.121997376
 40
1.121997376
 40
1.234197114
 40
1.234197114
 40
1.346396852
 40
1.346396852
 40
1.458596589
 40
1.458596589
 40
1.570796327
 40
1.570796327
 40
1.570796327
 10
167.000000000
 20
128.000000200
 30
0.000000000
 10
167.169423897
 20
128.000000200
 30
0.000000000
 10
167.330279062
 20
128.000000200
 30
0.000000000
 10
167.435413799
 20
128.000000200
 30
0.000000000
 10
167.532032077
 20
128.000000200
 30
0.000000000
 10
167.625688494
 20
128.000000200
 30
0.000000000
 10
167.707106781
 20
128.000000200
 30
0.000000000
 10
167.744469132
 20
128.000000200
 30
0.000000000
 10
167.781831482
 20
128.000000200
 30
0.000000000
 10
167.814277841
 20
128.000000200
 30
0.000000000
 10
167.846724199
 20
128.000000200
 30
0.000000000
 10
167.873846534
 20
128.000000200
 30
0.000000000
 10
167.900968868
 20
128.000000200
 30
0.000000000
 10
167.922426099
 20
128.000000200
 30
0.000000000
 10
167.943883330
 20
128.000000200
 30
0.000000000
 10
167.959405621
 20
128.000000200
 30
0.000000000
 10
167.974927912
 20
128.000000200
 30
0.000000000
 10
167.984320061
 20
128.000000200
 30
0.000000000
 10
167.993712210
 20
128.000000200
 30
0.000000000
 10
167.996856105
 20
128.000000200
 30
0.000000000
 10
168.000000000
 20
128.000000200
 30
0.000000000
  0
LINE
  5
AA5
330
A02
100
AcDbEntity
  8
ProjItem001
100
AcDbLine
 10
168.000000000
 20
128.000000200
 30
0.000000000
 11
169.000000000
 21
128.000000200
 31
0.000000000
  0
SPLINE
  5
AA6
330
A02
100
AcDbEntity
  8
ProjItem001
100
AcDbSpline
210
0
220
0
230
1
 70
8
 71
2
 72
24
 73
21
 74
0
 40
0.000000000
 40
0.000000000
 40
0.000000000
 40
0.336599213
 40
0.336599213
 40
0.560998688
 40
0.560998688
 40
0.785398163
 40
0.785398163
 40
0.897597901
 40
0.897597901
 40
1.009797639
 40
1.009797639
 40
1.121997376
 40
1.121997376
 40
1.234197114
 40
1.234197114
 40
1.346396852
 40
1.346396852
 40
1.458596589
 40
1.458596589
 40
1.570796327
 40
1.570796327
 40
1.570796327
 10
167.000000000
 20
144.000000200
 30
0.000000000
 10
167.169423897
 20
144.000000200
 30
0.000000000
 10
167.330279062
 20
144.000000200
 30
0.000000000
 10
167.435413799
 20
144.000000200
 30
0.000000000
 10
167.532032077
 20
144.000000200
 30
0.000000000
 10
167.625688494
 20
144.000000200
 30
0.000000000
 10
167.707106781
 20
144.000000200
 30
0.000000000
 10
167.744469132
 20
144.000000200
 30
0.000000000
 10
167.781831482
 20
144.000000200
 30
0.000000000
 10
167.814277841
 20
144.000000200
 30
0.000000000
 10
167.846724199
 20
144.000000200
 30
0.000000000
 10
167.873846534
 20
144.000000200
 30
0.000000000
 10
167.900968868
 20
144.000000200
 30
0.000000000
 10
167.922426099
 20
144.000000200
 30
0.000000000
 10
167.943883330
 20
144.000000200
 30
0.000000000
 10
167.959405621
 20
144.000000200
 30
0.000000000
 10
167.974927912
 20
144.000000200
 30
0.000000000
 10
167.984320061
 20
144.000000200
 30
0.000000000
 10
167.993712210
 20
144.000000200
 30
0.000000000
 10
167.996856105
 20
144.000000200
 30
0.000000000
 10
168.000000000
 20
144.000000200
 30
0.000000000
  0
LINE
  5
AA7
330
A02
100
AcDbEntity
  8
ProjItem001
100
AcDbLine
 10
169.000000000
 20
144.000000200
 30
0.000000000
 11
168.000000000
 21
144.000000200
 31
0.000000000
  0
LINE
  5
AA8
330
A02
100
AcDbEntity
  8
ProjItem001
100
AcDbLine
 10
169.000000000
 20
144.900000200
 30
0.000000000
 11
169.000000000
 21
127.100000200
 31
0.000000000
  0
LINE
  5
AA9
330
A02
100
AcDbEntity
  8
ProjItem001
100
AcDbLine
 10
141.000000000
 20
144.000000200
 30
0.000000000
 11
141.000000000
 21
128.000000200
 31
0.000000000
  0
LINE
  5
AAA
330
A02
100
AcDbEntity
  8
ProjItem001
100
AcDbLine
 10
141.000000000
 20
144.000000200
 30
0.000000000
 11
167.000000000
 21
144.000000200
 31
0.000000000
  0
LINE
  5
AAB
330
A02
100
AcDbEntity
  8
ProjItem001
100
AcDbLine
 10
141.000000000
 20
128.000000200
 30
0.000000000
 11
167.000000000
 21
128.000000200
 31
0.000000000
  0
LINE
  5
AAC
330
A02
100
AcDbEntity
  8
ProjItem001
100
AcDbLine
 10
167.000000000
 20
144.000000200
 30
0.000000000
 11
167.000000000
 21
128.000000200
 31
0.000000000
  0
LINE
  5
AAD
330
A02
100
AcDbEntity
  8
ProjItem001
100
AcDbLine
 10
140.000000000
 20
144.000000200
 30
0.000000000
 11
140.000000000
 21
128.000000200
 31
0.000000000
  0
SPLINE
  5
AAE
330
A02
100
AcDbEntity
  8
ProjItem001
100
AcDbSpline
210
0
220
0
230
1
 70
8
 71
2
 72
30
 73
27
 74
0
 40
0.000000000
 40
0.000000000
 40
0.000000000
 40
0.112199738
 40
0.112199738
 40
0.224399475
 40
0.224399475
 40
0.336599213
 40
0.336599213
 40
0.448798951
 40
0.448798951
 40
0.560998688
 40
0.560998688
 40
0.673198426
 40
0.673198426
 40
0.785398163
 40
0.785398163
 40
0.897597901
 40
0.897597901
 40
1.009797639
 40
1.009797639
 40
1.121997376
 40
1.121997376
 40
1.234197114
 40
1.234197114
 40
1.346396852
 40
1.346396852
 40
1.570796327
 40
1.570796327
 40
1.570796327
 10
140.000000000
 20
144.900000200
 30
0.000000000
 10
139.993712210
 20
144.900000200
 30
0.000000000
 10
139.987424420
 20
144.900000200
 30
0.000000000
 10
139.968640122
 20
144.900000200
 30
0.000000000
 10
139.949855824
 20
144.900000200
 30
0.000000000
 10
139.918811242
 20
144.900000200
 30
0.000000000
 10
139.887766661
 20
144.900000200
 30
0.000000000
 10
139.844852198
 20
144.900000200
 30
0.000000000
 10
139.801937736
 20
144.900000200
 30
0.000000000
 10
139.747693067
 20
144.900000200
 30
0.000000000
 10
139.693448398
 20
144.900000200
 30
0.000000000
 10
139.628555682
 20
144.900000200
 30
0.000000000
 10
139.563662965
 20
144.900000200
 30
0.000000000
 10
139.488938264
 20
144.900000200
 30
0.000000000
 10
139.414213562
 20
144.900000200
 30
0.000000000
 10
139.330596583
 20
144.900000200
 30
0.000000000
 10
139.246979604
 20
144.900000200
 30
0.000000000
 10
139.155521878
 20
144.900000200
 30
0.000000000
 10
139.064064153
 20
144.900000200
 30
0.000000000
 10
138.965915816
 20
144.900000200
 30
0.000000000
 10
138.867767478
 20
144.900000200
 30
0.000000000
 10
138.764162801
 20
144.900000200
 30
0.000000000
 10
138.660558124
 20
144.900000200
 30
0.000000000
 10
138.552799996
 20
144.900000200
 30
0.000000000
 10
138.445041868
 20
144.900000200
 30
0.000000000
 10
138.224718622
 20
144.900000200
 30
0.000000000
 10
138.000000000
 20
144.900000200
 30
0.000000000
  0
LINE
  5
AAF
330
A02
100
AcDbEntity
  8
ProjItem001
100
AcDbLine
 10
138.000000000
 20
144.900000200
 30
0.000000000
 11
128.000000000
 21
144.900000200
 31
0.000000000
  0
LINE
  5
AB0
330
A02
100
AcDbEntity
  8
ProjItem001
100
AcDbLine
 10
128.000000000
 20
127.100000200
 30
0.000000000
 11
138.000000000
 21
127.100000200
 31
0.000000000
  0
SPLINE
  5
AB1
330
A02
100
AcDbEntity
  8
ProjItem001
100
AcDbSpline
210
0
220
0
230
1
 70
8
 71
2
 72
30
 73
27
 74
0
 40
0.000000000
 40
0.000000000
 40
0.000000000
 40
0.112199738
 40
0.112199738
 40
0.224399475
 40
0.224399475
 40
0.336599213
 40
0.336599213
 40
0.448798951
 40
0.448798951
 40
0.560998688
 40
0.560998688
 40
0.673198426
 40
0.673198426
 40
0.785398163
 40
0.785398163
 40
0.897597901
 40
0.897597901
 40
1.009797639
 40
1.009797639
 40
1.121997376
 40
1.121997376
 40
1.234197114
 40
1.234197114
 40
1.346396852
 40
1.346396852
 40
1.570796327
 40
1.570796327
 40
1.570796327
 10
140.000000000
 20
127.100000200
 30
0.000000000
 10
139.993712210
 20
127.100000200
 30
0.000000000
 10
139.987424420
 20
127.100000200
 30
0.000000000
 10
139.968640122
 20
127.100000200
 30
0.000000000
 10
139.949855824
 20
127.100000200
 30
0.000000000
 10
139.918811242
 20
127.100000200
 30
0.000000000
 10
139.887766661
 20
127.100000200
 30
0.000000000
 10
139.844852198
 20
127.100000200
 30
0.000000000
 10
139.801937736
 20
127.100000200
 30
0.000000000
 10
139.747693067
 20
127.100000200
 30
0.000000000
 10
139.693448398
 20
127.100000200
 30
0.000000000
 10
139.628555682
 20
127.100000200
 30
0.000000000
 10
139.563662965
 20
127.100000200
 30
0.000000000
 10
139.488938264
 20
127.100000200
 30
0.000000000
 10
139.414213562
 20
127.100000200
 30
0.000000000
 10
139.330596583
 20
127.100000200
 30
0.000000000
 10
139.246979604
 20
127.100000200
 30
0.000000000
 10
139.155521878
 20
127.100000200
 30
0.000000000
 10
139.064064153
 20
127.100000200
 30
0.000000000
 10
138.965915816
 20
127.100000200
 30
0.000000000
 10
138.867767478
 20
127.100000200
 30
0.000000000
 10
138.764162801
 20
127.100000200
 30
0.000000000
 10
138.660558124
 20
127.100000200
 30
0.000000000
 10
138.552799996
 20
127.100000200
 30
0.000000000
 10
138.445041868
 20
127.100000200
 30
0.000000000
 10
138.224718622
 20
127.100000200
 30
0.000000000
 10
138.000000000
 20
127.100000200
 30
0.000000000
  0
LINE
  5
AB2
330
A02
100
AcDbEntity
  8
ProjItem001
100
AcDbLine
 10
141.000000000
 20
145.000000200
 30
0.000000000
 11
167.000000000
 21
145.000000200
 31
0.000000000
  0
LINE
  5
AB3
330
A02
100
AcDbEntity
  8
ProjItem001
100
AcDbLine
 10
167.900000000
 20
146.000000200
 30
0.000000000
 11
167.900000000
 21
145.000000200
 31
0.000000000
  0
LINE
  5
AB4
330
A02
100
AcDbEntity
  8
ProjItem001
100
AcDbLine
 10
140.100000000
 20
146.000000200
 30
0.000000000
 11
140.100000000
 21
145.000000200
 31
0.000000000
  0
LINE
  5
AB5
330
A02
100
AcDbEntity
  8
ProjItem001
100
AcDbLine
 10
140.100000000
 20
145.000000200
 30
0.000000000
 11
167.900000000
 21
145.000000200
 31
0.000000000
  0
LINE
  5
AB6
330
A02
100
AcDbEntity
  8
ProjItem001
100
AcDbLine
 10
155.868305000
 20
146.000000200
 30
0.000000000
 11
155.868305000
 21
145.000000200
 31
0.000000000
  0
SPLINE
  5
AB7
330
A02
100
AcDbEntity
  8
ProjItem001
100
AcDbSpline
210
0
220
0
230
1
 70
8
 71
1
 72
17
 73
15
 74
0
 40
0.000000000
 40
0.000000000
 40
0.224399475
 40
0.448798951
 40
0.673198426
 40
0.897597901
 40
1.121997376
 40
1.346396852
 40
1.570796327
 40
1.795195802
 40
2.019595277
 40
2.243994753
 40
2.468394228
 40
2.692793703
 40
2.917193178
 40
3.141592654
 40
3.141592654
 10
155.868305000
 20
145.000000200
 30
0.000000000
 10
155.821462693
 20
145.000000200
 30
0.000000000
 10
155.683284641
 20
145.000000200
 30
0.000000000
 10
155.460699668
 20
145.000000200
 30
0.000000000
 10
155.164869114
 20
145.000000200
 30
0.000000000
 10
154.810627159
 20
145.000000200
 30
0.000000000
 10
154.415736974
 20
145.000000200
 30
0.000000000
 10
154.000000000
 20
145.000000200
 30
0.000000000
 10
153.584263026
 20
145.000000200
 30
0.000000000
 10
153.189372841
 20
145.000000200
 30
0.000000000
 10
152.835130886
 20
145.000000200
 30
0.000000000
 10
152.539300332
 20
145.000000200
 30
0.000000000
 10
152.316715359
 20
145.000000200
 30
0.000000000
 10
152.178537307
 20
145.000000200
 30
0.000000000
 10
152.131695000
 20
145.000000200
 30
0.000000000
  0
SPLINE
  5
AB8
330
A02
100
AcDbEntity
  8
ProjItem001
100
AcDbSpline
210
0
220
0
230
1
 70
8
 71
1
 72
17
 73
15
 74
0
 40
3.141592654
 40
3.141592654
 40
3.365992129
 40
3.590391604
 40
3.814791079
 40
4.039190555
 40
4.263590030
 40
4.487989505
 40
4.712388980
 40
4.936788456
 40
5.161187931
 40
5.385587406
 40
5.609986881
 40
5.834386357
 40
6.058785832
 40
6.283185307
 40
6.283185307
 10
152.131695000
 20
145.000000200
 30
0.000000000
 10
152.178537307
 20
145.000000200
 30
0.000000000
 10
152.316715359
 20
145.000000200
 30
0.000000000
 10
152.539300332
 20
145.000000200
 30
0.000000000
 10
152.835130886
 20
145.000000200
 30
0.000000000
 10
153.189372841
 20
145.000000200
 30
0.000000000
 10
153.584263026
 20
145.000000200
 30
0.000000000
 10
154.000000000
 20
145.000000200
 30
0.000000000
 10
154.415736974
 20
145.000000200
 30
0.000000000
 10
154.810627159
 20
145.000000200
 30
0.000000000
 10
155.164869114
 20
145.000000200
 30
0.000000000
 10
155.460699668
 20
145.000000200
 30
0.000000000
 10
155.683284641
 20
145.000000200
 30
0.000000000
 10
155.821462693
 20
145.000000200
 30
0.000000000
 10
155.868305000
 20
145.000000200
 30
0.000000000
  0
LINE
  5
AB9
330
A02
100
AcDbEntity
  8
ProjItem001
100
AcDbLine
 10
141.000000000
 20
127.000000200
 30
0.000000000
 11
167.000000000
 21
127.000000200
 31
0.000000000
  0
LINE
  5
ABA
330
A02
100
AcDbEntity
  8
ProjItem001
100
AcDbLine
 10
140.100000000
 20
126.000000200
 30
0.000000000
 11
140.100000000
 21
127.000000200
 31
0.000000000
  0
LINE
  5
ABB
330
A02
100
AcDbEntity
  8
ProjItem001
100
AcDbLine
 10
167.900000000
 20
126.000000200
 30
0.000000000
 11
167.900000000
 21
127.000000200
 31
0.000000000
  0
LINE
  5
ABC
330
A02
100
AcDbEntity
  8
ProjItem001
100
AcDbLine
 10
140.100000000
 20
127.000000200
 30
0.000000000
 11
167.900000000
 21
127.000000200
 31
0.000000000
  0
LINE
  5
ABD
330
A02
100
AcDbEntity
  8
ProjItem001
100
AcDbLine
 10
168.000000000
 20
144.000000200
 30
0.000000000
 11
168.000000000
 21
128.000000200
 31
0.000000000
  0
LINE
  5
ABE
330
A02
100
AcDbEntity
  8
ProjItem001
100
AcDbLine
 10
169.000000000
 20
144.900000200
 30
0.000000000
 11
168.000000000
 21
144.900000200
 31
0.000000000
  0
LINE
  5
ABF
330
A02
100
AcDbEntity
  8
ProjItem001
100
AcDbLine
 10
169.000000000
 20
127.100000200
 30
0.000000000
 11
168.000000000
 21
127.100000200
 31
0.000000000
  0
LINE
  5
AC0
330
A02
100
AcDbEntity
  8
ProjItem001
100
AcDbLine
 10
168.000000000
 20
144.900000200
 30
0.000000000
 11
168.000000000
 21
127.100000200
 31
0.000000000
  0
LINE
  5
AC1
330
A02
100
AcDbEntity
  8
ProjItem001
100
AcDbLine
 10
140.000000000
 20
144.900000200
 30
0.000000000
 11
140.000000000
 21
127.100000200
 31
0.000000000
  0
LINE
  5
AC2
330
A02
100
AcDbEntity
  8
ProjItem001
100
AcDbLine
 10
138.000000000
 20
144.900000200
 30
0.000000000
 11
138.000000000
 21
127.100000200
 31
0.000000000
  0
LINE
  5
AC3
330
A02
100
AcDbEntity
  8
ProjItem001
100
AcDbLine
 10
128.000000000
 20
144.900000200
 30
0.000000000
 11
128.000000000
 21
127.100000200
 31
0.000000000
  0
CIRCLE
  5
AC4
330
A02
100
AcDbEntity
  8
ProjItem001
100
AcDbCircle
 10
132.762314000
 20
136.000000200
 30
0.000000000
 40
2.076568000
  0
LINE
  5
AC5
330
A02
100
AcDbEntity
  8
ProjItem001
100
AcDbLine
 10
152.131695000
 20
145.000000200
 30
0.000000000
 11
152.131695000
 21
146.000000200
 31
0.000000000
  0
LINE
  5
AC6
330
A02
100
AcDbEntity
  8
ProjItem002
100
AcDbLine
 10
202.000000050
 20
99.000000000
 30
0.000000000
 11
186.000000050
 21
99.000000000
 31
0.000000000
  0
SPLINE
  5
AC7
330
A02
100
AcDbEntity
  8
ProjItem002
100
AcDbSpline
210
0
220
0
230
1
 70
8
 71
2
 72
30
 73
27
 74
0
 40
0.000000000
 40
0.000000000
 40
0.000000000
 40
0.112199738
 40
0.112199738
 40
0.224399475
 40
0.224399475
 40
0.336599213
 40
0.336599213
 40
0.448798951
 40
0.448798951
 40
0.560998688
 40
0.560998688
 40
0.673198426
 40
0.673198426
 40
0.785398163
 40
0.785398163
 40
0.897597901
 40
0.897597901
 40
1.009797639
 40
1.009797639
 40
1.121997376
 40
1.121997376
 40
1.234197114
 40
1.234197114
 40
1.346396852
 40
1.346396852
 40
1.570796327
 40
1.570796327
 40
1.570796327
 10
186.000000050
 20
99.000000000
 30
0.000000000
 10
186.000000050
 20
99.006287790
 30
0.000000000
 10
186.000000050
 20
99.012575580
 30
0.000000000
 10
186.000000050
 20
99.031359878
 30
0.000000000
 10
186.000000050
 20
99.050144176
 30
0.000000000
 10
186.000000050
 20
99.081188758
 30
0.000000000
 10
186.000000050
 20
99.112233339
 30
0.000000000
 10
186.000000050
 20
99.155147802
 30
0.000000000
 10
186.000000050
 20
99.198062264
 30
0.000000000
 10
186.000000050
 20
99.252306933
 30
0.000000000
 10
186.000000050
 20
99.306551602
 30
0.000000000
 10
186.000000050
 20
99.371444318
 30
0.000000000
 10
186.000000050
 20
99.436337035
 30
0.000000000
 10
186.000000050
 20
99.511061736
 30
0.000000000
 10
186.000000050
 20
99.585786438
 30
0.000000000
 10
186.000000050
 20
99.669403417
 30
0.000000000
 10
186.000000050
 20
99.753020396
 30
0.000000000
 10
186.000000050
 20
99.844478122
 30
0.000000000
 10
186.000000050
 20
99.935935847
 30
0.000000000
 10
186.000000050
 20
100.034084184
 30
0.000000000
 10
186.000000050
 20
100.132232522
 30
0.000000000
 10
186.000000050
 20
100.235837199
 30
0.000000000
 10
186.000000050
 20
100.339441876
 30
0.000000000
 10
186.000000050
 20
100.447200004
 30
0.000000000
 10
186.000000050
 20
100.554958132
 30
0.000000000
 10
186.000000050
 20
100.775281378
 30
0.000000000
 10
186.000000050
 20
101.000000000
 30
0.000000000
  0
SPLINE
  5
AC8
330
A02
100
AcDbEntity
  8
ProjItem002
100
AcDbSpline
210
0
220
0
230
1
 70
8
 71
2
 72
30
 73
27
 74
0
 40
0.000000000
 40
0.000000000
 40
0.000000000
 40
0.112199738
 40
0.112199738
 40
0.224399475
 40
0.224399475
 40
0.336599213
 40
0.336599213
 40
0.448798951
 40
0.448798951
 40
0.560998688
 40
0.560998688
 40
0.673198426
 40
0.673198426
 40
0.785398163
 40
0.785398163
 40
0.897597901
 40
0.897597901
 40
1.009797639
 40
1.009797639
 40
1.121997376
 40
1.121997376
 40
1.234197114
 40
1.234197114
 40
1.346396852
 40
1.346396852
 40
1.570796327
 40
1.570796327
 40
1.570796327
 10
202.000000050
 20
99.000000000
 30
0.000000000
 10
202.000000050
 20
99.006287790
 30
0.000000000
 10
202.000000050
 20
99.012575580
 30
0.000000000
 10
202.000000050
 20
99.031359878
 30
0.000000000
 10
202.000000050
 20
99.050144176
 30
0.000000000
 10
202.000000050
 20
99.081188758
 30
0.000000000
 10
202.000000050
 20
99.112233339
 30
0.000000000
 10
202.000000050
 20
99.155147802
 30
0.000000000
 10
202.000000050
 20
99.198062264
 30
0.000000000
 10
202.000000050
 20
99.252306933
 30
0.000000000
 10
202.000000050
 20
99.306551602
 30
0.000000000
 10
202.000000050
 20
99.371444318
 30
0.000000000
 10
202.000000050
 20
99.436337035
 30
0.000000000
 10
202.000000050
 20
99.511061736
 30
0.000000000
 10
202.000000050
 20
99.585786438
 30
0.000000000
 10
202.000000050
 20
99.669403417
 30
0.000000000
 10
202.000000050
 20
99.753020396
 30
0.000000000
 10
202.000000050
 20
99.844478122
 30
0.000000000
 10
202.000000050
 20
99.935935847
 30
0.000000000
 10
202.000000050
 20
100.034084184
 30
0.000000000
 10
202.000000050
 20
100.132232522
 30
0.000000000
 10
202.000000050
 20
100.235837199
 30
0.000000000
 10
202.000000050
 20
100.339441876
 30
0.000000000
 10
202.000000050
 20
100.447200004
 30
0.000000000
 10
202.000000050
 20
100.554958132
 30
0.000000000
 10
202.000000050
 20
100.775281378
 30
0.000000000
 10
202.000000050
 20
101.000000000
 30
0.000000000
  0
LINE
  5
AC9
330
A02
100
AcDbEntity
  8
ProjItem002
100
AcDbLine
 10
186.000000050
 20
101.000000000
 30
0.000000000
 11
202.000000050
 21
101.000000000
 31
0.000000000
  0
ARC
  5
ACA
330
A02
100
AcDbEntity
  8
ProjItem002
100
AcDbCircle
 10
202.000000050
 20
101.000000000
 30
0.000000000
 40
2.000000000
100
AcDbArc
 50
-90.000000000
 51
0.000000000
  0
ARC
  5
ACB
330
A02
100
AcDbEntity
  8
ProjItem002
100
AcDbCircle
 10
186.000000050
 20
101.000000000
 30
0.000000000
 40
2.000000000
100
AcDbArc
 50
180.000000000
 51
-90.000000000
  0
LINE
  5
ACC
330
A02
100
AcDbEntity
  8
ProjItem002
100
AcDbLine
 10
185.100000050
 20
101.000000000
 30
0.000000000
 11
186.000000050
 21
101.000000000
 31
0.000000000
  0
LINE
  5
ACD
330
A02
100
AcDbEntity
  8
ProjItem002
100
AcDbLine
 10
202.000000050
 20
101.000000000
 30
0.000000000
 11
202.900000050
 21
101.000000000
 31
0.000000000
  0
LINE
  5
ACE
330
A02
100
AcDbEntity
  8
ProjItem002
100
AcDbLine
 10
202.900000050
 20
101.000000000
 30
0.000000000
 11
202.900000050
 21
109.000000000
 31
0.000000000
  0
LINE
  5
ACF
330
A02
100
AcDbEntity
  8
ProjItem002
100
AcDbLine
 10
202.900000050
 20
109.000000000
 30
0.000000000
 11
185.100000050
 21
109.000000000
 31
0.000000000
  0
LINE
  5
AD0
330
A02
100
AcDbEntity
  8
ProjItem002
100
AcDbLine
 10
185.100000050
 20
109.000000000
 30
0.000000000
 11
185.100000050
 21
101.000000000
 31
0.000000000
  0
ARC
  5
AD1
330
A02
100
AcDbEntity
  8
ProjItem002
100
AcDbCircle
 10
202.000000050
 20
101.000000000
 30
0.000000000
 40
1.000000000
100
AcDbArc
 50
-90.000000000
 51
0.000000000
  0
LINE
  5
AD2
330
A02
100
AcDbEntity
  8
ProjItem002
100
AcDbLine
 10
204.000000050
 20
101.000000000
 30
0.000000000
 11
204.000000050
 21
109.000000000
 31
0.000000000
  0
ARC
  5
AD3
330
A02
100
AcDbEntity
  8
ProjItem002
100
AcDbCircle
 10
186.000000050
 20
101.000000000
 30
0.000000000
 40
1.000000000
100
AcDbArc
 50
180.000000000
 51
-90.000000000
  0
LINE
  5
AD4
330
A02
100
AcDbEntity
  8
ProjItem002
100
AcDbLine
 10
184.000000050
 20
101.000000000
 30
0.000000000
 11
184.000000050
 21
109.000000000
 31
0.000000000
  0
LINE
  5
AD5
330
A02
100
AcDbEntity
  8
ProjItem002
100
AcDbLine
 10
202.900000050
 20
110.000000000
 30
0.000000000
 11
202.900000050
 21
111.000000000
 31
0.000000000
  0
SPLINE
  5
AD6
330
A02
100
AcDbEntity
  8
ProjItem002
100
AcDbSpline
210
0
220
0
230
1
 70
8
 71
2
 72
24
 73
21
 74
0
 40
0.000000000
 40
0.000000000
 40
0.000000000
 40
0.336599213
 40
0.336599213
 40
0.560998688
 40
0.560998688
 40
0.785398163
 40
0.785398163
 40
0.897597901
 40
0.897597901
 40
1.009797639
 40
1.009797639
 40
1.121997376
 40
1.121997376
 40
1.234197114
 40
1.234197114
 40
1.346396852
 40
1.346396852
 40
1.458596589
 40
1.458596589
 40
1.570796327
 40
1.570796327
 40
1.570796327
 10
202.900000050
 20
109.000000000
 30
0.000000000
 10
202.900000050
 20
109.169423897
 30
0.000000000
 10
202.900000050
 20
109.330279062
 30
0.000000000
 10
202.900000050
 20
109.435413799
 30
0.000000000
 10
202.900000050
 20
109.532032077
 30
0.000000000
 10
202.900000050
 20
109.625688494
 30
0.000000000
 10
202.900000050
 20
109.707106781
 30
0.000000000
 10
202.900000050
 20
109.744469132
 30
0.000000000
 10
202.900000050
 20
109.781831482
 30
0.000000000
 10
202.900000050
 20
109.814277841
 30
0.000000000
 10
202.900000050
 20
109.846724199
 30
0.000000000
 10
202.900000050
 20
109.873846534
 30
0.000000000
 10
202.900000050
 20
109.900968868
 30
0.000000000
 10
202.900000050
 20
109.922426099
 30
0.000000000
 10
202.900000050
 20
109.943883330
 30
0.000000000
 10
202.900000050
 20
109.959405621
 30
0.000000000
 10
202.900000050
 20
109.974927912
 30
0.000000000
 10
202.900000050
 20
109.984320061
 30
0.000000000
 10
202.900000050
 20
109.993712210
 30
0.000000000
 10
202.900000050
 20
109.996856105
 30
0.000000000
 10
202.900000050
 20
110.000000000
 30
0.000000000
  0
SPLINE
  5
AD7
330
A02
100
AcDbEntity
  8
ProjItem002
100
AcDbSpline
210
0
220
0
230
1
 70
8
 71
2
 72
24
 73
21
 74
0
 40
0.000000000
 40
0.000000000
 40
0.000000000
 40
0.336599213
 40
0.336599213
 40
0.560998688
 40
0.560998688
 40
0.785398163
 40
0.785398163
 40
0.897597901
 40
0.897597901
 40
1.009797639
 40
1.009797639
 40
1.121997376
 40
1.121997376
 40
1.234197114
 40
1.234197114
 40
1.346396852
 40
1.346396852
 40
1.458596589
 40
1.458596589
 40
1.570796327
 40
1.570796327
 40
1.570796327
 10
185.100000050
 20
109.000000000
 30
0.000000000
 10
185.100000050
 20
109.169423897
 30
0.000000000
 10
185.100000050
 20
109.330279062
 30
0.000000000
 10
185.100000050
 20
109.435413799
 30
0.000000000
 10
185.100000050
 20
109.532032077
 30
0.000000000
 10
185.100000050
 20
109.625688494
 30
0.000000000
 10
185.100000050
 20
109.707106781
 30
0.000000000
 10
185.100000050
 20
109.744469132
 30
0.000000000
 10
185.100000050
 20
109.781831482
 30
0.000000000
 10
185.100000050
 20
109.814277841
 30
0.000000000
 10
185.100000050
 20
109.846724199
 30
0.000000000
 10
185.100000050
 20
109.873846534
 30
0.000000000
 10
185.100000050
 20
109.900968868
 30
0.000000000
 10
185.100000050
 20
109.922426099
 30
0.000000000
 10
185.100000050
 20
109.943883330
 30
0.000000000
 10
185.100000050
 20
109.959405621
 30
0.000000000
 10
185.100000050
 20
109.974927912
 30
0.000000000
 10
185.100000050
 20
109.984320061
 30
0.000000000
 10
185.100000050
 20
109.993712210
 30
0.000000000
 10
185.100000050
 20
109.996856105
 30
0.000000000
 10
185.100000050
 20
110.000000000
 30
0.000000000
  0
LINE
  5
AD8
330
A02
100
AcDbEntity
  8
ProjItem002
100
AcDbLine
 10
185.100000050
 20
110.000000000
 30
0.000000000
 11
185.100000050
 21
111.000000000
 31
0.000000000
  0
LINE
  5
AD9
330
A02
100
AcDbEntity
  8
ProjItem002
100
AcDbLine
 10
204.000000050
 20
101.000000000
 30
0.000000000
 11
203.000000050
 21
101.000000000
 31
0.000000000
  0
LINE
  5
ADA
330
A02
100
AcDbEntity
  8
ProjItem002
100
AcDbLine
 10
204.000000050
 20
109.000000000
 30
0.000000000
 11
203.000000050
 21
109.000000000
 31
0.000000000
  0
LINE
  5
ADB
330
A02
100
AcDbEntity
  8
ProjItem002
100
AcDbLine
 10
203.000000050
 20
101.000000000
 30
0.000000000
 11
203.000000050
 21
109.000000000
 31
0.000000000
  0
LINE
  5
ADC
330
A02
100
AcDbEntity
  8
ProjItem002
100
AcDbLine
 10
184.000000050
 20
101.000000000
 30
0.000000000
 11
185.000000050
 21
101.000000000
 31
0.000000000
  0
LINE
  5
ADD
330
A02
100
AcDbEntity
  8
ProjItem002
100
AcDbLine
 10
184.000000050
 20
109.000000000
 30
0.000000000
 11
185.000000050
 21
109.000000000
 31
0.000000000
  0
LINE
  5
ADE
330
A02
100
AcDbEntity
  8
ProjItem002
100
AcDbLine
 10
185.000000050
 20
101.000000000
 30
0.000000000
 11
185.000000050
 21
109.000000000
 31
0.000000000
  0
LINE
  5
ADF
330
A02
100
AcDbEntity
  8
ProjItem002
100
AcDbLine
 10
202.900000050
 20
111.000000000
 30
0.000000000
 11
185.100000050
 21
111.000000000
 31
0.000000000
  0
LINE
  5
AE0
330
A02
100
AcDbEntity
  8
ProjItem002
100
AcDbLine
 10
202.900000050
 20
110.000000000
 30
0.000000000
 11
185.100000050
 21
110.000000000
 31
0.000000000
  0
LINE
  5
AE1
330
A02
100
AcDbEntity
  8
ProjItem002
100
AcDbLine
 10
202.000000050
 20
99.000000000
 30
0.000000000
 11
186.000000050
 21
99.000000000
 31
0.000000000
  0
SPLINE
  5
AE2
330
A02
100
AcDbEntity
  8
ProjItem002
100
AcDbSpline
210
0
220
0
230
1
 70
8
 71
1
 72
17
 73
15
 74
0
 40
0.000000000
 40
0.000000000
 40
0.112199738
 40
0.224399475
 40
0.336599213
 40
0.448798951
 40
0.560998688
 40
0.673198426
 40
0.785398163
 40
0.897597901
 40
1.009797639
 40
1.121997376
 40
1.234197114
 40
1.346396852
 40
1.458596589
 40
1.570796327
 40
1.570796327
 10
190.775767050
 20
99.000000000
 30
0.000000000
 10
191.111660478
 20
99.000000000
 30
0.000000000
 10
191.443329852
 20
99.000000000
 30
0.000000000
 10
191.766604236
 20
99.000000000
 30
0.000000000
 10
192.077418267
 20
99.000000000
 30
0.000000000
 10
192.371863280
 20
99.000000000
 30
0.000000000
 10
192.646236456
 20
99.000000000
 30
0.000000000
 10
192.897087394
 20
99.000000000
 30
0.000000000
 10
193.121261497
 20
99.000000000
 30
0.000000000
 10
193.315939648
 20
99.000000000
 30
0.000000000
 10
193.478673654
 20
99.000000000
 30
0.000000000
 10
193.607417041
 20
99.000000000
 30
0.000000000
 10
193.700550787
 20
99.000000000
 30
0.000000000
 10
193.756903680
 20
99.000000000
 30
0.000000000
 10
193.775767050
 20
99.000000000
 30
0.000000000
  0
SPLINE
  5
AE3
330
A02
100
AcDbEntity
  8
ProjItem002
100
AcDbSpline
210
0
220
0
230
1
 70
8
 71
1
 72
17
 73
15
 74
0
 40
1.570796327
 40
1.570796327
 40
1.795195802
 40
2.019595277
 40
2.243994753
 40
2.468394228
 40
2.692793703
 40
2.917193178
 40
3.141592654
 40
3.365992129
 40
3.590391604
 40
3.814791079
 40
4.039190555
 40
4.263590030
 40
4.487989505
 40
4.712388980
 40
4.712388980
 10
193.775767050
 20
99.000000000
 30
0.000000000
 10
193.700550787
 20
99.000000000
 30
0.000000000
 10
193.478673654
 20
99.000000000
 30
0.000000000
 10
193.121261497
 20
99.000000000
 30
0.000000000
 10
192.646236456
 20
99.000000000
 30
0.000000000
 10
192.077418267
 20
99.000000000
 30
0.000000000
 10
191.443329852
 20
99.000000000
 30
0.000000000
 10
190.775767050
 20
99.000000000
 30
0.000000000
 10
190.108204248
 20
99.000000000
 30
0.000000000
 10
189.474115833
 20
99.000000000
 30
0.000000000
 10
188.905297644
 20
99.000000000
 30
0.000000000
 10
188.430272603
 20
99.000000000
 30
0.000000000
 10
188.072860446
 20
99.000000000
 30
0.000000000
 10
187.850983313
 20
99.000000000
 30
0.000000000
 10
187.775767050
 20
99.000000000
 30
0.000000000
  0
SPLINE
  5
AE4
330
A02
100
AcDbEntity
  8
ProjItem002
100
AcDbSpline
210
0
220
0
230
1
 70
8
 71
2
 72
30
 73
27
 74
0
 40
4.712388980
 40
4.712388980
 40
4.712388980
 40
4.824588718
 40
4.824588718
 40
4.936788456
 40
4.936788456
 40
5.048988193
 40
5.048988193
 40
5.161187931
 40
5.161187931
 40
5.273387669
 40
5.273387669
 40
5.385587406
 40
5.385587406
 40
5.497787144
 40
5.497787144
 40
5.609986881
 40
5.609986881
 40
5.722186619
 40
5.722186619
 40
5.834386357
 40
5.834386357
 40
5.946586094
 40
5.946586094
 40
6.058785832
 40
6.058785832
 40
6.283185307
 40
6.283185307
 40
6.283185307
 10
187.775767050
 20
99.000000000
 30
0.000000000
 10
187.785198735
 20
99.000000000
 30
0.000000000
 10
187.794630420
 20
99.000000000
 30
0.000000000
 10
187.822806867
 20
99.000000000
 30
0.000000000
 10
187.850983313
 20
99.000000000
 30
0.000000000
 10
187.897550186
 20
99.000000000
 30
0.000000000
 10
187.944117059
 20
99.000000000
 30
0.000000000
 10
188.008488753
 20
99.000000000
 30
0.000000000
 10
188.072860446
 20
99.000000000
 30
0.000000000
 10
188.154227449
 20
99.000000000
 30
0.000000000
 10
188.235594452
 20
99.000000000
 30
0.000000000
 10
188.332933527
 20
99.000000000
 30
0.000000000
 10
188.430272603
 20
99.000000000
 30
0.000000000
 10
188.542359655
 20
99.000000000
 30
0.000000000
 10
188.654446706
 20
99.000000000
 30
0.000000000
 10
188.779872175
 20
99.000000000
 30
0.000000000
 10
188.905297644
 20
99.000000000
 30
0.000000000
 10
189.042484232
 20
99.000000000
 30
0.000000000
 10
189.179670820
 20
99.000000000
 30
0.000000000
 10
189.326893327
 20
99.000000000
 30
0.000000000
 10
189.474115833
 20
99.000000000
 30
0.000000000
 10
189.629522848
 20
99.000000000
 30
0.000000000
 10
189.784929864
 20
99.000000000
 30
0.000000000
 10
189.946567056
 20
99.000000000
 30
0.000000000
 10
190.108204248
 20
99.000000000
 30
0.000000000
 10
190.438689117
 20
99.000000000
 30
0.000000000
 10
190.775767050
 20
99.000000000
 30
0.000000000
  0
ARC
  5
AE5
330
A02
100
AcDbEntity
  8
ProjItem002
100
AcDbCircle
 10
202.000000050
 20
101.000000000
 30
0.000000000
 40
2.000000000
100
AcDbArc
 50
-90.000000000
 51
0.000000000
  0
ARC
  5
AE6
330
A02
100
AcDbEntity
  8
ProjItem002
100
AcDbCircle
 10
186.000000050
 20
101.000000000
 30
0.000000000
 40
2.000000000
100
AcDbArc
 50
180.000000000
 51
-90.000000000
  0
SPLINE
  5
AE7
330
A02
100
AcDbEntity
  8
ProjItem002
100
AcDbSpline
210
0
220
0
230
1
 70
8
 71
2
 72
30
 73
27
 74
0
 40
0.000000000
 40
0.000000000
 40
0.000000000
 40
0.112199738
 40
0.112199738
 40
0.224399475
 40
0.224399475
 40
0.336599213
 40
0.336599213
 40
0.448798951
 40
0.448798951
 40
0.560998688
 40
0.560998688
 40
0.673198426
 40
0.673198426
 40
0.785398163
 40
0.785398163
 40
0.897597901
 40
0.897597901
 40
1.009797639
 40
1.009797639
 40
1.121997376
 40
1.121997376
 40
1.234197114
 40
1.234197114
 40
1.346396852
 40
1.346396852
 40
1.570796327
 40
1.570796327
 40
1.570796327
 10
186.000000050
 20
99.000000000
 30
0.000000000
 10
186.000000050
 20
99.006287790
 30
0.000000000
 10
186.000000050
 20
99.012575580
 30
0.000000000
 10
186.000000050
 20
99.031359878
 30
0.000000000
 10
186.000000050
 20
99.050144176
 30
0.000000000
 10
186.000000050
 20
99.081188758
 30
0.000000000
 10
186.000000050
 20
99.112233339
 30
0.000000000
 10
186.000000050
 20
99.155147802
 30
0.000000000
 10
186.000000050
 20
99.198062264
 30
0.000000000
 10
186.000000050
 20
99.252306933
 30
0.000000000
 10
186.000000050
 20
99.306551602
 30
0.000000000
 10
186.000000050
 20
99.371444318
 30
0.000000000
 10
186.000000050
 20
99.436337035
 30
0.000000000
 10
186.000000050
 20
99.511061736
 30
0.000000000
 10
186.000000050
 20
99.585786438
 30
0.000000000
 10
186.000000050
 20
99.669403417
 30
0.000000000
 10
186.000000050
 20
99.753020396
 30
0.000000000
 10
186.000000050
 20
99.844478122
 30
0.000000000
 10
186.000000050
 20
99.935935847
 30
0.000000000
 10
186.000000050
 20
100.034084184
 30
0.000000000
 10
186.000000050
 20
100.132232522
 30
0.000000000
 10
186.000000050
 20
100.235837199
 30
0.000000000
 10
186.000000050
 20
100.339441876
 30
0.000000000
 10
186.000000050
 20
100.447200004
 30
0.000000000
 10
186.000000050
 20
100.554958132
 30
0.000000000
 10
186.000000050
 20
100.775281378
 30
0.000000000
 10
186.000000050
 20
101.000000000
 30
0.000000000
  0
SPLINE
  5
AE8
330
A02
100
AcDbEntity
  8
ProjItem002
100
AcDbSpline
210
0
220
0
230
1
 70
8
 71
2
 72
30
 73
27
 74
0
 40
0.000000000
 40
0.000000000
 40
0.000000000
 40
0.112199738
 40
0.112199738
 40
0.224399475
 40
0.224399475
 40
0.336599213
 40
0.336599213
 40
0.448798951
 40
0.448798951
 40
0.560998688
 40
0.560998688
 40
0.673198426
 40
0.673198426
 40
0.785398163
 40
0.785398163
 40
0.897597901
 40
0.897597901
 40
1.009797639
 40
1.009797639
 40
1.121997376
 40
1.121997376
 40
1.234197114
 40
1.234197114
 40
1.346396852
 40
1.346396852
 40
1.570796327
 40
1.570796327
 40
1.570796327
 10
202.000000050
 20
99.000000000
 30
0.000000000
 10
202.000000050
 20
99.006287790
 30
0.000000000
 10
202.000000050
 20
99.012575580
 30
0.000000000
 10
202.000000050
 20
99.031359878
 30
0.000000000
 10
202.000000050
 20
99.050144176
 30
0.000000000
 10
202.000000050
 20
99.081188758
 30
0.000000000
 10
202.000000050
 20
99.112233339
 30
0.000000000
 10
202.000000050
 20
99.155147802
 30
0.000000000
 10
202.000000050
 20
99.198062264
 30
0.000000000
 10
202.000000050
 20
99.252306933
 30
0.000000000
 10
202.000000050
 20
99.306551602
 30
0.000000000
 10
202.000000050
 20
99.371444318
 30
0.000000000
 10
202.000000050
 20
99.436337035
 30
0.000000000
 10
202.000000050
 20
99.511061736
 30
0.000000000
 10
202.000000050
 20
99.585786438
 30
0.000000000
 10
202.000000050
 20
99.669403417
 30
0.000000000
 10
202.000000050
 20
99.753020396
 30
0.000000000
 10
202.000000050
 20
99.844478122
 30
0.000000000
 10
202.000000050
 20
99.935935847
 30
0.000000000
 10
202.000000050
 20
100.034084184
 30
0.000000000
 10
202.000000050
 20
100.132232522
 30
0.000000000
 10
202.000000050
 20
100.235837199
 30
0.000000000
 10
202.000000050
 20
100.339441876
 30
0.000000000
 10
202.000000050
 20
100.447200004
 30
0.000000000
 10
202.000000050
 20
100.554958132
 30
0.000000000
 10
202.000000050
 20
100.775281378
 30
0.000000000
 10
202.000000050
 20
101.000000000
 30
0.000000000
  0
LINE
  5
AE9
330
A02
100
AcDbEntity
  8
ProjItem002
100
AcDbLine
 10
186.000000050
 20
101.000000000
 30
0.000000000
 11
202.000000050
 21
101.000000000
 31
0.000000000
  0
SPLINE
  5
AEA
330
A02
100
AcDbEntity
  8
ProjItem002
100
AcDbSpline
210
0
220
0
230
1
 70
8
 71
2
 72
30
 73
27
 74
0
 40
0.000000000
 40
0.000000000
 40
0.000000000
 40
0.224399475
 40
0.224399475
 40
0.336599213
 40
0.336599213
 40
0.448798951
 40
0.448798951
 40
0.560998688
 40
0.560998688
 40
0.673198426
 40
0.673198426
 40
0.785398163
 40
0.785398163
 40
0.897597901
 40
0.897597901
 40
1.009797639
 40
1.009797639
 40
1.121997376
 40
1.121997376
 40
1.234197114
 40
1.234197114
 40
1.346396852
 40
1.346396852
 40
1.458596589
 40
1.458596589
 40
1.570796327
 40
1.570796327
 40
1.570796327
 10
190.775767050
 20
100.000000000
 30
0.000000000
 10
190.438689117
 20
100.000000000
 30
0.000000000
 10
190.108204248
 20
100.000000000
 30
0.000000000
 10
189.946567056
 20
100.000000000
 30
0.000000000
 10
189.784929864
 20
100.000000000
 30
0.000000000
 10
189.629522848
 20
100.000000000
 30
0.000000000
 10
189.474115833
 20
100.000000000
 30
0.000000000
 10
189.326893327
 20
100.000000000
 30
0.000000000
 10
189.179670820
 20
100.000000000
 30
0.000000000
 10
189.042484232
 20
100.000000000
 30
0.000000000
 10
188.905297644
 20
100.000000000
 30
0.000000000
 10
188.779872175
 20
100.000000000
 30
0.000000000
 10
188.654446706
 20
100.000000000
 30
0.000000000
 10
188.542359655
 20
100.000000000
 30
0.000000000
 10
188.430272603
 20
100.000000000
 30
0.000000000
 10
188.332933527
 20
100.000000000
 30
0.000000000
 10
188.235594452
 20
100.000000000
 30
0.000000000
 10
188.154227449
 20
100.000000000
 30
0.000000000
 10
188.072860446
 20
100.000000000
 30
0.000000000
 10
188.008488753
 20
100.000000000
 30
0.000000000
 10
187.944117059
 20
100.000000000
 30
0.000000000
 10
187.897550186
 20
100.000000000
 30
0.000000000
 10
187.850983313
 20
100.000000000
 30
0.000000000
 10
187.822806867
 20
100.000000000
 30
0.000000000
 10
187.794630420
 20
100.000000000
 30
0.000000000
 10
187.785198735
 20
100.000000000
 30
0.000000000
 10
187.775767050
 20
100.000000000
 30
0.000000000
  0
SPLINE
  5
AEB
330
A02
100
AcDbEntity
  8
ProjItem002
100
AcDbSpline
210
0
220
0
230
1
 70
8
 71
1
 72
17
 73
15
 74
0
 40
1.570796327
 40
1.570796327
 40
1.795195802
 40
2.019595277
 40
2.243994753
 40
2.468394228
 40
2.692793703
 40
2.917193178
 40
3.141592654
 40
3.365992129
 40
3.590391604
 40
3.814791079
 40
4.039190555
 40
4.263590030
 40
4.487989505
 40
4.712388980
 40
4.712388980
 10
187.775767050
 20
100.000000000
 30
0.000000000
 10
187.850983313
 20
100.000000000
 30
0.000000000
 10
188.072860446
 20
100.000000000
 30
0.000000000
 10
188.430272603
 20
100.000000000
 30
0.000000000
 10
188.905297644
 20
100.000000000
 30
0.000000000
 10
189.474115833
 20
100.000000000
 30
0.000000000
 10
190.108204248
 20
100.000000000
 30
0.000000000
 10
190.775767050
 20
100.000000000
 30
0.000000000
 10
191.443329852
 20
100.000000000
 30
0.000000000
 10
192.077418267
 20
100.000000000
 30
0.000000000
 10
192.646236456
 20
100.000000000
 30
0.000000000
 10
193.121261497
 20
100.000000000
 30
0.000000000
 10
193.478673654
 20
100.000000000
 30
0.000000000
 10
193.700550787
 20
100.000000000
 30
0.000000000
 10
193.775767050
 20
100.000000000
 30
0.000000000
  0
SPLINE
  5
AEC
330
A02
100
AcDbEntity
  8
ProjItem002
100
AcDbSpline
210
0
220
0
230
1
 70
8
 71
2
 72
30
 73
27
 74
0
 40
4.712388980
 40
4.712388980
 40
4.712388980
 40
4.824588718
 40
4.824588718
 40
4.936788456
 40
4.936788456
 40
5.048988193
 40
5.048988193
 40
5.161187931
 40
5.161187931
 40
5.273387669
 40
5.273387669
 40
5.385587406
 40
5.385587406
 40
5.497787144
 40
5.497787144
 40
5.609986881
 40
5.609986881
 40
5.722186619
 40
5.722186619
 40
5.834386357
 40
5.834386357
 40
5.946586094
 40
5.946586094
 40
6.058785832
 40
6.058785832
 40
6.283185307
 40
6.283185307
 40
6.283185307
 10
193.775767050
 20
100.000000000
 30
0.000000000
 10
193.766335365
 20
100.000000000
 30
0.000000000
 10
193.756903680
 20
100.000000000
 30
0.000000000
 10
193.728727233
 20
100.000000000
 30
0.000000000
 10
193.700550787
 20
100.000000000
 30
0.000000000
 10
193.653983914
 20
100.000000000
 30
0.000000000
 10
193.607417041
 20
100.000000000
 30
0.000000000
 10
193.543045347
 20
100.000000000
 30
0.000000000
 10
193.478673654
 20
100.000000000
 30
0.000000000
 10
193.397306651
 20
100.000000000
 30
0.000000000
 10
193.315939648
 20
100.000000000
 30
0.000000000
 10
193.218600573
 20
100.000000000
 30
0.000000000
 10
193.121261497
 20
100.000000000
 30
0.000000000
 10
193.009174445
 20
100.000000000
 30
0.000000000
 10
192.897087394
 20
100.000000000
 30
0.000000000
 10
192.771661925
 20
100.000000000
 30
0.000000000
 10
192.646236456
 20
100.000000000
 30
0.000000000
 10
192.509049868
 20
100.000000000
 30
0.000000000
 10
192.371863280
 20
100.000000000
 30
0.000000000
 10
192.224640773
 20
100.000000000
 30
0.000000000
 10
192.077418267
 20
100.000000000
 30
0.000000000
 10
191.922011252
 20
100.000000000
 30
0.000000000
 10
191.766604236
 20
100.000000000
 30
0.000000000
 10
191.604967044
 20
100.000000000
 30
0.000000000
 10
191.443329852
 20
100.000000000
 30
0.000000000
 10
191.112844983
 20
100.000000000
 30
0.000000000
 10
190.775767050
 20
100.000000000
 30
0.000000000
  0
SPLINE
  5
AED
330
A02
100
AcDbEntity
  8
ProjItem002
100
AcDbSpline
210
0
220
0
230
1
 70
8
 71
3
 72
35
 73
31
 74
0
 40
0.000000000
 40
0.000000000
 40
0.000000000
 40
0.000000000
 40
0.112199738
 40
0.112199738
 40
0.112199738
 40
0.224399475
 40
0.224399475
 40
0.224399475
 40
0.336599213
 40
0.336599213
 40
0.336599213
 40
0.448798951
 40
0.448798951
 40
0.448798951
 40
0.560998688
 40
0.560998688
 40
0.560998688
 40
0.673198426
 40
0.673198426
 40
0.673198426
 40
0.785398163
 40
0.785398163
 40
0.785398163
 40
0.897597901
 40
0.897597901
 40
0.897597901
 40
1.121997376
 40
1.121997376
 40
1.121997376
 40
1.570796327
 40
1.570796327
 40
1.570796327
 40
1.570796327
 10
186.000000050
 20
100.000000000
 30
0.000000000
 10
186.000000050
 20
100.002095930
 30
0.000000000
 10
186.000000050
 20
100.004191860
 30
0.000000000
 10
186.000000050
 20
100.006287790
 30
0.000000000
 10
186.000000050
 20
100.012549223
 30
0.000000000
 10
186.000000050
 20
100.018810655
 30
0.000000000
 10
186.000000050
 20
100.025072088
 30
0.000000000
 10
186.000000050
 20
100.035420282
 30
0.000000000
 10
186.000000050
 20
100.045768476
 30
0.000000000
 10
186.000000050
 20
100.056116670
 30
0.000000000
 10
186.000000050
 20
100.070421490
 30
0.000000000
 10
186.000000050
 20
100.084726311
 30
0.000000000
 10
186.000000050
 20
100.099031132
 30
0.000000000
 10
186.000000050
 20
100.117112688
 30
0.000000000
 10
186.000000050
 20
100.135194245
 30
0.000000000
 10
186.000000050
 20
100.153275801
 30
0.000000000
 10
186.000000050
 20
100.174906706
 30
0.000000000
 10
186.000000050
 20
100.196537612
 30
0.000000000
 10
186.000000050
 20
100.218168518
 30
0.000000000
 10
186.000000050
 20
100.243076751
 30
0.000000000
 10
186.000000050
 20
100.267984985
 30
0.000000000
 10
186.000000050
 20
100.292893219
 30
0.000000000
 10
186.000000050
 20
100.320765545
 30
0.000000000
 10
186.000000050
 20
100.348637872
 30
0.000000000
 10
186.000000050
 20
100.376510198
 30
0.000000000
 10
186.000000050
 20
100.436231233
 30
0.000000000
 10
186.000000050
 20
100.499433254
 30
0.000000000
 10
186.000000050
 20
100.566116261
 30
0.000000000
 10
186.000000050
 20
100.701836753
 30
0.000000000
 10
186.000000050
 20
100.850207115
 30
0.000000000
 10
186.000000050
 20
101.000000000
 30
0.000000000
  0
LINE
  5
AEE
330
A02
100
AcDbEntity
  8
ProjItem002
100
AcDbLine
 10
186.000000050
 20
99.000000000
 30
0.000000000
 11
186.000000050
 21
100.000000000
 31
0.000000000
  0
SPLINE
  5
AEF
330
A02
100
AcDbEntity
  8
ProjItem002
100
AcDbSpline
210
0
220
0
230
1
 70
8
 71
3
 72
35
 73
31
 74
0
 40
0.000000000
 40
0.000000000
 40
0.000000000
 40
0.000000000
 40
0.112199738
 40
0.112199738
 40
0.112199738
 40
0.224399475
 40
0.224399475
 40
0.224399475
 40
0.336599213
 40
0.336599213
 40
0.336599213
 40
0.448798951
 40
0.448798951
 40
0.448798951
 40
0.560998688
 40
0.560998688
 40
0.560998688
 40
0.673198426
 40
0.673198426
 40
0.673198426
 40
0.785398163
 40
0.785398163
 40
0.785398163
 40
0.897597901
 40
0.897597901
 40
0.897597901
 40
1.121997376
 40
1.121997376
 40
1.121997376
 40
1.570796327
 40
1.570796327
 40
1.570796327
 40
1.570796327
 10
202.000000050
 20
100.000000000
 30
0.000000000
 10
202.000000050
 20
100.002095930
 30
0.000000000
 10
202.000000050
 20
100.004191860
 30
0.000000000
 10
202.000000050
 20
100.006287790
 30
0.000000000
 10
202.000000050
 20
100.012549223
 30
0.000000000
 10
202.000000050
 20
100.018810655
 30
0.000000000
 10
202.000000050
 20
100.025072088
 30
0.000000000
 10
202.000000050
 20
100.035420282
 30
0.000000000
 10
202.000000050
 20
100.045768476
 30
0.000000000
 10
202.000000050
 20
100.056116670
 30
0.000000000
 10
202.000000050
 20
100.070421490
 30
0.000000000
 10
202.000000050
 20
100.084726311
 30
0.000000000
 10
202.000000050
 20
100.099031132
 30
0.000000000
 10
202.000000050
 20
100.117112688
 30
0.000000000
 10
202.000000050
 20
100.135194245
 30
0.000000000
 10
202.000000050
 20
100.153275801
 30
0.000000000
 10
202.000000050
 20
100.174906706
 30
0.000000000
 10
202.000000050
 20
100.196537612
 30
0.000000000
 10
202.000000050
 20
100.218168518
 30
0.000000000
 10
202.000000050
 20
100.243076751
 30
0.000000000
 10
202.000000050
 20
100.267984985
 30
0.000000000
 10
202.000000050
 20
100.292893219
 30
0.000000000
 10
202.000000050
 20
100.320765545
 30
0.000000000
 10
202.000000050
 20
100.348637872
 30
0.000000000
 10
202.000000050
 20
100.376510198
 30
0.000000000
 10
202.000000050
 20
100.436231233
 30
0.000000000
 10
202.000000050
 20
100.499433254
 30
0.000000000
 10
202.000000050
 20
100.566116261
 30
0.000000000
 10
202.000000050
 20
100.701836753
 30
0.000000000
 10
202.000000050
 20
100.850207115
 30
0.000000000
 10
202.000000050
 20
101.000000000
 30
0.000000000
  0
LINE
  5
AF0
330
A02
100
AcDbEntity
  8
ProjItem002
100
AcDbLine
 10
202.000000050
 20
99.000000000
 30
0.000000000
 11
202.000000050
 21
100.000000000
 31
0.000000000
  0
ARC
  5
AF1
330
A02
100
AcDbEntity
  8
ProjItem002
100
AcDbCircle
 10
202.000000050
 20
101.000000000
 30
0.000000000
 40
1.000000000
100
AcDbArc
 50
-90.000000000
 51
0.000000000
  0
LINE
  5
AF2
330
A02
100
AcDbEntity
  8
ProjItem002
100
AcDbLine
 10
202.000000050
 20
99.000000000
 30
0.000000000
 11
202.000000050
 21
100.000000000
 31
0.000000000
  0
LINE
  5
AF3
330
A02
100
AcDbEntity
  8
ProjItem002
100
AcDbLine
 10
203.000000050
 20
101.000000000
 30
0.000000000
 11
204.000000050
 21
101.000000000
 31
0.000000000
  0
LINE
  5
AF4
330
A02
100
AcDbEntity
  8
ProjItem002
100
AcDbLine
 10
204.000000050
 20
101.000000000
 30
0.000000000
 11
203.000000050
 21
101.000000000
 31
0.000000000
  0
LINE
  5
AF5
330
A02
100
AcDbEntity
  8
ProjItem002
100
AcDbLine
 10
204.000000050
 20
109.000000000
 30
0.000000000
 11
204.000000050
 21
101.000000000
 31
0.000000000
  0
SPLINE
  5
AF6
330
A02
100
AcDbEntity
  8
ProjItem002
100
AcDbSpline
210
0
220
0
230
1
 70
8
 71
3
 72
41
 73
37
 74
0
 40
0.000000000
 40
0.000000000
 40
0.000000000
 40
0.000000000
 40
0.336599213
 40
0.336599213
 40
0.336599213
 40
0.448798951
 40
0.448798951
 40
0.448798951
 40
0.560998688
 40
0.560998688
 40
0.560998688
 40
0.673198426
 40
0.673198426
 40
0.673198426
 40
0.785398163
 40
0.785398163
 40
0.785398163
 40
0.897597901
 40
0.897597901
 40
0.897597901
 40
1.009797639
 40
1.009797639
 40
1.009797639
 40
1.121997376
 40
1.121997376
 40
1.121997376
 40
1.234197114
 40
1.234197114
 40
1.234197114
 40
1.346396852
 40
1.346396852
 40
1.346396852
 40
1.458596589
 40
1.458596589
 40
1.458596589
 40
1.570796327
 40
1.570796327
 40
1.570796327
 40
1.570796327
 10
204.000000050
 20
104.834776000
 30
0.000000000
 10
204.000000050
 20
105.044676717
 30
0.000000000
 10
204.000000050
 20
105.252609975
 30
0.000000000
 10
204.000000050
 20
105.451838023
 30
0.000000000
 10
204.000000050
 20
105.516359735
 30
0.000000000
 10
204.000000050
 20
105.580881447
 30
0.000000000
 10
204.000000050
 20
105.645403159
 30
0.000000000
 10
204.000000050
 20
105.706526836
 30
0.000000000
 10
204.000000050
 20
105.767650512
 30
0.000000000
 10
204.000000050
 20
105.828774189
 30
0.000000000
 10
204.000000050
 20
105.885731164
 30
0.000000000
 10
204.000000050
 20
105.942688139
 30
0.000000000
 10
204.000000050
 20
105.999645114
 30
0.000000000
 10
204.000000050
 20
106.051719121
 30
0.000000000
 10
204.000000050
 20
106.103793128
 30
0.000000000
 10
204.000000050
 20
106.155867135
 30
0.000000000
 10
204.000000050
 20
106.202403313
 30
0.000000000
 10
204.000000050
 20
106.248939490
 30
0.000000000
 10
204.000000050
 20
106.295475668
 30
0.000000000
 10
204.000000050
 20
106.335888797
 30
0.000000000
 10
204.000000050
 20
106.376301926
 30
0.000000000
 10
204.000000050
 20
106.416715055
 30
0.000000000
 10
204.000000050
 20
106.450496917
 30
0.000000000
 10
204.000000050
 20
106.484278779
 30
0.000000000
 10
204.000000050
 20
106.518060641
 30
0.000000000
 10
204.000000050
 20
106.544786409
 30
0.000000000
 10
204.000000050
 20
106.571512177
 30
0.000000000
 10
204.000000050
 20
106.598237945
 30
0.000000000
 10
204.000000050
 20
106.617571528
 30
0.000000000
 10
204.000000050
 20
106.636905110
 30
0.000000000
 10
204.000000050
 20
106.656238693
 30
0.000000000
 10
204.000000050
 20
106.667936959
 30
0.000000000
 10
204.000000050
 20
106.679635225
 30
0.000000000
 10
204.000000050
 20
106.691333490
 30
0.000000000
 10
204.000000050
 20
106.695249327
 30
0.000000000
 10
204.000000050
 20
106.699165163
 30
0.000000000
 10
204.000000050
 20
106.703081000
 30
0.000000000
  0
SPLINE
  5
AF7
330
A02
100
AcDbEntity
  8
ProjItem002
100
AcDbSpline
210
0
220
0
230
1
 70
8
 71
1
 72
17
 73
15
 74
0
 40
1.570796327
 40
1.570796327
 40
1.795195802
 40
2.019595277
 40
2.243994753
 40
2.468394228
 40
2.692793703
 40
2.917193178
 40
3.141592654
 40
3.365992129
 40
3.590391604
 40
3.814791079
 40
4.039190555
 40
4.263590030
 40
4.487989505
 40
4.712388980
 40
4.712388980
 10
204.000000050
 20
106.703081000
 30
0.000000000
 10
204.000000050
 20
106.656238693
 30
0.000000000
 10
204.000000050
 20
106.518060641
 30
0.000000000
 10
204.000000050
 20
106.295475668
 30
0.000000000
 10
204.000000050
 20
105.999645114
 30
0.000000000
 10
204.000000050
 20
105.645403159
 30
0.000000000
 10
204.000000050
 20
105.250512974
 30
0.000000000
 10
204.000000050
 20
104.834776000
 30
0.000000000
 10
204.000000050
 20
104.419039026
 30
0.000000000
 10
204.000000050
 20
104.024148841
 30
0.000000000
 10
204.000000050
 20
103.669906886
 30
0.000000000
 10
204.000000050
 20
103.374076332
 30
0.000000000
 10
204.000000050
 20
103.151491359
 30
0.000000000
 10
204.000000050
 20
103.013313307
 30
0.000000000
 10
204.000000050
 20
102.966471000
 30
0.000000000
  0
SPLINE
  5
AF8
330
A02
100
AcDbEntity
  8
ProjItem002
100
AcDbSpline
210
0
220
0
230
1
 70
8
 71
2
 72
28
 73
25
 74
0
 40
4.712388980
 40
4.712388980
 40
4.712388980
 40
4.824588718
 40
4.824588718
 40
4.936788456
 40
4.936788456
 40
5.048988193
 40
5.048988193
 40
5.161187931
 40
5.161187931
 40
5.273387669
 40
5.273387669
 40
5.385587406
 40
5.385587406
 40
5.497787144
 40
5.497787144
 40
5.609986881
 40
5.609986881
 40
5.722186619
 40
5.722186619
 40
5.834386357
 40
5.834386357
 40
6.058785832
 40
6.058785832
 40
6.283185307
 40
6.283185307
 40
6.283185307
 10
204.000000050
 20
102.966471000
 30
0.000000000
 10
204.000000050
 20
102.972344755
 30
0.000000000
 10
204.000000050
 20
102.978218510
 30
0.000000000
 10
204.000000050
 20
102.995765908
 30
0.000000000
 10
204.000000050
 20
103.013313307
 30
0.000000000
 10
204.000000050
 20
103.042313681
 30
0.000000000
 10
204.000000050
 20
103.071314055
 30
0.000000000
 10
204.000000050
 20
103.111402707
 30
0.000000000
 10
204.000000050
 20
103.151491359
 30
0.000000000
 10
204.000000050
 20
103.202164152
 30
0.000000000
 10
204.000000050
 20
103.252836945
 30
0.000000000
 10
204.000000050
 20
103.313456639
 30
0.000000000
 10
204.000000050
 20
103.374076332
 30
0.000000000
 10
204.000000050
 20
103.443880599
 30
0.000000000
 10
204.000000050
 20
103.513684865
 30
0.000000000
 10
204.000000050
 20
103.591795875
 30
0.000000000
 10
204.000000050
 20
103.669906886
 30
0.000000000
 10
204.000000050
 20
103.755342349
 30
0.000000000
 10
204.000000050
 20
103.840777811
 30
0.000000000
 10
204.000000050
 20
103.932463326
 30
0.000000000
 10
204.000000050
 20
104.024148841
 30
0.000000000
 10
204.000000050
 20
104.215537952
 30
0.000000000
 10
204.000000050
 20
104.419039026
 30
0.000000000
 10
204.000000050
 20
104.624854538
 30
0.000000000
 10
204.000000050
 20
104.834776000
 30
0.000000000
  0
ARC
  5
AF9
330
A02
100
AcDbEntity
  8
ProjItem002
100
AcDbCircle
 10
186.000000050
 20
101.000000000
 30
0.000000000
 40
1.000000000
100
AcDbArc
 50
180.000000000
 51
-90.000000000
  0
LINE
  5
AFA
330
A02
100
AcDbEntity
  8
ProjItem002
100
AcDbLine
 10
186.000000050
 20
99.000000000
 30
0.000000000
 11
186.000000050
 21
100.000000000
 31
0.000000000
  0
LINE
  5
AFB
330
A02
100
AcDbEntity
  8
ProjItem002
100
AcDbLine
 10
185.000000050
 20
101.000000000
 30
0.000000000
 11
184.000000050
 21
101.000000000
 31
0.000000000
  0
LINE
  5
AFC
330
A02
100
AcDbEntity
  8
ProjItem002
100
AcDbLine
 10
184.000000050
 20
101.000000000
 30
0.000000000
 11
185.000000050
 21
101.000000000
 31
0.000000000
  0
LINE
  5
AFD
330
A02
100
AcDbEntity
  8
ProjItem002
100
AcDbLine
 10
184.000000050
 20
109.000000000
 30
0.000000000
 11
184.000000050
 21
101.000000000
 31
0.000000000
  0
SPLINE
  5
AFE
330
A02
100
AcDbEntity
  8
ProjItem002
100
AcDbSpline
210
0
220
0
230
1
 70
8
 71
3
 72
35
 73
31
 74
0
 40
0.000000000
 40
0.000000000
 40
0.000000000
 40
0.000000000
 40
0.112199738
 40
0.112199738
 40
0.112199738
 40
0.224399475
 40
0.224399475
 40
0.224399475
 40
0.336599213
 40
0.336599213
 40
0.336599213
 40
0.448798951
 40
0.448798951
 40
0.448798951
 40
0.560998688
 40
0.560998688
 40
0.560998688
 40
0.673198426
 40
0.673198426
 40
0.673198426
 40
0.785398163
 40
0.785398163
 40
0.785398163
 40
0.897597901
 40
0.897597901
 40
0.897597901
 40
1.121997376
 40
1.121997376
 40
1.121997376
 40
1.570796327
 40
1.570796327
 40
1.570796327
 40
1.570796327
 10
186.000000050
 20
100.000000000
 30
0.000000000
 10
186.000000050
 20
100.002095930
 30
0.000000000
 10
186.000000050
 20
100.004191860
 30
0.000000000
 10
186.000000050
 20
100.006287790
 30
0.000000000
 10
186.000000050
 20
100.012549223
 30
0.000000000
 10
186.000000050
 20
100.018810655
 30
0.000000000
 10
186.000000050
 20
100.025072088
 30
0.000000000
 10
186.000000050
 20
100.035420282
 30
0.000000000
 10
186.000000050
 20
100.045768476
 30
0.000000000
 10
186.000000050
 20
100.056116670
 30
0.000000000
 10
186.000000050
 20
100.070421490
 30
0.000000000
 10
186.000000050
 20
100.084726311
 30
0.000000000
 10
186.000000050
 20
100.099031132
 30
0.000000000
 10
186.000000050
 20
100.117112688
 30
0.000000000
 10
186.000000050
 20
100.135194245
 30
0.000000000
 10
186.000000050
 20
100.153275801
 30
0.000000000
 10
186.000000050
 20
100.174906706
 30
0.000000000
 10
186.000000050
 20
100.196537612
 30
0.000000000
 10
186.000000050
 20
100.218168518
 30
0.000000000
 10
186.000000050
 20
100.243076751
 30
0.000000000
 10
186.000000050
 20
100.267984985
 30
0.000000000
 10
186.000000050
 20
100.292893219
 30
0.000000000
 10
186.000000050
 20
100.320765545
 30
0.000000000
 10
186.000000050
 20
100.348637872
 30
0.000000000
 10
186.000000050
 20
100.376510198
 30
0.000000000
 10
186.000000050
 20
100.436231233
 30
0.000000000
 10
186.000000050
 20
100.499433254
 30
0.000000000
 10
186.000000050
 20
100.566116261
 30
0.000000000
 10
186.000000050
 20
100.701836753
 30
0.000000000
 10
186.000000050
 20
100.850207115
 30
0.000000000
 10
186.000000050
 20
101.000000000
 30
0.000000000
  0
SPLINE
  5
AFF
330
A02
100
AcDbEntity
  8
ProjItem002
100
AcDbSpline
210
0
220
0
230
1
 70
8
 71
3
 72
35
 73
31
 74
0
 40
0.000000000
 40
0.000000000
 40
0.000000000
 40
0.000000000
 40
0.112199738
 40
0.112199738
 40
0.112199738
 40
0.224399475
 40
0.224399475
 40
0.224399475
 40
0.336599213
 40
0.336599213
 40
0.336599213
 40
0.448798951
 40
0.448798951
 40
0.448798951
 40
0.560998688
 40
0.560998688
 40
0.560998688
 40
0.673198426
 40
0.673198426
 40
0.673198426
 40
0.785398163
 40
0.785398163
 40
0.785398163
 40
0.897597901
 40
0.897597901
 40
0.897597901
 40
1.121997376
 40
1.121997376
 40
1.121997376
 40
1.570796327
 40
1.570796327
 40
1.570796327
 40
1.570796327
 10
202.000000050
 20
100.000000000
 30
0.000000000
 10
202.000000050
 20
100.002095930
 30
0.000000000
 10
202.000000050
 20
100.004191860
 30
0.000000000
 10
202.000000050
 20
100.006287790
 30
0.000000000
 10
202.000000050
 20
100.012549223
 30
0.000000000
 10
202.000000050
 20
100.018810655
 30
0.000000000
 10
202.000000050
 20
100.025072088
 30
0.000000000
 10
202.000000050
 20
100.035420282
 30
0.000000000
 10
202.000000050
 20
100.045768476
 30
0.000000000
 10
202.000000050
 20
100.056116670
 30
0.000000000
 10
202.000000050
 20
100.070421490
 30
0.000000000
 10
202.000000050
 20
100.084726311
 30
0.000000000
 10
202.000000050
 20
100.099031132
 30
0.000000000
 10
202.000000050
 20
100.117112688
 30
0.000000000
 10
202.000000050
 20
100.135194245
 30
0.000000000
 10
202.000000050
 20
100.153275801
 30
0.000000000
 10
202.000000050
 20
100.174906706
 30
0.000000000
 10
202.000000050
 20
100.196537612
 30
0.000000000
 10
202.000000050
 20
100.218168518
 30
0.000000000
 10
202.000000050
 20
100.243076751
 30
0.000000000
 10
202.000000050
 20
100.267984985
 30
0.000000000
 10
202.000000050
 20
100.292893219
 30
0.000000000
 10
202.000000050
 20
100.320765545
 30
0.000000000
 10
202.000000050
 20
100.348637872
 30
0.000000000
 10
202.000000050
 20
100.376510198
 30
0.000000000
 10
202.000000050
 20
100.436231233
 30
0.000000000
 10
202.000000050
 20
100.499433254
 30
0.000000000
 10
202.000000050
 20
100.566116261
 30
0.000000000
 10
202.000000050
 20
100.701836753
 30
0.000000000
 10
202.000000050
 20
100.850207115
 30
0.000000000
 10
202.000000050
 20
101.000000000
 30
0.000000000
  0
LINE
  5
B00
330
A02
100
AcDbEntity
  8
ProjItem002
100
AcDbLine
 10
185.100000050
 20
101.000000000
 30
0.000000000
 11
186.000000050
 21
101.000000000
 31
0.000000000
  0
LINE
  5
B01
330
A02
100
AcDbEntity
  8
ProjItem002
100
AcDbLine
 10
202.000000050
 20
101.000000000
 30
0.000000000
 11
202.900000050
 21
101.000000000
 31
0.000000000
  0
LINE
  5
B02
330
A02
100
AcDbEntity
  8
ProjItem002
100
AcDbLine
 10
202.900000050
 20
101.000000000
 30
0.000000000
 11
202.900000050
 21
109.000000000
 31
0.000000000
  0
LINE
  5
B03
330
A02
100
AcDbEntity
  8
ProjItem002
100
AcDbLine
 10
202.900000050
 20
109.000000000
 30
0.000000000
 11
185.100000050
 21
109.000000000
 31
0.000000000
  0
LINE
  5
B04
330
A02
100
AcDbEntity
  8
ProjItem002
100
AcDbLine
 10
185.100000050
 20
109.000000000
 30
0.000000000
 11
185.100000050
 21
101.000000000
 31
0.000000000
  0
LINE
  5
B05
330
A02
100
AcDbEntity
  8
ProjItem002
100
AcDbLine
 10
202.000000050
 20
100.000000000
 30
0.000000000
 11
186.000000050
 21
100.000000000
 31
0.000000000
  0
LINE
  5
B06
330
A02
100
AcDbEntity
  8
ProjItem002
100
AcDbLine
 10
202.000000050
 20
100.000000000
 30
0.000000000
 11
186.000000050
 21
100.000000000
 31
0.000000000
  0
LINE
  5
B07
330
A02
100
AcDbEntity
  8
ProjItem002
100
AcDbLine
 10
202.000000050
 20
101.000000000
 30
0.000000000
 11
186.000000050
 21
101.000000000
 31
0.000000000
  0
LINE
  5
B08
330
A02
100
AcDbEntity
  8
ProjItem002
100
AcDbLine
 10
185.100000050
 20
101.000000000
 30
0.000000000
 11
186.000000050
 21
101.000000000
 31
0.000000000
  0
LINE
  5
B09
330
A02
100
AcDbEntity
  8
ProjItem002
100
AcDbLine
 10
202.000000050
 20
101.000000000
 30
0.000000000
 11
202.900000050
 21
101.000000000
 31
0.000000000
  0
LINE
  5
B0A
330
A02
100
AcDbEntity
  8
ProjItem002
100
AcDbLine
 10
202.900000050
 20
101.000000000
 30
0.000000000
 11
202.900000050
 21
109.000000000
 31
0.000000000
  0
SPLINE
  5
B0B
330
A02
100
AcDbEntity
  8
ProjItem002
100
AcDbSpline
210
0
220
0
230
1
 70
8
 71
3
 72
41
 73
37
 74
0
 40
0.000000000
 40
0.000000000
 40
0.000000000
 40
0.000000000
 40
0.336599213
 40
0.336599213
 40
0.336599213
 40
0.448798951
 40
0.448798951
 40
0.448798951
 40
0.560998688
 40
0.560998688
 40
0.560998688
 40
0.673198426
 40
0.673198426
 40
0.673198426
 40
0.785398163
 40
0.785398163
 40
0.785398163
 40
0.897597901
 40
0.897597901
 40
0.897597901
 40
1.009797639
 40
1.009797639
 40
1.009797639
 40
1.121997376
 40
1.121997376
 40
1.121997376
 40
1.234197114
 40
1.234197114
 40
1.234197114
 40
1.346396852
 40
1.346396852
 40
1.346396852
 40
1.458596589
 40
1.458596589
 40
1.458596589
 40
1.570796327
 40
1.570796327
 40
1.570796327
 40
1.570796327
 10
202.900000050
 20
109.000000000
 30
0.000000000
 10
202.900000050
 20
109.224696414
 30
0.000000000
 10
202.900000050
 20
109.447286685
 30
0.000000000
 10
202.900000050
 20
109.660558124
 30
0.000000000
 10
202.900000050
 20
109.729627909
 30
0.000000000
 10
202.900000050
 20
109.798697693
 30
0.000000000
 10
202.900000050
 20
109.867767478
 30
0.000000000
 10
202.900000050
 20
109.933199703
 30
0.000000000
 10
202.900000050
 20
109.998631928
 30
0.000000000
 10
202.900000050
 20
110.064064153
 30
0.000000000
 10
202.900000050
 20
110.125035970
 30
0.000000000
 10
202.900000050
 20
110.186007787
 30
0.000000000
 10
202.900000050
 20
110.246979604
 30
0.000000000
 10
202.900000050
 20
110.302724257
 30
0.000000000
 10
202.900000050
 20
110.358468909
 30
0.000000000
 10
202.900000050
 20
110.414213562
 30
0.000000000
 10
202.900000050
 20
110.464030030
 30
0.000000000
 10
202.900000050
 20
110.513846497
 30
0.000000000
 10
202.900000050
 20
110.563662965
 30
0.000000000
 10
202.900000050
 20
110.606924776
 30
0.000000000
 10
202.900000050
 20
110.650186587
 30
0.000000000
 10
202.900000050
 20
110.693448398
 30
0.000000000
 10
202.900000050
 20
110.729611511
 30
0.000000000
 10
202.900000050
 20
110.765774623
 30
0.000000000
 10
202.900000050
 20
110.801937736
 30
0.000000000
 10
202.900000050
 20
110.830547377
 30
0.000000000
 10
202.900000050
 20
110.859157019
 30
0.000000000
 10
202.900000050
 20
110.887766661
 30
0.000000000
 10
202.900000050
 20
110.908463049
 30
0.000000000
 10
202.900000050
 20
110.929159436
 30
0.000000000
 10
202.900000050
 20
110.949855824
 30
0.000000000
 10
202.900000050
 20
110.962378690
 30
0.000000000
 10
202.900000050
 20
110.974901555
 30
0.000000000
 10
202.900000050
 20
110.987424420
 30
0.000000000
 10
202.900000050
 20
110.991616280
 30
0.000000000
 10
202.900000050
 20
110.995808140
 30
0.000000000
 10
202.900000050
 20
111.000000000
 30
0.000000000
  0
LINE
  5
B0C
330
A02
100
AcDbEntity
  8
ProjItem002
100
AcDbLine
 10
185.100000050
 20
110.000000000
 30
0.000000000
 11
202.900000050
 21
110.000000000
 31
0.000000000
  0
SPLINE
  5
B0D
330
A02
100
AcDbEntity
  8
ProjItem002
100
AcDbSpline
210
0
220
0
230
1
 70
8
 71
3
 72
41
 73
37
 74
0
 40
0.000000000
 40
0.000000000
 40
0.000000000
 40
0.000000000
 40
0.336599213
 40
0.336599213
 40
0.336599213
 40
0.448798951
 40
0.448798951
 40
0.448798951
 40
0.560998688
 40
0.560998688
 40
0.560998688
 40
0.673198426
 40
0.673198426
 40
0.673198426
 40
0.785398163
 40
0.785398163
 40
0.785398163
 40
0.897597901
 40
0.897597901
 40
0.897597901
 40
1.009797639
 40
1.009797639
 40
1.009797639
 40
1.121997376
 40
1.121997376
 40
1.121997376
 40
1.234197114
 40
1.234197114
 40
1.234197114
 40
1.346396852
 40
1.346396852
 40
1.346396852
 40
1.458596589
 40
1.458596589
 40
1.458596589
 40
1.570796327
 40
1.570796327
 40
1.570796327
 40
1.570796327
 10
185.100000050
 20
109.000000000
 30
0.000000000
 10
185.100000050
 20
109.224696414
 30
0.000000000
 10
185.100000050
 20
109.447286685
 30
0.000000000
 10
185.100000050
 20
109.660558124
 30
0.000000000
 10
185.100000050
 20
109.729627909
 30
0.000000000
 10
185.100000050
 20
109.798697693
 30
0.000000000
 10
185.100000050
 20
109.867767478
 30
0.000000000
 10
185.100000050
 20
109.933199703
 30
0.000000000
 10
185.100000050
 20
109.998631928
 30
0.000000000
 10
185.100000050
 20
110.064064153
 30
0.000000000
 10
185.100000050
 20
110.125035970
 30
0.000000000
 10
185.100000050
 20
110.186007787
 30
0.000000000
 10
185.100000050
 20
110.246979604
 30
0.000000000
 10
185.100000050
 20
110.302724257
 30
0.000000000
 10
185.100000050
 20
110.358468909
 30
0.000000000
 10
185.100000050
 20
110.414213562
 30
0.000000000
 10
185.100000050
 20
110.464030030
 30
0.000000000
 10
185.100000050
 20
110.513846497
 30
0.000000000
 10
185.100000050
 20
110.563662965
 30
0.000000000
 10
185.100000050
 20
110.606924776
 30
0.000000000
 10
185.100000050
 20
110.650186587
 30
0.000000000
 10
185.100000050
 20
110.693448398
 30
0.000000000
 10
185.100000050
 20
110.729611511
 30
0.000000000
 10
185.100000050
 20
110.765774623
 30
0.000000000
 10
185.100000050
 20
110.801937736
 30
0.000000000
 10
185.100000050
 20
110.830547377
 30
0.000000000
 10
185.100000050
 20
110.859157019
 30
0.000000000
 10
185.100000050
 20
110.887766661
 30
0.000000000
 10
185.100000050
 20
110.908463049
 30
0.000000000
 10
185.100000050
 20
110.929159436
 30
0.000000000
 10
185.100000050
 20
110.949855824
 30
0.000000000
 10
185.100000050
 20
110.962378690
 30
0.000000000
 10
185.100000050
 20
110.974901555
 30
0.000000000
 10
185.100000050
 20
110.987424420
 30
0.000000000
 10
185.100000050
 20
110.991616280
 30
0.000000000
 10
185.100000050
 20
110.995808140
 30
0.000000000
 10
185.100000050
 20
111.000000000
 30
0.000000000
  0
LINE
  5
B0E
330
A02
100
AcDbEntity
  8
ProjItem002
100
AcDbLine
 10
185.100000050
 20
109.000000000
 30
0.000000000
 11
185.100000050
 21
101.000000000
 31
0.000000000
  0
LINE
  5
B0F
330
A02
100
AcDbEntity
  8
ProjItem002
100
AcDbLine
 10
204.000000050
 20
101.000000000
 30
0.000000000
 11
203.000000050
 21
101.000000000
 31
0.000000000
  0
LINE
  5
B10
330
A02
100
AcDbEntity
  8
ProjItem002
100
AcDbLine
 10
204.000000050
 20
109.000000000
 30
0.000000000
 11
203.000000050
 21
109.000000000
 31
0.000000000
  0
LINE
  5
B11
330
A02
100
AcDbEntity
  8
ProjItem002
100
AcDbLine
 10
203.000000050
 20
109.000000000
 30
0.000000000
 11
203.000000050
 21
101.000000000
 31
0.000000000
  0
SPLINE
  5
B12
330
A02
100
AcDbEntity
  8
ProjItem002
100
AcDbSpline
210
0
220
0
230
1
 70
8
 71
3
 72
41
 73
37
 74
0
 40
0.000000000
 40
0.000000000
 40
0.000000000
 40
0.000000000
 40
0.336599213
 40
0.336599213
 40
0.336599213
 40
0.448798951
 40
0.448798951
 40
0.448798951
 40
0.560998688
 40
0.560998688
 40
0.560998688
 40
0.673198426
 40
0.673198426
 40
0.673198426
 40
0.785398163
 40
0.785398163
 40
0.785398163
 40
0.897597901
 40
0.897597901
 40
0.897597901
 40
1.009797639
 40
1.009797639
 40
1.009797639
 40
1.121997376
 40
1.121997376
 40
1.121997376
 40
1.234197114
 40
1.234197114
 40
1.234197114
 40
1.346396852
 40
1.346396852
 40
1.346396852
 40
1.458596589
 40
1.458596589
 40
1.458596589
 40
1.570796327
 40
1.570796327
 40
1.570796327
 40
1.570796327
 10
203.000000050
 20
104.834776000
 30
0.000000000
 10
203.000000050
 20
105.044676717
 30
0.000000000
 10
203.000000050
 20
105.252609975
 30
0.000000000
 10
203.000000050
 20
105.451838023
 30
0.000000000
 10
203.000000050
 20
105.516359735
 30
0.000000000
 10
203.000000050
 20
105.580881447
 30
0.000000000
 10
203.000000050
 20
105.645403159
 30
0.000000000
 10
203.000000050
 20
105.706526836
 30
0.000000000
 10
203.000000050
 20
105.767650512
 30
0.000000000
 10
203.000000050
 20
105.828774189
 30
0.000000000
 10
203.000000050
 20
105.885731164
 30
0.000000000
 10
203.000000050
 20
105.942688139
 30
0.000000000
 10
203.000000050
 20
105.999645114
 30
0.000000000
 10
203.000000050
 20
106.051719121
 30
0.000000000
 10
203.000000050
 20
106.103793128
 30
0.000000000
 10
203.000000050
 20
106.155867135
 30
0.000000000
 10
203.000000050
 20
106.202403313
 30
0.000000000
 10
203.000000050
 20
106.248939490
 30
0.000000000
 10
203.000000050
 20
106.295475668
 30
0.000000000
 10
203.000000050
 20
106.335888797
 30
0.000000000
 10
203.000000050
 20
106.376301926
 30
0.000000000
 10
203.000000050
 20
106.416715055
 30
0.000000000
 10
203.000000050
 20
106.450496917
 30
0.000000000
 10
203.000000050
 20
106.484278779
 30
0.000000000
 10
203.000000050
 20
106.518060641
 30
0.000000000
 10
203.000000050
 20
106.544786409
 30
0.000000000
 10
203.000000050
 20
106.571512177
 30
0.000000000
 10
203.000000050
 20
106.598237945
 30
0.000000000
 10
203.000000050
 20
106.617571528
 30
0.000000000
 10
203.000000050
 20
106.636905110
 30
0.000000000
 10
203.000000050
 20
106.656238693
 30
0.000000000
 10
203.000000050
 20
106.667936959
 30
0.000000000
 10
203.000000050
 20
106.679635225
 30
0.000000000
 10
203.000000050
 20
106.691333490
 30
0.000000000
 10
203.000000050
 20
106.695249327
 30
0.000000000
 10
203.000000050
 20
106.699165163
 30
0.000000000
 10
203.000000050
 20
106.703081000
 30
0.000000000
  0
SPLINE
  5
B13
330
A02
100
AcDbEntity
  8
ProjItem002
100
AcDbSpline
210
0
220
0
230
1
 70
8
 71
1
 72
17
 73
15
 74
0
 40
1.570796327
 40
1.570796327
 40
1.795195802
 40
2.019595277
 40
2.243994753
 40
2.468394228
 40
2.692793703
 40
2.917193178
 40
3.141592654
 40
3.365992129
 40
3.590391604
 40
3.814791079
 40
4.039190555
 40
4.263590030
 40
4.487989505
 40
4.712388980
 40
4.712388980
 10
203.000000050
 20
106.703081000
 30
0.000000000
 10
203.000000050
 20
106.656238693
 30
0.000000000
 10
203.000000050
 20
106.518060641
 30
0.000000000
 10
203.000000050
 20
106.295475668
 30
0.000000000
 10
203.000000050
 20
105.999645114
 30
0.000000000
 10
203.000000050
 20
105.645403159
 30
0.000000000
 10
203.000000050
 20
105.250512974
 30
0.000000000
 10
203.000000050
 20
104.834776000
 30
0.000000000
 10
203.000000050
 20
104.419039026
 30
0.000000000
 10
203.000000050
 20
104.024148841
 30
0.000000000
 10
203.000000050
 20
103.669906886
 30
0.000000000
 10
203.000000050
 20
103.374076332
 30
0.000000000
 10
203.000000050
 20
103.151491359
 30
0.000000000
 10
203.000000050
 20
103.013313307
 30
0.000000000
 10
203.000000050
 20
102.966471000
 30
0.000000000
  0
SPLINE
  5
B14
330
A02
100
AcDbEntity
  8
ProjItem002
100
AcDbSpline
210
0
220
0
230
1
 70
8
 71
2
 72
28
 73
25
 74
0
 40
4.712388980
 40
4.712388980
 40
4.712388980
 40
4.824588718
 40
4.824588718
 40
4.936788456
 40
4.936788456
 40
5.048988193
 40
5.048988193
 40
5.161187931
 40
5.161187931
 40
5.273387669
 40
5.273387669
 40
5.385587406
 40
5.385587406
 40
5.497787144
 40
5.497787144
 40
5.609986881
 40
5.609986881
 40
5.722186619
 40
5.722186619
 40
5.834386357
 40
5.834386357
 40
6.058785832
 40
6.058785832
 40
6.283185307
 40
6.283185307
 40
6.283185307
 10
203.000000050
 20
102.966471000
 30
0.000000000
 10
203.000000050
 20
102.972344755
 30
0.000000000
 10
203.000000050
 20
102.978218510
 30
0.000000000
 10
203.000000050
 20
102.995765908
 30
0.000000000
 10
203.000000050
 20
103.013313307
 30
0.000000000
 10
203.000000050
 20
103.042313681
 30
0.000000000
 10
203.000000050
 20
103.071314055
 30
0.000000000
 10
203.000000050
 20
103.111402707
 30
0.000000000
 10
203.000000050
 20
103.151491359
 30
0.000000000
 10
203.000000050
 20
103.202164152
 30
0.000000000
 10
203.000000050
 20
103.252836945
 30
0.000000000
 10
203.000000050
 20
103.313456639
 30
0.000000000
 10
203.000000050
 20
103.374076332
 30
0.000000000
 10
203.000000050
 20
103.443880599
 30
0.000000000
 10
203.000000050
 20
103.513684865
 30
0.000000000
 10
203.000000050
 20
103.591795875
 30
0.000000000
 10
203.000000050
 20
103.669906886
 30
0.000000000
 10
203.000000050
 20
103.755342349
 30
0.000000000
 10
203.000000050
 20
103.840777811
 30
0.000000000
 10
203.000000050
 20
103.932463326
 30
0.000000000
 10
203.000000050
 20
104.024148841
 30
0.000000000
 10
203.000000050
 20
104.215537952
 30
0.000000000
 10
203.000000050
 20
104.419039026
 30
0.000000000
 10
203.000000050
 20
104.624854538
 30
0.000000000
 10
203.000000050
 20
104.834776000
 30
0.000000000
  0
LINE
  5
B15
330
A02
100
AcDbEntity
  8
ProjItem002
100
AcDbLine
 10
184.000000050
 20
101.000000000
 30
0.000000000
 11
185.000000050
 21
101.000000000
 31
0.000000000
  0
LINE
  5
B16
330
A02
100
AcDbEntity
  8
ProjItem002
100
AcDbLine
 10
184.000000050
 20
109.000000000
 30
0.000000000
 11
185.000000050
 21
109.000000000
 31
0.000000000
  0
LINE
  5
B17
330
A02
100
AcDbEntity
  8
ProjItem002
100
AcDbLine
 10
185.000000050
 20
109.000000000
 30
0.000000000
 11
185.000000050
 21
101.000000000
 31
0.000000000
  0
LINE
  5
B18
330
A02
100
AcDbEntity
  8
ProjItem002
100
AcDbLine
 10
202.000000050
 20
101.000000000
 30
0.000000000
 11
186.000000050
 21
101.000000000
 31
0.000000000
  0
LINE
  5
B19
330
A02
100
AcDbEntity
  8
ProjItem002
100
AcDbLine
 10
185.100000050
 20
101.000000000
 30
0.000000000
 11
186.000000050
 21
101.000000000
 31
0.000000000
  0
LINE
  5
B1A
330
A02
100
AcDbEntity
  8
ProjItem002
100
AcDbLine
 10
202.000000050
 20
101.000000000
 30
0.000000000
 11
202.900000050
 21
101.000000000
 31
0.000000000
  0
LINE
  5
B1B
330
A02
100
AcDbEntity
  8
ProjItem002
100
AcDbLine
 10
202.900000050
 20
101.000000000
 30
0.000000000
 11
202.900000050
 21
109.000000000
 31
0.000000000
  0
LINE
  5
B1C
330
A02
100
AcDbEntity
  8
ProjItem002
100
AcDbLine
 10
202.900000050
 20
109.000000000
 30
0.000000000
 11
185.100000050
 21
109.000000000
 31
0.000000000
  0
LINE
  5
B1D
330
A02
100
AcDbEntity
  8
ProjItem002
100
AcDbLine
 10
185.100000050
 20
109.000000000
 30
0.000000000
 11
185.100000050
 21
101.000000000
 31
0.000000000
  0
LINE
  5
B1E
330
A02
100
AcDbEntity
  8
ProjItem002
100
AcDbLine
 10
202.900000050
 20
109.000000000
 30
0.000000000
 11
185.100000050
 21
109.000000000
 31
0.000000000
  0
LINE
  5
B1F
330
A02
100
AcDbEntity
  8
ProjItem002
100
AcDbLine
 10
202.900000050
 20
111.000000000
 30
0.000000000
 11
185.100000050
 21
111.000000000
 31
0.000000000
  0
SPLINE
  5
B20
330
A02
100
AcDbEntity
  8
ProjItem002
100
AcDbSpline
210
0
220
0
230
1
 70
8
 71
2
 72
30
 73
27
 74
0
 40
0.000000000
 40
0.000000000
 40
0.000000000
 40
0.224399475
 40
0.224399475
 40
0.336599213
 40
0.336599213
 40
0.448798951
 40
0.448798951
 40
0.560998688
 40
0.560998688
 40
0.673198426
 40
0.673198426
 40
0.785398163
 40
0.785398163
 40
0.897597901
 40
0.897597901
 40
1.009797639
 40
1.009797639
 40
1.121997376
 40
1.121997376
 40
1.234197114
 40
1.234197114
 40
1.346396852
 40
1.346396852
 40
1.458596589
 40
1.458596589
 40
1.570796327
 40
1.570796327
 40
1.570796327
 10
194.000000050
 20
111.000000000
 30
0.000000000
 10
193.766678301
 20
111.000000000
 30
0.000000000
 10
193.537920199
 20
111.000000000
 30
0.000000000
 10
193.426036659
 20
111.000000000
 30
0.000000000
 10
193.314153119
 20
111.000000000
 30
0.000000000
 10
193.206582040
 20
111.000000000
 30
0.000000000
 10
193.099010962
 20
111.000000000
 30
0.000000000
 10
192.997105113
 20
111.000000000
 30
0.000000000
 10
192.895199265
 20
111.000000000
 30
0.000000000
 10
192.800240172
 20
111.000000000
 30
0.000000000
 10
192.705281079
 20
111.000000000
 30
0.000000000
 10
192.618462907
 20
111.000000000
 30
0.000000000
 10
192.531644736
 20
111.000000000
 30
0.000000000
 10
192.454059274
 20
111.000000000
 30
0.000000000
 10
192.376473812
 20
111.000000000
 30
0.000000000
 10
192.309096743
 20
111.000000000
 30
0.000000000
 10
192.241719673
 20
111.000000000
 30
0.000000000
 10
192.185398301
 20
111.000000000
 30
0.000000000
 10
192.129076930
 20
111.000000000
 30
0.000000000
 10
192.084519530
 20
111.000000000
 30
0.000000000
 10
192.039962131
 20
111.000000000
 30
0.000000000
 10
192.007729038
 20
111.000000000
 30
0.000000000
 10
191.975495945
 20
111.000000000
 30
0.000000000
 10
191.955992509
 20
111.000000000
 30
0.000000000
 10
191.936489074
 20
111.000000000
 30
0.000000000
 10
191.929960562
 20
111.000000000
 30
0.000000000
 10
191.923432050
 20
111.000000000
 30
0.000000000
  0
SPLINE
  5
B21
330
A02
100
AcDbEntity
  8
ProjItem002
100
AcDbSpline
210
0
220
0
230
1
 70
8
 71
1
 72
17
 73
15
 74
0
 40
1.570796327
 40
1.570796327
 40
1.795195802
 40
2.019595277
 40
2.243994753
 40
2.468394228
 40
2.692793703
 40
2.917193178
 40
3.141592654
 40
3.365992129
 40
3.590391604
 40
3.814791079
 40
4.039190555
 40
4.263590030
 40
4.487989505
 40
4.712388980
 40
4.712388980
 10
191.923432050
 20
111.000000000
 30
0.000000000
 10
191.975495945
 20
111.000000000
 30
0.000000000
 10
192.129076930
 20
111.000000000
 30
0.000000000
 10
192.376473812
 20
111.000000000
 30
0.000000000
 10
192.705281079
 20
111.000000000
 30
0.000000000
 10
193.099010962
 20
111.000000000
 30
0.000000000
 10
193.537920199
 20
111.000000000
 30
0.000000000
 10
194.000000050
 20
111.000000000
 30
0.000000000
 10
194.462079901
 20
111.000000000
 30
0.000000000
 10
194.900989138
 20
111.000000000
 30
0.000000000
 10
195.294719021
 20
111.000000000
 30
0.000000000
 10
195.623526288
 20
111.000000000
 30
0.000000000
 10
195.870923170
 20
111.000000000
 30
0.000000000
 10
196.024504155
 20
111.000000000
 30
0.000000000
 10
196.076568050
 20
111.000000000
 30
0.000000000
  0
SPLINE
  5
B22
330
A02
100
AcDbEntity
  8
ProjItem002
100
AcDbSpline
210
0
220
0
230
1
 70
8
 71
2
 72
30
 73
27
 74
0
 40
4.712388980
 40
4.712388980
 40
4.712388980
 40
4.824588718
 40
4.824588718
 40
4.936788456
 40
4.936788456
 40
5.048988193
 40
5.048988193
 40
5.161187931
 40
5.161187931
 40
5.273387669
 40
5.273387669
 40
5.385587406
 40
5.385587406
 40
5.497787144
 40
5.497787144
 40
5.609986881
 40
5.609986881
 40
5.722186619
 40
5.722186619
 40
5.834386357
 40
5.834386357
 40
5.946586094
 40
5.946586094
 40
6.058785832
 40
6.058785832
 40
6.283185307
 40
6.283185307
 40
6.283185307
 10
196.076568050
 20
111.000000000
 30
0.000000000
 10
196.070039538
 20
111.000000000
 30
0.000000000
 10
196.063511026
 20
111.000000000
 30
0.000000000
 10
196.044007591
 20
111.000000000
 30
0.000000000
 10
196.024504155
 20
111.000000000
 30
0.000000000
 10
195.992271062
 20
111.000000000
 30
0.000000000
 10
195.960037969
 20
111.000000000
 30
0.000000000
 10
195.915480570
 20
111.000000000
 30
0.000000000
 10
195.870923170
 20
111.000000000
 30
0.000000000
 10
195.814601799
 20
111.000000000
 30
0.000000000
 10
195.758280427
 20
111.000000000
 30
0.000000000
 10
195.690903357
 20
111.000000000
 30
0.000000000
 10
195.623526288
 20
111.000000000
 30
0.000000000
 10
195.545940826
 20
111.000000000
 30
0.000000000
 10
195.468355364
 20
111.000000000
 30
0.000000000
 10
195.381537193
 20
111.000000000
 30
0.000000000
 10
195.294719021
 20
111.000000000
 30
0.000000000
 10
195.199759928
 20
111.000000000
 30
0.000000000
 10
195.104800835
 20
111.000000000
 30
0.000000000
 10
195.002894987
 20
111.000000000
 30
0.000000000
 10
194.900989138
 20
111.000000000
 30
0.000000000
 10
194.793418060
 20
111.000000000
 30
0.000000000
 10
194.685846981
 20
111.000000000
 30
0.000000000
 10
194.573963441
 20
111.000000000
 30
0.000000000
 10
194.462079901
 20
111.000000000
 30
0.000000000
 10
194.233321799
 20
111.000000000
 30
0.000000000
 10
194.000000050
 20
111.000000000
 30
0.000000000
  0
SPLINE
  5
B23
330
A02
100
AcDbEntity
  8
ProjItem002
100
AcDbSpline
210
0
220
0
230
1
 70
8
 71
2
 72
30
 73
27
 74
0
 40
0.000000000
 40
0.000000000
 40
0.000000000
 40
0.224399475
 40
0.224399475
 40
0.336599213
 40
0.336599213
 40
0.448798951
 40
0.448798951
 40
0.560998688
 40
0.560998688
 40
0.673198426
 40
0.673198426
 40
0.785398163
 40
0.785398163
 40
0.897597901
 40
0.897597901
 40
1.009797639
 40
1.009797639
 40
1.121997376
 40
1.121997376
 40
1.234197114
 40
1.234197114
 40
1.346396852
 40
1.346396852
 40
1.458596589
 40
1.458596589
 40
1.570796327
 40
1.570796327
 40
1.570796327
 10
194.000000050
 20
110.000000000
 30
0.000000000
 10
193.766678301
 20
110.000000000
 30
0.000000000
 10
193.537920199
 20
110.000000000
 30
0.000000000
 10
193.426036659
 20
110.000000000
 30
0.000000000
 10
193.314153119
 20
110.000000000
 30
0.000000000
 10
193.206582040
 20
110.000000000
 30
0.000000000
 10
193.099010962
 20
110.000000000
 30
0.000000000
 10
192.997105113
 20
110.000000000
 30
0.000000000
 10
192.895199265
 20
110.000000000
 30
0.000000000
 10
192.800240172
 20
110.000000000
 30
0.000000000
 10
192.705281079
 20
110.000000000
 30
0.000000000
 10
192.618462907
 20
110.000000000
 30
0.000000000
 10
192.531644736
 20
110.000000000
 30
0.000000000
 10
192.454059274
 20
110.000000000
 30
0.000000000
 10
192.376473812
 20
110.000000000
 30
0.000000000
 10
192.309096743
 20
110.000000000
 30
0.000000000
 10
192.241719673
 20
110.000000000
 30
0.000000000
 10
192.185398301
 20
110.000000000
 30
0.000000000
 10
192.129076930
 20
110.000000000
 30
0.000000000
 10
192.084519530
 20
110.000000000
 30
0.000000000
 10
192.039962131
 20
110.000000000
 30
0.000000000
 10
192.007729038
 20
110.000000000
 30
0.000000000
 10
191.975495945
 20
110.000000000
 30
0.000000000
 10
191.955992509
 20
110.000000000
 30
0.000000000
 10
191.936489074
 20
110.000000000
 30
0.000000000
 10
191.929960562
 20
110.000000000
 30
0.000000000
 10
191.923432050
 20
110.000000000
 30
0.000000000
  0
SPLINE
  5
B24
330
A02
100
AcDbEntity
  8
ProjItem002
100
AcDbSpline
210
0
220
0
230
1
 70
8
 71
1
 72
17
 73
15
 74
0
 40
1.570796327
 40
1.570796327
 40
1.795195802
 40
2.019595277
 40
2.243994753
 40
2.468394228
 40
2.692793703
 40
2.917193178
 40
3.141592654
 40
3.365992129
 40
3.590391604
 40
3.814791079
 40
4.039190555
 40
4.263590030
 40
4.487989505
 40
4.712388980
 40
4.712388980
 10
191.923432050
 20
110.000000000
 30
0.000000000
 10
191.975495945
 20
110.000000000
 30
0.000000000
 10
192.129076930
 20
110.000000000
 30
0.000000000
 10
192.376473812
 20
110.000000000
 30
0.000000000
 10
192.705281079
 20
110.000000000
 30
0.000000000
 10
193.099010962
 20
110.000000000
 30
0.000000000
 10
193.537920199
 20
110.000000000
 30
0.000000000
 10
194.000000050
 20
110.000000000
 30
0.000000000
 10
194.462079901
 20
110.000000000
 30
0.000000000
 10
194.900989138
 20
110.000000000
 30
0.000000000
 10
195.294719021
 20
110.000000000
 30
0.000000000
 10
195.623526288
 20
110.000000000
 30
0.000000000
 10
195.870923170
 20
110.000000000
 30
0.000000000
 10
196.024504155
 20
110.000000000
 30
0.000000000
 10
196.076568050
 20
110.000000000
 30
0.000000000
  0
SPLINE
  5
B25
330
A02
100
AcDbEntity
  8
ProjItem002
100
AcDbSpline
210
0
220
0
230
1
 70
8
 71
2
 72
30
 73
27
 74
0
 40
4.712388980
 40
4.712388980
 40
4.712388980
 40
4.824588718
 40
4.824588718
 40
4.936788456
 40
4.936788456
 40
5.048988193
 40
5.048988193
 40
5.161187931
 40
5.161187931
 40
5.273387669
 40
5.273387669
 40
5.385587406
 40
5.385587406
 40
5.497787144
 40
5.497787144
 40
5.609986881
 40
5.609986881
 40
5.722186619
 40
5.722186619
 40
5.834386357
 40
5.834386357
 40
5.946586094
 40
5.946586094
 40
6.058785832
 40
6.058785832
 40
6.283185307
 40
6.283185307
 40
6.283185307
 10
196.076568050
 20
110.000000000
 30
0.000000000
 10
196.070039538
 20
110.000000000
 30
0.000000000
 10
196.063511026
 20
110.000000000
 30
0.000000000
 10
196.044007591
 20
110.000000000
 30
0.000000000
 10
196.024504155
 20
110.000000000
 30
0.000000000
 10
195.992271062
 20
110.000000000
 30
0.000000000
 10
195.960037969
 20
110.000000000
 30
0.000000000
 10
195.915480570
 20
110.000000000
 30
0.000000000
 10
195.870923170
 20
110.000000000
 30
0.000000000
 10
195.814601799
 20
110.000000000
 30
0.000000000
 10
195.758280427
 20
110.000000000
 30
0.000000000
 10
195.690903357
 20
110.000000000
 30
0.000000000
 10
195.623526288
 20
110.000000000
 30
0.000000000
 10
195.545940826
 20
110.000000000
 30
0.000000000
 10
195.468355364
 20
110.000000000
 30
0.000000000
 10
195.381537193
 20
110.000000000
 30
0.000000000
 10
195.294719021
 20
110.000000000
 30
0.000000000
 10
195.199759928
 20
110.000000000
 30
0.000000000
 10
195.104800835
 20
110.000000000
 30
0.000000000
 10
195.002894987
 20
110.000000000
 30
0.000000000
 10
194.900989138
 20
110.000000000
 30
0.000000000
 10
194.793418060
 20
110.000000000
 30
0.000000000
 10
194.685846981
 20
110.000000000
 30
0.000000000
 10
194.573963441
 20
110.000000000
 30
0.000000000
 10
194.462079901
 20
110.000000000
 30
0.000000000
 10
194.233321799
 20
110.000000000
 30
0.000000000
 10
194.000000050
 20
110.000000000
 30
0.000000000
  0
LINE
  5
B26
330
A02
100
AcDbEntity
  8
ProjItem002
100
AcDbLine
 10
187.775767050
 20
100.000000000
 30
0.000000000
 11
187.775767050
 21
99.000000000
 31
0.000000000
  0
LINE
  5
B27
330
A02
100
AcDbEntity
  8
ProjItem002
100
AcDbLine
 10
193.775767050
 20
100.000000000
 30
0.000000000
 11
193.775767050
 21
99.000000000
 31
0.000000000
  0
LINE
  5
B28
330
A02
100
AcDbEntity
  8
ProjItem002
100
AcDbLine
 10
203.000000050
 20
102.966471000
 30
0.000000000
 11
204.000000050
 21
102.966471000
 31
0.000000000
  0
LINE
  5
B29
330
A02
100
AcDbEntity
  8
ProjItem002
100
AcDbLine
 10
203.000000050
 20
106.703081000
 30
0.000000000
 11
204.000000050
 21
106.703081000
 31
0.000000000
  0
LINE
  5
B2A
330
A02
100
AcDbEntity
  8
ProjItem002
100
AcDbLine
 10
196.076568050
 20
110.000000000
 30
0.000000000
 11
196.076568050
 21
111.000000000
 31
0.000000000
  0
LINE
  5
B2B
330
A02
100
AcDbEntity
  8
ProjItem002
100
AcDbLine
 10
191.923432050
 20
110.000000000
 30
0.000000000
 11
191.923432050
 21
111.000000000
 31
0.000000000
  0
ENDSEC
  0
SECTION
  2
OBJECTS
  0
DICTIONARY
  5
F000
330
0
100
AcDbDictionary
  3
ACAD_GROUP
350
F001
  0
DICTIONARY
  5
F001
330
F000
100
AcDbDictionary
  0
ENDSEC
  0
EOF