999
FreeCAD v1.0 39285 (Git)
  0
SECTION
  2
HEADER
  9
$ACADVER
  1
AC1014
  9
$ACADMAINTVER
 70
     9
  9
$DWGCODEPAGE
  3
ANSI_1252
  9
$TEXTSTYLE
  7
STANDARD
  9
$DIMSTYLE
  2
STANDARD
  9
$DIMTXSTY
  7
STANDARD
  9
$CMLSTYLE
  2
STANDARD
  9
$LUNITS
 70
2
  9
$INSUNITS
 70
4
  9
$PEXTMAX
 10
50
 20
50
 30
50
  9
$PEXTMIN
 10
0
 20
0
 30
0
  9
$HANDSEED
  5
FFFF
  0
ENDSEC
  0
SECTION
  2
CLASSES
  0
CLASS
  1
ACDBDICTIONARYWDFLT
  2
AcDbDictionaryWithDefault
  3
ObjectDBX Classes
 90
        0
280
     0
281
     0
  0
CLASS
  1
XRECORD
  2
AcDbXrecord
  3
ObjectDBX Classes
 90
        0
280
     0
281
     0
  0
CLASS
  1
LWPOLYLINE
  2
AcDbPolyline
  3
ObjectDBX Classes
 90
        0
280
     0
281
     1
  0
ENDSEC
  0
SECTION
  2
TABLES
  0
TABLE
  2
VPORT
  5
20
330
0
100
AcDbSymbolTable
 70
     1
  0
VPORT
  5
21
330
20
100
AcDbSymbolTableRecord
100
AcDbViewportTableRecord
  2
*ACTIVE
 70
     0
  0
ENDTAB
  0
TABLE
  2
LTYPE
  5
22
330
0
100
AcDbSymbolTable
 70
     1
  0
LTYPE
  5
23
330
21
100
AcDbSymbolTableRecord
100
AcDbLinetypeTableRecord
  2
BYBLOCK
 70
     0
  3

 72
    65
 73
     0
 40
0.0
  0
LTYPE
  5
24
330
21
100
AcDbSymbolTableRecord
100
AcDbLinetypeTableRecord
  2
BYLAYER
 70
     0
  3

 72
    65
 73
     0
 40
0.0
  0
LTYPE
  5
25
330
21
100
AcDbSymbolTableRecord
100
AcDbLinetypeTableRecord
  2
CONTINUOUS
 70
     0
  3
Solid line
 72
    65
 73
     0
 40
0.0
  0
ENDTAB
  0
TABLE
  2
LAYER
  5
A70
330
0
100
AcDbSymbolTable
 70
4
  0
LAYER
  5
A71
330
A70
100
AcDbSymbolTableRecord
100
AcDbLayerTableRecord
  2
0
 70
   0
 62
   7
  6
CONTINUOUS
  0
LAYER
  5
A72
330
A70
100
AcDbSymbolTableRecord
100
AcDbLayerTableRecord
  2
ProjItem
 70
    0
 62
    7
  6
CONTINUOUS
  0
LAYER
  5
A73
330
A70
100
AcDbSymbolTableRecord
100
AcDbLayerTableRecord
  2
ProjItem001
 70
    0
 62
    7
  6
CONTINUOUS
  0
LAYER
  5
A74
330
A70
100
AcDbSymbolTableRecord
100
AcDbLayerTableRecord
  2
ProjItem002
 70
    0
 62
    7
  6
CONTINUOUS
  0
ENDTAB
  0
TABLE
  2
STYLE
  5
70
330
0
100
AcDbSymbolTable
 70
     2
  0
STYLE
  5
71
330
70
100
AcDbSymbolTableRecord
100
AcDbTextStyleTableRecord
  2
STANDARD
 70
     0
 40
0.0
 41
1.0
 50
0.0
 71
     0
 42
2.5
  3
arial.ttf
  4

  0
STYLE
  5
72
330
70
100
AcDbSymbolTableRecord
100
AcDbTextStyleTableRecord
  2
ANNOTATIVE
 70
     0
 40
0.0
 41
1.0
 50
0.0
 71
     0
 42
2.5
  3
arial.ttf
  4

  0
ENDTAB
  0
TABLE
  2
VIEW
  5
73
330
0
100
AcDbSymbolTable
 70
     0
  0
ENDTAB
  0
TABLE
  2
UCS
  5
74
330
0
100
AcDbSymbolTable
 70
     0
  0
ENDTAB
  0
TABLE
  2
APPID
  5
75
330
0
100
AcDbSymbolTable
 70
     2
  0
APPID
  5
76
330
75
100
AcDbSymbolTableRecord
100
AcDbRegAppTableRecord
  2
ACAD
 70
     0
  0
APPID
  5
77
330
75
100
AcDbSymbolTableRecord
100
AcDbRegAppTableRecord
  2
ACADANNOTATIVE
 70
     0
  0
ENDTAB
  0
TABLE
  2
DIMSTYLE
  5
78
330
0
100
AcDbSymbolTable
 70
     2
  0
DIMSTYLE
105
79
330
78
100
AcDbSymbolTableRecord
100
AcDbDimStyleTableRecord
  2
STANDARD
 70
     0
  3

  4

  5

  6

  7

 40
0.0
 41
2.5
 42
0.625
 43
3.75
 44
1.25
 45
0.0
 46
0.0
 47
0.0
 48
0.0
140
2.5
141
2.5
142
0.0
143
0.03937007874016
144
1.0
145
0.0
146
1.0
147
0.625
 71
     0
 72
     0
 73
     0
 74
     0
 75
     0
 76
     0
 77
     1
 78
     8
170
     0
171
     3
172
     1
173
     0
174
     0
175
     0
176
     0
177
     0
178
     0
270
     2
271
     2
272
     2
273
     2
274
     3
340
71
275
     0
280
     0
281
     0
282
     0
283
     0
284
     8
285
     0
286
     0
287
     3
288
     0
  0
ENDTAB
  0
TABLE
  2
BLOCK_RECORD
  5
A01
330
0
100
AcDbSymbolTable
  70
5
  0
BLOCK_RECORD
  5
A02
330
A01
100
AcDbSymbolTableRecord
100
AcDbBlockTableRecord
  2
*MODEL_SPACE
  0
BLOCK_RECORD
  5
A03
330
A01
100
AcDbSymbolTableRecord
100
AcDbBlockTableRecord
  2
*PAPER_SPACE
  0
ENDTAB
  0
ENDSEC
  0
SECTION
  2
BLOCKS
  0
BLOCK
  5
A04
330
A02
100
AcDbEntity
  8
0
100
AcDbBlockBegin
  2
*MODEL_SPACE
 70
   0
 10
0
 20
0
 30
0
  3
*MODEL_SPACE
  1
 
  0
ENDBLK
  5
A05
330
A02
100
AcDbEntity
  8
0
100
AcDbBlockEnd
  0
BLOCK
  5
A06
330
A03
100
AcDbEntity
 67
1
  8
0
100
AcDbBlockBegin
  2
*PAPER_SPACE
 70
   0
 10
0
 20
0
 30
0
  3
*PAPER_SPACE
  1
 
  0
ENDBLK
  5
A07
330
A03
100
AcDbEntity
 67
    1
  8
0
100
AcDbBlockEnd
  0
ENDSEC
  0
SECTION
  2
ENTITIES
  0
LINE
  5
A08
330
A02
100
AcDbEntity
  8
ProjItem
100
AcDbLine
 10
164.000000000
 20
111.000000000
 30
0.000000000
 11
159.000000000
 21
111.000000000
 31
0.000000000
  0
LINE
  5
A09
330
A02
100
AcDbEntity
  8
ProjItem
100
AcDbLine
 10
159.000000000
 20
111.000000000
 30
0.000000000
 11
154.000000000
 21
111.000000000
 31
0.000000000
  0
LINE
  5
A0A
330
A02
100
AcDbEntity
  8
ProjItem
100
AcDbLine
 10
164.000000000
 20
111.000000000
 30
0.000000000
 11
164.000000000
 21
110.000000000
 31
0.000000000
  0
LINE
  5
A0B
330
A02
100
AcDbEntity
  8
ProjItem
100
AcDbLine
 10
159.000000000
 20
111.000000000
 30
0.000000000
 11
159.000000000
 21
110.000000000
 31
0.000000000
  0
LINE
  5
A0C
330
A02
100
AcDbEntity
  8
ProjItem
100
AcDbLine
 10
164.000000000
 20
110.000000000
 30
0.000000000
 11
159.000000000
 21
110.000000000
 31
0.000000000
  0
ARC
  5
A0D
330
A02
100
AcDbEntity
  8
ProjItem
100
AcDbCircle
 10
154.000000000
 20
109.000000000
 30
0.000000000
 40
2.000000000
100
AcDbArc
 50
90.000000000
 51
180.000000000
  0
LINE
  5
A0E
330
A02
100
AcDbEntity
  8
ProjItem
100
AcDbLine
 10
152.000000000
 20
109.000000000
 30
0.000000000
 11
152.000000000
 21
101.000000000
 31
0.000000000
  0
ARC
  5
A0F
330
A02
100
AcDbEntity
  8
ProjItem
100
AcDbCircle
 10
151.000000000
 20
101.000000000
 30
0.000000000
 40
1.000000000
100
AcDbArc
 50
-90.000000000
 51
0.000000000
  0
LINE
  5
A10
330
A02
100
AcDbEntity
  8
ProjItem
100
AcDbLine
 10
133.000000000
 20
100.000000000
 30
0.000000000
 11
151.000000000
 21
100.000000000
 31
0.000000000
  0
LINE
  5
A11
330
A02
100
AcDbEntity
  8
ProjItem
100
AcDbLine
 10
133.000000000
 20
99.000000000
 30
0.000000000
 11
133.000000000
 21
100.000000000
 31
0.000000000
  0
LINE
  5
A12
330
A02
100
AcDbEntity
  8
ProjItem
100
AcDbLine
 10
133.000000000
 20
99.000000000
 30
0.000000000
 11
151.000000000
 21
99.000000000
 31
0.000000000
  0
ARC
  5
A13
330
A02
100
AcDbEntity
  8
ProjItem
100
AcDbCircle
 10
151.000000000
 20
101.000000000
 30
0.000000000
 40
2.000000000
100
AcDbArc
 50
-90.000000000
 51
0.000000000
  0
LINE
  5
A14
330
A02
100
AcDbEntity
  8
ProjItem
100
AcDbLine
 10
153.000000000
 20
109.000000000
 30
0.000000000
 11
153.000000000
 21
101.000000000
 31
0.000000000
  0
ARC
  5
A15
330
A02
100
AcDbEntity
  8
ProjItem
100
AcDbCircle
 10
154.000000000
 20
109.000000000
 30
0.000000000
 40
1.000000000
100
AcDbArc
 50
90.000000000
 51
180.000000000
  0
LINE
  5
A16
330
A02
100
AcDbEntity
  8
ProjItem
100
AcDbLine
 10
159.000000000
 20
110.000000000
 30
0.000000000
 11
154.000000000
 21
110.000000000
 31
0.000000000
  0
LINE
  5
A17
330
A02
100
AcDbEntity
  8
ProjItem
100
AcDbLine
 10
154.000000000
 20
111.000000000
 30
0.000000000
 11
164.000000000
 21
111.000000000
 31
0.000000000
  0
SPLINE
  5
A18
330
A02
100
AcDbEntity
  8
ProjItem
100
AcDbSpline
210
0
220
0
230
1
 70
8
 71
2
 72
30
 73
27
 74
0
 40
0.000000000
 40
0.000000000
 40
0.000000000
 40
0.112199738
 40
0.112199738
 40
0.336599213
 40
0.336599213
 40
0.448798951
 40
0.448798951
 40
0.560998688
 40
0.560998688
 40
0.673198426
 40
0.673198426
 40
0.785398163
 40
0.785398163
 40
0.897597901
 40
0.897597901
 40
1.009797639
 40
1.009797639
 40
1.121997376
 40
1.121997376
 40
1.234197114
 40
1.234197114
 40
1.346396852
 40
1.346396852
 40
1.458596589
 40
1.458596589
 40
1.570796327
 40
1.570796327
 40
1.570796327
 10
158.807903000
 20
111.000000000
 30
0.000000000
 10
158.930393592
 20
111.000000000
 30
0.000000000
 10
159.052884185
 20
111.000000000
 30
0.000000000
 10
159.296501542
 20
111.000000000
 30
0.000000000
 10
159.530562175
 20
111.000000000
 30
0.000000000
 10
159.643907038
 20
111.000000000
 30
0.000000000
 10
159.757251902
 20
111.000000000
 30
0.000000000
 10
159.864627459
 20
111.000000000
 30
0.000000000
 10
159.972003016
 20
111.000000000
 30
0.000000000
 10
160.072058957
 20
111.000000000
 30
0.000000000
 10
160.172114897
 20
111.000000000
 30
0.000000000
 10
160.263592960
 20
111.000000000
 30
0.000000000
 10
160.355071022
 20
111.000000000
 30
0.000000000
 10
160.436820817
 20
111.000000000
 30
0.000000000
 10
160.518570611
 20
111.000000000
 30
0.000000000
 10
160.589564087
 20
111.000000000
 30
0.000000000
 10
160.660557563
 20
111.000000000
 30
0.000000000
 10
160.719901935
 20
111.000000000
 30
0.000000000
 10
160.779246308
 20
111.000000000
 30
0.000000000
 10
160.826195288
 20
111.000000000
 30
0.000000000
 10
160.873144268
 20
111.000000000
 30
0.000000000
 10
160.907107444
 20
111.000000000
 30
0.000000000
 10
160.941070620
 20
111.000000000
 30
0.000000000
 10
160.961620886
 20
111.000000000
 30
0.000000000
 10
160.982171152
 20
111.000000000
 30
0.000000000
 10
160.989050076
 20
111.000000000
 30
0.000000000
 10
160.995929000
 20
111.000000000
 30
0.000000000
  0
SPLINE
  5
A19
330
A02
100
AcDbEntity
  8
ProjItem
100
AcDbSpline
210
0
220
0
230
1
 70
8
 71
1
 72
17
 73
15
 74
0
 40
1.570796327
 40
1.570796327
 40
1.795195802
 40
2.019595277
 40
2.243994753
 40
2.468394228
 40
2.692793703
 40
2.917193178
 40
3.141592654
 40
3.365992129
 40
3.590391604
 40
3.814791079
 40
4.039190555
 40
4.263590030
 40
4.487989505
 40
4.712388980
 40
4.712388980
 10
160.995929000
 20
111.000000000
 30
0.000000000
 10
160.941070620
 20
111.000000000
 30
0.000000000
 10
160.779246308
 20
111.000000000
 30
0.000000000
 10
160.518570611
 20
111.000000000
 30
0.000000000
 10
160.172114897
 20
111.000000000
 30
0.000000000
 10
159.757251902
 20
111.000000000
 30
0.000000000
 10
159.294784589
 20
111.000000000
 30
0.000000000
 10
158.807903000
 20
111.000000000
 30
0.000000000
 10
158.321021411
 20
111.000000000
 30
0.000000000
 10
157.858554098
 20
111.000000000
 30
0.000000000
 10
157.443691103
 20
111.000000000
 30
0.000000000
 10
157.097235389
 20
111.000000000
 30
0.000000000
 10
156.836559692
 20
111.000000000
 30
0.000000000
 10
156.674735380
 20
111.000000000
 30
0.000000000
 10
156.619877000
 20
111.000000000
 30
0.000000000
  0
SPLINE
  5
A1A
330
A02
100
AcDbEntity
  8
ProjItem
100
AcDbSpline
210
0
220
0
230
1
 70
8
 71
2
 72
30
 73
27
 74
0
 40
4.712388980
 40
4.712388980
 40
4.712388980
 40
4.824588718
 40
4.824588718
 40
4.936788456
 40
4.936788456
 40
5.048988193
 40
5.048988193
 40
5.161187931
 40
5.161187931
 40
5.273387669
 40
5.273387669
 40
5.385587406
 40
5.385587406
 40
5.497787144
 40
5.497787144
 40
5.609986881
 40
5.609986881
 40
5.722186619
 40
5.722186619
 40
5.834386357
 40
5.834386357
 40
5.946586094
 40
5.946586094
 40
6.058785832
 40
6.058785832
 40
6.283185307
 40
6.283185307
 40
6.283185307
 10
156.619877000
 20
111.000000000
 30
0.000000000
 10
156.626755924
 20
111.000000000
 30
0.000000000
 10
156.633634848
 20
111.000000000
 30
0.000000000
 10
156.654185114
 20
111.000000000
 30
0.000000000
 10
156.674735380
 20
111.000000000
 30
0.000000000
 10
156.708698556
 20
111.000000000
 30
0.000000000
 10
156.742661732
 20
111.000000000
 30
0.000000000
 10
156.789610712
 20
111.000000000
 30
0.000000000
 10
156.836559692
 20
111.000000000
 30
0.000000000
 10
156.895904065
 20
111.000000000
 30
0.000000000
 10
156.955248437
 20
111.000000000
 30
0.000000000
 10
157.026241913
 20
111.000000000
 30
0.000000000
 10
157.097235389
 20
111.000000000
 30
0.000000000
 10
157.178985183
 20
111.000000000
 30
0.000000000
 10
157.260734978
 20
111.000000000
 30
0.000000000
 10
157.352213040
 20
111.000000000
 30
0.000000000
 10
157.443691103
 20
111.000000000
 30
0.000000000
 10
157.543747043
 20
111.000000000
 30
0.000000000
 10
157.643802984
 20
111.000000000
 30
0.000000000
 10
157.751178541
 20
111.000000000
 30
0.000000000
 10
157.858554098
 20
111.000000000
 30
0.000000000
 10
157.971898962
 20
111.000000000
 30
0.000000000
 10
158.085243825
 20
111.000000000
 30
0.000000000
 10
158.203132618
 20
111.000000000
 30
0.000000000
 10
158.321021411
 20
111.000000000
 30
0.000000000
 10
158.562057907
 20
111.000000000
 30
0.000000000
 10
158.807903000
 20
111.000000000
 30
0.000000000
  0
LINE
  5
A1B
330
A02
100
AcDbEntity
  8
ProjItem
100
AcDbLine
 10
164.000000000
 20
111.000000000
 30
0.000000000
 11
164.000000000
 21
110.000000000
 31
0.000000000
  0
LINE
  5
A1C
330
A02
100
AcDbEntity
  8
ProjItem
100
AcDbLine
 10
154.000000000
 20
110.000000000
 30
0.000000000
 11
164.000000000
 21
110.000000000
 31
0.000000000
  0
ARC
  5
A1D
330
A02
100
AcDbEntity
  8
ProjItem
100
AcDbCircle
 10
154.000000000
 20
109.000000000
 30
0.000000000
 40
1.000000000
100
AcDbArc
 50
90.000000000
 51
180.000000000
  0
LINE
  5
A1E
330
A02
100
AcDbEntity
  8
ProjItem
100
AcDbLine
 10
153.000000000
 20
101.000000000
 30
0.000000000
 11
153.000000000
 21
109.000000000
 31
0.000000000
  0
ARC
  5
A1F
330
A02
100
AcDbEntity
  8
ProjItem
100
AcDbCircle
 10
151.000000000
 20
101.000000000
 30
0.000000000
 40
2.000000000
100
AcDbArc
 50
-90.000000000
 51
0.000000000
  0
LINE
  5
A20
330
A02
100
AcDbEntity
  8
ProjItem
100
AcDbLine
 10
133.000000000
 20
99.000000000
 30
0.000000000
 11
151.000000000
 21
99.000000000
 31
0.000000000
  0
LINE
  5
A21
330
A02
100
AcDbEntity
  8
ProjItem
100
AcDbLine
 10
133.000000000
 20
99.000000000
 30
0.000000000
 11
133.000000000
 21
100.000000000
 31
0.000000000
  0
LINE
  5
A22
330
A02
100
AcDbEntity
  8
ProjItem
100
AcDbLine
 10
133.000000000
 20
100.000000000
 30
0.000000000
 11
151.000000000
 21
100.000000000
 31
0.000000000
  0
ARC
  5
A23
330
A02
100
AcDbEntity
  8
ProjItem
100
AcDbCircle
 10
151.000000000
 20
101.000000000
 30
0.000000000
 40
1.000000000
100
AcDbArc
 50
-90.000000000
 51
0.000000000
  0
LINE
  5
A24
330
A02
100
AcDbEntity
  8
ProjItem
100
AcDbLine
 10
152.000000000
 20
101.000000000
 30
0.000000000
 11
152.000000000
 21
109.000000000
 31
0.000000000
  0
ARC
  5
A25
330
A02
100
AcDbEntity
  8
ProjItem
100
AcDbCircle
 10
154.000000000
 20
109.000000000
 30
0.000000000
 40
2.000000000
100
AcDbArc
 50
90.000000000
 51
180.000000000
  0
SPLINE
  5
A26
330
A02
100
AcDbEntity
  8
ProjItem
100
AcDbSpline
210
0
220
0
230
1
 70
8
 71
2
 72
30
 73
27
 74
0
 40
0.000000000
 40
0.000000000
 40
0.000000000
 40
0.112199738
 40
0.112199738
 40
0.336599213
 40
0.336599213
 40
0.448798951
 40
0.448798951
 40
0.560998688
 40
0.560998688
 40
0.673198426
 40
0.673198426
 40
0.785398163
 40
0.785398163
 40
0.897597901
 40
0.897597901
 40
1.009797639
 40
1.009797639
 40
1.121997376
 40
1.121997376
 40
1.234197114
 40
1.234197114
 40
1.346396852
 40
1.346396852
 40
1.458596589
 40
1.458596589
 40
1.570796327
 40
1.570796327
 40
1.570796327
 10
158.807903000
 20
110.000000000
 30
0.000000000
 10
158.930393592
 20
110.000000000
 30
0.000000000
 10
159.052884185
 20
110.000000000
 30
0.000000000
 10
159.296501542
 20
110.000000000
 30
0.000000000
 10
159.530562175
 20
110.000000000
 30
0.000000000
 10
159.643907038
 20
110.000000000
 30
0.000000000
 10
159.757251902
 20
110.000000000
 30
0.000000000
 10
159.864627459
 20
110.000000000
 30
0.000000000
 10
159.972003016
 20
110.000000000
 30
0.000000000
 10
160.072058957
 20
110.000000000
 30
0.000000000
 10
160.172114897
 20
110.000000000
 30
0.000000000
 10
160.263592960
 20
110.000000000
 30
0.000000000
 10
160.355071022
 20
110.000000000
 30
0.000000000
 10
160.436820817
 20
110.000000000
 30
0.000000000
 10
160.518570611
 20
110.000000000
 30
0.000000000
 10
160.589564087
 20
110.000000000
 30
0.000000000
 10
160.660557563
 20
110.000000000
 30
0.000000000
 10
160.719901935
 20
110.000000000
 30
0.000000000
 10
160.779246308
 20
110.000000000
 30
0.000000000
 10
160.826195288
 20
110.000000000
 30
0.000000000
 10
160.873144268
 20
110.000000000
 30
0.000000000
 10
160.907107444
 20
110.000000000
 30
0.000000000
 10
160.941070620
 20
110.000000000
 30
0.000000000
 10
160.961620886
 20
110.000000000
 30
0.000000000
 10
160.982171152
 20
110.000000000
 30
0.000000000
 10
160.989050076
 20
110.000000000
 30
0.000000000
 10
160.995929000
 20
110.000000000
 30
0.000000000
  0
SPLINE
  5
A27
330
A02
100
AcDbEntity
  8
ProjItem
100
AcDbSpline
210
0
220
0
230
1
 70
8
 71
1
 72
17
 73
15
 74
0
 40
1.570796327
 40
1.570796327
 40
1.795195802
 40
2.019595277
 40
2.243994753
 40
2.468394228
 40
2.692793703
 40
2.917193178
 40
3.141592654
 40
3.365992129
 40
3.590391604
 40
3.814791079
 40
4.039190555
 40
4.263590030
 40
4.487989505
 40
4.712388980
 40
4.712388980
 10
160.995929000
 20
110.000000000
 30
0.000000000
 10
160.941070620
 20
110.000000000
 30
0.000000000
 10
160.779246308
 20
110.000000000
 30
0.000000000
 10
160.518570611
 20
110.000000000
 30
0.000000000
 10
160.172114897
 20
110.000000000
 30
0.000000000
 10
159.757251902
 20
110.000000000
 30
0.000000000
 10
159.294784589
 20
110.000000000
 30
0.000000000
 10
158.807903000
 20
110.000000000
 30
0.000000000
 10
158.321021411
 20
110.000000000
 30
0.000000000
 10
157.858554098
 20
110.000000000
 30
0.000000000
 10
157.443691103
 20
110.000000000
 30
0.000000000
 10
157.097235389
 20
110.000000000
 30
0.000000000
 10
156.836559692
 20
110.000000000
 30
0.000000000
 10
156.674735380
 20
110.000000000
 30
0.000000000
 10
156.619877000
 20
110.000000000
 30
0.000000000
  0
SPLINE
  5
A28
330
A02
100
AcDbEntity
  8
ProjItem
100
AcDbSpline
210
0
220
0
230
1
 70
8
 71
2
 72
30
 73
27
 74
0
 40
4.712388980
 40
4.712388980
 40
4.712388980
 40
4.824588718
 40
4.824588718
 40
4.936788456
 40
4.936788456
 40
5.048988193
 40
5.048988193
 40
5.161187931
 40
5.161187931
 40
5.273387669
 40
5.273387669
 40
5.385587406
 40
5.385587406
 40
5.497787144
 40
5.497787144
 40
5.609986881
 40
5.609986881
 40
5.722186619
 40
5.722186619
 40
5.834386357
 40
5.834386357
 40
5.946586094
 40
5.946586094
 40
6.058785832
 40
6.058785832
 40
6.283185307
 40
6.283185307
 40
6.283185307
 10
156.619877000
 20
110.000000000
 30
0.000000000
 10
156.626755924
 20
110.000000000
 30
0.000000000
 10
156.633634848
 20
110.000000000
 30
0.000000000
 10
156.654185114
 20
110.000000000
 30
0.000000000
 10
156.674735380
 20
110.000000000
 30
0.000000000
 10
156.708698556
 20
110.000000000
 30
0.000000000
 10
156.742661732
 20
110.000000000
 30
0.000000000
 10
156.789610712
 20
110.000000000
 30
0.000000000
 10
156.836559692
 20
110.000000000
 30
0.000000000
 10
156.895904065
 20
110.000000000
 30
0.000000000
 10
156.955248437
 20
110.000000000
 30
0.000000000
 10
157.026241913
 20
110.000000000
 30
0.000000000
 10
157.097235389
 20
110.000000000
 30
0.000000000
 10
157.178985183
 20
110.000000000
 30
0.000000000
 10
157.260734978
 20
110.000000000
 30
0.000000000
 10
157.352213040
 20
110.000000000
 30
0.000000000
 10
157.443691103
 20
110.000000000
 30
0.000000000
 10
157.543747043
 20
110.000000000
 30
0.000000000
 10
157.643802984
 20
110.000000000
 30
0.000000000
 10
157.751178541
 20
110.000000000
 30
0.000000000
 10
157.858554098
 20
110.000000000
 30
0.000000000
 10
157.971898962
 20
110.000000000
 30
0.000000000
 10
158.085243825
 20
110.000000000
 30
0.000000000
 10
158.203132618
 20
110.000000000
 30
0.000000000
 10
158.321021411
 20
110.000000000
 30
0.000000000
 10
158.562057907
 20
110.000000000
 30
0.000000000
 10
158.807903000
 20
110.000000000
 30
0.000000000
  0
LINE
  5
A29
330
A02
100
AcDbEntity
  8
ProjItem
100
AcDbLine
 10
160.995929000
 20
110.000000000
 30
0.000000000
 11
160.995929000
 21
111.000000000
 31
0.000000000
  0
LINE
  5
A2A
330
A02
100
AcDbEntity
  8
ProjItem
100
AcDbLine
 10
156.619877000
 20
110.000000000
 30
0.000000000
 11
156.619877000
 21
111.000000000
 31
0.000000000
  0
LINE
  5
A2B
330
A02
100
AcDbEntity
  8
ProjItem001
100
AcDbLine
 10
209.000000100
 20
111.000000000
 30
0.000000000
 11
179.000000100
 21
111.000000000
 31
0.000000000
  0
LINE
  5
A2C
330
A02
100
AcDbEntity
  8
ProjItem001
100
AcDbLine
 10
179.000000100
 20
99.000000000
 30
0.000000000
 11
179.000000100
 21
100.000000000
 31
0.000000000
  0
SPLINE
  5
A2D
330
A02
100
AcDbEntity
  8
ProjItem001
100
AcDbSpline
210
0
220
0
230
1
 70
8
 71
3
 72
35
 73
31
 74
0
 40
0.000000000
 40
0.000000000
 40
0.000000000
 40
0.000000000
 40
0.112199738
 40
0.112199738
 40
0.112199738
 40
0.224399475
 40
0.224399475
 40
0.224399475
 40
0.336599213
 40
0.336599213
 40
0.336599213
 40
0.448798951
 40
0.448798951
 40
0.448798951
 40
0.560998688
 40
0.560998688
 40
0.560998688
 40
0.673198426
 40
0.673198426
 40
0.673198426
 40
0.785398163
 40
0.785398163
 40
0.785398163
 40
1.009797639
 40
1.009797639
 40
1.009797639
 40
1.121997376
 40
1.121997376
 40
1.121997376
 40
1.570796327
 40
1.570796327
 40
1.570796327
 40
1.570796327
 10
179.000000100
 20
100.000000000
 30
0.000000000
 10
179.000000100
 20
100.002095930
 30
0.000000000
 10
179.000000100
 20
100.004191860
 30
0.000000000
 10
179.000000100
 20
100.006287790
 30
0.000000000
 10
179.000000100
 20
100.012549223
 30
0.000000000
 10
179.000000100
 20
100.018810655
 30
0.000000000
 10
179.000000100
 20
100.025072088
 30
0.000000000
 10
179.000000100
 20
100.035420282
 30
0.000000000
 10
179.000000100
 20
100.045768476
 30
0.000000000
 10
179.000000100
 20
100.056116670
 30
0.000000000
 10
179.000000100
 20
100.070421490
 30
0.000000000
 10
179.000000100
 20
100.084726311
 30
0.000000000
 10
179.000000100
 20
100.099031132
 30
0.000000000
 10
179.000000100
 20
100.117112688
 30
0.000000000
 10
179.000000100
 20
100.135194245
 30
0.000000000
 10
179.000000100
 20
100.153275801
 30
0.000000000
 10
179.000000100
 20
100.174906706
 30
0.000000000
 10
179.000000100
 20
100.196537612
 30
0.000000000
 10
179.000000100
 20
100.218168518
 30
0.000000000
 10
179.000000100
 20
100.243076751
 30
0.000000000
 10
179.000000100
 20
100.267984985
 30
0.000000000
 10
179.000000100
 20
100.292893219
 30
0.000000000
 10
179.000000100
 20
100.347172077
 30
0.000000000
 10
179.000000100
 20
100.405530312
 30
0.000000000
 10
179.000000100
 20
100.467967923
 30
0.000000000
 10
179.000000100
 20
100.500684036
 30
0.000000000
 10
179.000000100
 20
100.533400148
 30
0.000000000
 10
179.000000100
 20
100.566116261
 30
0.000000000
 10
179.000000100
 20
100.701836753
 30
0.000000000
 10
179.000000100
 20
100.850207115
 30
0.000000000
 10
179.000000100
 20
101.000000000
 30
0.000000000
  0
LINE
  5
A2E
330
A02
100
AcDbEntity
  8
ProjItem001
100
AcDbLine
 10
179.000000100
 20
101.000000000
 30
0.000000000
 11
179.000000100
 21
109.000000000
 31
0.000000000
  0
SPLINE
  5
A2F
330
A02
100
AcDbEntity
  8
ProjItem001
100
AcDbSpline
210
0
220
0
230
1
 70
8
 71
3
 72
41
 73
37
 74
0
 40
0.000000000
 40
0.000000000
 40
0.000000000
 40
0.000000000
 40
0.336599213
 40
0.336599213
 40
0.336599213
 40
0.448798951
 40
0.448798951
 40
0.448798951
 40
0.560998688
 40
0.560998688
 40
0.560998688
 40
0.673198426
 40
0.673198426
 40
0.673198426
 40
0.785398163
 40
0.785398163
 40
0.785398163
 40
0.897597901
 40
0.897597901
 40
0.897597901
 40
1.009797639
 40
1.009797639
 40
1.009797639
 40
1.121997376
 40
1.121997376
 40
1.121997376
 40
1.234197114
 40
1.234197114
 40
1.234197114
 40
1.346396852
 40
1.346396852
 40
1.346396852
 40
1.458596589
 40
1.458596589
 40
1.458596589
 40
1.570796327
 40
1.570796327
 40
1.570796327
 40
1.570796327
 10
179.000000100
 20
109.000000000
 30
0.000000000
 10
179.000000100
 20
109.224696414
 30
0.000000000
 10
179.000000100
 20
109.447286685
 30
0.000000000
 10
179.000000100
 20
109.660558124
 30
0.000000000
 10
179.000000100
 20
109.729627909
 30
0.000000000
 10
179.000000100
 20
109.798697693
 30
0.000000000
 10
179.000000100
 20
109.867767478
 30
0.000000000
 10
179.000000100
 20
109.933199703
 30
0.000000000
 10
179.000000100
 20
109.998631928
 30
0.000000000
 10
179.000000100
 20
110.064064153
 30
0.000000000
 10
179.000000100
 20
110.125035970
 30
0.000000000
 10
179.000000100
 20
110.186007787
 30
0.000000000
 10
179.000000100
 20
110.246979604
 30
0.000000000
 10
179.000000100
 20
110.302724257
 30
0.000000000
 10
179.000000100
 20
110.358468909
 30
0.000000000
 10
179.000000100
 20
110.414213562
 30
0.000000000
 10
179.000000100
 20
110.464030030
 30
0.000000000
 10
179.000000100
 20
110.513846497
 30
0.000000000
 10
179.000000100
 20
110.563662965
 30
0.000000000
 10
179.000000100
 20
110.606924776
 30
0.000000000
 10
179.000000100
 20
110.650186587
 30
0.000000000
 10
179.000000100
 20
110.693448398
 30
0.000000000
 10
179.000000100
 20
110.729611511
 30
0.000000000
 10
179.000000100
 20
110.765774623
 30
0.000000000
 10
179.000000100
 20
110.801937736
 30
0.000000000
 10
179.000000100
 20
110.830547377
 30
0.000000000
 10
179.000000100
 20
110.859157019
 30
0.000000000
 10
179.000000100
 20
110.887766661
 30
0.000000000
 10
179.000000100
 20
110.908463049
 30
0.000000000
 10
179.000000100
 20
110.929159436
 30
0.000000000
 10
179.000000100
 20
110.949855824
 30
0.000000000
 10
179.000000100
 20
110.962378690
 30
0.000000000
 10
179.000000100
 20
110.974901555
 30
0.000000000
 10
179.000000100
 20
110.987424420
 30
0.000000000
 10
179.000000100
 20
110.991616280
 30
0.000000000
 10
179.000000100
 20
110.995808140
 30
0.000000000
 10
179.000000100
 20
111.000000000
 30
0.000000000
  0
SPLINE
  5
A30
330
A02
100
AcDbEntity
  8
ProjItem001
100
AcDbSpline
210
0
220
0
230
1
 70
8
 71
3
 72
41
 73
37
 74
0
 40
0.000000000
 40
0.000000000
 40
0.000000000
 40
0.000000000
 40
0.336599213
 40
0.336599213
 40
0.336599213
 40
0.448798951
 40
0.448798951
 40
0.448798951
 40
0.560998688
 40
0.560998688
 40
0.560998688
 40
0.673198426
 40
0.673198426
 40
0.673198426
 40
0.785398163
 40
0.785398163
 40
0.785398163
 40
0.897597901
 40
0.897597901
 40
0.897597901
 40
1.009797639
 40
1.009797639
 40
1.009797639
 40
1.121997376
 40
1.121997376
 40
1.121997376
 40
1.234197114
 40
1.234197114
 40
1.234197114
 40
1.346396852
 40
1.346396852
 40
1.346396852
 40
1.458596589
 40
1.458596589
 40
1.458596589
 40
1.570796327
 40
1.570796327
 40
1.570796327
 40
1.570796327
 10
209.000000100
 20
109.000000000
 30
0.000000000
 10
209.000000100
 20
109.224696414
 30
0.000000000
 10
209.000000100
 20
109.447286685
 30
0.000000000
 10
209.000000100
 20
109.660558124
 30
0.000000000
 10
209.000000100
 20
109.729627909
 30
0.000000000
 10
209.000000100
 20
109.798697693
 30
0.000000000
 10
209.000000100
 20
109.867767478
 30
0.000000000
 10
209.000000100
 20
109.933199703
 30
0.000000000
 10
209.000000100
 20
109.998631928
 30
0.000000000
 10
209.000000100
 20
110.064064153
 30
0.000000000
 10
209.000000100
 20
110.125035970
 30
0.000000000
 10
209.000000100
 20
110.186007787
 30
0.000000000
 10
209.000000100
 20
110.246979604
 30
0.000000000
 10
209.000000100
 20
110.302724257
 30
0.000000000
 10
209.000000100
 20
110.358468909
 30
0.000000000
 10
209.000000100
 20
110.414213562
 30
0.000000000
 10
209.000000100
 20
110.464030030
 30
0.000000000
 10
209.000000100
 20
110.513846497
 30
0.000000000
 10
209.000000100
 20
110.563662965
 30
0.000000000
 10
209.000000100
 20
110.606924776
 30
0.000000000
 10
209.000000100
 20
110.650186587
 30
0.000000000
 10
209.000000100
 20
110.693448398
 30
0.000000000
 10
209.000000100
 20
110.729611511
 30
0.000000000
 10
209.000000100
 20
110.765774623
 30
0.000000000
 10
209.000000100
 20
110.801937736
 30
0.000000000
 10
209.000000100
 20
110.830547377
 30
0.000000000
 10
209.000000100
 20
110.859157019
 30
0.000000000
 10
209.000000100
 20
110.887766661
 30
0.000000000
 10
209.000000100
 20
110.908463049
 30
0.000000000
 10
209.000000100
 20
110.929159436
 30
0.000000000
 10
209.000000100
 20
110.949855824
 30
0.000000000
 10
209.000000100
 20
110.962378690
 30
0.000000000
 10
209.000000100
 20
110.974901555
 30
0.000000000
 10
209.000000100
 20
110.987424420
 30
0.000000000
 10
209.000000100
 20
110.991616280
 30
0.000000000
 10
209.000000100
 20
110.995808140
 30
0.000000000
 10
209.000000100
 20
111.000000000
 30
0.000000000
  0
LINE
  5
A31
330
A02
100
AcDbEntity
  8
ProjItem001
100
AcDbLine
 10
209.000000100
 20
109.000000000
 30
0.000000000
 11
209.000000100
 21
101.000000000
 31
0.000000000
  0
SPLINE
  5
A32
330
A02
100
AcDbEntity
  8
ProjItem001
100
AcDbSpline
210
0
220
0
230
1
 70
8
 71
3
 72
35
 73
31
 74
0
 40
0.000000000
 40
0.000000000
 40
0.000000000
 40
0.000000000
 40
0.112199738
 40
0.112199738
 40
0.112199738
 40
0.224399475
 40
0.224399475
 40
0.224399475
 40
0.336599213
 40
0.336599213
 40
0.336599213
 40
0.448798951
 40
0.448798951
 40
0.448798951
 40
0.560998688
 40
0.560998688
 40
0.560998688
 40
0.673198426
 40
0.673198426
 40
0.673198426
 40
0.785398163
 40
0.785398163
 40
0.785398163
 40
1.009797639
 40
1.009797639
 40
1.009797639
 40
1.121997376
 40
1.121997376
 40
1.121997376
 40
1.570796327
 40
1.570796327
 40
1.570796327
 40
1.570796327
 10
209.000000100
 20
100.000000000
 30
0.000000000
 10
209.000000100
 20
100.002095930
 30
0.000000000
 10
209.000000100
 20
100.004191860
 30
0.000000000
 10
209.000000100
 20
100.006287790
 30
0.000000000
 10
209.000000100
 20
100.012549223
 30
0.000000000
 10
209.000000100
 20
100.018810655
 30
0.000000000
 10
209.000000100
 20
100.025072088
 30
0.000000000
 10
209.000000100
 20
100.035420282
 30
0.000000000
 10
209.000000100
 20
100.045768476
 30
0.000000000
 10
209.000000100
 20
100.056116670
 30
0.000000000
 10
209.000000100
 20
100.070421490
 30
0.000000000
 10
209.000000100
 20
100.084726311
 30
0.000000000
 10
209.000000100
 20
100.099031132
 30
0.000000000
 10
209.000000100
 20
100.117112688
 30
0.000000000
 10
209.000000100
 20
100.135194245
 30
0.000000000
 10
209.000000100
 20
100.153275801
 30
0.000000000
 10
209.000000100
 20
100.174906706
 30
0.000000000
 10
209.000000100
 20
100.196537612
 30
0.000000000
 10
209.000000100
 20
100.218168518
 30
0.000000000
 10
209.000000100
 20
100.243076751
 30
0.000000000
 10
209.000000100
 20
100.267984985
 30
0.000000000
 10
209.000000100
 20
100.292893219
 30
0.000000000
 10
209.000000100
 20
100.347172077
 30
0.000000000
 10
209.000000100
 20
100.405530312
 30
0.000000000
 10
209.000000100
 20
100.467967923
 30
0.000000000
 10
209.000000100
 20
100.500684036
 30
0.000000000
 10
209.000000100
 20
100.533400148
 30
0.000000000
 10
209.000000100
 20
100.566116261
 30
0.000000000
 10
209.000000100
 20
100.701836753
 30
0.000000000
 10
209.000000100
 20
100.850207115
 30
0.000000000
 10
209.000000100
 20
101.000000000
 30
0.000000000
  0
LINE
  5
A33
330
A02
100
AcDbEntity
  8
ProjItem001
100
AcDbLine
 10
209.000000100
 20
99.000000000
 30
0.000000000
 11
209.000000100
 21
100.000000000
 31
0.000000000
  0
LINE
  5
A34
330
A02
100
AcDbEntity
  8
ProjItem001
100
AcDbLine
 10
179.000000100
 20
109.000000000
 30
0.000000000
 11
209.000000100
 21
109.000000000
 31
0.000000000
  0
LINE
  5
A35
330
A02
100
AcDbEntity
  8
ProjItem001
100
AcDbLine
 10
179.000000100
 20
99.000000000
 30
0.000000000
 11
209.000000100
 21
99.000000000
 31
0.000000000
  0
LINE
  5
A36
330
A02
100
AcDbEntity
  8
ProjItem001
100
AcDbLine
 10
179.000000100
 20
100.000000000
 30
0.000000000
 11
209.000000100
 21
100.000000000
 31
0.000000000
  0
LINE
  5
A37
330
A02
100
AcDbEntity
  8
ProjItem001
100
AcDbLine
 10
179.000000100
 20
101.000000000
 30
0.000000000
 11
209.000000100
 21
101.000000000
 31
0.000000000
  0
LINE
  5
A38
330
A02
100
AcDbEntity
  8
ProjItem001
100
AcDbLine
 10
179.000000100
 20
111.000000000
 30
0.000000000
 11
204.000000100
 21
111.000000000
 31
0.000000000
  0
LINE
  5
A39
330
A02
100
AcDbEntity
  8
ProjItem001
100
AcDbLine
 10
204.000000100
 20
111.000000000
 30
0.000000000
 11
209.000000100
 21
111.000000000
 31
0.000000000
  0
SPLINE
  5
A3A
330
A02
100
AcDbEntity
  8
ProjItem001
100
AcDbSpline
210
0
220
0
230
1
 70
8
 71
1
 72
17
 73
15
 74
0
 40
0.000000000
 40
0.000000000
 40
0.224399475
 40
0.448798951
 40
0.673198426
 40
0.897597901
 40
1.121997376
 40
1.346396852
 40
1.570796327
 40
1.795195802
 40
2.019595277
 40
2.243994753
 40
2.468394228
 40
2.692793703
 40
2.917193178
 40
3.141592654
 40
3.141592654
 10
196.188026100
 20
111.000000000
 30
0.000000000
 10
196.133167720
 20
111.000000000
 30
0.000000000
 10
195.971343408
 20
111.000000000
 30
0.000000000
 10
195.710667711
 20
111.000000000
 30
0.000000000
 10
195.364211997
 20
111.000000000
 30
0.000000000
 10
194.949349002
 20
111.000000000
 30
0.000000000
 10
194.486881689
 20
111.000000000
 30
0.000000000
 10
194.000000100
 20
111.000000000
 30
0.000000000
 10
193.513118511
 20
111.000000000
 30
0.000000000
 10
193.050651198
 20
111.000000000
 30
0.000000000
 10
192.635788203
 20
111.000000000
 30
0.000000000
 10
192.289332489
 20
111.000000000
 30
0.000000000
 10
192.028656792
 20
111.000000000
 30
0.000000000
 10
191.866832480
 20
111.000000000
 30
0.000000000
 10
191.811974100
 20
111.000000000
 30
0.000000000
  0
SPLINE
  5
A3B
330
A02
100
AcDbEntity
  8
ProjItem001
100
AcDbSpline
210
0
220
0
230
1
 70
8
 71
1
 72
17
 73
15
 74
0
 40
3.141592654
 40
3.141592654
 40
3.365992129
 40
3.590391604
 40
3.814791079
 40
4.039190555
 40
4.263590030
 40
4.487989505
 40
4.712388980
 40
4.936788456
 40
5.161187931
 40
5.385587406
 40
5.609986881
 40
5.834386357
 40
6.058785832
 40
6.283185307
 40
6.283185307
 10
191.811974100
 20
111.000000000
 30
0.000000000
 10
191.866832480
 20
111.000000000
 30
0.000000000
 10
192.028656792
 20
111.000000000
 30
0.000000000
 10
192.289332489
 20
111.000000000
 30
0.000000000
 10
192.635788203
 20
111.000000000
 30
0.000000000
 10
193.050651198
 20
111.000000000
 30
0.000000000
 10
193.513118511
 20
111.000000000
 30
0.000000000
 10
194.000000100
 20
111.000000000
 30
0.000000000
 10
194.486881689
 20
111.000000000
 30
0.000000000
 10
194.949349002
 20
111.000000000
 30
0.000000000
 10
195.364211997
 20
111.000000000
 30
0.000000000
 10
195.710667711
 20
111.000000000
 30
0.000000000
 10
195.971343408
 20
111.000000000
 30
0.000000000
 10
196.133167720
 20
111.000000000
 30
0.000000000
 10
196.188026100
 20
111.000000000
 30
0.000000000
  0
LINE
  5
A3C
330
A02
100
AcDbEntity
  8
ProjItem001
100
AcDbLine
 10
204.000000100
 20
111.000000000
 30
0.000000000
 11
204.000000100
 21
110.000000000
 31
0.000000000
  0
LINE
  5
A3D
330
A02
100
AcDbEntity
  8
ProjItem001
100
AcDbLine
 10
179.000000100
 20
111.000000000
 30
0.000000000
 11
179.000000100
 21
110.000000000
 31
0.000000000
  0
LINE
  5
A3E
330
A02
100
AcDbEntity
  8
ProjItem001
100
AcDbLine
 10
179.000000100
 20
110.000000000
 30
0.000000000
 11
204.000000100
 21
110.000000000
 31
0.000000000
  0
LINE
  5
A3F
330
A02
100
AcDbEntity
  8
ProjItem001
100
AcDbLine
 10
209.000000100
 20
111.000000000
 30
0.000000000
 11
209.000000100
 21
110.000000000
 31
0.000000000
  0
LINE
  5
A40
330
A02
100
AcDbEntity
  8
ProjItem001
100
AcDbLine
 10
204.000000100
 20
110.000000000
 30
0.000000000
 11
209.000000100
 21
110.000000000
 31
0.000000000
  0
SPLINE
  5
A41
330
A02
100
AcDbEntity
  8
ProjItem001
100
AcDbSpline
210
0
220
0
230
1
 70
8
 71
2
 72
24
 73
21
 74
0
 40
0.000000000
 40
0.000000000
 40
0.000000000
 40
0.336599213
 40
0.336599213
 40
0.560998688
 40
0.560998688
 40
0.785398163
 40
0.785398163
 40
0.897597901
 40
0.897597901
 40
1.009797639
 40
1.009797639
 40
1.121997376
 40
1.121997376
 40
1.234197114
 40
1.234197114
 40
1.346396852
 40
1.346396852
 40
1.458596589
 40
1.458596589
 40
1.570796327
 40
1.570796327
 40
1.570796327
 10
179.000000100
 20
109.000000000
 30
0.000000000
 10
179.000000100
 20
109.169423897
 30
0.000000000
 10
179.000000100
 20
109.330279062
 30
0.000000000
 10
179.000000100
 20
109.435413799
 30
0.000000000
 10
179.000000100
 20
109.532032077
 30
0.000000000
 10
179.000000100
 20
109.625688494
 30
0.000000000
 10
179.000000100
 20
109.707106781
 30
0.000000000
 10
179.000000100
 20
109.744469132
 30
0.000000000
 10
179.000000100
 20
109.781831482
 30
0.000000000
 10
179.000000100
 20
109.814277841
 30
0.000000000
 10
179.000000100
 20
109.846724199
 30
0.000000000
 10
179.000000100
 20
109.873846534
 30
0.000000000
 10
179.000000100
 20
109.900968868
 30
0.000000000
 10
179.000000100
 20
109.922426099
 30
0.000000000
 10
179.000000100
 20
109.943883330
 30
0.000000000
 10
179.000000100
 20
109.959405621
 30
0.000000000
 10
179.000000100
 20
109.974927912
 30
0.000000000
 10
179.000000100
 20
109.984320061
 30
0.000000000
 10
179.000000100
 20
109.993712210
 30
0.000000000
 10
179.000000100
 20
109.996856105
 30
0.000000000
 10
179.000000100
 20
110.000000000
 30
0.000000000
  0
LINE
  5
A42
330
A02
100
AcDbEntity
  8
ProjItem001
100
AcDbLine
 10
179.000000100
 20
101.000000000
 30
0.000000000
 11
179.000000100
 21
109.000000000
 31
0.000000000
  0
SPLINE
  5
A43
330
A02
100
AcDbEntity
  8
ProjItem001
100
AcDbSpline
210
0
220
0
230
1
 70
8
 71
2
 72
30
 73
27
 74
0
 40
0.000000000
 40
0.000000000
 40
0.000000000
 40
0.112199738
 40
0.112199738
 40
0.224399475
 40
0.224399475
 40
0.336599213
 40
0.336599213
 40
0.448798951
 40
0.448798951
 40
0.560998688
 40
0.560998688
 40
0.673198426
 40
0.673198426
 40
0.785398163
 40
0.785398163
 40
0.897597901
 40
0.897597901
 40
1.009797639
 40
1.009797639
 40
1.121997376
 40
1.121997376
 40
1.234197114
 40
1.234197114
 40
1.346396852
 40
1.346396852
 40
1.570796327
 40
1.570796327
 40
1.570796327
 10
179.000000100
 20
99.000000000
 30
0.000000000
 10
179.000000100
 20
99.006287790
 30
0.000000000
 10
179.000000100
 20
99.012575580
 30
0.000000000
 10
179.000000100
 20
99.031359878
 30
0.000000000
 10
179.000000100
 20
99.050144176
 30
0.000000000
 10
179.000000100
 20
99.081188758
 30
0.000000000
 10
179.000000100
 20
99.112233339
 30
0.000000000
 10
179.000000100
 20
99.155147802
 30
0.000000000
 10
179.000000100
 20
99.198062264
 30
0.000000000
 10
179.000000100
 20
99.252306933
 30
0.000000000
 10
179.000000100
 20
99.306551602
 30
0.000000000
 10
179.000000100
 20
99.371444318
 30
0.000000000
 10
179.000000100
 20
99.436337035
 30
0.000000000
 10
179.000000100
 20
99.511061736
 30
0.000000000
 10
179.000000100
 20
99.585786438
 30
0.000000000
 10
179.000000100
 20
99.669403417
 30
0.000000000
 10
179.000000100
 20
99.753020396
 30
0.000000000
 10
179.000000100
 20
99.844478122
 30
0.000000000
 10
179.000000100
 20
99.935935847
 30
0.000000000
 10
179.000000100
 20
100.034084184
 30
0.000000000
 10
179.000000100
 20
100.132232522
 30
0.000000000
 10
179.000000100
 20
100.235837199
 30
0.000000000
 10
179.000000100
 20
100.339441876
 30
0.000000000
 10
179.000000100
 20
100.447200004
 30
0.000000000
 10
179.000000100
 20
100.554958132
 30
0.000000000
 10
179.000000100
 20
100.775281378
 30
0.000000000
 10
179.000000100
 20
101.000000000
 30
0.000000000
  0
SPLINE
  5
A44
330
A02
100
AcDbEntity
  8
ProjItem001
100
AcDbSpline
210
0
220
0
230
1
 70
8
 71
2
 72
30
 73
27
 74
0
 40
0.000000000
 40
0.000000000
 40
0.000000000
 40
0.112199738
 40
0.112199738
 40
0.224399475
 40
0.224399475
 40
0.336599213
 40
0.336599213
 40
0.448798951
 40
0.448798951
 40
0.560998688
 40
0.560998688
 40
0.673198426
 40
0.673198426
 40
0.785398163
 40
0.785398163
 40
0.897597901
 40
0.897597901
 40
1.009797639
 40
1.009797639
 40
1.121997376
 40
1.121997376
 40
1.234197114
 40
1.234197114
 40
1.346396852
 40
1.346396852
 40
1.570796327
 40
1.570796327
 40
1.570796327
 10
209.000000100
 20
99.000000000
 30
0.000000000
 10
209.000000100
 20
99.006287790
 30
0.000000000
 10
209.000000100
 20
99.012575580
 30
0.000000000
 10
209.000000100
 20
99.031359878
 30
0.000000000
 10
209.000000100
 20
99.050144176
 30
0.000000000
 10
209.000000100
 20
99.081188758
 30
0.000000000
 10
209.000000100
 20
99.112233339
 30
0.000000000
 10
209.000000100
 20
99.155147802
 30
0.000000000
 10
209.000000100
 20
99.198062264
 30
0.000000000
 10
209.000000100
 20
99.252306933
 30
0.000000000
 10
209.000000100
 20
99.306551602
 30
0.000000000
 10
209.000000100
 20
99.371444318
 30
0.000000000
 10
209.000000100
 20
99.436337035
 30
0.000000000
 10
209.000000100
 20
99.511061736
 30
0.000000000
 10
209.000000100
 20
99.585786438
 30
0.000000000
 10
209.000000100
 20
99.669403417
 30
0.000000000
 10
209.000000100
 20
99.753020396
 30
0.000000000
 10
209.000000100
 20
99.844478122
 30
0.000000000
 10
209.000000100
 20
99.935935847
 30
0.000000000
 10
209.000000100
 20
100.034084184
 30
0.000000000
 10
209.000000100
 20
100.132232522
 30
0.000000000
 10
209.000000100
 20
100.235837199
 30
0.000000000
 10
209.000000100
 20
100.339441876
 30
0.000000000
 10
209.000000100
 20
100.447200004
 30
0.000000000
 10
209.000000100
 20
100.554958132
 30
0.000000000
 10
209.000000100
 20
100.775281378
 30
0.000000000
 10
209.000000100
 20
101.000000000
 30
0.000000000
  0
LINE
  5
A45
330
A02
100
AcDbEntity
  8
ProjItem001
100
AcDbLine
 10
209.000000100
 20
109.000000000
 30
0.000000000
 11
209.000000100
 21
101.000000000
 31
0.000000000
  0
SPLINE
  5
A46
330
A02
100
AcDbEntity
  8
ProjItem001
100
AcDbSpline
210
0
220
0
230
1
 70
8
 71
2
 72
24
 73
21
 74
0
 40
0.000000000
 40
0.000000000
 40
0.000000000
 40
0.336599213
 40
0.336599213
 40
0.560998688
 40
0.560998688
 40
0.785398163
 40
0.785398163
 40
0.897597901
 40
0.897597901
 40
1.009797639
 40
1.009797639
 40
1.121997376
 40
1.121997376
 40
1.234197114
 40
1.234197114
 40
1.346396852
 40
1.346396852
 40
1.458596589
 40
1.458596589
 40
1.570796327
 40
1.570796327
 40
1.570796327
 10
209.000000100
 20
109.000000000
 30
0.000000000
 10
209.000000100
 20
109.169423897
 30
0.000000000
 10
209.000000100
 20
109.330279062
 30
0.000000000
 10
209.000000100
 20
109.435413799
 30
0.000000000
 10
209.000000100
 20
109.532032077
 30
0.000000000
 10
209.000000100
 20
109.625688494
 30
0.000000000
 10
209.000000100
 20
109.707106781
 30
0.000000000
 10
209.000000100
 20
109.744469132
 30
0.000000000
 10
209.000000100
 20
109.781831482
 30
0.000000000
 10
209.000000100
 20
109.814277841
 30
0.000000000
 10
209.000000100
 20
109.846724199
 30
0.000000000
 10
209.000000100
 20
109.873846534
 30
0.000000000
 10
209.000000100
 20
109.900968868
 30
0.000000000
 10
209.000000100
 20
109.922426099
 30
0.000000000
 10
209.000000100
 20
109.943883330
 30
0.000000000
 10
209.000000100
 20
109.959405621
 30
0.000000000
 10
209.000000100
 20
109.974927912
 30
0.000000000
 10
209.000000100
 20
109.984320061
 30
0.000000000
 10
209.000000100
 20
109.993712210
 30
0.000000000
 10
209.000000100
 20
109.996856105
 30
0.000000000
 10
209.000000100
 20
110.000000000
 30
0.000000000
  0
LINE
  5
A47
330
A02
100
AcDbEntity
  8
ProjItem001
100
AcDbLine
 10
196.188026100
 20
111.000000000
 30
0.000000000
 11
196.188026100
 21
110.000000000
 31
0.000000000
  0
SPLINE
  5
A48
330
A02
100
AcDbEntity
  8
ProjItem001
100
AcDbSpline
210
0
220
0
230
1
 70
8
 71
1
 72
17
 73
15
 74
0
 40
0.000000000
 40
0.000000000
 40
0.224399475
 40
0.448798951
 40
0.673198426
 40
0.897597901
 40
1.121997376
 40
1.346396852
 40
1.570796327
 40
1.795195802
 40
2.019595277
 40
2.243994753
 40
2.468394228
 40
2.692793703
 40
2.917193178
 40
3.141592654
 40
3.141592654
 10
196.188026100
 20
110.000000000
 30
0.000000000
 10
196.133167720
 20
110.000000000
 30
0.000000000
 10
195.971343408
 20
110.000000000
 30
0.000000000
 10
195.710667711
 20
110.000000000
 30
0.000000000
 10
195.364211997
 20
110.000000000
 30
0.000000000
 10
194.949349002
 20
110.000000000
 30
0.000000000
 10
194.486881689
 20
110.000000000
 30
0.000000000
 10
194.000000100
 20
110.000000000
 30
0.000000000
 10
193.513118511
 20
110.000000000
 30
0.000000000
 10
193.050651198
 20
110.000000000
 30
0.000000000
 10
192.635788203
 20
110.000000000
 30
0.000000000
 10
192.289332489
 20
110.000000000
 30
0.000000000
 10
192.028656792
 20
110.000000000
 30
0.000000000
 10
191.866832480
 20
110.000000000
 30
0.000000000
 10
191.811974100
 20
110.000000000
 30
0.000000000
  0
SPLINE
  5
A49
330
A02
100
AcDbEntity
  8
ProjItem001
100
AcDbSpline
210
0
220
0
230
1
 70
8
 71
1
 72
17
 73
15
 74
0
 40
3.141592654
 40
3.141592654
 40
3.365992129
 40
3.590391604
 40
3.814791079
 40
4.039190555
 40
4.263590030
 40
4.487989505
 40
4.712388980
 40
4.936788456
 40
5.161187931
 40
5.385587406
 40
5.609986881
 40
5.834386357
 40
6.058785832
 40
6.283185307
 40
6.283185307
 10
191.811974100
 20
110.000000000
 30
0.000000000
 10
191.866832480
 20
110.000000000
 30
0.000000000
 10
192.028656792
 20
110.000000000
 30
0.000000000
 10
192.289332489
 20
110.000000000
 30
0.000000000
 10
192.635788203
 20
110.000000000
 30
0.000000000
 10
193.050651198
 20
110.000000000
 30
0.000000000
 10
193.513118511
 20
110.000000000
 30
0.000000000
 10
194.000000100
 20
110.000000000
 30
0.000000000
 10
194.486881689
 20
110.000000000
 30
0.000000000
 10
194.949349002
 20
110.000000000
 30
0.000000000
 10
195.364211997
 20
110.000000000
 30
0.000000000
 10
195.710667711
 20
110.000000000
 30
0.000000000
 10
195.971343408
 20
110.000000000
 30
0.000000000
 10
196.133167720
 20
110.000000000
 30
0.000000000
 10
196.188026100
 20
110.000000000
 30
0.000000000
  0
LINE
  5
A4A
330
A02
100
AcDbEntity
  8
ProjItem001
100
AcDbLine
 10
179.000000100
 20
110.000000000
 30
0.000000000
 11
209.000000100
 21
110.000000000
 31
0.000000000
  0
LINE
  5
A4B
330
A02
100
AcDbEntity
  8
ProjItem001
100
AcDbLine
 10
179.000000100
 20
109.000000000
 30
0.000000000
 11
209.000000100
 21
109.000000000
 31
0.000000000
  0
LINE
  5
A4C
330
A02
100
AcDbEntity
  8
ProjItem001
100
AcDbLine
 10
209.000000100
 20
101.000000000
 30
0.000000000
 11
179.000000100
 21
101.000000000
 31
0.000000000
  0
LINE
  5
A4D
330
A02
100
AcDbEntity
  8
ProjItem001
100
AcDbLine
 10
179.000000100
 20
99.000000000
 30
0.000000000
 11
209.000000100
 21
99.000000000
 31
0.000000000
  0
LINE
  5
A4E
330
A02
100
AcDbEntity
  8
ProjItem001
100
AcDbLine
 10
179.000000100
 20
100.000000000
 30
0.000000000
 11
209.000000100
 21
100.000000000
 31
0.000000000
  0
LINE
  5
A4F
330
A02
100
AcDbEntity
  8
ProjItem001
100
AcDbLine
 10
191.811974100
 20
110.000000000
 30
0.000000000
 11
191.811974100
 21
111.000000000
 31
0.000000000
  0
LINE
  5
A50
330
A02
100
AcDbEntity
  8
ProjItem002
100
AcDbLine
 10
164.000000000
 20
126.000000200
 30
0.000000000
 11
164.000000000
 21
151.000000200
 31
0.000000000
  0
LINE
  5
A51
330
A02
100
AcDbEntity
  8
ProjItem002
100
AcDbLine
 10
164.000000000
 20
151.000000200
 30
0.000000000
 11
159.000000000
 21
156.000000200
 31
0.000000000
  0
LINE
  5
A52
330
A02
100
AcDbEntity
  8
ProjItem002
100
AcDbLine
 10
154.000000000
 20
126.000000200
 30
0.000000000
 11
164.000000000
 21
126.000000200
 31
0.000000000
  0
SPLINE
  5
A53
330
A02
100
AcDbEntity
  8
ProjItem002
100
AcDbSpline
210
0
220
0
230
1
 70
8
 71
3
 72
35
 73
31
 74
0
 40
0.000000000
 40
0.000000000
 40
0.000000000
 40
0.000000000
 40
0.112199738
 40
0.112199738
 40
0.112199738
 40
0.224399475
 40
0.224399475
 40
0.224399475
 40
0.336599213
 40
0.336599213
 40
0.336599213
 40
0.448798951
 40
0.448798951
 40
0.448798951
 40
0.560998688
 40
0.560998688
 40
0.560998688
 40
0.673198426
 40
0.673198426
 40
0.673198426
 40
0.785398163
 40
0.785398163
 40
0.785398163
 40
1.009797639
 40
1.009797639
 40
1.009797639
 40
1.121997376
 40
1.121997376
 40
1.121997376
 40
1.570796327
 40
1.570796327
 40
1.570796327
 40
1.570796327
 10
153.000000000
 20
126.000000200
 30
0.000000000
 10
153.002095930
 20
126.000000200
 30
0.000000000
 10
153.004191860
 20
126.000000200
 30
0.000000000
 10
153.006287790
 20
126.000000200
 30
0.000000000
 10
153.012549223
 20
126.000000200
 30
0.000000000
 10
153.018810655
 20
126.000000200
 30
0.000000000
 10
153.025072088
 20
126.000000200
 30
0.000000000
 10
153.035420282
 20
126.000000200
 30
0.000000000
 10
153.045768476
 20
126.000000200
 30
0.000000000
 10
153.056116670
 20
126.000000200
 30
0.000000000
 10
153.070421490
 20
126.000000200
 30
0.000000000
 10
153.084726311
 20
126.000000200
 30
0.000000000
 10
153.099031132
 20
126.000000200
 30
0.000000000
 10
153.117112688
 20
126.000000200
 30
0.000000000
 10
153.135194245
 20
126.000000200
 30
0.000000000
 10
153.153275801
 20
126.000000200
 30
0.000000000
 10
153.174906706
 20
126.000000200
 30
0.000000000
 10
153.196537612
 20
126.000000200
 30
0.000000000
 10
153.218168518
 20
126.000000200
 30
0.000000000
 10
153.243076751
 20
126.000000200
 30
0.000000000
 10
153.267984985
 20
126.000000200
 30
0.000000000
 10
153.292893219
 20
126.000000200
 30
0.000000000
 10
153.347172077
 20
126.000000200
 30
0.000000000
 10
153.405530312
 20
126.000000200
 30
0.000000000
 10
153.467967923
 20
126.000000200
 30
0.000000000
 10
153.500684036
 20
126.000000200
 30
0.000000000
 10
153.533400148
 20
126.000000200
 30
0.000000000
 10
153.566116261
 20
126.000000200
 30
0.000000000
 10
153.701836753
 20
126.000000200
 30
0.000000000
 10
153.850207115
 20
126.000000200
 30
0.000000000
 10
154.000000000
 20
126.000000200
 30
0.000000000
  0
SPLINE
  5
A54
330
A02
100
AcDbEntity
  8
ProjItem002
100
AcDbSpline
210
0
220
0
230
1
 70
8
 71
3
 72
41
 73
37
 74
0
 40
0.000000000
 40
0.000000000
 40
0.000000000
 40
0.000000000
 40
0.336599213
 40
0.336599213
 40
0.336599213
 40
0.448798951
 40
0.448798951
 40
0.448798951
 40
0.560998688
 40
0.560998688
 40
0.560998688
 40
0.673198426
 40
0.673198426
 40
0.673198426
 40
0.785398163
 40
0.785398163
 40
0.785398163
 40
0.897597901
 40
0.897597901
 40
0.897597901
 40
1.009797639
 40
1.009797639
 40
1.009797639
 40
1.121997376
 40
1.121997376
 40
1.121997376
 40
1.234197114
 40
1.234197114
 40
1.234197114
 40
1.346396852
 40
1.346396852
 40
1.346396852
 40
1.458596589
 40
1.458596589
 40
1.458596589
 40
1.570796327
 40
1.570796327
 40
1.570796327
 40
1.570796327
 10
151.000000000
 20
126.000000200
 30
0.000000000
 10
151.224696414
 20
126.000000200
 30
0.000000000
 10
151.447286685
 20
126.000000200
 30
0.000000000
 10
151.660558124
 20
126.000000200
 30
0.000000000
 10
151.729627909
 20
126.000000200
 30
0.000000000
 10
151.798697693
 20
126.000000200
 30
0.000000000
 10
151.867767478
 20
126.000000200
 30
0.000000000
 10
151.933199703
 20
126.000000200
 30
0.000000000
 10
151.998631928
 20
126.000000200
 30
0.000000000
 10
152.064064153
 20
126.000000200
 30
0.000000000
 10
152.125035970
 20
126.000000200
 30
0.000000000
 10
152.186007787
 20
126.000000200
 30
0.000000000
 10
152.246979604
 20
126.000000200
 30
0.000000000
 10
152.302724257
 20
126.000000200
 30
0.000000000
 10
152.358468909
 20
126.000000200
 30
0.000000000
 10
152.414213562
 20
126.000000200
 30
0.000000000
 10
152.464030030
 20
126.000000200
 30
0.000000000
 10
152.513846497
 20
126.000000200
 30
0.000000000
 10
152.563662965
 20
126.000000200
 30
0.000000000
 10
152.606924776
 20
126.000000200
 30
0.000000000
 10
152.650186587
 20
126.000000200
 30
0.000000000
 10
152.693448398
 20
126.000000200
 30
0.000000000
 10
152.729611511
 20
126.000000200
 30
0.000000000
 10
152.765774623
 20
126.000000200
 30
0.000000000
 10
152.801937736
 20
126.000000200
 30
0.000000000
 10
152.830547377
 20
126.000000200
 30
0.000000000
 10
152.859157019
 20
126.000000200
 30
0.000000000
 10
152.887766661
 20
126.000000200
 30
0.000000000
 10
152.908463049
 20
126.000000200
 30
0.000000000
 10
152.929159436
 20
126.000000200
 30
0.000000000
 10
152.949855824
 20
126.000000200
 30
0.000000000
 10
152.962378690
 20
126.000000200
 30
0.000000000
 10
152.974901555
 20
126.000000200
 30
0.000000000
 10
152.987424420
 20
126.000000200
 30
0.000000000
 10
152.991616280
 20
126.000000200
 30
0.000000000
 10
152.995808140
 20
126.000000200
 30
0.000000000
 10
153.000000000
 20
126.000000200
 30
0.000000000
  0
LINE
  5
A55
330
A02
100
AcDbEntity
  8
ProjItem002
100
AcDbLine
 10
133.000000000
 20
126.000000200
 30
0.000000000
 11
151.000000000
 21
126.000000200
 31
0.000000000
  0
LINE
  5
A56
330
A02
100
AcDbEntity
  8
ProjItem002
100
AcDbLine
 10
133.000000000
 20
156.000000200
 30
0.000000000
 11
151.000000000
 21
156.000000200
 31
0.000000000
  0
SPLINE
  5
A57
330
A02
100
AcDbEntity
  8
ProjItem002
100
AcDbSpline
210
0
220
0
230
1
 70
8
 71
3
 72
41
 73
37
 74
0
 40
0.000000000
 40
0.000000000
 40
0.000000000
 40
0.000000000
 40
0.336599213
 40
0.336599213
 40
0.336599213
 40
0.448798951
 40
0.448798951
 40
0.448798951
 40
0.560998688
 40
0.560998688
 40
0.560998688
 40
0.673198426
 40
0.673198426
 40
0.673198426
 40
0.785398163
 40
0.785398163
 40
0.785398163
 40
0.897597901
 40
0.897597901
 40
0.897597901
 40
1.009797639
 40
1.009797639
 40
1.009797639
 40
1.121997376
 40
1.121997376
 40
1.121997376
 40
1.234197114
 40
1.234197114
 40
1.234197114
 40
1.346396852
 40
1.346396852
 40
1.346396852
 40
1.458596589
 40
1.458596589
 40
1.458596589
 40
1.570796327
 40
1.570796327
 40
1.570796327
 40
1.570796327
 10
151.000000000
 20
156.000000200
 30
0.000000000
 10
151.224696414
 20
156.000000200
 30
0.000000000
 10
151.447286685
 20
156.000000200
 30
0.000000000
 10
151.660558124
 20
156.000000200
 30
0.000000000
 10
151.729627909
 20
156.000000200
 30
0.000000000
 10
151.798697693
 20
156.000000200
 30
0.000000000
 10
151.867767478
 20
156.000000200
 30
0.000000000
 10
151.933199703
 20
156.000000200
 30
0.000000000
 10
151.998631928
 20
156.000000200
 30
0.000000000
 10
152.064064153
 20
156.000000200
 30
0.000000000
 10
152.125035970
 20
156.000000200
 30
0.000000000
 10
152.186007787
 20
156.000000200
 30
0.000000000
 10
152.246979604
 20
156.000000200
 30
0.000000000
 10
152.302724257
 20
156.000000200
 30
0.000000000
 10
152.358468909
 20
156.000000200
 30
0.000000000
 10
152.414213562
 20
156.000000200
 30
0.000000000
 10
152.464030030
 20
156.000000200
 30
0.000000000
 10
152.513846497
 20
156.000000200
 30
0.000000000
 10
152.563662965
 20
156.000000200
 30
0.000000000
 10
152.606924776
 20
156.000000200
 30
0.000000000
 10
152.650186587
 20
156.000000200
 30
0.000000000
 10
152.693448398
 20
156.000000200
 30
0.000000000
 10
152.729611511
 20
156.000000200
 30
0.000000000
 10
152.765774623
 20
156.000000200
 30
0.000000000
 10
152.801937736
 20
156.000000200
 30
0.000000000
 10
152.830547377
 20
156.000000200
 30
0.000000000
 10
152.859157019
 20
156.000000200
 30
0.000000000
 10
152.887766661
 20
156.000000200
 30
0.000000000
 10
152.908463049
 20
156.000000200
 30
0.000000000
 10
152.929159436
 20
156.000000200
 30
0.000000000
 10
152.949855824
 20
156.000000200
 30
0.000000000
 10
152.962378690
 20
156.000000200
 30
0.000000000
 10
152.974901555
 20
156.000000200
 30
0.000000000
 10
152.987424420
 20
156.000000200
 30
0.000000000
 10
152.991616280
 20
156.000000200
 30
0.000000000
 10
152.995808140
 20
156.000000200
 30
0.000000000
 10
153.000000000
 20
156.000000200
 30
0.000000000
  0
SPLINE
  5
A58
330
A02
100
AcDbEntity
  8
ProjItem002
100
AcDbSpline
210
0
220
0
230
1
 70
8
 71
3
 72
35
 73
31
 74
0
 40
0.000000000
 40
0.000000000
 40
0.000000000
 40
0.000000000
 40
0.112199738
 40
0.112199738
 40
0.112199738
 40
0.224399475
 40
0.224399475
 40
0.224399475
 40
0.336599213
 40
0.336599213
 40
0.336599213
 40
0.448798951
 40
0.448798951
 40
0.448798951
 40
0.560998688
 40
0.560998688
 40
0.560998688
 40
0.673198426
 40
0.673198426
 40
0.673198426
 40
0.785398163
 40
0.785398163
 40
0.785398163
 40
1.009797639
 40
1.009797639
 40
1.009797639
 40
1.121997376
 40
1.121997376
 40
1.121997376
 40
1.570796327
 40
1.570796327
 40
1.570796327
 40
1.570796327
 10
153.000000000
 20
156.000000200
 30
0.000000000
 10
153.002095930
 20
156.000000200
 30
0.000000000
 10
153.004191860
 20
156.000000200
 30
0.000000000
 10
153.006287790
 20
156.000000200
 30
0.000000000
 10
153.012549223
 20
156.000000200
 30
0.000000000
 10
153.018810655
 20
156.000000200
 30
0.000000000
 10
153.025072088
 20
156.000000200
 30
0.000000000
 10
153.035420282
 20
156.000000200
 30
0.000000000
 10
153.045768476
 20
156.000000200
 30
0.000000000
 10
153.056116670
 20
156.000000200
 30
0.000000000
 10
153.070421490
 20
156.000000200
 30
0.000000000
 10
153.084726311
 20
156.000000200
 30
0.000000000
 10
153.099031132
 20
156.000000200
 30
0.000000000
 10
153.117112688
 20
156.000000200
 30
0.000000000
 10
153.135194245
 20
156.000000200
 30
0.000000000
 10
153.153275801
 20
156.000000200
 30
0.000000000
 10
153.174906706
 20
156.000000200
 30
0.000000000
 10
153.196537612
 20
156.000000200
 30
0.000000000
 10
153.218168518
 20
156.000000200
 30
0.000000000
 10
153.243076751
 20
156.000000200
 30
0.000000000
 10
153.267984985
 20
156.000000200
 30
0.000000000
 10
153.292893219
 20
156.000000200
 30
0.000000000
 10
153.347172077
 20
156.000000200
 30
0.000000000
 10
153.405530312
 20
156.000000200
 30
0.000000000
 10
153.467967923
 20
156.000000200
 30
0.000000000
 10
153.500684036
 20
156.000000200
 30
0.000000000
 10
153.533400148
 20
156.000000200
 30
0.000000000
 10
153.566116261
 20
156.000000200
 30
0.000000000
 10
153.701836753
 20
156.000000200
 30
0.000000000
 10
153.850207115
 20
156.000000200
 30
0.000000000
 10
154.000000000
 20
156.000000200
 30
0.000000000
  0
LINE
  5
A59
330
A02
100
AcDbEntity
  8
ProjItem002
100
AcDbLine
 10
159.000000000
 20
156.000000200
 30
0.000000000
 11
154.000000000
 21
156.000000200
 31
0.000000000
  0
CIRCLE
  5
A5A
330
A02
100
AcDbEntity
  8
ProjItem002
100
AcDbCircle
 10
158.807903000
 20
141.000000200
 30
0.000000000
 40
2.188026000
  0
LINE
  5
A5B
330
A02
100
AcDbEntity
  8
ProjItem002
100
AcDbLine
 10
154.000000000
 20
126.000000200
 30
0.000000000
 11
154.000000000
 21
156.000000200
 31
0.000000000
  0
LINE
  5
A5C
330
A02
100
AcDbEntity
  8
ProjItem002
100
AcDbLine
 10
153.000000000
 20
156.000000200
 30
0.000000000
 11
153.000000000
 21
126.000000200
 31
0.000000000
  0
LINE
  5
A5D
330
A02
100
AcDbEntity
  8
ProjItem002
100
AcDbLine
 10
151.000000000
 20
126.000000200
 30
0.000000000
 11
151.000000000
 21
156.000000200
 31
0.000000000
  0
LINE
  5
A5E
330
A02
100
AcDbEntity
  8
ProjItem002
100
AcDbLine
 10
133.000000000
 20
126.000000200
 30
0.000000000
 11
133.000000000
 21
156.000000200
 31
0.000000000
  0
LINE
  5
A5F
330
A02
100
AcDbEntity
  8
ProjItem002
100
AcDbLine
 10
164.000000000
 20
126.000000200
 30
0.000000000
 11
164.000000000
 21
151.000000200
 31
0.000000000
  0
LINE
  5
A60
330
A02
100
AcDbEntity
  8
ProjItem002
100
AcDbLine
 10
164.000000000
 20
151.000000200
 30
0.000000000
 11
159.000000000
 21
156.000000200
 31
0.000000000
  0
LINE
  5
A61
330
A02
100
AcDbEntity
  8
ProjItem002
100
AcDbLine
 10
154.000000000
 20
126.000000200
 30
0.000000000
 11
164.000000000
 21
126.000000200
 31
0.000000000
  0
LINE
  5
A62
330
A02
100
AcDbEntity
  8
ProjItem002
100
AcDbLine
 10
159.000000000
 20
156.000000200
 30
0.000000000
 11
154.000000000
 21
156.000000200
 31
0.000000000
  0
LINE
  5
A63
330
A02
100
AcDbEntity
  8
ProjItem002
100
AcDbLine
 10
154.000000000
 20
156.000000200
 30
0.000000000
 11
154.000000000
 21
126.000000200
 31
0.000000000
  0
CIRCLE
  5
A64
330
A02
100
AcDbEntity
  8
ProjItem002
100
AcDbCircle
 10
158.807903000
 20
141.000000200
 30
0.000000000
 40
2.188026000
  0
LINE
  5
A65
330
A02
100
AcDbEntity
  8
ProjItem002
100
AcDbLine
 10
133.000000000
 20
126.000000200
 30
0.000000000
 11
151.000000000
 21
126.000000200
 31
0.000000000
  0
SPLINE
  5
A66
330
A02
100
AcDbEntity
  8
ProjItem002
100
AcDbSpline
210
0
220
0
230
1
 70
8
 71
2
 72
24
 73
21
 74
0
 40
0.000000000
 40
0.000000000
 40
0.000000000
 40
0.336599213
 40
0.336599213
 40
0.560998688
 40
0.560998688
 40
0.785398163
 40
0.785398163
 40
0.897597901
 40
0.897597901
 40
1.009797639
 40
1.009797639
 40
1.121997376
 40
1.121997376
 40
1.234197114
 40
1.234197114
 40
1.346396852
 40
1.346396852
 40
1.458596589
 40
1.458596589
 40
1.570796327
 40
1.570796327
 40
1.570796327
 10
151.000000000
 20
126.000000200
 30
0.000000000
 10
151.169423897
 20
126.000000200
 30
0.000000000
 10
151.330279062
 20
126.000000200
 30
0.000000000
 10
151.435413799
 20
126.000000200
 30
0.000000000
 10
151.532032077
 20
126.000000200
 30
0.000000000
 10
151.625688494
 20
126.000000200
 30
0.000000000
 10
151.707106781
 20
126.000000200
 30
0.000000000
 10
151.744469132
 20
126.000000200
 30
0.000000000
 10
151.781831482
 20
126.000000200
 30
0.000000000
 10
151.814277841
 20
126.000000200
 30
0.000000000
 10
151.846724199
 20
126.000000200
 30
0.000000000
 10
151.873846534
 20
126.000000200
 30
0.000000000
 10
151.900968868
 20
126.000000200
 30
0.000000000
 10
151.922426099
 20
126.000000200
 30
0.000000000
 10
151.943883330
 20
126.000000200
 30
0.000000000
 10
151.959405621
 20
126.000000200
 30
0.000000000
 10
151.974927912
 20
126.000000200
 30
0.000000000
 10
151.984320061
 20
126.000000200
 30
0.000000000
 10
151.993712210
 20
126.000000200
 30
0.000000000
 10
151.996856105
 20
126.000000200
 30
0.000000000
 10
152.000000000
 20
126.000000200
 30
0.000000000
  0
SPLINE
  5
A67
330
A02
100
AcDbEntity
  8
ProjItem002
100
AcDbSpline
210
0
220
0
230
1
 70
8
 71
2
 72
30
 73
27
 74
0
 40
0.000000000
 40
0.000000000
 40
0.000000000
 40
0.112199738
 40
0.112199738
 40
0.224399475
 40
0.224399475
 40
0.336599213
 40
0.336599213
 40
0.448798951
 40
0.448798951
 40
0.560998688
 40
0.560998688
 40
0.673198426
 40
0.673198426
 40
0.785398163
 40
0.785398163
 40
0.897597901
 40
0.897597901
 40
1.009797639
 40
1.009797639
 40
1.121997376
 40
1.121997376
 40
1.234197114
 40
1.234197114
 40
1.346396852
 40
1.346396852
 40
1.570796327
 40
1.570796327
 40
1.570796327
 10
152.000000000
 20
126.000000200
 30
0.000000000
 10
152.006287790
 20
126.000000200
 30
0.000000000
 10
152.012575580
 20
126.000000200
 30
0.000000000
 10
152.031359878
 20
126.000000200
 30
0.000000000
 10
152.050144176
 20
126.000000200
 30
0.000000000
 10
152.081188758
 20
126.000000200
 30
0.000000000
 10
152.112233339
 20
126.000000200
 30
0.000000000
 10
152.155147802
 20
126.000000200
 30
0.000000000
 10
152.198062264
 20
126.000000200
 30
0.000000000
 10
152.252306933
 20
126.000000200
 30
0.000000000
 10
152.306551602
 20
126.000000200
 30
0.000000000
 10
152.371444318
 20
126.000000200
 30
0.000000000
 10
152.436337035
 20
126.000000200
 30
0.000000000
 10
152.511061736
 20
126.000000200
 30
0.000000000
 10
152.585786438
 20
126.000000200
 30
0.000000000
 10
152.669403417
 20
126.000000200
 30
0.000000000
 10
152.753020396
 20
126.000000200
 30
0.000000000
 10
152.844478122
 20
126.000000200
 30
0.000000000
 10
152.935935847
 20
126.000000200
 30
0.000000000
 10
153.034084184
 20
126.000000200
 30
0.000000000
 10
153.132232522
 20
126.000000200
 30
0.000000000
 10
153.235837199
 20
126.000000200
 30
0.000000000
 10
153.339441876
 20
126.000000200
 30
0.000000000
 10
153.447200004
 20
126.000000200
 30
0.000000000
 10
153.554958132
 20
126.000000200
 30
0.000000000
 10
153.775281378
 20
126.000000200
 30
0.000000000
 10
154.000000000
 20
126.000000200
 30
0.000000000
  0
SPLINE
  5
A68
330
A02
100
AcDbEntity
  8
ProjItem002
100
AcDbSpline
210
0
220
0
230
1
 70
8
 71
2
 72
30
 73
27
 74
0
 40
0.000000000
 40
0.000000000
 40
0.000000000
 40
0.112199738
 40
0.112199738
 40
0.224399475
 40
0.224399475
 40
0.336599213
 40
0.336599213
 40
0.448798951
 40
0.448798951
 40
0.560998688
 40
0.560998688
 40
0.673198426
 40
0.673198426
 40
0.785398163
 40
0.785398163
 40
0.897597901
 40
0.897597901
 40
1.009797639
 40
1.009797639
 40
1.121997376
 40
1.121997376
 40
1.234197114
 40
1.234197114
 40
1.346396852
 40
1.346396852
 40
1.570796327
 40
1.570796327
 40
1.570796327
 10
152.000000000
 20
156.000000200
 30
0.000000000
 10
152.006287790
 20
156.000000200
 30
0.000000000
 10
152.012575580
 20
156.000000200
 30
0.000000000
 10
152.031359878
 20
156.000000200
 30
0.000000000
 10
152.050144176
 20
156.000000200
 30
0.000000000
 10
152.081188758
 20
156.000000200
 30
0.000000000
 10
152.112233339
 20
156.000000200
 30
0.000000000
 10
152.155147802
 20
156.000000200
 30
0.000000000
 10
152.198062264
 20
156.000000200
 30
0.000000000
 10
152.252306933
 20
156.000000200
 30
0.000000000
 10
152.306551602
 20
156.000000200
 30
0.000000000
 10
152.371444318
 20
156.000000200
 30
0.000000000
 10
152.436337035
 20
156.000000200
 30
0.000000000
 10
152.511061736
 20
156.000000200
 30
0.000000000
 10
152.585786438
 20
156.000000200
 30
0.000000000
 10
152.669403417
 20
156.000000200
 30
0.000000000
 10
152.753020396
 20
156.000000200
 30
0.000000000
 10
152.844478122
 20
156.000000200
 30
0.000000000
 10
152.935935847
 20
156.000000200
 30
0.000000000
 10
153.034084184
 20
156.000000200
 30
0.000000000
 10
153.132232522
 20
156.000000200
 30
0.000000000
 10
153.235837199
 20
156.000000200
 30
0.000000000
 10
153.339441876
 20
156.000000200
 30
0.000000000
 10
153.447200004
 20
156.000000200
 30
0.000000000
 10
153.554958132
 20
156.000000200
 30
0.000000000
 10
153.775281378
 20
156.000000200
 30
0.000000000
 10
154.000000000
 20
156.000000200
 30
0.000000000
  0
SPLINE
  5
A69
330
A02
100
AcDbEntity
  8
ProjItem002
100
AcDbSpline
210
0
220
0
230
1
 70
8
 71
2
 72
24
 73
21
 74
0
 40
0.000000000
 40
0.000000000
 40
0.000000000
 40
0.336599213
 40
0.336599213
 40
0.560998688
 40
0.560998688
 40
0.785398163
 40
0.785398163
 40
0.897597901
 40
0.897597901
 40
1.009797639
 40
1.009797639
 40
1.121997376
 40
1.121997376
 40
1.234197114
 40
1.234197114
 40
1.346396852
 40
1.346396852
 40
1.458596589
 40
1.458596589
 40
1.570796327
 40
1.570796327
 40
1.570796327
 10
151.000000000
 20
156.000000200
 30
0.000000000
 10
151.169423897
 20
156.000000200
 30
0.000000000
 10
151.330279062
 20
156.000000200
 30
0.000000000
 10
151.435413799
 20
156.000000200
 30
0.000000000
 10
151.532032077
 20
156.000000200
 30
0.000000000
 10
151.625688494
 20
156.000000200
 30
0.000000000
 10
151.707106781
 20
156.000000200
 30
0.000000000
 10
151.744469132
 20
156.000000200
 30
0.000000000
 10
151.781831482
 20
156.000000200
 30
0.000000000
 10
151.814277841
 20
156.000000200
 30
0.000000000
 10
151.846724199
 20
156.000000200
 30
0.000000000
 10
151.873846534
 20
156.000000200
 30
0.000000000
 10
151.900968868
 20
156.000000200
 30
0.000000000
 10
151.922426099
 20
156.000000200
 30
0.000000000
 10
151.943883330
 20
156.000000200
 30
0.000000000
 10
151.959405621
 20
156.000000200
 30
0.000000000
 10
151.974927912
 20
156.000000200
 30
0.000000000
 10
151.984320061
 20
156.000000200
 30
0.000000000
 10
151.993712210
 20
156.000000200
 30
0.000000000
 10
151.996856105
 20
156.000000200
 30
0.000000000
 10
152.000000000
 20
156.000000200
 30
0.000000000
  0
LINE
  5
A6A
330
A02
100
AcDbEntity
  8
ProjItem002
100
AcDbLine
 10
133.000000000
 20
156.000000200
 30
0.000000000
 11
151.000000000
 21
156.000000200
 31
0.000000000
  0
LINE
  5
A6B
330
A02
100
AcDbEntity
  8
ProjItem002
100
AcDbLine
 10
152.000000000
 20
126.000000200
 30
0.000000000
 11
152.000000000
 21
156.000000200
 31
0.000000000
  0
LINE
  5
A6C
330
A02
100
AcDbEntity
  8
ProjItem002
100
AcDbLine
 10
153.000000000
 20
126.000000200
 30
0.000000000
 11
153.000000000
 21
156.000000200
 31
0.000000000
  0
LINE
  5
A6D
330
A02
100
AcDbEntity
  8
ProjItem002
100
AcDbLine
 10
133.000000000
 20
126.000000200
 30
0.000000000
 11
133.000000000
 21
156.000000200
 31
0.000000000
  0
LINE
  5
A6E
330
A02
100
AcDbEntity
  8
ProjItem002
100
AcDbLine
 10
151.000000000
 20
126.000000200
 30
0.000000000
 11
151.000000000
 21
156.000000200
 31
0.000000000
  0
LINE
  5
A6F
330
A02
100
AcDbEntity
  8
ProjItem002
100
AcDbLine
 10
152.000000000
 20
126.000000200
 30
0.000000000
 11
152.000000000
 21
156.000000200
 31
0.000000000
  0
ENDSEC
  0
SECTION
  2
OBJECTS
  0
DICTIONARY
  5
F000
330
0
100
AcDbDictionary
  3
ACAD_GROUP
350
F001
  0
DICTIONARY
  5
F001
330
F000
100
AcDbDictionary
  0
ENDSEC
  0
EOF