999
FreeCAD v1.0 39285 (Git)
  0
SECTION
  2
HEADER
  9
$ACADVER
  1
AC1014
  9
$ACADMAINTVER
 70
     9
  9
$DWGCODEPAGE
  3
ANSI_1252
  9
$TEXTSTYLE
  7
STANDARD
  9
$DIMSTYLE
  2
STANDARD
  9
$DIMTXSTY
  7
STANDARD
  9
$CMLSTYLE
  2
STANDARD
  9
$LUNITS
 70
2
  9
$INSUNITS
 70
4
  9
$PEXTMAX
 10
50
 20
50
 30
50
  9
$PEXTMIN
 10
0
 20
0
 30
0
  9
$HANDSEED
  5
FFFF
  0
ENDSEC
  0
SECTION
  2
CLASSES
  0
CLASS
  1
ACDBDICTIONARYWDFLT
  2
AcDbDictionaryWithDefault
  3
ObjectDBX Classes
 90
        0
280
     0
281
     0
  0
CLASS
  1
XRECORD
  2
AcDbXrecord
  3
ObjectDBX Classes
 90
        0
280
     0
281
     0
  0
CLASS
  1
LWPOLYLINE
  2
AcDbPolyline
  3
ObjectDBX Classes
 90
        0
280
     0
281
     1
  0
ENDSEC
  0
SECTION
  2
TABLES
  0
TABLE
  2
VPORT
  5
20
330
0
100
AcDbSymbolTable
 70
     1
  0
VPORT
  5
21
330
20
100
AcDbSymbolTableRecord
100
AcDbViewportTableRecord
  2
*ACTIVE
 70
     0
  0
ENDTAB
  0
TABLE
  2
LTYPE
  5
22
330
0
100
AcDbSymbolTable
 70
     1
  0
LTYPE
  5
23
330
21
100
AcDbSymbolTableRecord
100
AcDbLinetypeTableRecord
  2
BYBLOCK
 70
     0
  3

 72
    65
 73
     0
 40
0.0
  0
LTYPE
  5
24
330
21
100
AcDbSymbolTableRecord
100
AcDbLinetypeTableRecord
  2
BYLAYER
 70
     0
  3

 72
    65
 73
     0
 40
0.0
  0
LTYPE
  5
25
330
21
100
AcDbSymbolTableRecord
100
AcDbLinetypeTableRecord
  2
CONTINUOUS
 70
     0
  3
Solid line
 72
    65
 73
     0
 40
0.0
  0
ENDTAB
  0
TABLE
  2
LAYER
  5
A44
330
0
100
AcDbSymbolTable
 70
4
  0
LAYER
  5
A45
330
A44
100
AcDbSymbolTableRecord
100
AcDbLayerTableRecord
  2
0
 70
   0
 62
   7
  6
CONTINUOUS
  0
LAYER
  5
A46
330
A44
100
AcDbSymbolTableRecord
100
AcDbLayerTableRecord
  2
ProjItem
 70
    0
 62
    7
  6
CONTINUOUS
  0
LAYER
  5
A47
330
A44
100
AcDbSymbolTableRecord
100
AcDbLayerTableRecord
  2
ProjItem001
 70
    0
 62
    7
  6
CONTINUOUS
  0
LAYER
  5
A48
330
A44
100
AcDbSymbolTableRecord
100
AcDbLayerTableRecord
  2
ProjItem002
 70
    0
 62
    7
  6
CONTINUOUS
  0
ENDTAB
  0
TABLE
  2
STYLE
  5
70
330
0
100
AcDbSymbolTable
 70
     2
  0
STYLE
  5
71
330
70
100
AcDbSymbolTableRecord
100
AcDbTextStyleTableRecord
  2
STANDARD
 70
     0
 40
0.0
 41
1.0
 50
0.0
 71
     0
 42
2.5
  3
arial.ttf
  4

  0
STYLE
  5
72
330
70
100
AcDbSymbolTableRecord
100
AcDbTextStyleTableRecord
  2
ANNOTATIVE
 70
     0
 40
0.0
 41
1.0
 50
0.0
 71
     0
 42
2.5
  3
arial.ttf
  4

  0
ENDTAB
  0
TABLE
  2
VIEW
  5
73
330
0
100
AcDbSymbolTable
 70
     0
  0
ENDTAB
  0
TABLE
  2
UCS
  5
74
330
0
100
AcDbSymbolTable
 70
     0
  0
ENDTAB
  0
TABLE
  2
APPID
  5
75
330
0
100
AcDbSymbolTable
 70
     2
  0
APPID
  5
76
330
75
100
AcDbSymbolTableRecord
100
AcDbRegAppTableRecord
  2
ACAD
 70
     0
  0
APPID
  5
77
330
75
100
AcDbSymbolTableRecord
100
AcDbRegAppTableRecord
  2
ACADANNOTATIVE
 70
     0
  0
ENDTAB
  0
TABLE
  2
DIMSTYLE
  5
78
330
0
100
AcDbSymbolTable
 70
     2
  0
DIMSTYLE
105
79
330
78
100
AcDbSymbolTableRecord
100
AcDbDimStyleTableRecord
  2
STANDARD
 70
     0
  3

  4

  5

  6

  7

 40
0.0
 41
2.5
 42
0.625
 43
3.75
 44
1.25
 45
0.0
 46
0.0
 47
0.0
 48
0.0
140
2.5
141
2.5
142
0.0
143
0.03937007874016
144
1.0
145
0.0
146
1.0
147
0.625
 71
     0
 72
     0
 73
     0
 74
     0
 75
     0
 76
     0
 77
     1
 78
     8
170
     0
171
     3
172
     1
173
     0
174
     0
175
     0
176
     0
177
     0
178
     0
270
     2
271
     2
272
     2
273
     2
274
     3
340
71
275
     0
280
     0
281
     0
282
     0
283
     0
284
     8
285
     0
286
     0
287
     3
288
     0
  0
ENDTAB
  0
TABLE
  2
BLOCK_RECORD
  5
A01
330
0
100
AcDbSymbolTable
  70
5
  0
BLOCK_RECORD
  5
A02
330
A01
100
AcDbSymbolTableRecord
100
AcDbBlockTableRecord
  2
*MODEL_SPACE
  0
BLOCK_RECORD
  5
A03
330
A01
100
AcDbSymbolTableRecord
100
AcDbBlockTableRecord
  2
*PAPER_SPACE
  0
ENDTAB
  0
ENDSEC
  0
SECTION
  2
BLOCKS
  0
BLOCK
  5
A04
330
A02
100
AcDbEntity
  8
0
100
AcDbBlockBegin
  2
*MODEL_SPACE
 70
   0
 10
0
 20
0
 30
0
  3
*MODEL_SPACE
  1
 
  0
ENDBLK
  5
A05
330
A02
100
AcDbEntity
  8
0
100
AcDbBlockEnd
  0
BLOCK
  5
A06
330
A03
100
AcDbEntity
 67
1
  8
0
100
AcDbBlockBegin
  2
*PAPER_SPACE
 70
   0
 10
0
 20
0
 30
0
  3
*PAPER_SPACE
  1
 
  0
ENDBLK
  5
A07
330
A03
100
AcDbEntity
 67
    1
  8
0
100
AcDbBlockEnd
  0
ENDSEC
  0
SECTION
  2
ENTITIES
  0
LINE
  5
A08
330
A02
100
AcDbEntity
  8
ProjItem
100
AcDbLine
 10
133.500000000
 20
110.000000000
 30
0.000000000
 11
158.500000000
 21
110.000000000
 31
0.000000000
  0
LINE
  5
A09
330
A02
100
AcDbEntity
  8
ProjItem
100
AcDbLine
 10
158.500000000
 20
110.000000000
 30
0.000000000
 11
163.500000000
 21
105.000000000
 31
0.000000000
  0
LINE
  5
A0A
330
A02
100
AcDbEntity
  8
ProjItem
100
AcDbLine
 10
133.500000000
 20
102.000000000
 30
0.000000000
 11
133.500000000
 21
110.000000000
 31
0.000000000
  0
LINE
  5
A0B
330
A02
100
AcDbEntity
  8
ProjItem
100
AcDbLine
 10
163.500000000
 20
105.000000000
 30
0.000000000
 11
163.500000000
 21
102.000000000
 31
0.000000000
  0
LINE
  5
A0C
330
A02
100
AcDbEntity
  8
ProjItem
100
AcDbLine
 10
133.500000000
 20
102.000000000
 30
0.000000000
 11
163.500000000
 21
102.000000000
 31
0.000000000
  0
SPLINE
  5
A0D
330
A02
100
AcDbEntity
  8
ProjItem
100
AcDbSpline
210
0
220
0
230
1
 70
8
 71
3
 72
35
 73
31
 74
0
 40
0.000000000
 40
0.000000000
 40
0.000000000
 40
0.000000000
 40
0.112199738
 40
0.112199738
 40
0.112199738
 40
0.224399475
 40
0.224399475
 40
0.224399475
 40
0.336599213
 40
0.336599213
 40
0.336599213
 40
0.448798951
 40
0.448798951
 40
0.448798951
 40
0.560998688
 40
0.560998688
 40
0.560998688
 40
0.673198426
 40
0.673198426
 40
0.673198426
 40
0.785398163
 40
0.785398163
 40
0.785398163
 40
0.897597901
 40
0.897597901
 40
0.897597901
 40
1.121997376
 40
1.121997376
 40
1.121997376
 40
1.570796327
 40
1.570796327
 40
1.570796327
 40
1.570796327
 10
133.500000000
 20
101.000000000
 30
0.000000000
 10
133.500000000
 20
101.002095930
 30
0.000000000
 10
133.500000000
 20
101.004191860
 30
0.000000000
 10
133.500000000
 20
101.006287790
 30
0.000000000
 10
133.500000000
 20
101.012549223
 30
0.000000000
 10
133.500000000
 20
101.018810655
 30
0.000000000
 10
133.500000000
 20
101.025072088
 30
0.000000000
 10
133.500000000
 20
101.035420282
 30
0.000000000
 10
133.500000000
 20
101.045768476
 30
0.000000000
 10
133.500000000
 20
101.056116670
 30
0.000000000
 10
133.500000000
 20
101.070421490
 30
0.000000000
 10
133.500000000
 20
101.084726311
 30
0.000000000
 10
133.500000000
 20
101.099031132
 30
0.000000000
 10
133.500000000
 20
101.117112688
 30
0.000000000
 10
133.500000000
 20
101.135194245
 30
0.000000000
 10
133.500000000
 20
101.153275801
 30
0.000000000
 10
133.500000000
 20
101.174906706
 30
0.000000000
 10
133.500000000
 20
101.196537612
 30
0.000000000
 10
133.500000000
 20
101.218168518
 30
0.000000000
 10
133.500000000
 20
101.243076751
 30
0.000000000
 10
133.500000000
 20
101.267984985
 30
0.000000000
 10
133.500000000
 20
101.292893219
 30
0.000000000
 10
133.500000000
 20
101.320765545
 30
0.000000000
 10
133.500000000
 20
101.348637872
 30
0.000000000
 10
133.500000000
 20
101.376510198
 30
0.000000000
 10
133.500000000
 20
101.436231233
 30
0.000000000
 10
133.500000000
 20
101.499433254
 30
0.000000000
 10
133.500000000
 20
101.566116261
 30
0.000000000
 10
133.500000000
 20
101.701836753
 30
0.000000000
 10
133.500000000
 20
101.850207115
 30
0.000000000
 10
133.500000000
 20
102.000000000
 30
0.000000000
  0
SPLINE
  5
A0E
330
A02
100
AcDbEntity
  8
ProjItem
100
AcDbSpline
210
0
220
0
230
1
 70
8
 71
3
 72
35
 73
31
 74
0
 40
0.000000000
 40
0.000000000
 40
0.000000000
 40
0.000000000
 40
0.112199738
 40
0.112199738
 40
0.112199738
 40
0.224399475
 40
0.224399475
 40
0.224399475
 40
0.336599213
 40
0.336599213
 40
0.336599213
 40
0.448798951
 40
0.448798951
 40
0.448798951
 40
0.560998688
 40
0.560998688
 40
0.560998688
 40
0.673198426
 40
0.673198426
 40
0.673198426
 40
0.785398163
 40
0.785398163
 40
0.785398163
 40
0.897597901
 40
0.897597901
 40
0.897597901
 40
1.121997376
 40
1.121997376
 40
1.121997376
 40
1.570796327
 40
1.570796327
 40
1.570796327
 40
1.570796327
 10
163.500000000
 20
101.000000000
 30
0.000000000
 10
163.500000000
 20
101.002095930
 30
0.000000000
 10
163.500000000
 20
101.004191860
 30
0.000000000
 10
163.500000000
 20
101.006287790
 30
0.000000000
 10
163.500000000
 20
101.012549223
 30
0.000000000
 10
163.500000000
 20
101.018810655
 30
0.000000000
 10
163.500000000
 20
101.025072088
 30
0.000000000
 10
163.500000000
 20
101.035420282
 30
0.000000000
 10
163.500000000
 20
101.045768476
 30
0.000000000
 10
163.500000000
 20
101.056116670
 30
0.000000000
 10
163.500000000
 20
101.070421490
 30
0.000000000
 10
163.500000000
 20
101.084726311
 30
0.000000000
 10
163.500000000
 20
101.099031132
 30
0.000000000
 10
163.500000000
 20
101.117112688
 30
0.000000000
 10
163.500000000
 20
101.135194245
 30
0.000000000
 10
163.500000000
 20
101.153275801
 30
0.000000000
 10
163.500000000
 20
101.174906706
 30
0.000000000
 10
163.500000000
 20
101.196537612
 30
0.000000000
 10
163.500000000
 20
101.218168518
 30
0.000000000
 10
163.500000000
 20
101.243076751
 30
0.000000000
 10
163.500000000
 20
101.267984985
 30
0.000000000
 10
163.500000000
 20
101.292893219
 30
0.000000000
 10
163.500000000
 20
101.320765545
 30
0.000000000
 10
163.500000000
 20
101.348637872
 30
0.000000000
 10
163.500000000
 20
101.376510198
 30
0.000000000
 10
163.500000000
 20
101.436231233
 30
0.000000000
 10
163.500000000
 20
101.499433254
 30
0.000000000
 10
163.500000000
 20
101.566116261
 30
0.000000000
 10
163.500000000
 20
101.701836753
 30
0.000000000
 10
163.500000000
 20
101.850207115
 30
0.000000000
 10
163.500000000
 20
102.000000000
 30
0.000000000
  0
LINE
  5
A0F
330
A02
100
AcDbEntity
  8
ProjItem
100
AcDbLine
 10
133.500000000
 20
101.000000000
 30
0.000000000
 11
163.500000000
 21
101.000000000
 31
0.000000000
  0
LINE
  5
A10
330
A02
100
AcDbEntity
  8
ProjItem
100
AcDbLine
 10
133.500000000
 20
100.000000000
 30
0.000000000
 11
163.500000000
 21
100.000000000
 31
0.000000000
  0
LINE
  5
A11
330
A02
100
AcDbEntity
  8
ProjItem
100
AcDbLine
 10
163.500000000
 20
100.000000000
 30
0.000000000
 11
163.500000000
 21
101.000000000
 31
0.000000000
  0
LINE
  5
A12
330
A02
100
AcDbEntity
  8
ProjItem
100
AcDbLine
 10
133.500000000
 20
100.000000000
 30
0.000000000
 11
133.500000000
 21
101.000000000
 31
0.000000000
  0
LINE
  5
A13
330
A02
100
AcDbEntity
  8
ProjItem
100
AcDbLine
 10
133.500000000
 20
110.000000000
 30
0.000000000
 11
158.500000000
 21
110.000000000
 31
0.000000000
  0
LINE
  5
A14
330
A02
100
AcDbEntity
  8
ProjItem
100
AcDbLine
 10
158.500000000
 20
110.000000000
 30
0.000000000
 11
163.500000000
 21
105.000000000
 31
0.000000000
  0
LINE
  5
A15
330
A02
100
AcDbEntity
  8
ProjItem
100
AcDbLine
 10
133.500000000
 20
101.000000000
 30
0.000000000
 11
163.500000000
 21
101.000000000
 31
0.000000000
  0
LINE
  5
A16
330
A02
100
AcDbEntity
  8
ProjItem
100
AcDbLine
 10
133.500000000
 20
102.000000000
 30
0.000000000
 11
133.500000000
 21
110.000000000
 31
0.000000000
  0
LINE
  5
A17
330
A02
100
AcDbEntity
  8
ProjItem
100
AcDbLine
 10
163.500000000
 20
105.000000000
 30
0.000000000
 11
163.500000000
 21
102.000000000
 31
0.000000000
  0
LINE
  5
A18
330
A02
100
AcDbEntity
  8
ProjItem
100
AcDbLine
 10
163.500000000
 20
102.000000000
 30
0.000000000
 11
133.500000000
 21
102.000000000
 31
0.000000000
  0
SPLINE
  5
A19
330
A02
100
AcDbEntity
  8
ProjItem
100
AcDbSpline
210
0
220
0
230
1
 70
8
 71
2
 72
30
 73
27
 74
0
 40
0.000000000
 40
0.000000000
 40
0.000000000
 40
0.112199738
 40
0.112199738
 40
0.224399475
 40
0.224399475
 40
0.336599213
 40
0.336599213
 40
0.448798951
 40
0.448798951
 40
0.560998688
 40
0.560998688
 40
0.673198426
 40
0.673198426
 40
0.785398163
 40
0.785398163
 40
0.897597901
 40
0.897597901
 40
1.009797639
 40
1.009797639
 40
1.121997376
 40
1.121997376
 40
1.234197114
 40
1.234197114
 40
1.346396852
 40
1.346396852
 40
1.570796327
 40
1.570796327
 40
1.570796327
 10
163.500000000
 20
100.000000000
 30
0.000000000
 10
163.500000000
 20
100.006287790
 30
0.000000000
 10
163.500000000
 20
100.012575580
 30
0.000000000
 10
163.500000000
 20
100.031359878
 30
0.000000000
 10
163.500000000
 20
100.050144176
 30
0.000000000
 10
163.500000000
 20
100.081188758
 30
0.000000000
 10
163.500000000
 20
100.112233339
 30
0.000000000
 10
163.500000000
 20
100.155147802
 30
0.000000000
 10
163.500000000
 20
100.198062264
 30
0.000000000
 10
163.500000000
 20
100.252306933
 30
0.000000000
 10
163.500000000
 20
100.306551602
 30
0.000000000
 10
163.500000000
 20
100.371444318
 30
0.000000000
 10
163.500000000
 20
100.436337035
 30
0.000000000
 10
163.500000000
 20
100.511061736
 30
0.000000000
 10
163.500000000
 20
100.585786438
 30
0.000000000
 10
163.500000000
 20
100.669403417
 30
0.000000000
 10
163.500000000
 20
100.753020396
 30
0.000000000
 10
163.500000000
 20
100.844478122
 30
0.000000000
 10
163.500000000
 20
100.935935847
 30
0.000000000
 10
163.500000000
 20
101.034084184
 30
0.000000000
 10
163.500000000
 20
101.132232522
 30
0.000000000
 10
163.500000000
 20
101.235837199
 30
0.000000000
 10
163.500000000
 20
101.339441876
 30
0.000000000
 10
163.500000000
 20
101.447200004
 30
0.000000000
 10
163.500000000
 20
101.554958132
 30
0.000000000
 10
163.500000000
 20
101.775281378
 30
0.000000000
 10
163.500000000
 20
102.000000000
 30
0.000000000
  0
SPLINE
  5
A1A
330
A02
100
AcDbEntity
  8
ProjItem
100
AcDbSpline
210
0
220
0
230
1
 70
8
 71
2
 72
30
 73
27
 74
0
 40
0.000000000
 40
0.000000000
 40
0.000000000
 40
0.112199738
 40
0.112199738
 40
0.224399475
 40
0.224399475
 40
0.336599213
 40
0.336599213
 40
0.448798951
 40
0.448798951
 40
0.560998688
 40
0.560998688
 40
0.673198426
 40
0.673198426
 40
0.785398163
 40
0.785398163
 40
0.897597901
 40
0.897597901
 40
1.009797639
 40
1.009797639
 40
1.121997376
 40
1.121997376
 40
1.234197114
 40
1.234197114
 40
1.346396852
 40
1.346396852
 40
1.570796327
 40
1.570796327
 40
1.570796327
 10
133.500000000
 20
100.000000000
 30
0.000000000
 10
133.500000000
 20
100.006287790
 30
0.000000000
 10
133.500000000
 20
100.012575580
 30
0.000000000
 10
133.500000000
 20
100.031359878
 30
0.000000000
 10
133.500000000
 20
100.050144176
 30
0.000000000
 10
133.500000000
 20
100.081188758
 30
0.000000000
 10
133.500000000
 20
100.112233339
 30
0.000000000
 10
133.500000000
 20
100.155147802
 30
0.000000000
 10
133.500000000
 20
100.198062264
 30
0.000000000
 10
133.500000000
 20
100.252306933
 30
0.000000000
 10
133.500000000
 20
100.306551602
 30
0.000000000
 10
133.500000000
 20
100.371444318
 30
0.000000000
 10
133.500000000
 20
100.436337035
 30
0.000000000
 10
133.500000000
 20
100.511061736
 30
0.000000000
 10
133.500000000
 20
100.585786438
 30
0.000000000
 10
133.500000000
 20
100.669403417
 30
0.000000000
 10
133.500000000
 20
100.753020396
 30
0.000000000
 10
133.500000000
 20
100.844478122
 30
0.000000000
 10
133.500000000
 20
100.935935847
 30
0.000000000
 10
133.500000000
 20
101.034084184
 30
0.000000000
 10
133.500000000
 20
101.132232522
 30
0.000000000
 10
133.500000000
 20
101.235837199
 30
0.000000000
 10
133.500000000
 20
101.339441876
 30
0.000000000
 10
133.500000000
 20
101.447200004
 30
0.000000000
 10
133.500000000
 20
101.554958132
 30
0.000000000
 10
133.500000000
 20
101.775281378
 30
0.000000000
 10
133.500000000
 20
102.000000000
 30
0.000000000
  0
LINE
  5
A1B
330
A02
100
AcDbEntity
  8
ProjItem
100
AcDbLine
 10
133.500000000
 20
100.000000000
 30
0.000000000
 11
163.500000000
 21
100.000000000
 31
0.000000000
  0
LINE
  5
A1C
330
A02
100
AcDbEntity
  8
ProjItem001
100
AcDbLine
 10
163.500000000
 20
125.000000100
 30
0.000000000
 11
133.500000000
 21
125.000000100
 31
0.000000000
  0
SPLINE
  5
A1D
330
A02
100
AcDbEntity
  8
ProjItem001
100
AcDbSpline
210
0
220
0
230
1
 70
8
 71
3
 72
41
 73
37
 74
0
 40
0.000000000
 40
0.000000000
 40
0.000000000
 40
0.000000000
 40
0.336599213
 40
0.336599213
 40
0.336599213
 40
0.448798951
 40
0.448798951
 40
0.448798951
 40
0.560998688
 40
0.560998688
 40
0.560998688
 40
0.673198426
 40
0.673198426
 40
0.673198426
 40
0.785398163
 40
0.785398163
 40
0.785398163
 40
0.897597901
 40
0.897597901
 40
0.897597901
 40
1.009797639
 40
1.009797639
 40
1.009797639
 40
1.121997376
 40
1.121997376
 40
1.121997376
 40
1.234197114
 40
1.234197114
 40
1.234197114
 40
1.346396852
 40
1.346396852
 40
1.346396852
 40
1.458596589
 40
1.458596589
 40
1.458596589
 40
1.570796327
 40
1.570796327
 40
1.570796327
 40
1.570796327
 10
163.500000000
 20
127.000000100
 30
0.000000000
 10
163.500000000
 20
126.775303686
 30
0.000000000
 10
163.500000000
 20
126.552713415
 30
0.000000000
 10
163.500000000
 20
126.339441976
 30
0.000000000
 10
163.500000000
 20
126.270372191
 30
0.000000000
 10
163.500000000
 20
126.201302407
 30
0.000000000
 10
163.500000000
 20
126.132232622
 30
0.000000000
 10
163.500000000
 20
126.066800397
 30
0.000000000
 10
163.500000000
 20
126.001368172
 30
0.000000000
 10
163.500000000
 20
125.935935947
 30
0.000000000
 10
163.500000000
 20
125.874964130
 30
0.000000000
 10
163.500000000
 20
125.813992313
 30
0.000000000
 10
163.500000000
 20
125.753020496
 30
0.000000000
 10
163.500000000
 20
125.697275843
 30
0.000000000
 10
163.500000000
 20
125.641531191
 30
0.000000000
 10
163.500000000
 20
125.585786538
 30
0.000000000
 10
163.500000000
 20
125.535970070
 30
0.000000000
 10
163.500000000
 20
125.486153603
 30
0.000000000
 10
163.500000000
 20
125.436337135
 30
0.000000000
 10
163.500000000
 20
125.393075324
 30
0.000000000
 10
163.500000000
 20
125.349813513
 30
0.000000000
 10
163.500000000
 20
125.306551702
 30
0.000000000
 10
163.500000000
 20
125.270388589
 30
0.000000000
 10
163.500000000
 20
125.234225477
 30
0.000000000
 10
163.500000000
 20
125.198062364
 30
0.000000000
 10
163.500000000
 20
125.169452723
 30
0.000000000
 10
163.500000000
 20
125.140843081
 30
0.000000000
 10
163.500000000
 20
125.112233439
 30
0.000000000
 10
163.500000000
 20
125.091537051
 30
0.000000000
 10
163.500000000
 20
125.070840664
 30
0.000000000
 10
163.500000000
 20
125.050144276
 30
0.000000000
 10
163.500000000
 20
125.037621410
 30
0.000000000
 10
163.500000000
 20
125.025098545
 30
0.000000000
 10
163.500000000
 20
125.012575680
 30
0.000000000
 10
163.500000000
 20
125.008383820
 30
0.000000000
 10
163.500000000
 20
125.004191960
 30
0.000000000
 10
163.500000000
 20
125.000000100
 30
0.000000000
  0
SPLINE
  5
A1E
330
A02
100
AcDbEntity
  8
ProjItem001
100
AcDbSpline
210
0
220
0
230
1
 70
8
 71
3
 72
41
 73
37
 74
0
 40
0.000000000
 40
0.000000000
 40
0.000000000
 40
0.000000000
 40
0.336599213
 40
0.336599213
 40
0.336599213
 40
0.448798951
 40
0.448798951
 40
0.448798951
 40
0.560998688
 40
0.560998688
 40
0.560998688
 40
0.673198426
 40
0.673198426
 40
0.673198426
 40
0.785398163
 40
0.785398163
 40
0.785398163
 40
0.897597901
 40
0.897597901
 40
0.897597901
 40
1.009797639
 40
1.009797639
 40
1.009797639
 40
1.121997376
 40
1.121997376
 40
1.121997376
 40
1.234197114
 40
1.234197114
 40
1.234197114
 40
1.346396852
 40
1.346396852
 40
1.346396852
 40
1.458596589
 40
1.458596589
 40
1.458596589
 40
1.570796327
 40
1.570796327
 40
1.570796327
 40
1.570796327
 10
133.500000000
 20
127.000000100
 30
0.000000000
 10
133.500000000
 20
126.775303686
 30
0.000000000
 10
133.500000000
 20
126.552713415
 30
0.000000000
 10
133.500000000
 20
126.339441976
 30
0.000000000
 10
133.500000000
 20
126.270372191
 30
0.000000000
 10
133.500000000
 20
126.201302407
 30
0.000000000
 10
133.500000000
 20
126.132232622
 30
0.000000000
 10
133.500000000
 20
126.066800397
 30
0.000000000
 10
133.500000000
 20
126.001368172
 30
0.000000000
 10
133.500000000
 20
125.935935947
 30
0.000000000
 10
133.500000000
 20
125.874964130
 30
0.000000000
 10
133.500000000
 20
125.813992313
 30
0.000000000
 10
133.500000000
 20
125.753020496
 30
0.000000000
 10
133.500000000
 20
125.697275843
 30
0.000000000
 10
133.500000000
 20
125.641531191
 30
0.000000000
 10
133.500000000
 20
125.585786538
 30
0.000000000
 10
133.500000000
 20
125.535970070
 30
0.000000000
 10
133.500000000
 20
125.486153603
 30
0.000000000
 10
133.500000000
 20
125.436337135
 30
0.000000000
 10
133.500000000
 20
125.393075324
 30
0.000000000
 10
133.500000000
 20
125.349813513
 30
0.000000000
 10
133.500000000
 20
125.306551702
 30
0.000000000
 10
133.500000000
 20
125.270388589
 30
0.000000000
 10
133.500000000
 20
125.234225477
 30
0.000000000
 10
133.500000000
 20
125.198062364
 30
0.000000000
 10
133.500000000
 20
125.169452723
 30
0.000000000
 10
133.500000000
 20
125.140843081
 30
0.000000000
 10
133.500000000
 20
125.112233439
 30
0.000000000
 10
133.500000000
 20
125.091537051
 30
0.000000000
 10
133.500000000
 20
125.070840664
 30
0.000000000
 10
133.500000000
 20
125.050144276
 30
0.000000000
 10
133.500000000
 20
125.037621410
 30
0.000000000
 10
133.500000000
 20
125.025098545
 30
0.000000000
 10
133.500000000
 20
125.012575680
 30
0.000000000
 10
133.500000000
 20
125.008383820
 30
0.000000000
 10
133.500000000
 20
125.004191960
 30
0.000000000
 10
133.500000000
 20
125.000000100
 30
0.000000000
  0
LINE
  5
A1F
330
A02
100
AcDbEntity
  8
ProjItem001
100
AcDbLine
 10
133.500000000
 20
127.000000100
 30
0.000000000
 11
163.500000000
 21
127.000000100
 31
0.000000000
  0
LINE
  5
A20
330
A02
100
AcDbEntity
  8
ProjItem001
100
AcDbLine
 10
133.500000000
 20
145.000000100
 30
0.000000000
 11
163.500000000
 21
145.000000100
 31
0.000000000
  0
LINE
  5
A21
330
A02
100
AcDbEntity
  8
ProjItem001
100
AcDbLine
 10
133.500000000
 20
145.000000100
 30
0.000000000
 11
133.500000000
 21
127.000000100
 31
0.000000000
  0
LINE
  5
A22
330
A02
100
AcDbEntity
  8
ProjItem001
100
AcDbLine
 10
163.500000000
 20
145.000000100
 30
0.000000000
 11
163.500000000
 21
127.000000100
 31
0.000000000
  0
LINE
  5
A23
330
A02
100
AcDbEntity
  8
ProjItem001
100
AcDbLine
 10
133.500000000
 20
126.000000100
 30
0.000000000
 11
158.500000000
 21
126.000000100
 31
0.000000000
  0
LINE
  5
A24
330
A02
100
AcDbEntity
  8
ProjItem001
100
AcDbLine
 10
158.500000000
 20
126.000000100
 30
0.000000000
 11
163.500000000
 21
126.000000100
 31
0.000000000
  0
LINE
  5
A25
330
A02
100
AcDbEntity
  8
ProjItem001
100
AcDbLine
 10
133.500000000
 20
126.000000100
 30
0.000000000
 11
163.500000000
 21
126.000000100
 31
0.000000000
  0
LINE
  5
A26
330
A02
100
AcDbEntity
  8
ProjItem001
100
AcDbLine
 10
133.500000000
 20
125.000000100
 30
0.000000000
 11
158.500000000
 21
125.000000100
 31
0.000000000
  0
LINE
  5
A27
330
A02
100
AcDbEntity
  8
ProjItem001
100
AcDbLine
 10
158.500000000
 20
125.000000100
 30
0.000000000
 11
158.500000000
 21
126.000000100
 31
0.000000000
  0
LINE
  5
A28
330
A02
100
AcDbEntity
  8
ProjItem001
100
AcDbLine
 10
133.500000000
 20
125.000000100
 30
0.000000000
 11
133.500000000
 21
126.000000100
 31
0.000000000
  0
LINE
  5
A29
330
A02
100
AcDbEntity
  8
ProjItem001
100
AcDbLine
 10
158.500000000
 20
125.000000100
 30
0.000000000
 11
163.500000000
 21
125.000000100
 31
0.000000000
  0
LINE
  5
A2A
330
A02
100
AcDbEntity
  8
ProjItem001
100
AcDbLine
 10
163.500000000
 20
125.000000100
 30
0.000000000
 11
163.500000000
 21
126.000000100
 31
0.000000000
  0
SPLINE
  5
A2B
330
A02
100
AcDbEntity
  8
ProjItem001
100
AcDbSpline
210
0
220
0
230
1
 70
8
 71
2
 72
24
 73
21
 74
0
 40
0.000000000
 40
0.000000000
 40
0.000000000
 40
0.336599213
 40
0.336599213
 40
0.560998688
 40
0.560998688
 40
0.785398163
 40
0.785398163
 40
0.897597901
 40
0.897597901
 40
1.009797639
 40
1.009797639
 40
1.121997376
 40
1.121997376
 40
1.234197114
 40
1.234197114
 40
1.346396852
 40
1.346396852
 40
1.458596589
 40
1.458596589
 40
1.570796327
 40
1.570796327
 40
1.570796327
 10
133.500000000
 20
127.000000100
 30
0.000000000
 10
133.500000000
 20
126.830576203
 30
0.000000000
 10
133.500000000
 20
126.669721038
 30
0.000000000
 10
133.500000000
 20
126.564586301
 30
0.000000000
 10
133.500000000
 20
126.467968023
 30
0.000000000
 10
133.500000000
 20
126.374311606
 30
0.000000000
 10
133.500000000
 20
126.292893319
 30
0.000000000
 10
133.500000000
 20
126.255530968
 30
0.000000000
 10
133.500000000
 20
126.218168618
 30
0.000000000
 10
133.500000000
 20
126.185722259
 30
0.000000000
 10
133.500000000
 20
126.153275901
 30
0.000000000
 10
133.500000000
 20
126.126153566
 30
0.000000000
 10
133.500000000
 20
126.099031232
 30
0.000000000
 10
133.500000000
 20
126.077574001
 30
0.000000000
 10
133.500000000
 20
126.056116770
 30
0.000000000
 10
133.500000000
 20
126.040594479
 30
0.000000000
 10
133.500000000
 20
126.025072188
 30
0.000000000
 10
133.500000000
 20
126.015680039
 30
0.000000000
 10
133.500000000
 20
126.006287890
 30
0.000000000
 10
133.500000000
 20
126.003143995
 30
0.000000000
 10
133.500000000
 20
126.000000100
 30
0.000000000
  0
SPLINE
  5
A2C
330
A02
100
AcDbEntity
  8
ProjItem001
100
AcDbSpline
210
0
220
0
230
1
 70
8
 71
2
 72
24
 73
21
 74
0
 40
0.000000000
 40
0.000000000
 40
0.000000000
 40
0.336599213
 40
0.336599213
 40
0.560998688
 40
0.560998688
 40
0.785398163
 40
0.785398163
 40
0.897597901
 40
0.897597901
 40
1.009797639
 40
1.009797639
 40
1.121997376
 40
1.121997376
 40
1.234197114
 40
1.234197114
 40
1.346396852
 40
1.346396852
 40
1.458596589
 40
1.458596589
 40
1.570796327
 40
1.570796327
 40
1.570796327
 10
163.500000000
 20
127.000000100
 30
0.000000000
 10
163.500000000
 20
126.830576203
 30
0.000000000
 10
163.500000000
 20
126.669721038
 30
0.000000000
 10
163.500000000
 20
126.564586301
 30
0.000000000
 10
163.500000000
 20
126.467968023
 30
0.000000000
 10
163.500000000
 20
126.374311606
 30
0.000000000
 10
163.500000000
 20
126.292893319
 30
0.000000000
 10
163.500000000
 20
126.255530968
 30
0.000000000
 10
163.500000000
 20
126.218168618
 30
0.000000000
 10
163.500000000
 20
126.185722259
 30
0.000000000
 10
163.500000000
 20
126.153275901
 30
0.000000000
 10
163.500000000
 20
126.126153566
 30
0.000000000
 10
163.500000000
 20
126.099031232
 30
0.000000000
 10
163.500000000
 20
126.077574001
 30
0.000000000
 10
163.500000000
 20
126.056116770
 30
0.000000000
 10
163.500000000
 20
126.040594479
 30
0.000000000
 10
163.500000000
 20
126.025072188
 30
0.000000000
 10
163.500000000
 20
126.015680039
 30
0.000000000
 10
163.500000000
 20
126.006287890
 30
0.000000000
 10
163.500000000
 20
126.003143995
 30
0.000000000
 10
163.500000000
 20
126.000000100
 30
0.000000000
  0
LINE
  5
A2D
330
A02
100
AcDbEntity
  8
ProjItem001
100
AcDbLine
 10
133.500000000
 20
127.000000100
 30
0.000000000
 11
163.500000000
 21
127.000000100
 31
0.000000000
  0
LINE
  5
A2E
330
A02
100
AcDbEntity
  8
ProjItem001
100
AcDbLine
 10
133.500000000
 20
145.000000100
 30
0.000000000
 11
133.500000000
 21
127.000000100
 31
0.000000000
  0
LINE
  5
A2F
330
A02
100
AcDbEntity
  8
ProjItem001
100
AcDbLine
 10
163.500000000
 20
145.000000100
 30
0.000000000
 11
163.500000000
 21
127.000000100
 31
0.000000000
  0
LINE
  5
A30
330
A02
100
AcDbEntity
  8
ProjItem001
100
AcDbLine
 10
133.500000000
 20
145.000000100
 30
0.000000000
 11
163.500000000
 21
145.000000100
 31
0.000000000
  0
LINE
  5
A31
330
A02
100
AcDbEntity
  8
ProjItem002
100
AcDbLine
 10
179.500000100
 20
102.000000000
 30
0.000000000
 11
179.500000100
 21
110.000000000
 31
0.000000000
  0
LINE
  5
A32
330
A02
100
AcDbEntity
  8
ProjItem002
100
AcDbLine
 10
178.500000100
 20
110.000000000
 30
0.000000000
 11
179.500000100
 21
110.000000000
 31
0.000000000
  0
ARC
  5
A33
330
A02
100
AcDbEntity
  8
ProjItem002
100
AcDbCircle
 10
180.500000100
 20
102.000000000
 30
0.000000000
 40
1.000000000
100
AcDbArc
 50
180.000000000
 51
-90.000000000
  0
LINE
  5
A34
330
A02
100
AcDbEntity
  8
ProjItem002
100
AcDbLine
 10
178.500000100
 20
102.000000000
 30
0.000000000
 11
178.500000100
 21
110.000000000
 31
0.000000000
  0
LINE
  5
A35
330
A02
100
AcDbEntity
  8
ProjItem002
100
AcDbLine
 10
198.500000100
 20
101.000000000
 30
0.000000000
 11
180.500000100
 21
101.000000000
 31
0.000000000
  0
ARC
  5
A36
330
A02
100
AcDbEntity
  8
ProjItem002
100
AcDbCircle
 10
180.500000100
 20
102.000000000
 30
0.000000000
 40
2.000000000
100
AcDbArc
 50
180.000000000
 51
-90.000000000
  0
LINE
  5
A37
330
A02
100
AcDbEntity
  8
ProjItem002
100
AcDbLine
 10
198.500000100
 20
100.000000000
 30
0.000000000
 11
198.500000100
 21
101.000000000
 31
0.000000000
  0
LINE
  5
A38
330
A02
100
AcDbEntity
  8
ProjItem002
100
AcDbLine
 10
198.500000100
 20
100.000000000
 30
0.000000000
 11
180.500000100
 21
100.000000000
 31
0.000000000
  0
LINE
  5
A39
330
A02
100
AcDbEntity
  8
ProjItem002
100
AcDbLine
 10
179.500000100
 20
110.000000000
 30
0.000000000
 11
179.500000100
 21
105.000000000
 31
0.000000000
  0
LINE
  5
A3A
330
A02
100
AcDbEntity
  8
ProjItem002
100
AcDbLine
 10
179.500000100
 20
105.000000000
 30
0.000000000
 11
179.500000100
 21
102.000000000
 31
0.000000000
  0
LINE
  5
A3B
330
A02
100
AcDbEntity
  8
ProjItem002
100
AcDbLine
 10
178.500000100
 20
110.000000000
 30
0.000000000
 11
179.500000100
 21
110.000000000
 31
0.000000000
  0
LINE
  5
A3C
330
A02
100
AcDbEntity
  8
ProjItem002
100
AcDbLine
 10
178.500000100
 20
110.000000000
 30
0.000000000
 11
178.500000100
 21
105.000000000
 31
0.000000000
  0
LINE
  5
A3D
330
A02
100
AcDbEntity
  8
ProjItem002
100
AcDbLine
 10
178.500000100
 20
105.000000000
 30
0.000000000
 11
179.500000100
 21
105.000000000
 31
0.000000000
  0
ARC
  5
A3E
330
A02
100
AcDbEntity
  8
ProjItem002
100
AcDbCircle
 10
180.500000100
 20
102.000000000
 30
0.000000000
 40
1.000000000
100
AcDbArc
 50
180.000000000
 51
-90.000000000
  0
LINE
  5
A3F
330
A02
100
AcDbEntity
  8
ProjItem002
100
AcDbLine
 10
178.500000100
 20
105.000000000
 30
0.000000000
 11
178.500000100
 21
102.000000000
 31
0.000000000
  0
LINE
  5
A40
330
A02
100
AcDbEntity
  8
ProjItem002
100
AcDbLine
 10
198.500000100
 20
101.000000000
 30
0.000000000
 11
180.500000100
 21
101.000000000
 31
0.000000000
  0
ARC
  5
A41
330
A02
100
AcDbEntity
  8
ProjItem002
100
AcDbCircle
 10
180.500000100
 20
102.000000000
 30
0.000000000
 40
2.000000000
100
AcDbArc
 50
180.000000000
 51
-90.000000000
  0
LINE
  5
A42
330
A02
100
AcDbEntity
  8
ProjItem002
100
AcDbLine
 10
198.500000100
 20
100.000000000
 30
0.000000000
 11
198.500000100
 21
101.000000000
 31
0.000000000
  0
LINE
  5
A43
330
A02
100
AcDbEntity
  8
ProjItem002
100
AcDbLine
 10
198.500000100
 20
100.000000000
 30
0.000000000
 11
180.500000100
 21
100.000000000
 31
0.000000000
  0
ENDSEC
  0
SECTION
  2
OBJECTS
  0
DICTIONARY
  5
F000
330
0
100
AcDbDictionary
  3
ACAD_GROUP
350
F001
  0
DICTIONARY
  5
F001
330
F000
100
AcDbDictionary
  0
ENDSEC
  0
EOF