999
FreeCAD v1.0 39285 (Git)
  0
SECTION
  2
HEADER
  9
$ACADVER
  1
AC1014
  9
$ACADMAINTVER
 70
     9
  9
$DWGCODEPAGE
  3
ANSI_1252
  9
$TEXTSTYLE
  7
STANDARD
  9
$DIMSTYLE
  2
STANDARD
  9
$DIMTXSTY
  7
STANDARD
  9
$CMLSTYLE
  2
STANDARD
  9
$LUNITS
 70
2
  9
$INSUNITS
 70
4
  9
$PEXTMAX
 10
50
 20
50
 30
50
  9
$PEXTMIN
 10
0
 20
0
 30
0
  9
$HANDSEED
  5
FFFF
  0
ENDSEC
  0
SECTION
  2
CLASSES
  0
CLASS
  1
ACDBDICTIONARYWDFLT
  2
AcDbDictionaryWithDefault
  3
ObjectDBX Classes
 90
        0
280
     0
281
     0
  0
CLASS
  1
XRECORD
  2
AcDbXrecord
  3
ObjectDBX Classes
 90
        0
280
     0
281
     0
  0
CLASS
  1
LWPOLYLINE
  2
AcDbPolyline
  3
ObjectDBX Classes
 90
        0
280
     0
281
     1
  0
ENDSEC
  0
SECTION
  2
TABLES
  0
TABLE
  2
VPORT
  5
20
330
0
100
AcDbSymbolTable
 70
     1
  0
VPORT
  5
21
330
20
100
AcDbSymbolTableRecord
100
AcDbViewportTableRecord
  2
*ACTIVE
 70
     0
  0
ENDTAB
  0
TABLE
  2
LTYPE
  5
22
330
0
100
AcDbSymbolTable
 70
     1
  0
LTYPE
  5
23
330
21
100
AcDbSymbolTableRecord
100
AcDbLinetypeTableRecord
  2
BYBLOCK
 70
     0
  3

 72
    65
 73
     0
 40
0.0
  0
LTYPE
  5
24
330
21
100
AcDbSymbolTableRecord
100
AcDbLinetypeTableRecord
  2
BYLAYER
 70
     0
  3

 72
    65
 73
     0
 40
0.0
  0
LTYPE
  5
25
330
21
100
AcDbSymbolTableRecord
100
AcDbLinetypeTableRecord
  2
CONTINUOUS
 70
     0
  3
Solid line
 72
    65
 73
     0
 40
0.0
  0
ENDTAB
  0
TABLE
  2
LAYER
  5
AE0
330
0
100
AcDbSymbolTable
 70
4
  0
LAYER
  5
AE1
330
AE0
100
AcDbSymbolTableRecord
100
AcDbLayerTableRecord
  2
0
 70
   0
 62
   7
  6
CONTINUOUS
  0
LAYER
  5
AE2
330
AE0
100
AcDbSymbolTableRecord
100
AcDbLayerTableRecord
  2
ProjItem
 70
    0
 62
    7
  6
CONTINUOUS
  0
LAYER
  5
AE3
330
AE0
100
AcDbSymbolTableRecord
100
AcDbLayerTableRecord
  2
ProjItem001
 70
    0
 62
    7
  6
CONTINUOUS
  0
LAYER
  5
AE4
330
AE0
100
AcDbSymbolTableRecord
100
AcDbLayerTableRecord
  2
ProjItem002
 70
    0
 62
    7
  6
CONTINUOUS
  0
ENDTAB
  0
TABLE
  2
STYLE
  5
70
330
0
100
AcDbSymbolTable
 70
     2
  0
STYLE
  5
71
330
70
100
AcDbSymbolTableRecord
100
AcDbTextStyleTableRecord
  2
STANDARD
 70
     0
 40
0.0
 41
1.0
 50
0.0
 71
     0
 42
2.5
  3
arial.ttf
  4

  0
STYLE
  5
72
330
70
100
AcDbSymbolTableRecord
100
AcDbTextStyleTableRecord
  2
ANNOTATIVE
 70
     0
 40
0.0
 41
1.0
 50
0.0
 71
     0
 42
2.5
  3
arial.ttf
  4

  0
ENDTAB
  0
TABLE
  2
VIEW
  5
73
330
0
100
AcDbSymbolTable
 70
     0
  0
ENDTAB
  0
TABLE
  2
UCS
  5
74
330
0
100
AcDbSymbolTable
 70
     0
  0
ENDTAB
  0
TABLE
  2
APPID
  5
75
330
0
100
AcDbSymbolTable
 70
     2
  0
APPID
  5
76
330
75
100
AcDbSymbolTableRecord
100
AcDbRegAppTableRecord
  2
ACAD
 70
     0
  0
APPID
  5
77
330
75
100
AcDbSymbolTableRecord
100
AcDbRegAppTableRecord
  2
ACADANNOTATIVE
 70
     0
  0
ENDTAB
  0
TABLE
  2
DIMSTYLE
  5
78
330
0
100
AcDbSymbolTable
 70
     2
  0
DIMSTYLE
105
79
330
78
100
AcDbSymbolTableRecord
100
AcDbDimStyleTableRecord
  2
STANDARD
 70
     0
  3

  4

  5

  6

  7

 40
0.0
 41
2.5
 42
0.625
 43
3.75
 44
1.25
 45
0.0
 46
0.0
 47
0.0
 48
0.0
140
2.5
141
2.5
142
0.0
143
0.03937007874016
144
1.0
145
0.0
146
1.0
147
0.625
 71
     0
 72
     0
 73
     0
 74
     0
 75
     0
 76
     0
 77
     1
 78
     8
170
     0
171
     3
172
     1
173
     0
174
     0
175
     0
176
     0
177
     0
178
     0
270
     2
271
     2
272
     2
273
     2
274
     3
340
71
275
     0
280
     0
281
     0
282
     0
283
     0
284
     8
285
     0
286
     0
287
     3
288
     0
  0
ENDTAB
  0
TABLE
  2
BLOCK_RECORD
  5
A01
330
0
100
AcDbSymbolTable
  70
5
  0
BLOCK_RECORD
  5
A02
330
A01
100
AcDbSymbolTableRecord
100
AcDbBlockTableRecord
  2
*MODEL_SPACE
  0
BLOCK_RECORD
  5
A03
330
A01
100
AcDbSymbolTableRecord
100
AcDbBlockTableRecord
  2
*PAPER_SPACE
  0
ENDTAB
  0
ENDSEC
  0
SECTION
  2
BLOCKS
  0
BLOCK
  5
A04
330
A02
100
AcDbEntity
  8
0
100
AcDbBlockBegin
  2
*MODEL_SPACE
 70
   0
 10
0
 20
0
 30
0
  3
*MODEL_SPACE
  1
 
  0
ENDBLK
  5
A05
330
A02
100
AcDbEntity
  8
0
100
AcDbBlockEnd
  0
BLOCK
  5
A06
330
A03
100
AcDbEntity
 67
1
  8
0
100
AcDbBlockBegin
  2
*PAPER_SPACE
 70
   0
 10
0
 20
0
 30
0
  3
*PAPER_SPACE
  1
 
  0
ENDBLK
  5
A07
330
A03
100
AcDbEntity
 67
    1
  8
0
100
AcDbBlockEnd
  0
ENDSEC
  0
SECTION
  2
ENTITIES
  0
LINE
  5
A08
330
A02
100
AcDbEntity
  8
ProjItem
100
AcDbLine
 10
135.500000000
 20
100.000000000
 30
0.000000000
 11
161.500000000
 21
100.000000000
 31
0.000000000
  0
ARC
  5
A09
330
A02
100
AcDbEntity
  8
ProjItem
100
AcDbCircle
 10
135.500000000
 20
102.000000000
 30
0.000000000
 40
2.000000000
100
AcDbArc
 50
180.000000000
 51
-90.000000000
  0
ARC
  5
A0A
330
A02
100
AcDbEntity
  8
ProjItem
100
AcDbCircle
 10
161.500000000
 20
102.000000000
 30
0.000000000
 40
2.000000000
100
AcDbArc
 50
-90.000000000
 51
0.000000000
  0
SPLINE
  5
A0B
330
A02
100
AcDbEntity
  8
ProjItem
100
AcDbSpline
210
0
220
0
230
1
 70
8
 71
2
 72
30
 73
27
 74
0
 40
0.000000000
 40
0.000000000
 40
0.000000000
 40
0.112199738
 40
0.112199738
 40
0.224399475
 40
0.224399475
 40
0.336599213
 40
0.336599213
 40
0.448798951
 40
0.448798951
 40
0.560998688
 40
0.560998688
 40
0.673198426
 40
0.673198426
 40
0.785398163
 40
0.785398163
 40
0.897597901
 40
0.897597901
 40
1.009797639
 40
1.009797639
 40
1.121997376
 40
1.121997376
 40
1.234197114
 40
1.234197114
 40
1.346396852
 40
1.346396852
 40
1.570796327
 40
1.570796327
 40
1.570796327
 10
161.500000000
 20
100.000000000
 30
0.000000000
 10
161.500000000
 20
100.006287790
 30
0.000000000
 10
161.500000000
 20
100.012575580
 30
0.000000000
 10
161.500000000
 20
100.031359878
 30
0.000000000
 10
161.500000000
 20
100.050144176
 30
0.000000000
 10
161.500000000
 20
100.081188758
 30
0.000000000
 10
161.500000000
 20
100.112233339
 30
0.000000000
 10
161.500000000
 20
100.155147802
 30
0.000000000
 10
161.500000000
 20
100.198062264
 30
0.000000000
 10
161.500000000
 20
100.252306933
 30
0.000000000
 10
161.500000000
 20
100.306551602
 30
0.000000000
 10
161.500000000
 20
100.371444318
 30
0.000000000
 10
161.500000000
 20
100.436337035
 30
0.000000000
 10
161.500000000
 20
100.511061736
 30
0.000000000
 10
161.500000000
 20
100.585786438
 30
0.000000000
 10
161.500000000
 20
100.669403417
 30
0.000000000
 10
161.500000000
 20
100.753020396
 30
0.000000000
 10
161.500000000
 20
100.844478122
 30
0.000000000
 10
161.500000000
 20
100.935935847
 30
0.000000000
 10
161.500000000
 20
101.034084184
 30
0.000000000
 10
161.500000000
 20
101.132232522
 30
0.000000000
 10
161.500000000
 20
101.235837199
 30
0.000000000
 10
161.500000000
 20
101.339441876
 30
0.000000000
 10
161.500000000
 20
101.447200004
 30
0.000000000
 10
161.500000000
 20
101.554958132
 30
0.000000000
 10
161.500000000
 20
101.775281378
 30
0.000000000
 10
161.500000000
 20
102.000000000
 30
0.000000000
  0
SPLINE
  5
A0C
330
A02
100
AcDbEntity
  8
ProjItem
100
AcDbSpline
210
0
220
0
230
1
 70
8
 71
2
 72
30
 73
27
 74
0
 40
0.000000000
 40
0.000000000
 40
0.000000000
 40
0.112199738
 40
0.112199738
 40
0.224399475
 40
0.224399475
 40
0.336599213
 40
0.336599213
 40
0.448798951
 40
0.448798951
 40
0.560998688
 40
0.560998688
 40
0.673198426
 40
0.673198426
 40
0.785398163
 40
0.785398163
 40
0.897597901
 40
0.897597901
 40
1.009797639
 40
1.009797639
 40
1.121997376
 40
1.121997376
 40
1.234197114
 40
1.234197114
 40
1.346396852
 40
1.346396852
 40
1.570796327
 40
1.570796327
 40
1.570796327
 10
135.500000000
 20
100.000000000
 30
0.000000000
 10
135.500000000
 20
100.006287790
 30
0.000000000
 10
135.500000000
 20
100.012575580
 30
0.000000000
 10
135.500000000
 20
100.031359878
 30
0.000000000
 10
135.500000000
 20
100.050144176
 30
0.000000000
 10
135.500000000
 20
100.081188758
 30
0.000000000
 10
135.500000000
 20
100.112233339
 30
0.000000000
 10
135.500000000
 20
100.155147802
 30
0.000000000
 10
135.500000000
 20
100.198062264
 30
0.000000000
 10
135.500000000
 20
100.252306933
 30
0.000000000
 10
135.500000000
 20
100.306551602
 30
0.000000000
 10
135.500000000
 20
100.371444318
 30
0.000000000
 10
135.500000000
 20
100.436337035
 30
0.000000000
 10
135.500000000
 20
100.511061736
 30
0.000000000
 10
135.500000000
 20
100.585786438
 30
0.000000000
 10
135.500000000
 20
100.669403417
 30
0.000000000
 10
135.500000000
 20
100.753020396
 30
0.000000000
 10
135.500000000
 20
100.844478122
 30
0.000000000
 10
135.500000000
 20
100.935935847
 30
0.000000000
 10
135.500000000
 20
101.034084184
 30
0.000000000
 10
135.500000000
 20
101.132232522
 30
0.000000000
 10
135.500000000
 20
101.235837199
 30
0.000000000
 10
135.500000000
 20
101.339441876
 30
0.000000000
 10
135.500000000
 20
101.447200004
 30
0.000000000
 10
135.500000000
 20
101.554958132
 30
0.000000000
 10
135.500000000
 20
101.775281378
 30
0.000000000
 10
135.500000000
 20
102.000000000
 30
0.000000000
  0
LINE
  5
A0D
330
A02
100
AcDbEntity
  8
ProjItem
100
AcDbLine
 10
161.500000000
 20
102.000000000
 30
0.000000000
 11
135.500000000
 21
102.000000000
 31
0.000000000
  0
ARC
  5
A0E
330
A02
100
AcDbEntity
  8
ProjItem
100
AcDbCircle
 10
135.500000000
 20
102.000000000
 30
0.000000000
 40
1.000000000
100
AcDbArc
 50
180.000000000
 51
-90.000000000
  0
LINE
  5
A0F
330
A02
100
AcDbEntity
  8
ProjItem
100
AcDbLine
 10
133.500000000
 20
102.000000000
 30
0.000000000
 11
133.500000000
 21
110.000000000
 31
0.000000000
  0
ARC
  5
A10
330
A02
100
AcDbEntity
  8
ProjItem
100
AcDbCircle
 10
161.500000000
 20
102.000000000
 30
0.000000000
 40
1.000000000
100
AcDbArc
 50
-90.000000000
 51
0.000000000
  0
LINE
  5
A11
330
A02
100
AcDbEntity
  8
ProjItem
100
AcDbLine
 10
163.500000000
 20
102.000000000
 30
0.000000000
 11
163.500000000
 21
110.000000000
 31
0.000000000
  0
LINE
  5
A12
330
A02
100
AcDbEntity
  8
ProjItem
100
AcDbLine
 10
162.400000000
 20
102.000000000
 30
0.000000000
 11
161.500000000
 21
102.000000000
 31
0.000000000
  0
LINE
  5
A13
330
A02
100
AcDbEntity
  8
ProjItem
100
AcDbLine
 10
135.500000000
 20
102.000000000
 30
0.000000000
 11
134.600000000
 21
102.000000000
 31
0.000000000
  0
LINE
  5
A14
330
A02
100
AcDbEntity
  8
ProjItem
100
AcDbLine
 10
134.600000000
 20
102.000000000
 30
0.000000000
 11
134.600000000
 21
110.000000000
 31
0.000000000
  0
LINE
  5
A15
330
A02
100
AcDbEntity
  8
ProjItem
100
AcDbLine
 10
134.600000000
 20
110.000000000
 30
0.000000000
 11
162.400000000
 21
110.000000000
 31
0.000000000
  0
LINE
  5
A16
330
A02
100
AcDbEntity
  8
ProjItem
100
AcDbLine
 10
162.400000000
 20
110.000000000
 30
0.000000000
 11
162.400000000
 21
102.000000000
 31
0.000000000
  0
LINE
  5
A17
330
A02
100
AcDbEntity
  8
ProjItem
100
AcDbLine
 10
133.500000000
 20
102.000000000
 30
0.000000000
 11
134.500000000
 21
102.000000000
 31
0.000000000
  0
LINE
  5
A18
330
A02
100
AcDbEntity
  8
ProjItem
100
AcDbLine
 10
133.500000000
 20
110.000000000
 30
0.000000000
 11
134.500000000
 21
110.000000000
 31
0.000000000
  0
LINE
  5
A19
330
A02
100
AcDbEntity
  8
ProjItem
100
AcDbLine
 10
134.500000000
 20
102.000000000
 30
0.000000000
 11
134.500000000
 21
110.000000000
 31
0.000000000
  0
LINE
  5
A1A
330
A02
100
AcDbEntity
  8
ProjItem
100
AcDbLine
 10
163.500000000
 20
102.000000000
 30
0.000000000
 11
162.500000000
 21
102.000000000
 31
0.000000000
  0
LINE
  5
A1B
330
A02
100
AcDbEntity
  8
ProjItem
100
AcDbLine
 10
163.500000000
 20
110.000000000
 30
0.000000000
 11
162.500000000
 21
110.000000000
 31
0.000000000
  0
LINE
  5
A1C
330
A02
100
AcDbEntity
  8
ProjItem
100
AcDbLine
 10
162.500000000
 20
102.000000000
 30
0.000000000
 11
162.500000000
 21
110.000000000
 31
0.000000000
  0
LINE
  5
A1D
330
A02
100
AcDbEntity
  8
ProjItem
100
AcDbLine
 10
135.500000000
 20
100.000000000
 30
0.000000000
 11
161.500000000
 21
100.000000000
 31
0.000000000
  0
ARC
  5
A1E
330
A02
100
AcDbEntity
  8
ProjItem
100
AcDbCircle
 10
135.500000000
 20
102.000000000
 30
0.000000000
 40
2.000000000
100
AcDbArc
 50
180.000000000
 51
-90.000000000
  0
SPLINE
  5
A1F
330
A02
100
AcDbEntity
  8
ProjItem
100
AcDbSpline
210
0
220
0
230
1
 70
8
 71
2
 72
30
 73
27
 74
0
 40
0.000000000
 40
0.000000000
 40
0.000000000
 40
0.112199738
 40
0.112199738
 40
0.224399475
 40
0.224399475
 40
0.336599213
 40
0.336599213
 40
0.448798951
 40
0.448798951
 40
0.560998688
 40
0.560998688
 40
0.673198426
 40
0.673198426
 40
0.785398163
 40
0.785398163
 40
0.897597901
 40
0.897597901
 40
1.009797639
 40
1.009797639
 40
1.121997376
 40
1.121997376
 40
1.234197114
 40
1.234197114
 40
1.346396852
 40
1.346396852
 40
1.570796327
 40
1.570796327
 40
1.570796327
 10
161.500000000
 20
100.000000000
 30
0.000000000
 10
161.500000000
 20
100.006287790
 30
0.000000000
 10
161.500000000
 20
100.012575580
 30
0.000000000
 10
161.500000000
 20
100.031359878
 30
0.000000000
 10
161.500000000
 20
100.050144176
 30
0.000000000
 10
161.500000000
 20
100.081188758
 30
0.000000000
 10
161.500000000
 20
100.112233339
 30
0.000000000
 10
161.500000000
 20
100.155147802
 30
0.000000000
 10
161.500000000
 20
100.198062264
 30
0.000000000
 10
161.500000000
 20
100.252306933
 30
0.000000000
 10
161.500000000
 20
100.306551602
 30
0.000000000
 10
161.500000000
 20
100.371444318
 30
0.000000000
 10
161.500000000
 20
100.436337035
 30
0.000000000
 10
161.500000000
 20
100.511061736
 30
0.000000000
 10
161.500000000
 20
100.585786438
 30
0.000000000
 10
161.500000000
 20
100.669403417
 30
0.000000000
 10
161.500000000
 20
100.753020396
 30
0.000000000
 10
161.500000000
 20
100.844478122
 30
0.000000000
 10
161.500000000
 20
100.935935847
 30
0.000000000
 10
161.500000000
 20
101.034084184
 30
0.000000000
 10
161.500000000
 20
101.132232522
 30
0.000000000
 10
161.500000000
 20
101.235837199
 30
0.000000000
 10
161.500000000
 20
101.339441876
 30
0.000000000
 10
161.500000000
 20
101.447200004
 30
0.000000000
 10
161.500000000
 20
101.554958132
 30
0.000000000
 10
161.500000000
 20
101.775281378
 30
0.000000000
 10
161.500000000
 20
102.000000000
 30
0.000000000
  0
SPLINE
  5
A20
330
A02
100
AcDbEntity
  8
ProjItem
100
AcDbSpline
210
0
220
0
230
1
 70
8
 71
2
 72
30
 73
27
 74
0
 40
0.000000000
 40
0.000000000
 40
0.000000000
 40
0.112199738
 40
0.112199738
 40
0.224399475
 40
0.224399475
 40
0.336599213
 40
0.336599213
 40
0.448798951
 40
0.448798951
 40
0.560998688
 40
0.560998688
 40
0.673198426
 40
0.673198426
 40
0.785398163
 40
0.785398163
 40
0.897597901
 40
0.897597901
 40
1.009797639
 40
1.009797639
 40
1.121997376
 40
1.121997376
 40
1.234197114
 40
1.234197114
 40
1.346396852
 40
1.346396852
 40
1.570796327
 40
1.570796327
 40
1.570796327
 10
135.500000000
 20
100.000000000
 30
0.000000000
 10
135.500000000
 20
100.006287790
 30
0.000000000
 10
135.500000000
 20
100.012575580
 30
0.000000000
 10
135.500000000
 20
100.031359878
 30
0.000000000
 10
135.500000000
 20
100.050144176
 30
0.000000000
 10
135.500000000
 20
100.081188758
 30
0.000000000
 10
135.500000000
 20
100.112233339
 30
0.000000000
 10
135.500000000
 20
100.155147802
 30
0.000000000
 10
135.500000000
 20
100.198062264
 30
0.000000000
 10
135.500000000
 20
100.252306933
 30
0.000000000
 10
135.500000000
 20
100.306551602
 30
0.000000000
 10
135.500000000
 20
100.371444318
 30
0.000000000
 10
135.500000000
 20
100.436337035
 30
0.000000000
 10
135.500000000
 20
100.511061736
 30
0.000000000
 10
135.500000000
 20
100.585786438
 30
0.000000000
 10
135.500000000
 20
100.669403417
 30
0.000000000
 10
135.500000000
 20
100.753020396
 30
0.000000000
 10
135.500000000
 20
100.844478122
 30
0.000000000
 10
135.500000000
 20
100.935935847
 30
0.000000000
 10
135.500000000
 20
101.034084184
 30
0.000000000
 10
135.500000000
 20
101.132232522
 30
0.000000000
 10
135.500000000
 20
101.235837199
 30
0.000000000
 10
135.500000000
 20
101.339441876
 30
0.000000000
 10
135.500000000
 20
101.447200004
 30
0.000000000
 10
135.500000000
 20
101.554958132
 30
0.000000000
 10
135.500000000
 20
101.775281378
 30
0.000000000
 10
135.500000000
 20
102.000000000
 30
0.000000000
  0
LINE
  5
A21
330
A02
100
AcDbEntity
  8
ProjItem
100
AcDbLine
 10
161.500000000
 20
102.000000000
 30
0.000000000
 11
135.500000000
 21
102.000000000
 31
0.000000000
  0
ARC
  5
A22
330
A02
100
AcDbEntity
  8
ProjItem
100
AcDbCircle
 10
161.500000000
 20
102.000000000
 30
0.000000000
 40
2.000000000
100
AcDbArc
 50
-90.000000000
 51
0.000000000
  0
ARC
  5
A23
330
A02
100
AcDbEntity
  8
ProjItem
100
AcDbCircle
 10
135.500000000
 20
102.000000000
 30
0.000000000
 40
1.000000000
100
AcDbArc
 50
180.000000000
 51
-90.000000000
  0
LINE
  5
A24
330
A02
100
AcDbEntity
  8
ProjItem
100
AcDbLine
 10
135.500000000
 20
100.000000000
 30
0.000000000
 11
135.500000000
 21
101.000000000
 31
0.000000000
  0
LINE
  5
A25
330
A02
100
AcDbEntity
  8
ProjItem
100
AcDbLine
 10
134.500000000
 20
102.000000000
 30
0.000000000
 11
133.500000000
 21
102.000000000
 31
0.000000000
  0
LINE
  5
A26
330
A02
100
AcDbEntity
  8
ProjItem
100
AcDbLine
 10
135.500000000
 20
100.000000000
 30
0.000000000
 11
135.500000000
 21
101.000000000
 31
0.000000000
  0
LINE
  5
A27
330
A02
100
AcDbEntity
  8
ProjItem
100
AcDbLine
 10
133.500000000
 20
102.000000000
 30
0.000000000
 11
134.500000000
 21
102.000000000
 31
0.000000000
  0
LINE
  5
A28
330
A02
100
AcDbEntity
  8
ProjItem
100
AcDbLine
 10
133.500000000
 20
110.000000000
 30
0.000000000
 11
133.500000000
 21
102.000000000
 31
0.000000000
  0
SPLINE
  5
A29
330
A02
100
AcDbEntity
  8
ProjItem
100
AcDbSpline
210
0
220
0
230
1
 70
8
 71
3
 72
35
 73
31
 74
0
 40
0.000000000
 40
0.000000000
 40
0.000000000
 40
0.000000000
 40
0.112199738
 40
0.112199738
 40
0.112199738
 40
0.224399475
 40
0.224399475
 40
0.224399475
 40
0.336599213
 40
0.336599213
 40
0.336599213
 40
0.448798951
 40
0.448798951
 40
0.448798951
 40
0.560998688
 40
0.560998688
 40
0.560998688
 40
0.673198426
 40
0.673198426
 40
0.673198426
 40
0.785398163
 40
0.785398163
 40
0.785398163
 40
0.897597901
 40
0.897597901
 40
0.897597901
 40
1.121997376
 40
1.121997376
 40
1.121997376
 40
1.570796327
 40
1.570796327
 40
1.570796327
 40
1.570796327
 10
161.500000000
 20
101.000000000
 30
0.000000000
 10
161.500000000
 20
101.002095930
 30
0.000000000
 10
161.500000000
 20
101.004191860
 30
0.000000000
 10
161.500000000
 20
101.006287790
 30
0.000000000
 10
161.500000000
 20
101.012549223
 30
0.000000000
 10
161.500000000
 20
101.018810655
 30
0.000000000
 10
161.500000000
 20
101.025072088
 30
0.000000000
 10
161.500000000
 20
101.035420282
 30
0.000000000
 10
161.500000000
 20
101.045768476
 30
0.000000000
 10
161.500000000
 20
101.056116670
 30
0.000000000
 10
161.500000000
 20
101.070421490
 30
0.000000000
 10
161.500000000
 20
101.084726311
 30
0.000000000
 10
161.500000000
 20
101.099031132
 30
0.000000000
 10
161.500000000
 20
101.117112688
 30
0.000000000
 10
161.500000000
 20
101.135194245
 30
0.000000000
 10
161.500000000
 20
101.153275801
 30
0.000000000
 10
161.500000000
 20
101.174906706
 30
0.000000000
 10
161.500000000
 20
101.196537612
 30
0.000000000
 10
161.500000000
 20
101.218168518
 30
0.000000000
 10
161.500000000
 20
101.243076751
 30
0.000000000
 10
161.500000000
 20
101.267984985
 30
0.000000000
 10
161.500000000
 20
101.292893219
 30
0.000000000
 10
161.500000000
 20
101.320765545
 30
0.000000000
 10
161.500000000
 20
101.348637872
 30
0.000000000
 10
161.500000000
 20
101.376510198
 30
0.000000000
 10
161.500000000
 20
101.436231233
 30
0.000000000
 10
161.500000000
 20
101.499433254
 30
0.000000000
 10
161.500000000
 20
101.566116261
 30
0.000000000
 10
161.500000000
 20
101.701836753
 30
0.000000000
 10
161.500000000
 20
101.850207115
 30
0.000000000
 10
161.500000000
 20
102.000000000
 30
0.000000000
  0
LINE
  5
A2A
330
A02
100
AcDbEntity
  8
ProjItem
100
AcDbLine
 10
161.500000000
 20
100.000000000
 30
0.000000000
 11
161.500000000
 21
101.000000000
 31
0.000000000
  0
SPLINE
  5
A2B
330
A02
100
AcDbEntity
  8
ProjItem
100
AcDbSpline
210
0
220
0
230
1
 70
8
 71
3
 72
35
 73
31
 74
0
 40
0.000000000
 40
0.000000000
 40
0.000000000
 40
0.000000000
 40
0.112199738
 40
0.112199738
 40
0.112199738
 40
0.224399475
 40
0.224399475
 40
0.224399475
 40
0.336599213
 40
0.336599213
 40
0.336599213
 40
0.448798951
 40
0.448798951
 40
0.448798951
 40
0.560998688
 40
0.560998688
 40
0.560998688
 40
0.673198426
 40
0.673198426
 40
0.673198426
 40
0.785398163
 40
0.785398163
 40
0.785398163
 40
0.897597901
 40
0.897597901
 40
0.897597901
 40
1.121997376
 40
1.121997376
 40
1.121997376
 40
1.570796327
 40
1.570796327
 40
1.570796327
 40
1.570796327
 10
135.500000000
 20
101.000000000
 30
0.000000000
 10
135.500000000
 20
101.002095930
 30
0.000000000
 10
135.500000000
 20
101.004191860
 30
0.000000000
 10
135.500000000
 20
101.006287790
 30
0.000000000
 10
135.500000000
 20
101.012549223
 30
0.000000000
 10
135.500000000
 20
101.018810655
 30
0.000000000
 10
135.500000000
 20
101.025072088
 30
0.000000000
 10
135.500000000
 20
101.035420282
 30
0.000000000
 10
135.500000000
 20
101.045768476
 30
0.000000000
 10
135.500000000
 20
101.056116670
 30
0.000000000
 10
135.500000000
 20
101.070421490
 30
0.000000000
 10
135.500000000
 20
101.084726311
 30
0.000000000
 10
135.500000000
 20
101.099031132
 30
0.000000000
 10
135.500000000
 20
101.117112688
 30
0.000000000
 10
135.500000000
 20
101.135194245
 30
0.000000000
 10
135.500000000
 20
101.153275801
 30
0.000000000
 10
135.500000000
 20
101.174906706
 30
0.000000000
 10
135.500000000
 20
101.196537612
 30
0.000000000
 10
135.500000000
 20
101.218168518
 30
0.000000000
 10
135.500000000
 20
101.243076751
 30
0.000000000
 10
135.500000000
 20
101.267984985
 30
0.000000000
 10
135.500000000
 20
101.292893219
 30
0.000000000
 10
135.500000000
 20
101.320765545
 30
0.000000000
 10
135.500000000
 20
101.348637872
 30
0.000000000
 10
135.500000000
 20
101.376510198
 30
0.000000000
 10
135.500000000
 20
101.436231233
 30
0.000000000
 10
135.500000000
 20
101.499433254
 30
0.000000000
 10
135.500000000
 20
101.566116261
 30
0.000000000
 10
135.500000000
 20
101.701836753
 30
0.000000000
 10
135.500000000
 20
101.850207115
 30
0.000000000
 10
135.500000000
 20
102.000000000
 30
0.000000000
  0
LINE
  5
A2C
330
A02
100
AcDbEntity
  8
ProjItem
100
AcDbLine
 10
162.400000000
 20
102.000000000
 30
0.000000000
 11
161.500000000
 21
102.000000000
 31
0.000000000
  0
LINE
  5
A2D
330
A02
100
AcDbEntity
  8
ProjItem
100
AcDbLine
 10
135.500000000
 20
102.000000000
 30
0.000000000
 11
134.600000000
 21
102.000000000
 31
0.000000000
  0
LINE
  5
A2E
330
A02
100
AcDbEntity
  8
ProjItem
100
AcDbLine
 10
134.600000000
 20
102.000000000
 30
0.000000000
 11
134.600000000
 21
110.000000000
 31
0.000000000
  0
LINE
  5
A2F
330
A02
100
AcDbEntity
  8
ProjItem
100
AcDbLine
 10
134.600000000
 20
110.000000000
 30
0.000000000
 11
162.400000000
 21
110.000000000
 31
0.000000000
  0
LINE
  5
A30
330
A02
100
AcDbEntity
  8
ProjItem
100
AcDbLine
 10
162.400000000
 20
110.000000000
 30
0.000000000
 11
162.400000000
 21
102.000000000
 31
0.000000000
  0
ARC
  5
A31
330
A02
100
AcDbEntity
  8
ProjItem
100
AcDbCircle
 10
161.500000000
 20
102.000000000
 30
0.000000000
 40
1.000000000
100
AcDbArc
 50
-90.000000000
 51
0.000000000
  0
LINE
  5
A32
330
A02
100
AcDbEntity
  8
ProjItem
100
AcDbLine
 10
162.500000000
 20
102.000000000
 30
0.000000000
 11
163.500000000
 21
102.000000000
 31
0.000000000
  0
LINE
  5
A33
330
A02
100
AcDbEntity
  8
ProjItem
100
AcDbLine
 10
161.500000000
 20
100.000000000
 30
0.000000000
 11
161.500000000
 21
101.000000000
 31
0.000000000
  0
LINE
  5
A34
330
A02
100
AcDbEntity
  8
ProjItem
100
AcDbLine
 10
163.500000000
 20
102.000000000
 30
0.000000000
 11
162.500000000
 21
102.000000000
 31
0.000000000
  0
LINE
  5
A35
330
A02
100
AcDbEntity
  8
ProjItem
100
AcDbLine
 10
163.500000000
 20
110.000000000
 30
0.000000000
 11
163.500000000
 21
102.000000000
 31
0.000000000
  0
SPLINE
  5
A36
330
A02
100
AcDbEntity
  8
ProjItem
100
AcDbSpline
210
0
220
0
230
1
 70
8
 71
3
 72
35
 73
31
 74
0
 40
0.000000000
 40
0.000000000
 40
0.000000000
 40
0.000000000
 40
0.112199738
 40
0.112199738
 40
0.112199738
 40
0.224399475
 40
0.224399475
 40
0.224399475
 40
0.336599213
 40
0.336599213
 40
0.336599213
 40
0.448798951
 40
0.448798951
 40
0.448798951
 40
0.560998688
 40
0.560998688
 40
0.560998688
 40
0.673198426
 40
0.673198426
 40
0.673198426
 40
0.785398163
 40
0.785398163
 40
0.785398163
 40
0.897597901
 40
0.897597901
 40
0.897597901
 40
1.121997376
 40
1.121997376
 40
1.121997376
 40
1.570796327
 40
1.570796327
 40
1.570796327
 40
1.570796327
 10
161.500000000
 20
101.000000000
 30
0.000000000
 10
161.500000000
 20
101.002095930
 30
0.000000000
 10
161.500000000
 20
101.004191860
 30
0.000000000
 10
161.500000000
 20
101.006287790
 30
0.000000000
 10
161.500000000
 20
101.012549223
 30
0.000000000
 10
161.500000000
 20
101.018810655
 30
0.000000000
 10
161.500000000
 20
101.025072088
 30
0.000000000
 10
161.500000000
 20
101.035420282
 30
0.000000000
 10
161.500000000
 20
101.045768476
 30
0.000000000
 10
161.500000000
 20
101.056116670
 30
0.000000000
 10
161.500000000
 20
101.070421490
 30
0.000000000
 10
161.500000000
 20
101.084726311
 30
0.000000000
 10
161.500000000
 20
101.099031132
 30
0.000000000
 10
161.500000000
 20
101.117112688
 30
0.000000000
 10
161.500000000
 20
101.135194245
 30
0.000000000
 10
161.500000000
 20
101.153275801
 30
0.000000000
 10
161.500000000
 20
101.174906706
 30
0.000000000
 10
161.500000000
 20
101.196537612
 30
0.000000000
 10
161.500000000
 20
101.218168518
 30
0.000000000
 10
161.500000000
 20
101.243076751
 30
0.000000000
 10
161.500000000
 20
101.267984985
 30
0.000000000
 10
161.500000000
 20
101.292893219
 30
0.000000000
 10
161.500000000
 20
101.320765545
 30
0.000000000
 10
161.500000000
 20
101.348637872
 30
0.000000000
 10
161.500000000
 20
101.376510198
 30
0.000000000
 10
161.500000000
 20
101.436231233
 30
0.000000000
 10
161.500000000
 20
101.499433254
 30
0.000000000
 10
161.500000000
 20
101.566116261
 30
0.000000000
 10
161.500000000
 20
101.701836753
 30
0.000000000
 10
161.500000000
 20
101.850207115
 30
0.000000000
 10
161.500000000
 20
102.000000000
 30
0.000000000
  0
SPLINE
  5
A37
330
A02
100
AcDbEntity
  8
ProjItem
100
AcDbSpline
210
0
220
0
230
1
 70
8
 71
3
 72
35
 73
31
 74
0
 40
0.000000000
 40
0.000000000
 40
0.000000000
 40
0.000000000
 40
0.112199738
 40
0.112199738
 40
0.112199738
 40
0.224399475
 40
0.224399475
 40
0.224399475
 40
0.336599213
 40
0.336599213
 40
0.336599213
 40
0.448798951
 40
0.448798951
 40
0.448798951
 40
0.560998688
 40
0.560998688
 40
0.560998688
 40
0.673198426
 40
0.673198426
 40
0.673198426
 40
0.785398163
 40
0.785398163
 40
0.785398163
 40
0.897597901
 40
0.897597901
 40
0.897597901
 40
1.121997376
 40
1.121997376
 40
1.121997376
 40
1.570796327
 40
1.570796327
 40
1.570796327
 40
1.570796327
 10
135.500000000
 20
101.000000000
 30
0.000000000
 10
135.500000000
 20
101.002095930
 30
0.000000000
 10
135.500000000
 20
101.004191860
 30
0.000000000
 10
135.500000000
 20
101.006287790
 30
0.000000000
 10
135.500000000
 20
101.012549223
 30
0.000000000
 10
135.500000000
 20
101.018810655
 30
0.000000000
 10
135.500000000
 20
101.025072088
 30
0.000000000
 10
135.500000000
 20
101.035420282
 30
0.000000000
 10
135.500000000
 20
101.045768476
 30
0.000000000
 10
135.500000000
 20
101.056116670
 30
0.000000000
 10
135.500000000
 20
101.070421490
 30
0.000000000
 10
135.500000000
 20
101.084726311
 30
0.000000000
 10
135.500000000
 20
101.099031132
 30
0.000000000
 10
135.500000000
 20
101.117112688
 30
0.000000000
 10
135.500000000
 20
101.135194245
 30
0.000000000
 10
135.500000000
 20
101.153275801
 30
0.000000000
 10
135.500000000
 20
101.174906706
 30
0.000000000
 10
135.500000000
 20
101.196537612
 30
0.000000000
 10
135.500000000
 20
101.218168518
 30
0.000000000
 10
135.500000000
 20
101.243076751
 30
0.000000000
 10
135.500000000
 20
101.267984985
 30
0.000000000
 10
135.500000000
 20
101.292893219
 30
0.000000000
 10
135.500000000
 20
101.320765545
 30
0.000000000
 10
135.500000000
 20
101.348637872
 30
0.000000000
 10
135.500000000
 20
101.376510198
 30
0.000000000
 10
135.500000000
 20
101.436231233
 30
0.000000000
 10
135.500000000
 20
101.499433254
 30
0.000000000
 10
135.500000000
 20
101.566116261
 30
0.000000000
 10
135.500000000
 20
101.701836753
 30
0.000000000
 10
135.500000000
 20
101.850207115
 30
0.000000000
 10
135.500000000
 20
102.000000000
 30
0.000000000
  0
LINE
  5
A38
330
A02
100
AcDbEntity
  8
ProjItem
100
AcDbLine
 10
133.500000000
 20
102.000000000
 30
0.000000000
 11
134.500000000
 21
102.000000000
 31
0.000000000
  0
LINE
  5
A39
330
A02
100
AcDbEntity
  8
ProjItem
100
AcDbLine
 10
133.500000000
 20
110.000000000
 30
0.000000000
 11
134.500000000
 21
110.000000000
 31
0.000000000
  0
LINE
  5
A3A
330
A02
100
AcDbEntity
  8
ProjItem
100
AcDbLine
 10
134.500000000
 20
110.000000000
 30
0.000000000
 11
134.500000000
 21
102.000000000
 31
0.000000000
  0
LINE
  5
A3B
330
A02
100
AcDbEntity
  8
ProjItem
100
AcDbLine
 10
135.500000000
 20
101.000000000
 30
0.000000000
 11
161.500000000
 21
101.000000000
 31
0.000000000
  0
LINE
  5
A3C
330
A02
100
AcDbEntity
  8
ProjItem
100
AcDbLine
 10
135.500000000
 20
102.000000000
 30
0.000000000
 11
161.500000000
 21
102.000000000
 31
0.000000000
  0
LINE
  5
A3D
330
A02
100
AcDbEntity
  8
ProjItem
100
AcDbLine
 10
162.400000000
 20
102.000000000
 30
0.000000000
 11
161.500000000
 21
102.000000000
 31
0.000000000
  0
LINE
  5
A3E
330
A02
100
AcDbEntity
  8
ProjItem
100
AcDbLine
 10
135.500000000
 20
102.000000000
 30
0.000000000
 11
134.600000000
 21
102.000000000
 31
0.000000000
  0
LINE
  5
A3F
330
A02
100
AcDbEntity
  8
ProjItem
100
AcDbLine
 10
134.600000000
 20
102.000000000
 30
0.000000000
 11
134.600000000
 21
110.000000000
 31
0.000000000
  0
LINE
  5
A40
330
A02
100
AcDbEntity
  8
ProjItem
100
AcDbLine
 10
134.600000000
 20
110.000000000
 30
0.000000000
 11
162.400000000
 21
110.000000000
 31
0.000000000
  0
LINE
  5
A41
330
A02
100
AcDbEntity
  8
ProjItem
100
AcDbLine
 10
162.400000000
 20
110.000000000
 30
0.000000000
 11
162.400000000
 21
102.000000000
 31
0.000000000
  0
LINE
  5
A42
330
A02
100
AcDbEntity
  8
ProjItem
100
AcDbLine
 10
163.500000000
 20
102.000000000
 30
0.000000000
 11
162.500000000
 21
102.000000000
 31
0.000000000
  0
LINE
  5
A43
330
A02
100
AcDbEntity
  8
ProjItem
100
AcDbLine
 10
163.500000000
 20
110.000000000
 30
0.000000000
 11
162.500000000
 21
110.000000000
 31
0.000000000
  0
LINE
  5
A44
330
A02
100
AcDbEntity
  8
ProjItem
100
AcDbLine
 10
162.500000000
 20
110.000000000
 30
0.000000000
 11
162.500000000
 21
102.000000000
 31
0.000000000
  0
LINE
  5
A45
330
A02
100
AcDbEntity
  8
ProjItem
100
AcDbLine
 10
135.500000000
 20
101.000000000
 30
0.000000000
 11
161.500000000
 21
101.000000000
 31
0.000000000
  0
LINE
  5
A46
330
A02
100
AcDbEntity
  8
ProjItem
100
AcDbLine
 10
135.500000000
 20
102.000000000
 30
0.000000000
 11
161.500000000
 21
102.000000000
 31
0.000000000
  0
LINE
  5
A47
330
A02
100
AcDbEntity
  8
ProjItem
100
AcDbLine
 10
162.400000000
 20
102.000000000
 30
0.000000000
 11
161.500000000
 21
102.000000000
 31
0.000000000
  0
LINE
  5
A48
330
A02
100
AcDbEntity
  8
ProjItem
100
AcDbLine
 10
135.500000000
 20
102.000000000
 30
0.000000000
 11
134.600000000
 21
102.000000000
 31
0.000000000
  0
LINE
  5
A49
330
A02
100
AcDbEntity
  8
ProjItem
100
AcDbLine
 10
134.600000000
 20
102.000000000
 30
0.000000000
 11
134.600000000
 21
110.000000000
 31
0.000000000
  0
LINE
  5
A4A
330
A02
100
AcDbEntity
  8
ProjItem
100
AcDbLine
 10
134.600000000
 20
110.000000000
 30
0.000000000
 11
162.400000000
 21
110.000000000
 31
0.000000000
  0
LINE
  5
A4B
330
A02
100
AcDbEntity
  8
ProjItem
100
AcDbLine
 10
162.400000000
 20
110.000000000
 30
0.000000000
 11
162.400000000
 21
102.000000000
 31
0.000000000
  0
LINE
  5
A4C
330
A02
100
AcDbEntity
  8
ProjItem001
100
AcDbLine
 10
135.500000000
 20
143.000000150
 30
0.000000000
 11
135.500000000
 21
127.000000150
 31
0.000000000
  0
LINE
  5
A4D
330
A02
100
AcDbEntity
  8
ProjItem001
100
AcDbLine
 10
135.500000000
 20
127.000000150
 30
0.000000000
 11
161.500000000
 21
127.000000150
 31
0.000000000
  0
LINE
  5
A4E
330
A02
100
AcDbEntity
  8
ProjItem001
100
AcDbLine
 10
161.500000000
 20
143.000000150
 30
0.000000000
 11
161.500000000
 21
127.000000150
 31
0.000000000
  0
LINE
  5
A4F
330
A02
100
AcDbEntity
  8
ProjItem001
100
AcDbLine
 10
135.500000000
 20
143.000000150
 30
0.000000000
 11
161.500000000
 21
143.000000150
 31
0.000000000
  0
SPLINE
  5
A50
330
A02
100
AcDbEntity
  8
ProjItem001
100
AcDbSpline
210
0
220
0
230
1
 70
8
 71
3
 72
41
 73
37
 74
0
 40
0.000000000
 40
0.000000000
 40
0.000000000
 40
0.000000000
 40
0.336599213
 40
0.336599213
 40
0.336599213
 40
0.448798951
 40
0.448798951
 40
0.448798951
 40
0.560998688
 40
0.560998688
 40
0.560998688
 40
0.673198426
 40
0.673198426
 40
0.673198426
 40
0.785398163
 40
0.785398163
 40
0.785398163
 40
0.897597901
 40
0.897597901
 40
0.897597901
 40
1.009797639
 40
1.009797639
 40
1.009797639
 40
1.121997376
 40
1.121997376
 40
1.121997376
 40
1.234197114
 40
1.234197114
 40
1.234197114
 40
1.346396852
 40
1.346396852
 40
1.346396852
 40
1.458596589
 40
1.458596589
 40
1.458596589
 40
1.570796327
 40
1.570796327
 40
1.570796327
 40
1.570796327
 10
135.500000000
 20
127.000000150
 30
0.000000000
 10
135.275303586
 20
127.000000150
 30
0.000000000
 10
135.052713315
 20
127.000000150
 30
0.000000000
 10
134.839441876
 20
127.000000150
 30
0.000000000
 10
134.770372091
 20
127.000000150
 30
0.000000000
 10
134.701302307
 20
127.000000150
 30
0.000000000
 10
134.632232522
 20
127.000000150
 30
0.000000000
 10
134.566800297
 20
127.000000150
 30
0.000000000
 10
134.501368072
 20
127.000000150
 30
0.000000000
 10
134.435935847
 20
127.000000150
 30
0.000000000
 10
134.374964030
 20
127.000000150
 30
0.000000000
 10
134.313992213
 20
127.000000150
 30
0.000000000
 10
134.253020396
 20
127.000000150
 30
0.000000000
 10
134.197275743
 20
127.000000150
 30
0.000000000
 10
134.141531091
 20
127.000000150
 30
0.000000000
 10
134.085786438
 20
127.000000150
 30
0.000000000
 10
134.035969970
 20
127.000000150
 30
0.000000000
 10
133.986153503
 20
127.000000150
 30
0.000000000
 10
133.936337035
 20
127.000000150
 30
0.000000000
 10
133.893075224
 20
127.000000150
 30
0.000000000
 10
133.849813413
 20
127.000000150
 30
0.000000000
 10
133.806551602
 20
127.000000150
 30
0.000000000
 10
133.770388489
 20
127.000000150
 30
0.000000000
 10
133.734225377
 20
127.000000150
 30
0.000000000
 10
133.698062264
 20
127.000000150
 30
0.000000000
 10
133.669452623
 20
127.000000150
 30
0.000000000
 10
133.640842981
 20
127.000000150
 30
0.000000000
 10
133.612233339
 20
127.000000150
 30
0.000000000
 10
133.591536951
 20
127.000000150
 30
0.000000000
 10
133.570840564
 20
127.000000150
 30
0.000000000
 10
133.550144176
 20
127.000000150
 30
0.000000000
 10
133.537621310
 20
127.000000150
 30
0.000000000
 10
133.525098445
 20
127.000000150
 30
0.000000000
 10
133.512575580
 20
127.000000150
 30
0.000000000
 10
133.508383720
 20
127.000000150
 30
0.000000000
 10
133.504191860
 20
127.000000150
 30
0.000000000
 10
133.500000000
 20
127.000000150
 30
0.000000000
  0
SPLINE
  5
A51
330
A02
100
AcDbEntity
  8
ProjItem001
100
AcDbSpline
210
0
220
0
230
1
 70
8
 71
3
 72
41
 73
37
 74
0
 40
0.000000000
 40
0.000000000
 40
0.000000000
 40
0.000000000
 40
0.336599213
 40
0.336599213
 40
0.336599213
 40
0.448798951
 40
0.448798951
 40
0.448798951
 40
0.560998688
 40
0.560998688
 40
0.560998688
 40
0.673198426
 40
0.673198426
 40
0.673198426
 40
0.785398163
 40
0.785398163
 40
0.785398163
 40
0.897597901
 40
0.897597901
 40
0.897597901
 40
1.009797639
 40
1.009797639
 40
1.009797639
 40
1.121997376
 40
1.121997376
 40
1.121997376
 40
1.234197114
 40
1.234197114
 40
1.234197114
 40
1.346396852
 40
1.346396852
 40
1.346396852
 40
1.458596589
 40
1.458596589
 40
1.458596589
 40
1.570796327
 40
1.570796327
 40
1.570796327
 40
1.570796327
 10
135.500000000
 20
143.000000150
 30
0.000000000
 10
135.275303586
 20
143.000000150
 30
0.000000000
 10
135.052713315
 20
143.000000150
 30
0.000000000
 10
134.839441876
 20
143.000000150
 30
0.000000000
 10
134.770372091
 20
143.000000150
 30
0.000000000
 10
134.701302307
 20
143.000000150
 30
0.000000000
 10
134.632232522
 20
143.000000150
 30
0.000000000
 10
134.566800297
 20
143.000000150
 30
0.000000000
 10
134.501368072
 20
143.000000150
 30
0.000000000
 10
134.435935847
 20
143.000000150
 30
0.000000000
 10
134.374964030
 20
143.000000150
 30
0.000000000
 10
134.313992213
 20
143.000000150
 30
0.000000000
 10
134.253020396
 20
143.000000150
 30
0.000000000
 10
134.197275743
 20
143.000000150
 30
0.000000000
 10
134.141531091
 20
143.000000150
 30
0.000000000
 10
134.085786438
 20
143.000000150
 30
0.000000000
 10
134.035969970
 20
143.000000150
 30
0.000000000
 10
133.986153503
 20
143.000000150
 30
0.000000000
 10
133.936337035
 20
143.000000150
 30
0.000000000
 10
133.893075224
 20
143.000000150
 30
0.000000000
 10
133.849813413
 20
143.000000150
 30
0.000000000
 10
133.806551602
 20
143.000000150
 30
0.000000000
 10
133.770388489
 20
143.000000150
 30
0.000000000
 10
133.734225377
 20
143.000000150
 30
0.000000000
 10
133.698062264
 20
143.000000150
 30
0.000000000
 10
133.669452623
 20
143.000000150
 30
0.000000000
 10
133.640842981
 20
143.000000150
 30
0.000000000
 10
133.612233339
 20
143.000000150
 30
0.000000000
 10
133.591536951
 20
143.000000150
 30
0.000000000
 10
133.570840564
 20
143.000000150
 30
0.000000000
 10
133.550144176
 20
143.000000150
 30
0.000000000
 10
133.537621310
 20
143.000000150
 30
0.000000000
 10
133.525098445
 20
143.000000150
 30
0.000000000
 10
133.512575580
 20
143.000000150
 30
0.000000000
 10
133.508383720
 20
143.000000150
 30
0.000000000
 10
133.504191860
 20
143.000000150
 30
0.000000000
 10
133.500000000
 20
143.000000150
 30
0.000000000
  0
LINE
  5
A52
330
A02
100
AcDbEntity
  8
ProjItem001
100
AcDbLine
 10
133.500000000
 20
127.000000150
 30
0.000000000
 11
133.500000000
 21
143.000000150
 31
0.000000000
  0
SPLINE
  5
A53
330
A02
100
AcDbEntity
  8
ProjItem001
100
AcDbSpline
210
0
220
0
230
1
 70
8
 71
3
 72
41
 73
37
 74
0
 40
0.000000000
 40
0.000000000
 40
0.000000000
 40
0.000000000
 40
0.336599213
 40
0.336599213
 40
0.336599213
 40
0.448798951
 40
0.448798951
 40
0.448798951
 40
0.560998688
 40
0.560998688
 40
0.560998688
 40
0.673198426
 40
0.673198426
 40
0.673198426
 40
0.785398163
 40
0.785398163
 40
0.785398163
 40
0.897597901
 40
0.897597901
 40
0.897597901
 40
1.009797639
 40
1.009797639
 40
1.009797639
 40
1.121997376
 40
1.121997376
 40
1.121997376
 40
1.234197114
 40
1.234197114
 40
1.234197114
 40
1.346396852
 40
1.346396852
 40
1.346396852
 40
1.458596589
 40
1.458596589
 40
1.458596589
 40
1.570796327
 40
1.570796327
 40
1.570796327
 40
1.570796327
 10
161.500000000
 20
127.000000150
 30
0.000000000
 10
161.500000000
 20
126.775303736
 30
0.000000000
 10
161.500000000
 20
126.552713465
 30
0.000000000
 10
161.500000000
 20
126.339442026
 30
0.000000000
 10
161.500000000
 20
126.270372241
 30
0.000000000
 10
161.500000000
 20
126.201302457
 30
0.000000000
 10
161.500000000
 20
126.132232672
 30
0.000000000
 10
161.500000000
 20
126.066800447
 30
0.000000000
 10
161.500000000
 20
126.001368222
 30
0.000000000
 10
161.500000000
 20
125.935935997
 30
0.000000000
 10
161.500000000
 20
125.874964180
 30
0.000000000
 10
161.500000000
 20
125.813992363
 30
0.000000000
 10
161.500000000
 20
125.753020546
 30
0.000000000
 10
161.500000000
 20
125.697275893
 30
0.000000000
 10
161.500000000
 20
125.641531241
 30
0.000000000
 10
161.500000000
 20
125.585786588
 30
0.000000000
 10
161.500000000
 20
125.535970120
 30
0.000000000
 10
161.500000000
 20
125.486153653
 30
0.000000000
 10
161.500000000
 20
125.436337185
 30
0.000000000
 10
161.500000000
 20
125.393075374
 30
0.000000000
 10
161.500000000
 20
125.349813563
 30
0.000000000
 10
161.500000000
 20
125.306551752
 30
0.000000000
 10
161.500000000
 20
125.270388639
 30
0.000000000
 10
161.500000000
 20
125.234225527
 30
0.000000000
 10
161.500000000
 20
125.198062414
 30
0.000000000
 10
161.500000000
 20
125.169452773
 30
0.000000000
 10
161.500000000
 20
125.140843131
 30
0.000000000
 10
161.500000000
 20
125.112233489
 30
0.000000000
 10
161.500000000
 20
125.091537101
 30
0.000000000
 10
161.500000000
 20
125.070840714
 30
0.000000000
 10
161.500000000
 20
125.050144326
 30
0.000000000
 10
161.500000000
 20
125.037621460
 30
0.000000000
 10
161.500000000
 20
125.025098595
 30
0.000000000
 10
161.500000000
 20
125.012575730
 30
0.000000000
 10
161.500000000
 20
125.008383870
 30
0.000000000
 10
161.500000000
 20
125.004192010
 30
0.000000000
 10
161.500000000
 20
125.000000150
 30
0.000000000
  0
SPLINE
  5
A54
330
A02
100
AcDbEntity
  8
ProjItem001
100
AcDbSpline
210
0
220
0
230
1
 70
8
 71
3
 72
41
 73
37
 74
0
 40
0.000000000
 40
0.000000000
 40
0.000000000
 40
0.000000000
 40
0.336599213
 40
0.336599213
 40
0.336599213
 40
0.448798951
 40
0.448798951
 40
0.448798951
 40
0.560998688
 40
0.560998688
 40
0.560998688
 40
0.673198426
 40
0.673198426
 40
0.673198426
 40
0.785398163
 40
0.785398163
 40
0.785398163
 40
0.897597901
 40
0.897597901
 40
0.897597901
 40
1.009797639
 40
1.009797639
 40
1.009797639
 40
1.121997376
 40
1.121997376
 40
1.121997376
 40
1.234197114
 40
1.234197114
 40
1.234197114
 40
1.346396852
 40
1.346396852
 40
1.346396852
 40
1.458596589
 40
1.458596589
 40
1.458596589
 40
1.570796327
 40
1.570796327
 40
1.570796327
 40
1.570796327
 10
135.500000000
 20
127.000000150
 30
0.000000000
 10
135.500000000
 20
126.775303736
 30
0.000000000
 10
135.500000000
 20
126.552713465
 30
0.000000000
 10
135.500000000
 20
126.339442026
 30
0.000000000
 10
135.500000000
 20
126.270372241
 30
0.000000000
 10
135.500000000
 20
126.201302457
 30
0.000000000
 10
135.500000000
 20
126.132232672
 30
0.000000000
 10
135.500000000
 20
126.066800447
 30
0.000000000
 10
135.500000000
 20
126.001368222
 30
0.000000000
 10
135.500000000
 20
125.935935997
 30
0.000000000
 10
135.500000000
 20
125.874964180
 30
0.000000000
 10
135.500000000
 20
125.813992363
 30
0.000000000
 10
135.500000000
 20
125.753020546
 30
0.000000000
 10
135.500000000
 20
125.697275893
 30
0.000000000
 10
135.500000000
 20
125.641531241
 30
0.000000000
 10
135.500000000
 20
125.585786588
 30
0.000000000
 10
135.500000000
 20
125.535970120
 30
0.000000000
 10
135.500000000
 20
125.486153653
 30
0.000000000
 10
135.500000000
 20
125.436337185
 30
0.000000000
 10
135.500000000
 20
125.393075374
 30
0.000000000
 10
135.500000000
 20
125.349813563
 30
0.000000000
 10
135.500000000
 20
125.306551752
 30
0.000000000
 10
135.500000000
 20
125.270388639
 30
0.000000000
 10
135.500000000
 20
125.234225527
 30
0.000000000
 10
135.500000000
 20
125.198062414
 30
0.000000000
 10
135.500000000
 20
125.169452773
 30
0.000000000
 10
135.500000000
 20
125.140843131
 30
0.000000000
 10
135.500000000
 20
125.112233489
 30
0.000000000
 10
135.500000000
 20
125.091537101
 30
0.000000000
 10
135.500000000
 20
125.070840714
 30
0.000000000
 10
135.500000000
 20
125.050144326
 30
0.000000000
 10
135.500000000
 20
125.037621460
 30
0.000000000
 10
135.500000000
 20
125.025098595
 30
0.000000000
 10
135.500000000
 20
125.012575730
 30
0.000000000
 10
135.500000000
 20
125.008383870
 30
0.000000000
 10
135.500000000
 20
125.004192010
 30
0.000000000
 10
135.500000000
 20
125.000000150
 30
0.000000000
  0
LINE
  5
A55
330
A02
100
AcDbEntity
  8
ProjItem001
100
AcDbLine
 10
161.500000000
 20
125.000000150
 30
0.000000000
 11
135.500000000
 21
125.000000150
 31
0.000000000
  0
SPLINE
  5
A56
330
A02
100
AcDbEntity
  8
ProjItem001
100
AcDbSpline
210
0
220
0
230
1
 70
8
 71
3
 72
41
 73
37
 74
0
 40
0.000000000
 40
0.000000000
 40
0.000000000
 40
0.000000000
 40
0.336599213
 40
0.336599213
 40
0.336599213
 40
0.448798951
 40
0.448798951
 40
0.448798951
 40
0.560998688
 40
0.560998688
 40
0.560998688
 40
0.673198426
 40
0.673198426
 40
0.673198426
 40
0.785398163
 40
0.785398163
 40
0.785398163
 40
0.897597901
 40
0.897597901
 40
0.897597901
 40
1.009797639
 40
1.009797639
 40
1.009797639
 40
1.121997376
 40
1.121997376
 40
1.121997376
 40
1.234197114
 40
1.234197114
 40
1.234197114
 40
1.346396852
 40
1.346396852
 40
1.346396852
 40
1.458596589
 40
1.458596589
 40
1.458596589
 40
1.570796327
 40
1.570796327
 40
1.570796327
 40
1.570796327
 10
161.500000000
 20
127.000000150
 30
0.000000000
 10
161.724696414
 20
127.000000150
 30
0.000000000
 10
161.947286685
 20
127.000000150
 30
0.000000000
 10
162.160558124
 20
127.000000150
 30
0.000000000
 10
162.229627909
 20
127.000000150
 30
0.000000000
 10
162.298697693
 20
127.000000150
 30
0.000000000
 10
162.367767478
 20
127.000000150
 30
0.000000000
 10
162.433199703
 20
127.000000150
 30
0.000000000
 10
162.498631928
 20
127.000000150
 30
0.000000000
 10
162.564064153
 20
127.000000150
 30
0.000000000
 10
162.625035970
 20
127.000000150
 30
0.000000000
 10
162.686007787
 20
127.000000150
 30
0.000000000
 10
162.746979604
 20
127.000000150
 30
0.000000000
 10
162.802724257
 20
127.000000150
 30
0.000000000
 10
162.858468909
 20
127.000000150
 30
0.000000000
 10
162.914213562
 20
127.000000150
 30
0.000000000
 10
162.964030030
 20
127.000000150
 30
0.000000000
 10
163.013846497
 20
127.000000150
 30
0.000000000
 10
163.063662965
 20
127.000000150
 30
0.000000000
 10
163.106924776
 20
127.000000150
 30
0.000000000
 10
163.150186587
 20
127.000000150
 30
0.000000000
 10
163.193448398
 20
127.000000150
 30
0.000000000
 10
163.229611511
 20
127.000000150
 30
0.000000000
 10
163.265774623
 20
127.000000150
 30
0.000000000
 10
163.301937736
 20
127.000000150
 30
0.000000000
 10
163.330547377
 20
127.000000150
 30
0.000000000
 10
163.359157019
 20
127.000000150
 30
0.000000000
 10
163.387766661
 20
127.000000150
 30
0.000000000
 10
163.408463049
 20
127.000000150
 30
0.000000000
 10
163.429159436
 20
127.000000150
 30
0.000000000
 10
163.449855824
 20
127.000000150
 30
0.000000000
 10
163.462378690
 20
127.000000150
 30
0.000000000
 10
163.474901555
 20
127.000000150
 30
0.000000000
 10
163.487424420
 20
127.000000150
 30
0.000000000
 10
163.491616280
 20
127.000000150
 30
0.000000000
 10
163.495808140
 20
127.000000150
 30
0.000000000
 10
163.500000000
 20
127.000000150
 30
0.000000000
  0
SPLINE
  5
A57
330
A02
100
AcDbEntity
  8
ProjItem001
100
AcDbSpline
210
0
220
0
230
1
 70
8
 71
3
 72
41
 73
37
 74
0
 40
0.000000000
 40
0.000000000
 40
0.000000000
 40
0.000000000
 40
0.336599213
 40
0.336599213
 40
0.336599213
 40
0.448798951
 40
0.448798951
 40
0.448798951
 40
0.560998688
 40
0.560998688
 40
0.560998688
 40
0.673198426
 40
0.673198426
 40
0.673198426
 40
0.785398163
 40
0.785398163
 40
0.785398163
 40
0.897597901
 40
0.897597901
 40
0.897597901
 40
1.009797639
 40
1.009797639
 40
1.009797639
 40
1.121997376
 40
1.121997376
 40
1.121997376
 40
1.234197114
 40
1.234197114
 40
1.234197114
 40
1.346396852
 40
1.346396852
 40
1.346396852
 40
1.458596589
 40
1.458596589
 40
1.458596589
 40
1.570796327
 40
1.570796327
 40
1.570796327
 40
1.570796327
 10
161.500000000
 20
143.000000150
 30
0.000000000
 10
161.724696414
 20
143.000000150
 30
0.000000000
 10
161.947286685
 20
143.000000150
 30
0.000000000
 10
162.160558124
 20
143.000000150
 30
0.000000000
 10
162.229627909
 20
143.000000150
 30
0.000000000
 10
162.298697693
 20
143.000000150
 30
0.000000000
 10
162.367767478
 20
143.000000150
 30
0.000000000
 10
162.433199703
 20
143.000000150
 30
0.000000000
 10
162.498631928
 20
143.000000150
 30
0.000000000
 10
162.564064153
 20
143.000000150
 30
0.000000000
 10
162.625035970
 20
143.000000150
 30
0.000000000
 10
162.686007787
 20
143.000000150
 30
0.000000000
 10
162.746979604
 20
143.000000150
 30
0.000000000
 10
162.802724257
 20
143.000000150
 30
0.000000000
 10
162.858468909
 20
143.000000150
 30
0.000000000
 10
162.914213562
 20
143.000000150
 30
0.000000000
 10
162.964030030
 20
143.000000150
 30
0.000000000
 10
163.013846497
 20
143.000000150
 30
0.000000000
 10
163.063662965
 20
143.000000150
 30
0.000000000
 10
163.106924776
 20
143.000000150
 30
0.000000000
 10
163.150186587
 20
143.000000150
 30
0.000000000
 10
163.193448398
 20
143.000000150
 30
0.000000000
 10
163.229611511
 20
143.000000150
 30
0.000000000
 10
163.265774623
 20
143.000000150
 30
0.000000000
 10
163.301937736
 20
143.000000150
 30
0.000000000
 10
163.330547377
 20
143.000000150
 30
0.000000000
 10
163.359157019
 20
143.000000150
 30
0.000000000
 10
163.387766661
 20
143.000000150
 30
0.000000000
 10
163.408463049
 20
143.000000150
 30
0.000000000
 10
163.429159436
 20
143.000000150
 30
0.000000000
 10
163.449855824
 20
143.000000150
 30
0.000000000
 10
163.462378690
 20
143.000000150
 30
0.000000000
 10
163.474901555
 20
143.000000150
 30
0.000000000
 10
163.487424420
 20
143.000000150
 30
0.000000000
 10
163.491616280
 20
143.000000150
 30
0.000000000
 10
163.495808140
 20
143.000000150
 30
0.000000000
 10
163.500000000
 20
143.000000150
 30
0.000000000
  0
LINE
  5
A58
330
A02
100
AcDbEntity
  8
ProjItem001
100
AcDbLine
 10
163.500000000
 20
127.000000150
 30
0.000000000
 11
163.500000000
 21
143.000000150
 31
0.000000000
  0
SPLINE
  5
A59
330
A02
100
AcDbEntity
  8
ProjItem001
100
AcDbSpline
210
0
220
0
230
1
 70
8
 71
3
 72
41
 73
37
 74
0
 40
0.000000000
 40
0.000000000
 40
0.000000000
 40
0.000000000
 40
0.336599213
 40
0.336599213
 40
0.336599213
 40
0.448798951
 40
0.448798951
 40
0.448798951
 40
0.560998688
 40
0.560998688
 40
0.560998688
 40
0.673198426
 40
0.673198426
 40
0.673198426
 40
0.785398163
 40
0.785398163
 40
0.785398163
 40
0.897597901
 40
0.897597901
 40
0.897597901
 40
1.009797639
 40
1.009797639
 40
1.009797639
 40
1.121997376
 40
1.121997376
 40
1.121997376
 40
1.234197114
 40
1.234197114
 40
1.234197114
 40
1.346396852
 40
1.346396852
 40
1.346396852
 40
1.458596589
 40
1.458596589
 40
1.458596589
 40
1.570796327
 40
1.570796327
 40
1.570796327
 40
1.570796327
 10
161.500000000
 20
143.000000150
 30
0.000000000
 10
161.500000000
 20
143.224696564
 30
0.000000000
 10
161.500000000
 20
143.447286835
 30
0.000000000
 10
161.500000000
 20
143.660558274
 30
0.000000000
 10
161.500000000
 20
143.729628059
 30
0.000000000
 10
161.500000000
 20
143.798697843
 30
0.000000000
 10
161.500000000
 20
143.867767628
 30
0.000000000
 10
161.500000000
 20
143.933199853
 30
0.000000000
 10
161.500000000
 20
143.998632078
 30
0.000000000
 10
161.500000000
 20
144.064064303
 30
0.000000000
 10
161.500000000
 20
144.125036120
 30
0.000000000
 10
161.500000000
 20
144.186007937
 30
0.000000000
 10
161.500000000
 20
144.246979754
 30
0.000000000
 10
161.500000000
 20
144.302724407
 30
0.000000000
 10
161.500000000
 20
144.358469059
 30
0.000000000
 10
161.500000000
 20
144.414213712
 30
0.000000000
 10
161.500000000
 20
144.464030180
 30
0.000000000
 10
161.500000000
 20
144.513846647
 30
0.000000000
 10
161.500000000
 20
144.563663115
 30
0.000000000
 10
161.500000000
 20
144.606924926
 30
0.000000000
 10
161.500000000
 20
144.650186737
 30
0.000000000
 10
161.500000000
 20
144.693448548
 30
0.000000000
 10
161.500000000
 20
144.729611661
 30
0.000000000
 10
161.500000000
 20
144.765774773
 30
0.000000000
 10
161.500000000
 20
144.801937886
 30
0.000000000
 10
161.500000000
 20
144.830547527
 30
0.000000000
 10
161.500000000
 20
144.859157169
 30
0.000000000
 10
161.500000000
 20
144.887766811
 30
0.000000000
 10
161.500000000
 20
144.908463199
 30
0.000000000
 10
161.500000000
 20
144.929159586
 30
0.000000000
 10
161.500000000
 20
144.949855974
 30
0.000000000
 10
161.500000000
 20
144.962378840
 30
0.000000000
 10
161.500000000
 20
144.974901705
 30
0.000000000
 10
161.500000000
 20
144.987424570
 30
0.000000000
 10
161.500000000
 20
144.991616430
 30
0.000000000
 10
161.500000000
 20
144.995808290
 30
0.000000000
 10
161.500000000
 20
145.000000150
 30
0.000000000
  0
SPLINE
  5
A5A
330
A02
100
AcDbEntity
  8
ProjItem001
100
AcDbSpline
210
0
220
0
230
1
 70
8
 71
3
 72
41
 73
37
 74
0
 40
0.000000000
 40
0.000000000
 40
0.000000000
 40
0.000000000
 40
0.336599213
 40
0.336599213
 40
0.336599213
 40
0.448798951
 40
0.448798951
 40
0.448798951
 40
0.560998688
 40
0.560998688
 40
0.560998688
 40
0.673198426
 40
0.673198426
 40
0.673198426
 40
0.785398163
 40
0.785398163
 40
0.785398163
 40
0.897597901
 40
0.897597901
 40
0.897597901
 40
1.009797639
 40
1.009797639
 40
1.009797639
 40
1.121997376
 40
1.121997376
 40
1.121997376
 40
1.234197114
 40
1.234197114
 40
1.234197114
 40
1.346396852
 40
1.346396852
 40
1.346396852
 40
1.458596589
 40
1.458596589
 40
1.458596589
 40
1.570796327
 40
1.570796327
 40
1.570796327
 40
1.570796327
 10
135.500000000
 20
143.000000150
 30
0.000000000
 10
135.500000000
 20
143.224696564
 30
0.000000000
 10
135.500000000
 20
143.447286835
 30
0.000000000
 10
135.500000000
 20
143.660558274
 30
0.000000000
 10
135.500000000
 20
143.729628059
 30
0.000000000
 10
135.500000000
 20
143.798697843
 30
0.000000000
 10
135.500000000
 20
143.867767628
 30
0.000000000
 10
135.500000000
 20
143.933199853
 30
0.000000000
 10
135.500000000
 20
143.998632078
 30
0.000000000
 10
135.500000000
 20
144.064064303
 30
0.000000000
 10
135.500000000
 20
144.125036120
 30
0.000000000
 10
135.500000000
 20
144.186007937
 30
0.000000000
 10
135.500000000
 20
144.246979754
 30
0.000000000
 10
135.500000000
 20
144.302724407
 30
0.000000000
 10
135.500000000
 20
144.358469059
 30
0.000000000
 10
135.500000000
 20
144.414213712
 30
0.000000000
 10
135.500000000
 20
144.464030180
 30
0.000000000
 10
135.500000000
 20
144.513846647
 30
0.000000000
 10
135.500000000
 20
144.563663115
 30
0.000000000
 10
135.500000000
 20
144.606924926
 30
0.000000000
 10
135.500000000
 20
144.650186737
 30
0.000000000
 10
135.500000000
 20
144.693448548
 30
0.000000000
 10
135.500000000
 20
144.729611661
 30
0.000000000
 10
135.500000000
 20
144.765774773
 30
0.000000000
 10
135.500000000
 20
144.801937886
 30
0.000000000
 10
135.500000000
 20
144.830547527
 30
0.000000000
 10
135.500000000
 20
144.859157169
 30
0.000000000
 10
135.500000000
 20
144.887766811
 30
0.000000000
 10
135.500000000
 20
144.908463199
 30
0.000000000
 10
135.500000000
 20
144.929159586
 30
0.000000000
 10
135.500000000
 20
144.949855974
 30
0.000000000
 10
135.500000000
 20
144.962378840
 30
0.000000000
 10
135.500000000
 20
144.974901705
 30
0.000000000
 10
135.500000000
 20
144.987424570
 30
0.000000000
 10
135.500000000
 20
144.991616430
 30
0.000000000
 10
135.500000000
 20
144.995808290
 30
0.000000000
 10
135.500000000
 20
145.000000150
 30
0.000000000
  0
LINE
  5
A5B
330
A02
100
AcDbEntity
  8
ProjItem001
100
AcDbLine
 10
161.500000000
 20
145.000000150
 30
0.000000000
 11
135.500000000
 21
145.000000150
 31
0.000000000
  0
LINE
  5
A5C
330
A02
100
AcDbEntity
  8
ProjItem001
100
AcDbLine
 10
133.500000000
 20
126.100000150
 30
0.000000000
 11
133.500000000
 21
127.000000150
 31
0.000000000
  0
LINE
  5
A5D
330
A02
100
AcDbEntity
  8
ProjItem001
100
AcDbLine
 10
133.500000000
 20
143.000000150
 30
0.000000000
 11
133.500000000
 21
143.900000150
 31
0.000000000
  0
LINE
  5
A5E
330
A02
100
AcDbEntity
  8
ProjItem001
100
AcDbLine
 10
162.400000000
 20
125.000000150
 30
0.000000000
 11
161.500000000
 21
125.000000150
 31
0.000000000
  0
LINE
  5
A5F
330
A02
100
AcDbEntity
  8
ProjItem001
100
AcDbLine
 10
135.500000000
 20
125.000000150
 30
0.000000000
 11
134.600000000
 21
125.000000150
 31
0.000000000
  0
LINE
  5
A60
330
A02
100
AcDbEntity
  8
ProjItem001
100
AcDbLine
 10
163.500000000
 20
126.100000150
 30
0.000000000
 11
163.500000000
 21
127.000000150
 31
0.000000000
  0
LINE
  5
A61
330
A02
100
AcDbEntity
  8
ProjItem001
100
AcDbLine
 10
163.500000000
 20
143.000000150
 30
0.000000000
 11
163.500000000
 21
143.900000150
 31
0.000000000
  0
LINE
  5
A62
330
A02
100
AcDbEntity
  8
ProjItem001
100
AcDbLine
 10
162.400000000
 20
145.000000150
 30
0.000000000
 11
161.500000000
 21
145.000000150
 31
0.000000000
  0
LINE
  5
A63
330
A02
100
AcDbEntity
  8
ProjItem001
100
AcDbLine
 10
135.500000000
 20
145.000000150
 30
0.000000000
 11
134.600000000
 21
145.000000150
 31
0.000000000
  0
LINE
  5
A64
330
A02
100
AcDbEntity
  8
ProjItem001
100
AcDbLine
 10
134.500000000
 20
126.100000150
 30
0.000000000
 11
134.500000000
 21
127.000000150
 31
0.000000000
  0
LINE
  5
A65
330
A02
100
AcDbEntity
  8
ProjItem001
100
AcDbLine
 10
133.500000000
 20
126.100000150
 30
0.000000000
 11
134.500000000
 21
126.100000150
 31
0.000000000
  0
LINE
  5
A66
330
A02
100
AcDbEntity
  8
ProjItem001
100
AcDbLine
 10
133.500000000
 20
143.900000150
 30
0.000000000
 11
134.500000000
 21
143.900000150
 31
0.000000000
  0
LINE
  5
A67
330
A02
100
AcDbEntity
  8
ProjItem001
100
AcDbLine
 10
134.500000000
 20
143.000000150
 30
0.000000000
 11
134.500000000
 21
143.900000150
 31
0.000000000
  0
LINE
  5
A68
330
A02
100
AcDbEntity
  8
ProjItem001
100
AcDbLine
 10
162.400000000
 20
126.000000150
 30
0.000000000
 11
161.500000000
 21
126.000000150
 31
0.000000000
  0
LINE
  5
A69
330
A02
100
AcDbEntity
  8
ProjItem001
100
AcDbLine
 10
162.400000000
 20
125.000000150
 30
0.000000000
 11
162.400000000
 21
126.000000150
 31
0.000000000
  0
LINE
  5
A6A
330
A02
100
AcDbEntity
  8
ProjItem001
100
AcDbLine
 10
134.600000000
 20
125.000000150
 30
0.000000000
 11
134.600000000
 21
126.000000150
 31
0.000000000
  0
LINE
  5
A6B
330
A02
100
AcDbEntity
  8
ProjItem001
100
AcDbLine
 10
135.500000000
 20
126.000000150
 30
0.000000000
 11
134.600000000
 21
126.000000150
 31
0.000000000
  0
LINE
  5
A6C
330
A02
100
AcDbEntity
  8
ProjItem001
100
AcDbLine
 10
162.500000000
 20
126.100000150
 30
0.000000000
 11
162.500000000
 21
127.000000150
 31
0.000000000
  0
LINE
  5
A6D
330
A02
100
AcDbEntity
  8
ProjItem001
100
AcDbLine
 10
163.500000000
 20
126.100000150
 30
0.000000000
 11
162.500000000
 21
126.100000150
 31
0.000000000
  0
LINE
  5
A6E
330
A02
100
AcDbEntity
  8
ProjItem001
100
AcDbLine
 10
163.500000000
 20
143.900000150
 30
0.000000000
 11
162.500000000
 21
143.900000150
 31
0.000000000
  0
LINE
  5
A6F
330
A02
100
AcDbEntity
  8
ProjItem001
100
AcDbLine
 10
162.500000000
 20
143.000000150
 30
0.000000000
 11
162.500000000
 21
143.900000150
 31
0.000000000
  0
LINE
  5
A70
330
A02
100
AcDbEntity
  8
ProjItem001
100
AcDbLine
 10
162.400000000
 20
144.000000150
 30
0.000000000
 11
161.500000000
 21
144.000000150
 31
0.000000000
  0
LINE
  5
A71
330
A02
100
AcDbEntity
  8
ProjItem001
100
AcDbLine
 10
162.400000000
 20
145.000000150
 30
0.000000000
 11
162.400000000
 21
144.000000150
 31
0.000000000
  0
LINE
  5
A72
330
A02
100
AcDbEntity
  8
ProjItem001
100
AcDbLine
 10
134.600000000
 20
145.000000150
 30
0.000000000
 11
134.600000000
 21
144.000000150
 31
0.000000000
  0
LINE
  5
A73
330
A02
100
AcDbEntity
  8
ProjItem001
100
AcDbLine
 10
135.500000000
 20
144.000000150
 30
0.000000000
 11
134.600000000
 21
144.000000150
 31
0.000000000
  0
SPLINE
  5
A74
330
A02
100
AcDbEntity
  8
ProjItem001
100
AcDbSpline
210
0
220
0
230
1
 70
8
 71
2
 72
24
 73
21
 74
0
 40
0.000000000
 40
0.000000000
 40
0.000000000
 40
0.336599213
 40
0.336599213
 40
0.560998688
 40
0.560998688
 40
0.785398163
 40
0.785398163
 40
0.897597901
 40
0.897597901
 40
1.009797639
 40
1.009797639
 40
1.121997376
 40
1.121997376
 40
1.234197114
 40
1.234197114
 40
1.346396852
 40
1.346396852
 40
1.458596589
 40
1.458596589
 40
1.570796327
 40
1.570796327
 40
1.570796327
 10
135.500000000
 20
127.000000150
 30
0.000000000
 10
135.330576103
 20
127.000000150
 30
0.000000000
 10
135.169720938
 20
127.000000150
 30
0.000000000
 10
135.064586201
 20
127.000000150
 30
0.000000000
 10
134.967967923
 20
127.000000150
 30
0.000000000
 10
134.874311506
 20
127.000000150
 30
0.000000000
 10
134.792893219
 20
127.000000150
 30
0.000000000
 10
134.755530868
 20
127.000000150
 30
0.000000000
 10
134.718168518
 20
127.000000150
 30
0.000000000
 10
134.685722159
 20
127.000000150
 30
0.000000000
 10
134.653275801
 20
127.000000150
 30
0.000000000
 10
134.626153466
 20
127.000000150
 30
0.000000000
 10
134.599031132
 20
127.000000150
 30
0.000000000
 10
134.577573901
 20
127.000000150
 30
0.000000000
 10
134.556116670
 20
127.000000150
 30
0.000000000
 10
134.540594379
 20
127.000000150
 30
0.000000000
 10
134.525072088
 20
127.000000150
 30
0.000000000
 10
134.515679939
 20
127.000000150
 30
0.000000000
 10
134.506287790
 20
127.000000150
 30
0.000000000
 10
134.503143895
 20
127.000000150
 30
0.000000000
 10
134.500000000
 20
127.000000150
 30
0.000000000
  0
LINE
  5
A75
330
A02
100
AcDbEntity
  8
ProjItem001
100
AcDbLine
 10
134.500000000
 20
127.000000150
 30
0.000000000
 11
133.500000000
 21
127.000000150
 31
0.000000000
  0
SPLINE
  5
A76
330
A02
100
AcDbEntity
  8
ProjItem001
100
AcDbSpline
210
0
220
0
230
1
 70
8
 71
2
 72
24
 73
21
 74
0
 40
0.000000000
 40
0.000000000
 40
0.000000000
 40
0.336599213
 40
0.336599213
 40
0.560998688
 40
0.560998688
 40
0.785398163
 40
0.785398163
 40
0.897597901
 40
0.897597901
 40
1.009797639
 40
1.009797639
 40
1.121997376
 40
1.121997376
 40
1.234197114
 40
1.234197114
 40
1.346396852
 40
1.346396852
 40
1.458596589
 40
1.458596589
 40
1.570796327
 40
1.570796327
 40
1.570796327
 10
135.500000000
 20
143.000000150
 30
0.000000000
 10
135.330576103
 20
143.000000150
 30
0.000000000
 10
135.169720938
 20
143.000000150
 30
0.000000000
 10
135.064586201
 20
143.000000150
 30
0.000000000
 10
134.967967923
 20
143.000000150
 30
0.000000000
 10
134.874311506
 20
143.000000150
 30
0.000000000
 10
134.792893219
 20
143.000000150
 30
0.000000000
 10
134.755530868
 20
143.000000150
 30
0.000000000
 10
134.718168518
 20
143.000000150
 30
0.000000000
 10
134.685722159
 20
143.000000150
 30
0.000000000
 10
134.653275801
 20
143.000000150
 30
0.000000000
 10
134.626153466
 20
143.000000150
 30
0.000000000
 10
134.599031132
 20
143.000000150
 30
0.000000000
 10
134.577573901
 20
143.000000150
 30
0.000000000
 10
134.556116670
 20
143.000000150
 30
0.000000000
 10
134.540594379
 20
143.000000150
 30
0.000000000
 10
134.525072088
 20
143.000000150
 30
0.000000000
 10
134.515679939
 20
143.000000150
 30
0.000000000
 10
134.506287790
 20
143.000000150
 30
0.000000000
 10
134.503143895
 20
143.000000150
 30
0.000000000
 10
134.500000000
 20
143.000000150
 30
0.000000000
  0
LINE
  5
A77
330
A02
100
AcDbEntity
  8
ProjItem001
100
AcDbLine
 10
133.500000000
 20
143.000000150
 30
0.000000000
 11
134.500000000
 21
143.000000150
 31
0.000000000
  0
LINE
  5
A78
330
A02
100
AcDbEntity
  8
ProjItem001
100
AcDbLine
 10
133.500000000
 20
143.900000150
 30
0.000000000
 11
133.500000000
 21
126.100000150
 31
0.000000000
  0
SPLINE
  5
A79
330
A02
100
AcDbEntity
  8
ProjItem001
100
AcDbSpline
210
0
220
0
230
1
 70
8
 71
2
 72
24
 73
21
 74
0
 40
0.000000000
 40
0.000000000
 40
0.000000000
 40
0.336599213
 40
0.336599213
 40
0.560998688
 40
0.560998688
 40
0.785398163
 40
0.785398163
 40
0.897597901
 40
0.897597901
 40
1.009797639
 40
1.009797639
 40
1.121997376
 40
1.121997376
 40
1.234197114
 40
1.234197114
 40
1.346396852
 40
1.346396852
 40
1.458596589
 40
1.458596589
 40
1.570796327
 40
1.570796327
 40
1.570796327
 10
161.500000000
 20
127.000000150
 30
0.000000000
 10
161.500000000
 20
126.830576253
 30
0.000000000
 10
161.500000000
 20
126.669721088
 30
0.000000000
 10
161.500000000
 20
126.564586351
 30
0.000000000
 10
161.500000000
 20
126.467968073
 30
0.000000000
 10
161.500000000
 20
126.374311656
 30
0.000000000
 10
161.500000000
 20
126.292893369
 30
0.000000000
 10
161.500000000
 20
126.255531018
 30
0.000000000
 10
161.500000000
 20
126.218168668
 30
0.000000000
 10
161.500000000
 20
126.185722309
 30
0.000000000
 10
161.500000000
 20
126.153275951
 30
0.000000000
 10
161.500000000
 20
126.126153616
 30
0.000000000
 10
161.500000000
 20
126.099031282
 30
0.000000000
 10
161.500000000
 20
126.077574051
 30
0.000000000
 10
161.500000000
 20
126.056116820
 30
0.000000000
 10
161.500000000
 20
126.040594529
 30
0.000000000
 10
161.500000000
 20
126.025072238
 30
0.000000000
 10
161.500000000
 20
126.015680089
 30
0.000000000
 10
161.500000000
 20
126.006287940
 30
0.000000000
 10
161.500000000
 20
126.003144045
 30
0.000000000
 10
161.500000000
 20
126.000000150
 30
0.000000000
  0
LINE
  5
A7A
330
A02
100
AcDbEntity
  8
ProjItem001
100
AcDbLine
 10
161.500000000
 20
126.000000150
 30
0.000000000
 11
161.500000000
 21
125.000000150
 31
0.000000000
  0
SPLINE
  5
A7B
330
A02
100
AcDbEntity
  8
ProjItem001
100
AcDbSpline
210
0
220
0
230
1
 70
8
 71
2
 72
24
 73
21
 74
0
 40
0.000000000
 40
0.000000000
 40
0.000000000
 40
0.336599213
 40
0.336599213
 40
0.560998688
 40
0.560998688
 40
0.785398163
 40
0.785398163
 40
0.897597901
 40
0.897597901
 40
1.009797639
 40
1.009797639
 40
1.121997376
 40
1.121997376
 40
1.234197114
 40
1.234197114
 40
1.346396852
 40
1.346396852
 40
1.458596589
 40
1.458596589
 40
1.570796327
 40
1.570796327
 40
1.570796327
 10
135.500000000
 20
127.000000150
 30
0.000000000
 10
135.500000000
 20
126.830576253
 30
0.000000000
 10
135.500000000
 20
126.669721088
 30
0.000000000
 10
135.500000000
 20
126.564586351
 30
0.000000000
 10
135.500000000
 20
126.467968073
 30
0.000000000
 10
135.500000000
 20
126.374311656
 30
0.000000000
 10
135.500000000
 20
126.292893369
 30
0.000000000
 10
135.500000000
 20
126.255531018
 30
0.000000000
 10
135.500000000
 20
126.218168668
 30
0.000000000
 10
135.500000000
 20
126.185722309
 30
0.000000000
 10
135.500000000
 20
126.153275951
 30
0.000000000
 10
135.500000000
 20
126.126153616
 30
0.000000000
 10
135.500000000
 20
126.099031282
 30
0.000000000
 10
135.500000000
 20
126.077574051
 30
0.000000000
 10
135.500000000
 20
126.056116820
 30
0.000000000
 10
135.500000000
 20
126.040594529
 30
0.000000000
 10
135.500000000
 20
126.025072238
 30
0.000000000
 10
135.500000000
 20
126.015680089
 30
0.000000000
 10
135.500000000
 20
126.006287940
 30
0.000000000
 10
135.500000000
 20
126.003144045
 30
0.000000000
 10
135.500000000
 20
126.000000150
 30
0.000000000
  0
LINE
  5
A7C
330
A02
100
AcDbEntity
  8
ProjItem001
100
AcDbLine
 10
135.500000000
 20
125.000000150
 30
0.000000000
 11
135.500000000
 21
126.000000150
 31
0.000000000
  0
LINE
  5
A7D
330
A02
100
AcDbEntity
  8
ProjItem001
100
AcDbLine
 10
134.600000000
 20
125.000000150
 30
0.000000000
 11
162.400000000
 21
125.000000150
 31
0.000000000
  0
SPLINE
  5
A7E
330
A02
100
AcDbEntity
  8
ProjItem001
100
AcDbSpline
210
0
220
0
230
1
 70
8
 71
2
 72
24
 73
21
 74
0
 40
0.000000000
 40
0.000000000
 40
0.000000000
 40
0.336599213
 40
0.336599213
 40
0.560998688
 40
0.560998688
 40
0.785398163
 40
0.785398163
 40
0.897597901
 40
0.897597901
 40
1.009797639
 40
1.009797639
 40
1.121997376
 40
1.121997376
 40
1.234197114
 40
1.234197114
 40
1.346396852
 40
1.346396852
 40
1.458596589
 40
1.458596589
 40
1.570796327
 40
1.570796327
 40
1.570796327
 10
161.500000000
 20
127.000000150
 30
0.000000000
 10
161.669423897
 20
127.000000150
 30
0.000000000
 10
161.830279062
 20
127.000000150
 30
0.000000000
 10
161.935413799
 20
127.000000150
 30
0.000000000
 10
162.032032077
 20
127.000000150
 30
0.000000000
 10
162.125688494
 20
127.000000150
 30
0.000000000
 10
162.207106781
 20
127.000000150
 30
0.000000000
 10
162.244469132
 20
127.000000150
 30
0.000000000
 10
162.281831482
 20
127.000000150
 30
0.000000000
 10
162.314277841
 20
127.000000150
 30
0.000000000
 10
162.346724199
 20
127.000000150
 30
0.000000000
 10
162.373846534
 20
127.000000150
 30
0.000000000
 10
162.400968868
 20
127.000000150
 30
0.000000000
 10
162.422426099
 20
127.000000150
 30
0.000000000
 10
162.443883330
 20
127.000000150
 30
0.000000000
 10
162.459405621
 20
127.000000150
 30
0.000000000
 10
162.474927912
 20
127.000000150
 30
0.000000000
 10
162.484320061
 20
127.000000150
 30
0.000000000
 10
162.493712210
 20
127.000000150
 30
0.000000000
 10
162.496856105
 20
127.000000150
 30
0.000000000
 10
162.500000000
 20
127.000000150
 30
0.000000000
  0
LINE
  5
A7F
330
A02
100
AcDbEntity
  8
ProjItem001
100
AcDbLine
 10
162.500000000
 20
127.000000150
 30
0.000000000
 11
163.500000000
 21
127.000000150
 31
0.000000000
  0
SPLINE
  5
A80
330
A02
100
AcDbEntity
  8
ProjItem001
100
AcDbSpline
210
0
220
0
230
1
 70
8
 71
2
 72
24
 73
21
 74
0
 40
0.000000000
 40
0.000000000
 40
0.000000000
 40
0.336599213
 40
0.336599213
 40
0.560998688
 40
0.560998688
 40
0.785398163
 40
0.785398163
 40
0.897597901
 40
0.897597901
 40
1.009797639
 40
1.009797639
 40
1.121997376
 40
1.121997376
 40
1.234197114
 40
1.234197114
 40
1.346396852
 40
1.346396852
 40
1.458596589
 40
1.458596589
 40
1.570796327
 40
1.570796327
 40
1.570796327
 10
161.500000000
 20
143.000000150
 30
0.000000000
 10
161.669423897
 20
143.000000150
 30
0.000000000
 10
161.830279062
 20
143.000000150
 30
0.000000000
 10
161.935413799
 20
143.000000150
 30
0.000000000
 10
162.032032077
 20
143.000000150
 30
0.000000000
 10
162.125688494
 20
143.000000150
 30
0.000000000
 10
162.207106781
 20
143.000000150
 30
0.000000000
 10
162.244469132
 20
143.000000150
 30
0.000000000
 10
162.281831482
 20
143.000000150
 30
0.000000000
 10
162.314277841
 20
143.000000150
 30
0.000000000
 10
162.346724199
 20
143.000000150
 30
0.000000000
 10
162.373846534
 20
143.000000150
 30
0.000000000
 10
162.400968868
 20
143.000000150
 30
0.000000000
 10
162.422426099
 20
143.000000150
 30
0.000000000
 10
162.443883330
 20
143.000000150
 30
0.000000000
 10
162.459405621
 20
143.000000150
 30
0.000000000
 10
162.474927912
 20
143.000000150
 30
0.000000000
 10
162.484320061
 20
143.000000150
 30
0.000000000
 10
162.493712210
 20
143.000000150
 30
0.000000000
 10
162.496856105
 20
143.000000150
 30
0.000000000
 10
162.500000000
 20
143.000000150
 30
0.000000000
  0
LINE
  5
A81
330
A02
100
AcDbEntity
  8
ProjItem001
100
AcDbLine
 10
163.500000000
 20
143.000000150
 30
0.000000000
 11
162.500000000
 21
143.000000150
 31
0.000000000
  0
LINE
  5
A82
330
A02
100
AcDbEntity
  8
ProjItem001
100
AcDbLine
 10
163.500000000
 20
143.900000150
 30
0.000000000
 11
163.500000000
 21
126.100000150
 31
0.000000000
  0
SPLINE
  5
A83
330
A02
100
AcDbEntity
  8
ProjItem001
100
AcDbSpline
210
0
220
0
230
1
 70
8
 71
2
 72
24
 73
21
 74
0
 40
0.000000000
 40
0.000000000
 40
0.000000000
 40
0.336599213
 40
0.336599213
 40
0.560998688
 40
0.560998688
 40
0.785398163
 40
0.785398163
 40
0.897597901
 40
0.897597901
 40
1.009797639
 40
1.009797639
 40
1.121997376
 40
1.121997376
 40
1.234197114
 40
1.234197114
 40
1.346396852
 40
1.346396852
 40
1.458596589
 40
1.458596589
 40
1.570796327
 40
1.570796327
 40
1.570796327
 10
161.500000000
 20
143.000000150
 30
0.000000000
 10
161.500000000
 20
143.169424047
 30
0.000000000
 10
161.500000000
 20
143.330279212
 30
0.000000000
 10
161.500000000
 20
143.435413949
 30
0.000000000
 10
161.500000000
 20
143.532032227
 30
0.000000000
 10
161.500000000
 20
143.625688644
 30
0.000000000
 10
161.500000000
 20
143.707106931
 30
0.000000000
 10
161.500000000
 20
143.744469282
 30
0.000000000
 10
161.500000000
 20
143.781831632
 30
0.000000000
 10
161.500000000
 20
143.814277991
 30
0.000000000
 10
161.500000000
 20
143.846724349
 30
0.000000000
 10
161.500000000
 20
143.873846684
 30
0.000000000
 10
161.500000000
 20
143.900969018
 30
0.000000000
 10
161.500000000
 20
143.922426249
 30
0.000000000
 10
161.500000000
 20
143.943883480
 30
0.000000000
 10
161.500000000
 20
143.959405771
 30
0.000000000
 10
161.500000000
 20
143.974928062
 30
0.000000000
 10
161.500000000
 20
143.984320211
 30
0.000000000
 10
161.500000000
 20
143.993712360
 30
0.000000000
 10
161.500000000
 20
143.996856255
 30
0.000000000
 10
161.500000000
 20
144.000000150
 30
0.000000000
  0
LINE
  5
A84
330
A02
100
AcDbEntity
  8
ProjItem001
100
AcDbLine
 10
161.500000000
 20
144.000000150
 30
0.000000000
 11
161.500000000
 21
145.000000150
 31
0.000000000
  0
SPLINE
  5
A85
330
A02
100
AcDbEntity
  8
ProjItem001
100
AcDbSpline
210
0
220
0
230
1
 70
8
 71
2
 72
24
 73
21
 74
0
 40
0.000000000
 40
0.000000000
 40
0.000000000
 40
0.336599213
 40
0.336599213
 40
0.560998688
 40
0.560998688
 40
0.785398163
 40
0.785398163
 40
0.897597901
 40
0.897597901
 40
1.009797639
 40
1.009797639
 40
1.121997376
 40
1.121997376
 40
1.234197114
 40
1.234197114
 40
1.346396852
 40
1.346396852
 40
1.458596589
 40
1.458596589
 40
1.570796327
 40
1.570796327
 40
1.570796327
 10
135.500000000
 20
143.000000150
 30
0.000000000
 10
135.500000000
 20
143.169424047
 30
0.000000000
 10
135.500000000
 20
143.330279212
 30
0.000000000
 10
135.500000000
 20
143.435413949
 30
0.000000000
 10
135.500000000
 20
143.532032227
 30
0.000000000
 10
135.500000000
 20
143.625688644
 30
0.000000000
 10
135.500000000
 20
143.707106931
 30
0.000000000
 10
135.500000000
 20
143.744469282
 30
0.000000000
 10
135.500000000
 20
143.781831632
 30
0.000000000
 10
135.500000000
 20
143.814277991
 30
0.000000000
 10
135.500000000
 20
143.846724349
 30
0.000000000
 10
135.500000000
 20
143.873846684
 30
0.000000000
 10
135.500000000
 20
143.900969018
 30
0.000000000
 10
135.500000000
 20
143.922426249
 30
0.000000000
 10
135.500000000
 20
143.943883480
 30
0.000000000
 10
135.500000000
 20
143.959405771
 30
0.000000000
 10
135.500000000
 20
143.974928062
 30
0.000000000
 10
135.500000000
 20
143.984320211
 30
0.000000000
 10
135.500000000
 20
143.993712360
 30
0.000000000
 10
135.500000000
 20
143.996856255
 30
0.000000000
 10
135.500000000
 20
144.000000150
 30
0.000000000
  0
LINE
  5
A86
330
A02
100
AcDbEntity
  8
ProjItem001
100
AcDbLine
 10
135.500000000
 20
145.000000150
 30
0.000000000
 11
135.500000000
 21
144.000000150
 31
0.000000000
  0
LINE
  5
A87
330
A02
100
AcDbEntity
  8
ProjItem001
100
AcDbLine
 10
134.600000000
 20
145.000000150
 30
0.000000000
 11
162.400000000
 21
145.000000150
 31
0.000000000
  0
LINE
  5
A88
330
A02
100
AcDbEntity
  8
ProjItem001
100
AcDbLine
 10
135.500000000
 20
143.000000150
 30
0.000000000
 11
135.500000000
 21
127.000000150
 31
0.000000000
  0
LINE
  5
A89
330
A02
100
AcDbEntity
  8
ProjItem001
100
AcDbLine
 10
134.500000000
 20
143.000000150
 30
0.000000000
 11
134.500000000
 21
127.000000150
 31
0.000000000
  0
LINE
  5
A8A
330
A02
100
AcDbEntity
  8
ProjItem001
100
AcDbLine
 10
133.500000000
 20
143.900000150
 30
0.000000000
 11
134.500000000
 21
143.900000150
 31
0.000000000
  0
LINE
  5
A8B
330
A02
100
AcDbEntity
  8
ProjItem001
100
AcDbLine
 10
133.500000000
 20
126.100000150
 30
0.000000000
 11
134.500000000
 21
126.100000150
 31
0.000000000
  0
LINE
  5
A8C
330
A02
100
AcDbEntity
  8
ProjItem001
100
AcDbLine
 10
134.500000000
 20
143.900000150
 30
0.000000000
 11
134.500000000
 21
126.100000150
 31
0.000000000
  0
LINE
  5
A8D
330
A02
100
AcDbEntity
  8
ProjItem001
100
AcDbLine
 10
135.500000000
 20
127.000000150
 30
0.000000000
 11
161.500000000
 21
127.000000150
 31
0.000000000
  0
LINE
  5
A8E
330
A02
100
AcDbEntity
  8
ProjItem001
100
AcDbLine
 10
135.500000000
 20
126.000000150
 30
0.000000000
 11
161.500000000
 21
126.000000150
 31
0.000000000
  0
LINE
  5
A8F
330
A02
100
AcDbEntity
  8
ProjItem001
100
AcDbLine
 10
134.600000000
 20
125.000000150
 30
0.000000000
 11
134.600000000
 21
126.000000150
 31
0.000000000
  0
LINE
  5
A90
330
A02
100
AcDbEntity
  8
ProjItem001
100
AcDbLine
 10
162.400000000
 20
125.000000150
 30
0.000000000
 11
162.400000000
 21
126.000000150
 31
0.000000000
  0
LINE
  5
A91
330
A02
100
AcDbEntity
  8
ProjItem001
100
AcDbLine
 10
134.600000000
 20
126.000000150
 30
0.000000000
 11
162.400000000
 21
126.000000150
 31
0.000000000
  0
LINE
  5
A92
330
A02
100
AcDbEntity
  8
ProjItem001
100
AcDbLine
 10
161.500000000
 20
143.000000150
 30
0.000000000
 11
161.500000000
 21
127.000000150
 31
0.000000000
  0
LINE
  5
A93
330
A02
100
AcDbEntity
  8
ProjItem001
100
AcDbLine
 10
162.500000000
 20
143.000000150
 30
0.000000000
 11
162.500000000
 21
127.000000150
 31
0.000000000
  0
LINE
  5
A94
330
A02
100
AcDbEntity
  8
ProjItem001
100
AcDbLine
 10
163.500000000
 20
143.900000150
 30
0.000000000
 11
162.500000000
 21
143.900000150
 31
0.000000000
  0
LINE
  5
A95
330
A02
100
AcDbEntity
  8
ProjItem001
100
AcDbLine
 10
163.500000000
 20
126.100000150
 30
0.000000000
 11
162.500000000
 21
126.100000150
 31
0.000000000
  0
LINE
  5
A96
330
A02
100
AcDbEntity
  8
ProjItem001
100
AcDbLine
 10
162.500000000
 20
143.900000150
 30
0.000000000
 11
162.500000000
 21
126.100000150
 31
0.000000000
  0
LINE
  5
A97
330
A02
100
AcDbEntity
  8
ProjItem001
100
AcDbLine
 10
135.500000000
 20
143.000000150
 30
0.000000000
 11
161.500000000
 21
143.000000150
 31
0.000000000
  0
LINE
  5
A98
330
A02
100
AcDbEntity
  8
ProjItem001
100
AcDbLine
 10
135.500000000
 20
144.000000150
 30
0.000000000
 11
161.500000000
 21
144.000000150
 31
0.000000000
  0
LINE
  5
A99
330
A02
100
AcDbEntity
  8
ProjItem001
100
AcDbLine
 10
134.600000000
 20
145.000000150
 30
0.000000000
 11
134.600000000
 21
144.000000150
 31
0.000000000
  0
LINE
  5
A9A
330
A02
100
AcDbEntity
  8
ProjItem001
100
AcDbLine
 10
162.400000000
 20
145.000000150
 30
0.000000000
 11
162.400000000
 21
144.000000150
 31
0.000000000
  0
LINE
  5
A9B
330
A02
100
AcDbEntity
  8
ProjItem001
100
AcDbLine
 10
134.600000000
 20
144.000000150
 30
0.000000000
 11
162.400000000
 21
144.000000150
 31
0.000000000
  0
LINE
  5
A9C
330
A02
100
AcDbEntity
  8
ProjItem002
100
AcDbLine
 10
196.500000100
 20
100.000000000
 30
0.000000000
 11
180.500000100
 21
100.000000000
 31
0.000000000
  0
SPLINE
  5
A9D
330
A02
100
AcDbEntity
  8
ProjItem002
100
AcDbSpline
210
0
220
0
230
1
 70
8
 71
2
 72
30
 73
27
 74
0
 40
0.000000000
 40
0.000000000
 40
0.000000000
 40
0.112199738
 40
0.112199738
 40
0.224399475
 40
0.224399475
 40
0.336599213
 40
0.336599213
 40
0.448798951
 40
0.448798951
 40
0.560998688
 40
0.560998688
 40
0.673198426
 40
0.673198426
 40
0.785398163
 40
0.785398163
 40
0.897597901
 40
0.897597901
 40
1.009797639
 40
1.009797639
 40
1.121997376
 40
1.121997376
 40
1.234197114
 40
1.234197114
 40
1.346396852
 40
1.346396852
 40
1.570796327
 40
1.570796327
 40
1.570796327
 10
180.500000100
 20
100.000000000
 30
0.000000000
 10
180.500000100
 20
100.006287790
 30
0.000000000
 10
180.500000100
 20
100.012575580
 30
0.000000000
 10
180.500000100
 20
100.031359878
 30
0.000000000
 10
180.500000100
 20
100.050144176
 30
0.000000000
 10
180.500000100
 20
100.081188758
 30
0.000000000
 10
180.500000100
 20
100.112233339
 30
0.000000000
 10
180.500000100
 20
100.155147802
 30
0.000000000
 10
180.500000100
 20
100.198062264
 30
0.000000000
 10
180.500000100
 20
100.252306933
 30
0.000000000
 10
180.500000100
 20
100.306551602
 30
0.000000000
 10
180.500000100
 20
100.371444318
 30
0.000000000
 10
180.500000100
 20
100.436337035
 30
0.000000000
 10
180.500000100
 20
100.511061736
 30
0.000000000
 10
180.500000100
 20
100.585786438
 30
0.000000000
 10
180.500000100
 20
100.669403417
 30
0.000000000
 10
180.500000100
 20
100.753020396
 30
0.000000000
 10
180.500000100
 20
100.844478122
 30
0.000000000
 10
180.500000100
 20
100.935935847
 30
0.000000000
 10
180.500000100
 20
101.034084184
 30
0.000000000
 10
180.500000100
 20
101.132232522
 30
0.000000000
 10
180.500000100
 20
101.235837199
 30
0.000000000
 10
180.500000100
 20
101.339441876
 30
0.000000000
 10
180.500000100
 20
101.447200004
 30
0.000000000
 10
180.500000100
 20
101.554958132
 30
0.000000000
 10
180.500000100
 20
101.775281378
 30
0.000000000
 10
180.500000100
 20
102.000000000
 30
0.000000000
  0
SPLINE
  5
A9E
330
A02
100
AcDbEntity
  8
ProjItem002
100
AcDbSpline
210
0
220
0
230
1
 70
8
 71
2
 72
30
 73
27
 74
0
 40
0.000000000
 40
0.000000000
 40
0.000000000
 40
0.112199738
 40
0.112199738
 40
0.224399475
 40
0.224399475
 40
0.336599213
 40
0.336599213
 40
0.448798951
 40
0.448798951
 40
0.560998688
 40
0.560998688
 40
0.673198426
 40
0.673198426
 40
0.785398163
 40
0.785398163
 40
0.897597901
 40
0.897597901
 40
1.009797639
 40
1.009797639
 40
1.121997376
 40
1.121997376
 40
1.234197114
 40
1.234197114
 40
1.346396852
 40
1.346396852
 40
1.570796327
 40
1.570796327
 40
1.570796327
 10
196.500000100
 20
100.000000000
 30
0.000000000
 10
196.500000100
 20
100.006287790
 30
0.000000000
 10
196.500000100
 20
100.012575580
 30
0.000000000
 10
196.500000100
 20
100.031359878
 30
0.000000000
 10
196.500000100
 20
100.050144176
 30
0.000000000
 10
196.500000100
 20
100.081188758
 30
0.000000000
 10
196.500000100
 20
100.112233339
 30
0.000000000
 10
196.500000100
 20
100.155147802
 30
0.000000000
 10
196.500000100
 20
100.198062264
 30
0.000000000
 10
196.500000100
 20
100.252306933
 30
0.000000000
 10
196.500000100
 20
100.306551602
 30
0.000000000
 10
196.500000100
 20
100.371444318
 30
0.000000000
 10
196.500000100
 20
100.436337035
 30
0.000000000
 10
196.500000100
 20
100.511061736
 30
0.000000000
 10
196.500000100
 20
100.585786438
 30
0.000000000
 10
196.500000100
 20
100.669403417
 30
0.000000000
 10
196.500000100
 20
100.753020396
 30
0.000000000
 10
196.500000100
 20
100.844478122
 30
0.000000000
 10
196.500000100
 20
100.935935847
 30
0.000000000
 10
196.500000100
 20
101.034084184
 30
0.000000000
 10
196.500000100
 20
101.132232522
 30
0.000000000
 10
196.500000100
 20
101.235837199
 30
0.000000000
 10
196.500000100
 20
101.339441876
 30
0.000000000
 10
196.500000100
 20
101.447200004
 30
0.000000000
 10
196.500000100
 20
101.554958132
 30
0.000000000
 10
196.500000100
 20
101.775281378
 30
0.000000000
 10
196.500000100
 20
102.000000000
 30
0.000000000
  0
LINE
  5
A9F
330
A02
100
AcDbEntity
  8
ProjItem002
100
AcDbLine
 10
180.500000100
 20
102.000000000
 30
0.000000000
 11
196.500000100
 21
102.000000000
 31
0.000000000
  0
ARC
  5
AA0
330
A02
100
AcDbEntity
  8
ProjItem002
100
AcDbCircle
 10
180.500000100
 20
102.000000000
 30
0.000000000
 40
2.000000000
100
AcDbArc
 50
180.000000000
 51
-90.000000000
  0
ARC
  5
AA1
330
A02
100
AcDbEntity
  8
ProjItem002
100
AcDbCircle
 10
196.500000100
 20
102.000000000
 30
0.000000000
 40
2.000000000
100
AcDbArc
 50
-90.000000000
 51
0.000000000
  0
LINE
  5
AA2
330
A02
100
AcDbEntity
  8
ProjItem002
100
AcDbLine
 10
179.600000100
 20
102.000000000
 30
0.000000000
 11
180.500000100
 21
102.000000000
 31
0.000000000
  0
LINE
  5
AA3
330
A02
100
AcDbEntity
  8
ProjItem002
100
AcDbLine
 10
196.500000100
 20
102.000000000
 30
0.000000000
 11
197.400000100
 21
102.000000000
 31
0.000000000
  0
LINE
  5
AA4
330
A02
100
AcDbEntity
  8
ProjItem002
100
AcDbLine
 10
197.400000100
 20
102.000000000
 30
0.000000000
 11
197.400000100
 21
110.000000000
 31
0.000000000
  0
LINE
  5
AA5
330
A02
100
AcDbEntity
  8
ProjItem002
100
AcDbLine
 10
197.400000100
 20
110.000000000
 30
0.000000000
 11
179.600000100
 21
110.000000000
 31
0.000000000
  0
LINE
  5
AA6
330
A02
100
AcDbEntity
  8
ProjItem002
100
AcDbLine
 10
179.600000100
 20
110.000000000
 30
0.000000000
 11
179.600000100
 21
102.000000000
 31
0.000000000
  0
ARC
  5
AA7
330
A02
100
AcDbEntity
  8
ProjItem002
100
AcDbCircle
 10
180.500000100
 20
102.000000000
 30
0.000000000
 40
1.000000000
100
AcDbArc
 50
180.000000000
 51
-90.000000000
  0
LINE
  5
AA8
330
A02
100
AcDbEntity
  8
ProjItem002
100
AcDbLine
 10
178.500000100
 20
102.000000000
 30
0.000000000
 11
178.500000100
 21
110.000000000
 31
0.000000000
  0
ARC
  5
AA9
330
A02
100
AcDbEntity
  8
ProjItem002
100
AcDbCircle
 10
196.500000100
 20
102.000000000
 30
0.000000000
 40
1.000000000
100
AcDbArc
 50
-90.000000000
 51
0.000000000
  0
LINE
  5
AAA
330
A02
100
AcDbEntity
  8
ProjItem002
100
AcDbLine
 10
198.500000100
 20
102.000000000
 30
0.000000000
 11
198.500000100
 21
110.000000000
 31
0.000000000
  0
LINE
  5
AAB
330
A02
100
AcDbEntity
  8
ProjItem002
100
AcDbLine
 10
178.500000100
 20
102.000000000
 30
0.000000000
 11
179.500000100
 21
102.000000000
 31
0.000000000
  0
LINE
  5
AAC
330
A02
100
AcDbEntity
  8
ProjItem002
100
AcDbLine
 10
178.500000100
 20
110.000000000
 30
0.000000000
 11
179.500000100
 21
110.000000000
 31
0.000000000
  0
LINE
  5
AAD
330
A02
100
AcDbEntity
  8
ProjItem002
100
AcDbLine
 10
179.500000100
 20
102.000000000
 30
0.000000000
 11
179.500000100
 21
110.000000000
 31
0.000000000
  0
LINE
  5
AAE
330
A02
100
AcDbEntity
  8
ProjItem002
100
AcDbLine
 10
198.500000100
 20
102.000000000
 30
0.000000000
 11
197.500000100
 21
102.000000000
 31
0.000000000
  0
LINE
  5
AAF
330
A02
100
AcDbEntity
  8
ProjItem002
100
AcDbLine
 10
198.500000100
 20
110.000000000
 30
0.000000000
 11
197.500000100
 21
110.000000000
 31
0.000000000
  0
LINE
  5
AB0
330
A02
100
AcDbEntity
  8
ProjItem002
100
AcDbLine
 10
197.500000100
 20
102.000000000
 30
0.000000000
 11
197.500000100
 21
110.000000000
 31
0.000000000
  0
LINE
  5
AB1
330
A02
100
AcDbEntity
  8
ProjItem002
100
AcDbLine
 10
196.500000100
 20
100.000000000
 30
0.000000000
 11
180.500000100
 21
100.000000000
 31
0.000000000
  0
ARC
  5
AB2
330
A02
100
AcDbEntity
  8
ProjItem002
100
AcDbCircle
 10
180.500000100
 20
102.000000000
 30
0.000000000
 40
2.000000000
100
AcDbArc
 50
180.000000000
 51
-90.000000000
  0
SPLINE
  5
AB3
330
A02
100
AcDbEntity
  8
ProjItem002
100
AcDbSpline
210
0
220
0
230
1
 70
8
 71
2
 72
30
 73
27
 74
0
 40
0.000000000
 40
0.000000000
 40
0.000000000
 40
0.112199738
 40
0.112199738
 40
0.224399475
 40
0.224399475
 40
0.336599213
 40
0.336599213
 40
0.448798951
 40
0.448798951
 40
0.560998688
 40
0.560998688
 40
0.673198426
 40
0.673198426
 40
0.785398163
 40
0.785398163
 40
0.897597901
 40
0.897597901
 40
1.009797639
 40
1.009797639
 40
1.121997376
 40
1.121997376
 40
1.234197114
 40
1.234197114
 40
1.346396852
 40
1.346396852
 40
1.570796327
 40
1.570796327
 40
1.570796327
 10
180.500000100
 20
100.000000000
 30
0.000000000
 10
180.500000100
 20
100.006287790
 30
0.000000000
 10
180.500000100
 20
100.012575580
 30
0.000000000
 10
180.500000100
 20
100.031359878
 30
0.000000000
 10
180.500000100
 20
100.050144176
 30
0.000000000
 10
180.500000100
 20
100.081188758
 30
0.000000000
 10
180.500000100
 20
100.112233339
 30
0.000000000
 10
180.500000100
 20
100.155147802
 30
0.000000000
 10
180.500000100
 20
100.198062264
 30
0.000000000
 10
180.500000100
 20
100.252306933
 30
0.000000000
 10
180.500000100
 20
100.306551602
 30
0.000000000
 10
180.500000100
 20
100.371444318
 30
0.000000000
 10
180.500000100
 20
100.436337035
 30
0.000000000
 10
180.500000100
 20
100.511061736
 30
0.000000000
 10
180.500000100
 20
100.585786438
 30
0.000000000
 10
180.500000100
 20
100.669403417
 30
0.000000000
 10
180.500000100
 20
100.753020396
 30
0.000000000
 10
180.500000100
 20
100.844478122
 30
0.000000000
 10
180.500000100
 20
100.935935847
 30
0.000000000
 10
180.500000100
 20
101.034084184
 30
0.000000000
 10
180.500000100
 20
101.132232522
 30
0.000000000
 10
180.500000100
 20
101.235837199
 30
0.000000000
 10
180.500000100
 20
101.339441876
 30
0.000000000
 10
180.500000100
 20
101.447200004
 30
0.000000000
 10
180.500000100
 20
101.554958132
 30
0.000000000
 10
180.500000100
 20
101.775281378
 30
0.000000000
 10
180.500000100
 20
102.000000000
 30
0.000000000
  0
SPLINE
  5
AB4
330
A02
100
AcDbEntity
  8
ProjItem002
100
AcDbSpline
210
0
220
0
230
1
 70
8
 71
2
 72
30
 73
27
 74
0
 40
0.000000000
 40
0.000000000
 40
0.000000000
 40
0.112199738
 40
0.112199738
 40
0.224399475
 40
0.224399475
 40
0.336599213
 40
0.336599213
 40
0.448798951
 40
0.448798951
 40
0.560998688
 40
0.560998688
 40
0.673198426
 40
0.673198426
 40
0.785398163
 40
0.785398163
 40
0.897597901
 40
0.897597901
 40
1.009797639
 40
1.009797639
 40
1.121997376
 40
1.121997376
 40
1.234197114
 40
1.234197114
 40
1.346396852
 40
1.346396852
 40
1.570796327
 40
1.570796327
 40
1.570796327
 10
196.500000100
 20
100.000000000
 30
0.000000000
 10
196.500000100
 20
100.006287790
 30
0.000000000
 10
196.500000100
 20
100.012575580
 30
0.000000000
 10
196.500000100
 20
100.031359878
 30
0.000000000
 10
196.500000100
 20
100.050144176
 30
0.000000000
 10
196.500000100
 20
100.081188758
 30
0.000000000
 10
196.500000100
 20
100.112233339
 30
0.000000000
 10
196.500000100
 20
100.155147802
 30
0.000000000
 10
196.500000100
 20
100.198062264
 30
0.000000000
 10
196.500000100
 20
100.252306933
 30
0.000000000
 10
196.500000100
 20
100.306551602
 30
0.000000000
 10
196.500000100
 20
100.371444318
 30
0.000000000
 10
196.500000100
 20
100.436337035
 30
0.000000000
 10
196.500000100
 20
100.511061736
 30
0.000000000
 10
196.500000100
 20
100.585786438
 30
0.000000000
 10
196.500000100
 20
100.669403417
 30
0.000000000
 10
196.500000100
 20
100.753020396
 30
0.000000000
 10
196.500000100
 20
100.844478122
 30
0.000000000
 10
196.500000100
 20
100.935935847
 30
0.000000000
 10
196.500000100
 20
101.034084184
 30
0.000000000
 10
196.500000100
 20
101.132232522
 30
0.000000000
 10
196.500000100
 20
101.235837199
 30
0.000000000
 10
196.500000100
 20
101.339441876
 30
0.000000000
 10
196.500000100
 20
101.447200004
 30
0.000000000
 10
196.500000100
 20
101.554958132
 30
0.000000000
 10
196.500000100
 20
101.775281378
 30
0.000000000
 10
196.500000100
 20
102.000000000
 30
0.000000000
  0
LINE
  5
AB5
330
A02
100
AcDbEntity
  8
ProjItem002
100
AcDbLine
 10
180.500000100
 20
102.000000000
 30
0.000000000
 11
196.500000100
 21
102.000000000
 31
0.000000000
  0
ARC
  5
AB6
330
A02
100
AcDbEntity
  8
ProjItem002
100
AcDbCircle
 10
196.500000100
 20
102.000000000
 30
0.000000000
 40
2.000000000
100
AcDbArc
 50
-90.000000000
 51
0.000000000
  0
SPLINE
  5
AB7
330
A02
100
AcDbEntity
  8
ProjItem002
100
AcDbSpline
210
0
220
0
230
1
 70
8
 71
3
 72
35
 73
31
 74
0
 40
0.000000000
 40
0.000000000
 40
0.000000000
 40
0.000000000
 40
0.112199738
 40
0.112199738
 40
0.112199738
 40
0.224399475
 40
0.224399475
 40
0.224399475
 40
0.336599213
 40
0.336599213
 40
0.336599213
 40
0.448798951
 40
0.448798951
 40
0.448798951
 40
0.560998688
 40
0.560998688
 40
0.560998688
 40
0.673198426
 40
0.673198426
 40
0.673198426
 40
0.785398163
 40
0.785398163
 40
0.785398163
 40
0.897597901
 40
0.897597901
 40
0.897597901
 40
1.121997376
 40
1.121997376
 40
1.121997376
 40
1.570796327
 40
1.570796327
 40
1.570796327
 40
1.570796327
 10
180.500000100
 20
101.000000000
 30
0.000000000
 10
180.500000100
 20
101.002095930
 30
0.000000000
 10
180.500000100
 20
101.004191860
 30
0.000000000
 10
180.500000100
 20
101.006287790
 30
0.000000000
 10
180.500000100
 20
101.012549223
 30
0.000000000
 10
180.500000100
 20
101.018810655
 30
0.000000000
 10
180.500000100
 20
101.025072088
 30
0.000000000
 10
180.500000100
 20
101.035420282
 30
0.000000000
 10
180.500000100
 20
101.045768476
 30
0.000000000
 10
180.500000100
 20
101.056116670
 30
0.000000000
 10
180.500000100
 20
101.070421490
 30
0.000000000
 10
180.500000100
 20
101.084726311
 30
0.000000000
 10
180.500000100
 20
101.099031132
 30
0.000000000
 10
180.500000100
 20
101.117112688
 30
0.000000000
 10
180.500000100
 20
101.135194245
 30
0.000000000
 10
180.500000100
 20
101.153275801
 30
0.000000000
 10
180.500000100
 20
101.174906706
 30
0.000000000
 10
180.500000100
 20
101.196537612
 30
0.000000000
 10
180.500000100
 20
101.218168518
 30
0.000000000
 10
180.500000100
 20
101.243076751
 30
0.000000000
 10
180.500000100
 20
101.267984985
 30
0.000000000
 10
180.500000100
 20
101.292893219
 30
0.000000000
 10
180.500000100
 20
101.320765545
 30
0.000000000
 10
180.500000100
 20
101.348637872
 30
0.000000000
 10
180.500000100
 20
101.376510198
 30
0.000000000
 10
180.500000100
 20
101.436231233
 30
0.000000000
 10
180.500000100
 20
101.499433254
 30
0.000000000
 10
180.500000100
 20
101.566116261
 30
0.000000000
 10
180.500000100
 20
101.701836753
 30
0.000000000
 10
180.500000100
 20
101.850207115
 30
0.000000000
 10
180.500000100
 20
102.000000000
 30
0.000000000
  0
LINE
  5
AB8
330
A02
100
AcDbEntity
  8
ProjItem002
100
AcDbLine
 10
180.500000100
 20
100.000000000
 30
0.000000000
 11
180.500000100
 21
101.000000000
 31
0.000000000
  0
SPLINE
  5
AB9
330
A02
100
AcDbEntity
  8
ProjItem002
100
AcDbSpline
210
0
220
0
230
1
 70
8
 71
3
 72
35
 73
31
 74
0
 40
0.000000000
 40
0.000000000
 40
0.000000000
 40
0.000000000
 40
0.112199738
 40
0.112199738
 40
0.112199738
 40
0.224399475
 40
0.224399475
 40
0.224399475
 40
0.336599213
 40
0.336599213
 40
0.336599213
 40
0.448798951
 40
0.448798951
 40
0.448798951
 40
0.560998688
 40
0.560998688
 40
0.560998688
 40
0.673198426
 40
0.673198426
 40
0.673198426
 40
0.785398163
 40
0.785398163
 40
0.785398163
 40
0.897597901
 40
0.897597901
 40
0.897597901
 40
1.121997376
 40
1.121997376
 40
1.121997376
 40
1.570796327
 40
1.570796327
 40
1.570796327
 40
1.570796327
 10
196.500000100
 20
101.000000000
 30
0.000000000
 10
196.500000100
 20
101.002095930
 30
0.000000000
 10
196.500000100
 20
101.004191860
 30
0.000000000
 10
196.500000100
 20
101.006287790
 30
0.000000000
 10
196.500000100
 20
101.012549223
 30
0.000000000
 10
196.500000100
 20
101.018810655
 30
0.000000000
 10
196.500000100
 20
101.025072088
 30
0.000000000
 10
196.500000100
 20
101.035420282
 30
0.000000000
 10
196.500000100
 20
101.045768476
 30
0.000000000
 10
196.500000100
 20
101.056116670
 30
0.000000000
 10
196.500000100
 20
101.070421490
 30
0.000000000
 10
196.500000100
 20
101.084726311
 30
0.000000000
 10
196.500000100
 20
101.099031132
 30
0.000000000
 10
196.500000100
 20
101.117112688
 30
0.000000000
 10
196.500000100
 20
101.135194245
 30
0.000000000
 10
196.500000100
 20
101.153275801
 30
0.000000000
 10
196.500000100
 20
101.174906706
 30
0.000000000
 10
196.500000100
 20
101.196537612
 30
0.000000000
 10
196.500000100
 20
101.218168518
 30
0.000000000
 10
196.500000100
 20
101.243076751
 30
0.000000000
 10
196.500000100
 20
101.267984985
 30
0.000000000
 10
196.500000100
 20
101.292893219
 30
0.000000000
 10
196.500000100
 20
101.320765545
 30
0.000000000
 10
196.500000100
 20
101.348637872
 30
0.000000000
 10
196.500000100
 20
101.376510198
 30
0.000000000
 10
196.500000100
 20
101.436231233
 30
0.000000000
 10
196.500000100
 20
101.499433254
 30
0.000000000
 10
196.500000100
 20
101.566116261
 30
0.000000000
 10
196.500000100
 20
101.701836753
 30
0.000000000
 10
196.500000100
 20
101.850207115
 30
0.000000000
 10
196.500000100
 20
102.000000000
 30
0.000000000
  0
LINE
  5
ABA
330
A02
100
AcDbEntity
  8
ProjItem002
100
AcDbLine
 10
196.500000100
 20
100.000000000
 30
0.000000000
 11
196.500000100
 21
101.000000000
 31
0.000000000
  0
ARC
  5
ABB
330
A02
100
AcDbEntity
  8
ProjItem002
100
AcDbCircle
 10
180.500000100
 20
102.000000000
 30
0.000000000
 40
1.000000000
100
AcDbArc
 50
180.000000000
 51
-90.000000000
  0
LINE
  5
ABC
330
A02
100
AcDbEntity
  8
ProjItem002
100
AcDbLine
 10
180.500000100
 20
100.000000000
 30
0.000000000
 11
180.500000100
 21
101.000000000
 31
0.000000000
  0
LINE
  5
ABD
330
A02
100
AcDbEntity
  8
ProjItem002
100
AcDbLine
 10
179.500000100
 20
102.000000000
 30
0.000000000
 11
178.500000100
 21
102.000000000
 31
0.000000000
  0
LINE
  5
ABE
330
A02
100
AcDbEntity
  8
ProjItem002
100
AcDbLine
 10
178.500000100
 20
102.000000000
 30
0.000000000
 11
179.500000100
 21
102.000000000
 31
0.000000000
  0
LINE
  5
ABF
330
A02
100
AcDbEntity
  8
ProjItem002
100
AcDbLine
 10
178.500000100
 20
110.000000000
 30
0.000000000
 11
178.500000100
 21
102.000000000
 31
0.000000000
  0
SPLINE
  5
AC0
330
A02
100
AcDbEntity
  8
ProjItem002
100
AcDbSpline
210
0
220
0
230
1
 70
8
 71
3
 72
35
 73
31
 74
0
 40
0.000000000
 40
0.000000000
 40
0.000000000
 40
0.000000000
 40
0.112199738
 40
0.112199738
 40
0.112199738
 40
0.224399475
 40
0.224399475
 40
0.224399475
 40
0.336599213
 40
0.336599213
 40
0.336599213
 40
0.448798951
 40
0.448798951
 40
0.448798951
 40
0.560998688
 40
0.560998688
 40
0.560998688
 40
0.673198426
 40
0.673198426
 40
0.673198426
 40
0.785398163
 40
0.785398163
 40
0.785398163
 40
0.897597901
 40
0.897597901
 40
0.897597901
 40
1.121997376
 40
1.121997376
 40
1.121997376
 40
1.570796327
 40
1.570796327
 40
1.570796327
 40
1.570796327
 10
180.500000100
 20
101.000000000
 30
0.000000000
 10
180.500000100
 20
101.002095930
 30
0.000000000
 10
180.500000100
 20
101.004191860
 30
0.000000000
 10
180.500000100
 20
101.006287790
 30
0.000000000
 10
180.500000100
 20
101.012549223
 30
0.000000000
 10
180.500000100
 20
101.018810655
 30
0.000000000
 10
180.500000100
 20
101.025072088
 30
0.000000000
 10
180.500000100
 20
101.035420282
 30
0.000000000
 10
180.500000100
 20
101.045768476
 30
0.000000000
 10
180.500000100
 20
101.056116670
 30
0.000000000
 10
180.500000100
 20
101.070421490
 30
0.000000000
 10
180.500000100
 20
101.084726311
 30
0.000000000
 10
180.500000100
 20
101.099031132
 30
0.000000000
 10
180.500000100
 20
101.117112688
 30
0.000000000
 10
180.500000100
 20
101.135194245
 30
0.000000000
 10
180.500000100
 20
101.153275801
 30
0.000000000
 10
180.500000100
 20
101.174906706
 30
0.000000000
 10
180.500000100
 20
101.196537612
 30
0.000000000
 10
180.500000100
 20
101.218168518
 30
0.000000000
 10
180.500000100
 20
101.243076751
 30
0.000000000
 10
180.500000100
 20
101.267984985
 30
0.000000000
 10
180.500000100
 20
101.292893219
 30
0.000000000
 10
180.500000100
 20
101.320765545
 30
0.000000000
 10
180.500000100
 20
101.348637872
 30
0.000000000
 10
180.500000100
 20
101.376510198
 30
0.000000000
 10
180.500000100
 20
101.436231233
 30
0.000000000
 10
180.500000100
 20
101.499433254
 30
0.000000000
 10
180.500000100
 20
101.566116261
 30
0.000000000
 10
180.500000100
 20
101.701836753
 30
0.000000000
 10
180.500000100
 20
101.850207115
 30
0.000000000
 10
180.500000100
 20
102.000000000
 30
0.000000000
  0
SPLINE
  5
AC1
330
A02
100
AcDbEntity
  8
ProjItem002
100
AcDbSpline
210
0
220
0
230
1
 70
8
 71
3
 72
35
 73
31
 74
0
 40
0.000000000
 40
0.000000000
 40
0.000000000
 40
0.000000000
 40
0.112199738
 40
0.112199738
 40
0.112199738
 40
0.224399475
 40
0.224399475
 40
0.224399475
 40
0.336599213
 40
0.336599213
 40
0.336599213
 40
0.448798951
 40
0.448798951
 40
0.448798951
 40
0.560998688
 40
0.560998688
 40
0.560998688
 40
0.673198426
 40
0.673198426
 40
0.673198426
 40
0.785398163
 40
0.785398163
 40
0.785398163
 40
0.897597901
 40
0.897597901
 40
0.897597901
 40
1.121997376
 40
1.121997376
 40
1.121997376
 40
1.570796327
 40
1.570796327
 40
1.570796327
 40
1.570796327
 10
196.500000100
 20
101.000000000
 30
0.000000000
 10
196.500000100
 20
101.002095930
 30
0.000000000
 10
196.500000100
 20
101.004191860
 30
0.000000000
 10
196.500000100
 20
101.006287790
 30
0.000000000
 10
196.500000100
 20
101.012549223
 30
0.000000000
 10
196.500000100
 20
101.018810655
 30
0.000000000
 10
196.500000100
 20
101.025072088
 30
0.000000000
 10
196.500000100
 20
101.035420282
 30
0.000000000
 10
196.500000100
 20
101.045768476
 30
0.000000000
 10
196.500000100
 20
101.056116670
 30
0.000000000
 10
196.500000100
 20
101.070421490
 30
0.000000000
 10
196.500000100
 20
101.084726311
 30
0.000000000
 10
196.500000100
 20
101.099031132
 30
0.000000000
 10
196.500000100
 20
101.117112688
 30
0.000000000
 10
196.500000100
 20
101.135194245
 30
0.000000000
 10
196.500000100
 20
101.153275801
 30
0.000000000
 10
196.500000100
 20
101.174906706
 30
0.000000000
 10
196.500000100
 20
101.196537612
 30
0.000000000
 10
196.500000100
 20
101.218168518
 30
0.000000000
 10
196.500000100
 20
101.243076751
 30
0.000000000
 10
196.500000100
 20
101.267984985
 30
0.000000000
 10
196.500000100
 20
101.292893219
 30
0.000000000
 10
196.500000100
 20
101.320765545
 30
0.000000000
 10
196.500000100
 20
101.348637872
 30
0.000000000
 10
196.500000100
 20
101.376510198
 30
0.000000000
 10
196.500000100
 20
101.436231233
 30
0.000000000
 10
196.500000100
 20
101.499433254
 30
0.000000000
 10
196.500000100
 20
101.566116261
 30
0.000000000
 10
196.500000100
 20
101.701836753
 30
0.000000000
 10
196.500000100
 20
101.850207115
 30
0.000000000
 10
196.500000100
 20
102.000000000
 30
0.000000000
  0
LINE
  5
AC2
330
A02
100
AcDbEntity
  8
ProjItem002
100
AcDbLine
 10
196.500000100
 20
100.000000000
 30
0.000000000
 11
196.500000100
 21
101.000000000
 31
0.000000000
  0
LINE
  5
AC3
330
A02
100
AcDbEntity
  8
ProjItem002
100
AcDbLine
 10
179.600000100
 20
102.000000000
 30
0.000000000
 11
180.500000100
 21
102.000000000
 31
0.000000000
  0
LINE
  5
AC4
330
A02
100
AcDbEntity
  8
ProjItem002
100
AcDbLine
 10
196.500000100
 20
102.000000000
 30
0.000000000
 11
197.400000100
 21
102.000000000
 31
0.000000000
  0
LINE
  5
AC5
330
A02
100
AcDbEntity
  8
ProjItem002
100
AcDbLine
 10
197.400000100
 20
102.000000000
 30
0.000000000
 11
197.400000100
 21
110.000000000
 31
0.000000000
  0
LINE
  5
AC6
330
A02
100
AcDbEntity
  8
ProjItem002
100
AcDbLine
 10
197.400000100
 20
110.000000000
 30
0.000000000
 11
179.600000100
 21
110.000000000
 31
0.000000000
  0
LINE
  5
AC7
330
A02
100
AcDbEntity
  8
ProjItem002
100
AcDbLine
 10
179.600000100
 20
110.000000000
 30
0.000000000
 11
179.600000100
 21
102.000000000
 31
0.000000000
  0
ARC
  5
AC8
330
A02
100
AcDbEntity
  8
ProjItem002
100
AcDbCircle
 10
196.500000100
 20
102.000000000
 30
0.000000000
 40
1.000000000
100
AcDbArc
 50
-90.000000000
 51
0.000000000
  0
LINE
  5
AC9
330
A02
100
AcDbEntity
  8
ProjItem002
100
AcDbLine
 10
197.500000100
 20
102.000000000
 30
0.000000000
 11
198.500000100
 21
102.000000000
 31
0.000000000
  0
LINE
  5
ACA
330
A02
100
AcDbEntity
  8
ProjItem002
100
AcDbLine
 10
198.500000100
 20
102.000000000
 30
0.000000000
 11
197.500000100
 21
102.000000000
 31
0.000000000
  0
LINE
  5
ACB
330
A02
100
AcDbEntity
  8
ProjItem002
100
AcDbLine
 10
198.500000100
 20
110.000000000
 30
0.000000000
 11
198.500000100
 21
102.000000000
 31
0.000000000
  0
LINE
  5
ACC
330
A02
100
AcDbEntity
  8
ProjItem002
100
AcDbLine
 10
196.500000100
 20
101.000000000
 30
0.000000000
 11
180.500000100
 21
101.000000000
 31
0.000000000
  0
LINE
  5
ACD
330
A02
100
AcDbEntity
  8
ProjItem002
100
AcDbLine
 10
196.500000100
 20
102.000000000
 30
0.000000000
 11
180.500000100
 21
102.000000000
 31
0.000000000
  0
LINE
  5
ACE
330
A02
100
AcDbEntity
  8
ProjItem002
100
AcDbLine
 10
179.600000100
 20
102.000000000
 30
0.000000000
 11
180.500000100
 21
102.000000000
 31
0.000000000
  0
LINE
  5
ACF
330
A02
100
AcDbEntity
  8
ProjItem002
100
AcDbLine
 10
196.500000100
 20
102.000000000
 30
0.000000000
 11
197.400000100
 21
102.000000000
 31
0.000000000
  0
LINE
  5
AD0
330
A02
100
AcDbEntity
  8
ProjItem002
100
AcDbLine
 10
197.400000100
 20
102.000000000
 30
0.000000000
 11
197.400000100
 21
110.000000000
 31
0.000000000
  0
LINE
  5
AD1
330
A02
100
AcDbEntity
  8
ProjItem002
100
AcDbLine
 10
197.400000100
 20
110.000000000
 30
0.000000000
 11
179.600000100
 21
110.000000000
 31
0.000000000
  0
LINE
  5
AD2
330
A02
100
AcDbEntity
  8
ProjItem002
100
AcDbLine
 10
179.600000100
 20
110.000000000
 30
0.000000000
 11
179.600000100
 21
102.000000000
 31
0.000000000
  0
LINE
  5
AD3
330
A02
100
AcDbEntity
  8
ProjItem002
100
AcDbLine
 10
178.500000100
 20
102.000000000
 30
0.000000000
 11
179.500000100
 21
102.000000000
 31
0.000000000
  0
LINE
  5
AD4
330
A02
100
AcDbEntity
  8
ProjItem002
100
AcDbLine
 10
178.500000100
 20
110.000000000
 30
0.000000000
 11
179.500000100
 21
110.000000000
 31
0.000000000
  0
LINE
  5
AD5
330
A02
100
AcDbEntity
  8
ProjItem002
100
AcDbLine
 10
179.500000100
 20
110.000000000
 30
0.000000000
 11
179.500000100
 21
102.000000000
 31
0.000000000
  0
LINE
  5
AD6
330
A02
100
AcDbEntity
  8
ProjItem002
100
AcDbLine
 10
196.500000100
 20
101.000000000
 30
0.000000000
 11
180.500000100
 21
101.000000000
 31
0.000000000
  0
LINE
  5
AD7
330
A02
100
AcDbEntity
  8
ProjItem002
100
AcDbLine
 10
196.500000100
 20
102.000000000
 30
0.000000000
 11
180.500000100
 21
102.000000000
 31
0.000000000
  0
LINE
  5
AD8
330
A02
100
AcDbEntity
  8
ProjItem002
100
AcDbLine
 10
179.600000100
 20
102.000000000
 30
0.000000000
 11
180.500000100
 21
102.000000000
 31
0.000000000
  0
LINE
  5
AD9
330
A02
100
AcDbEntity
  8
ProjItem002
100
AcDbLine
 10
196.500000100
 20
102.000000000
 30
0.000000000
 11
197.400000100
 21
102.000000000
 31
0.000000000
  0
LINE
  5
ADA
330
A02
100
AcDbEntity
  8
ProjItem002
100
AcDbLine
 10
197.400000100
 20
102.000000000
 30
0.000000000
 11
197.400000100
 21
110.000000000
 31
0.000000000
  0
LINE
  5
ADB
330
A02
100
AcDbEntity
  8
ProjItem002
100
AcDbLine
 10
197.400000100
 20
110.000000000
 30
0.000000000
 11
179.600000100
 21
110.000000000
 31
0.000000000
  0
LINE
  5
ADC
330
A02
100
AcDbEntity
  8
ProjItem002
100
AcDbLine
 10
179.600000100
 20
110.000000000
 30
0.000000000
 11
179.600000100
 21
102.000000000
 31
0.000000000
  0
LINE
  5
ADD
330
A02
100
AcDbEntity
  8
ProjItem002
100
AcDbLine
 10
198.500000100
 20
102.000000000
 30
0.000000000
 11
197.500000100
 21
102.000000000
 31
0.000000000
  0
LINE
  5
ADE
330
A02
100
AcDbEntity
  8
ProjItem002
100
AcDbLine
 10
198.500000100
 20
110.000000000
 30
0.000000000
 11
197.500000100
 21
110.000000000
 31
0.000000000
  0
LINE
  5
ADF
330
A02
100
AcDbEntity
  8
ProjItem002
100
AcDbLine
 10
197.500000100
 20
110.000000000
 30
0.000000000
 11
197.500000100
 21
102.000000000
 31
0.000000000
  0
ENDSEC
  0
SECTION
  2
OBJECTS
  0
DICTIONARY
  5
F000
330
0
100
AcDbDictionary
  3
ACAD_GROUP
350
F001
  0
DICTIONARY
  5
F001
330
F000
100
AcDbDictionary
  0
ENDSEC
  0
EOF